<?xml version="1.0" encoding="utf-8"?>
<!-- Generator: Adobe Illustrator 22.0.1, SVG Export Plug-In . SVG Version: 6.00 Build 0)  -->
<svg version="1.1" id="Ebene_1" xmlns="http://www.w3.org/2000/svg" xmlns:xlink="http://www.w3.org/1999/xlink" x="0px" y="0px"
	 viewBox="0 0 66.5 118" style="enable-background:new 0 0 66.5 118;" xml:space="preserve">
<g>
	<g>
		<path d="M24.7,116.6h-5.2c-2.3,0-4.2-1.9-4.2-4.2V14.5c0-0.4,0.1-0.9,0.2-1.2l0.1-0.2l6.4-11.7l6.4,11.8c0.3,0.5,0.3,1,0.3,1.4
			v97.9c0,1-0.3,2-1.1,2.8C27,116.1,25.9,116.6,24.7,116.6z M17.4,13.9c-0.1,0.2-0.1,0.5-0.1,0.6v97.9c0,1.2,1.1,2.3,2.3,2.3h5.2
			c0.6,0,1.2-0.3,1.6-0.7c0.4-0.4,0.6-0.9,0.6-1.5l0,0V14.6c0-0.1,0-0.4,0-0.4l0,0l-4.8-8.8L17.4,13.9z"/>
		<polygon points="27.5,31.1 22.1,24.6 16.8,31.1 15.9,30.4 22.1,22.8 28.4,30.4 		"/>
		<polygon points="27.5,36.3 22.1,29.7 16.8,36.3 15.9,35.6 22.1,27.9 28.4,35.6 		"/>
		<path d="M24.8,71.8h-5.2V58.9h5.2V71.8z M20.7,70.7h3V60h-3V70.7z"/>
		<path d="M46.9,116.6h-5.2c-2.3,0-4.2-1.9-4.2-4.2V14.5c0-0.4,0.1-0.9,0.2-1.2l0.1-0.2l6.5-11.7l6.4,11.7c0.3,0.5,0.3,1,0.3,1.4
			v97.9C51.1,114.7,49.2,116.6,46.9,116.6z M39.6,13.9c-0.1,0.2-0.1,0.5-0.1,0.6v97.9c0,1.2,1.1,2.3,2.3,2.3h5.2
			c1.2,0,2.3-1,2.3-2.2V14.6c0-0.1,0-0.4,0-0.4l0,0l-4.8-8.8L39.6,13.9z"/>
		<polygon points="49.7,31.1 44.4,24.6 39.1,31.1 38.2,30.4 44.4,22.8 50.6,30.4 		"/>
		<polygon points="49.7,36.3 44.4,29.7 39.1,36.3 38.2,35.6 44.4,27.9 50.6,35.6 		"/>
		<path d="M46.9,71.8h-5.2V58.9h5.2V71.8z M42.8,70.7h3V60h-3V70.7z"/>
	</g>
	<g>
		<path d="M3.8,42.6H3.1c-1.6,0-2.9-1.3-2.9-2.9V28.4c0-1.6,1.3-2.9,2.9-2.9h0.8c1.6,0,2.9,1.3,2.9,2.9v11.3
			C6.7,41.4,5.5,42.6,3.8,42.6z M3.1,27.4c-0.6,0-1,0.4-1,1v11.3c0,0.6,0.4,1,1,1h0.8c0.6,0,1-0.4,1-1V28.4c0-0.6-0.4-1-1-1H3.1z"/>
		<rect x="2.6" y="41.7" width="1.9" height="73.9"/>
		<rect x="0.2" y="105.8" width="6.5" height="1.9"/>
	</g>
	<g>
		<path d="M63.4,42.6h-0.8c-1.6,0-2.9-1.3-2.9-2.9V28.4c0-1.6,1.3-2.9,2.9-2.9h0.8c1.6,0,2.9,1.3,2.9,2.9v11.3
			C66.3,41.4,65.1,42.6,63.4,42.6z M62.7,27.4c-0.6,0-1,0.4-1,1v11.3c0,0.6,0.4,1,1,1h0.8c0.6,0,1-0.4,1-1V28.4c0-0.6-0.4-1-1-1
			H62.7z"/>
		<rect x="62.2" y="41.7" width="1.9" height="73.9"/>
		<rect x="59.8" y="105.8" width="6.5" height="1.9"/>
	</g>
</g>
</svg>
