<?xml version="1.0" encoding="utf-8"?>
<!-- Generator: Adobe Illustrator 22.0.1, SVG Export Plug-In . SVG Version: 6.00 Build 0)  -->
<svg version="1.1" id="Ebene_1" xmlns="http://www.w3.org/2000/svg" xmlns:xlink="http://www.w3.org/1999/xlink" x="0px" y="0px"
	 viewBox="0 0 121.8 73.6" style="enable-background:new 0 0 121.8 73.6;" xml:space="preserve">
<g>
	<path d="M10.8,18.8l0-2L46,16.1c1.9,0,4.1-0.5,6-1.4l10.6-5c1.6-0.8,3.5-1.2,5.5-1.2h12v2h-12c-1.7,0-3.3,0.4-4.6,1l-10.6,5
		c-1.6,0.7-4,1.6-6.8,1.6L10.8,18.8z"/>
	<path d="M99.8,51l-3.9-5c-0.8-1-1.5-2.1-2.2-3.5L76.3,2h-9.6V0h10.8l18,41.7c0.6,1.2,1.1,2.2,1.9,3l0,0l3.9,5L99.8,51z"/>
	<rect x="34.2" y="35.2" transform="matrix(0.4766 -0.8791 0.8791 0.4766 -9.8964 55.7591)" width="15.3" height="2"/>
	<path d="M102.5,72c-9.8,0-17.9-8-17.9-17.9s8-17.9,17.9-17.9s17.9,8,17.9,17.9S112.3,72,102.5,72z M102.5,38.2
		c-8.8,0-15.9,7.1-15.9,15.9S93.7,70,102.5,70c8.8,0,15.9-7.1,15.9-15.9S111.2,38.2,102.5,38.2z"/>
	<path d="M102.5,58.9c-2.6,0-4.8-2.1-4.8-4.8c0-2.6,2.1-4.8,4.8-4.8c2.6,0,4.8,2.1,4.8,4.8C107.2,56.8,105.1,58.9,102.5,58.9z
		 M102.5,51.3c-1.5,0-2.8,1.3-2.8,2.8c0,1.5,1.3,2.8,2.8,2.8c1.5,0,2.8-1.3,2.8-2.8C105.3,52.6,104,51.3,102.5,51.3z"/>
	<path d="M71.6,37.1l-1.7-1c5.7-9.9,16.4-16,27.8-16c3,0,6,0.4,8.8,1.2l-0.5,1.9c-2.7-0.7-5.5-1.1-8.3-1.1
		C87,22.1,77,27.9,71.6,37.1z"/>
	<path d="M19.3,71C9.5,71,1.5,63,1.5,53.1s8-17.9,17.7-17.9c6,0,11.4,2.9,14.9,7.9l-1.6,1.1c-3.1-4.5-7.9-7-13.3-7
		c-8.7,0-15.8,7.1-15.8,15.9S10.6,69,19.3,69c8.8,0,15.9-7.1,15.9-15.9h2C37.2,63,29.2,71,19.3,71z"/>
	<path d="M19.2,57.3l-0.2,0c-2-0.4-3.4-1.2-4.1-2.4c-0.6-1.1-0.6-2.4,0-3.7l0-0.1c0.4-0.9,1.1-1.5,2-1.9l0,0l28.9-10.1
		c0.7-0.2,1.4-0.7,1.9-1.3l6.5-7.3H40.5c-1.2,0-2.3-0.3-3.2-0.9L20.4,18.8l1.1-1.7l16.9,10.7c0.6,0.4,1.3,0.6,2.1,0.6h21
		c2.3,0,4.6,1.1,6,2.9l4,4.8l0,0.3c1,7.4-0.2,12.9-3.6,16.2c-4.3,4.2-10.5,3.6-12.3,3.3l-0.1,0c-0.1,0-0.2-0.1-0.3-0.1
		c-0.3-0.1-0.8-0.2-1.1-0.5l-6.3-3.6c-0.2-0.1-0.4-0.2-0.6-0.1l0,0L19.2,57.3z M16.7,51.9c-0.2,0.5-0.4,1.3,0,2
		c0.4,0.7,1.2,1.1,2.5,1.4l27.5-5.6c0.7-0.2,1.5,0,2.1,0.4l6.4,3.7l0.1,0.1c0.1,0,0.2,0,0.3,0.1c0.1,0,0.2,0,0.4,0.1
		c1.2,0.2,6.9,0.9,10.6-2.7c2.9-2.8,3.9-7.6,3.1-14.3l-3.6-4.3c-1.1-1.3-2.9-2.2-4.5-2.2h-4.6L49.3,39c-0.8,0.9-1.8,1.6-2.8,1.9
		L17.7,51C17.3,51.2,17,51.4,16.7,51.9z"/>
</g>
</svg>
