<?xml version="1.0" encoding="utf-8"?>
<!-- Generator: Adobe Illustrator 22.0.1, SVG Export Plug-In . SVG Version: 6.00 Build 0)  -->
<svg version="1.1" id="Ebene_1" xmlns="http://www.w3.org/2000/svg" xmlns:xlink="http://www.w3.org/1999/xlink" x="0px" y="0px"
	 viewBox="0 0 83 83.1" style="enable-background:new 0 0 83 83.1;" xml:space="preserve">
<g>
	<path d="M34.9,55.5c-7-0.1-13.3-1.9-18.6-5.4c-4.9-3.3-9.2-8.2-12.7-14.6C0,28.9-0.9,21.9,1,15c1.1-3.7,2.8-6.6,5.1-8.8
		C8.7,3.7,11.6,2,14.9,1c7.1-2,14.2-1.1,20.6,2.6c1,0.5,2,1.1,2.9,1.6l-0.9,1.4c-0.9-0.5-1.9-1.1-2.8-1.6l0,0
		c-6-3.5-12.7-4.3-19.4-2.4c-3.1,0.9-5.7,2.5-8.1,4.7c-2.1,2-3.7,4.7-4.7,8.1c-1.8,6.4-1,13.1,2.4,19.3c7,12.8,16.7,19,29.8,19.1
		c5,0,9.8-2,13.2-5.6l0.2-0.2c3.6-3.6,5.6-8.4,5.6-13.3c0-2.1-0.1-3.7-0.4-5.1l1.6-0.3c0.3,1.5,0.5,3.2,0.5,5.4
		c0,5.3-2.2,10.6-6.1,14.4l-0.2,0.2C45.5,53.3,40.3,55.5,34.9,55.5z"/>
	<path d="M46.9,32.3c-8.3,0-15.1-6.8-15.1-15.1S38.5,2,46.9,2C55.2,2,62,8.8,62,17.1S55.2,32.3,46.9,32.3z M46.9,3.7
		c-7.4,0-13.5,6-13.5,13.5s6,13.5,13.5,13.5s13.5-6,13.5-13.5S54.3,3.7,46.9,3.7z"/>
	<path d="M60.5,18.2c-3.8,0-7.5-1.6-10.3-4.4c-2.9-2.9-4.5-7-4.4-11.1l1,0c-0.1,3.8,1.4,7.7,4.1,10.4c2.8,2.8,6.6,4.3,10.4,4.1
		l0.1,1C61,18.2,60.8,18.2,60.5,18.2z"/>
	<path d="M48,31.5l-1-0.1c0.2-3.8-1.3-7.6-4.1-10.4c-2.7-2.7-6.5-4.2-10.4-4.1l0-1c4.2-0.1,8.2,1.5,11.1,4.4
		C46.7,23.4,48.3,27.4,48,31.5z"/>
	<path d="M77,83C77,83,77,83,77,83c-1.1,0-2.2-0.5-3.1-1.5c-1.7-1.7-3.5-3.5-5.3-5.3c-4.4-4.4-9-8.9-13.2-13.4
		c-4-4.1-7.9-6.4-12.1-7.1c-1.6-0.3-3.6-0.6-5.8-0.4l-0.1-1.7c2.3-0.1,4.5,0.2,6.1,0.5c4.6,0.7,8.7,3.1,13,7.6
		c4.2,4.5,8.8,9,13.2,13.3c1.8,1.8,3.6,3.5,5.3,5.3c0.6,0.6,1.2,1,1.8,1c0.6,0,1.3-0.3,1.9-0.9l0.1-0.1c0.2-0.2,0.5-0.4,0.7-0.7
		c0.1-0.2,0.3-0.3,0.5-0.5c1.6-1.6,1.6-2.7,0-4.3c-2-2-4-4-6-6c-2.6-2.6-5.3-5.3-7.9-8c-0.8-0.9-1.7-1.7-2.6-2.6
		c-3-2.9-6.1-5.8-7.8-9.9c-1.4-3-1.8-6.1-2.1-9.2l0-0.1l0.8-0.1h-0.9v-0.7h1.7V39l0.1,0l0,0.1c0.3,2.9,0.7,5.9,2,8.7
		c1.6,3.8,4.6,6.6,7.5,9.4c0.9,0.8,1.8,1.7,2.7,2.6c2.5,2.7,5.2,5.4,7.9,8c2,2,4,4,6,6c2.3,2.3,2.3,4.4,0,6.7
		c-0.1,0.1-0.3,0.3-0.4,0.4c-0.3,0.3-0.6,0.6-0.9,0.9C79.1,82.6,78,83,77,83z"/>
	<rect x="51.6" y="55.9" transform="matrix(0.7253 -0.6885 0.6885 0.7253 -23.3445 54.2449)" width="9.3" height="1"/>
</g>
</svg>
