<?xml version="1.0" encoding="utf-8"?>
<!-- Generator: Adobe Illustrator 22.0.1, SVG Export Plug-In . SVG Version: 6.00 Build 0)  -->
<svg version="1.1" id="Ebene_1" xmlns="http://www.w3.org/2000/svg" xmlns:xlink="http://www.w3.org/1999/xlink" x="0px" y="0px"
	 viewBox="0 0 98.4 70.3" style="enable-background:new 0 0 98.4 70.3;" xml:space="preserve">
<g>
	<path d="M89.3,69.9c-0.2,0-0.5-0.1-0.6-0.3L78.5,57.9C68.3,59.7,36.8,62.3,26,26.4c-0.1-0.4,0.1-0.9,0.6-1
		c35.9-10.8,51.2,17,55.3,26.5l15.4,1.9c0.3,0,0.5,0.2,0.6,0.4c0.1,0.2,0.1,0.5,0,0.8l-7.8,14.5C89.9,69.7,89.7,69.8,89.3,69.9
		C89.4,69.9,89.4,69.9,89.3,69.9z M78.9,56.2c0.2,0,0.5,0.1,0.6,0.3l9.7,11.2l6.7-12.4l-14.7-1.8c-0.3,0-0.5-0.2-0.7-0.5
		c-2-4.9-6.7-14.1-15.4-20.7c-10.2-7.9-22.8-9.8-37.3-5.6c4.5,14.4,13,23.9,25.2,28.1c10.3,3.5,20.5,2.4,25.7,1.4
		C78.8,56.2,78.8,56.2,78.9,56.2z"/>
	<path d="M37.6,46.3c-0.1,0-0.2,0-0.2-0.1c-0.2-0.1-0.3-0.4-0.2-0.7c6.5-11.9,8-20.5,6.3-21.4c-0.2-0.1-0.3-0.4-0.2-0.7
		c0.1-0.2,0.4-0.3,0.7-0.2c3.1,1.7-0.6,12.9-6,22.7C38,46.2,37.8,46.3,37.6,46.3z"/>
	<path d="M38,32.9c-1.4,0-2.5-1.1-2.5-2.5c0-1.4,1.1-2.5,2.5-2.5c1.4,0,2.5,1.1,2.5,2.5C40.5,31.8,39.4,32.9,38,32.9z M38,28.8
		c-0.9,0-1.6,0.7-1.6,1.6s0.7,1.6,1.6,1.6s1.6-0.7,1.6-1.6S38.8,28.8,38,28.8z"/>
	<path d="M73.8,40.7c-0.4,0-0.7-0.2-0.8-0.6c-0.1-0.4,0.1-0.9,0.6-1l8.4-2.5l-6.5-4.8c-5.3-3.9-11.9-5.6-18.4-4.7
		c-0.5,0.1-0.9-0.3-0.9-0.7c-0.1-0.5,0.3-0.9,0.7-0.9c7-1,13.9,0.8,19.6,5l7.8,5.8c0.3,0.2,0.4,0.5,0.3,0.8
		c-0.1,0.3-0.3,0.6-0.6,0.6l-9.9,3C74,40.7,73.9,40.7,73.8,40.7z"/>
	<path d="M45.2,61c-0.4,0-1-0.2-1.6-1c0-0.1-0.1-0.1-0.1-0.2l-4.2-11.2c-0.2-0.4,0.1-0.9,0.5-1.1c0.4-0.2,0.9,0.1,1.1,0.5L45,59.1
		c0.1,0.1,0.1,0.2,0.2,0.2l13.1-3c0.4-0.1,0.9,0.2,1,0.6c0.1,0.4-0.2,0.9-0.6,1l-13.1,3C45.4,61,45.3,61,45.2,61z"/>
	<path d="M14.5,68.8c-4.5,0-8.1-3.5-8.1-8.1v-36c0-0.5,0.4-0.8,0.8-0.8c0.5,0,0.8,0.4,0.8,0.8v36c0,3.6,2.8,6.4,6.4,6.4
		s6.4-2.8,6.4-6.4v-7.4l-2.8,2.8c-0.3,0.3-0.8,0.3-1.2,0s-0.3-0.8,0-1.2l4.2-4.2c0.2-0.2,0.6-0.3,0.9-0.2c0.3,0.1,0.5,0.4,0.5,0.8
		v9.4C22.5,65.2,19,68.8,14.5,68.8z"/>
	<path d="M7.3,25.5c-3.8,0-6.9-3.1-6.9-6.9s3.1-6.9,6.9-6.9s6.9,3.1,6.9,6.9S11,25.5,7.3,25.5z M7.3,13.5c-2.9,0-5.2,2.3-5.2,5.2
		s2.3,5.2,5.2,5.2s5.2-2.3,5.2-5.2S10.1,13.5,7.3,13.5z"/>
	<path d="M7.4,13.1c-0.3,0-0.5-0.2-0.5-0.5V0.8c0-0.3,0.2-0.5,0.5-0.5c0.3,0,0.5,0.2,0.5,0.5v11.8C7.9,12.9,7.6,13.1,7.4,13.1z"/>
</g>
</svg>
