<?xml version="1.0" encoding="utf-8"?>
<!-- Generator: Adobe Illustrator 22.0.1, SVG Export Plug-In . SVG Version: 6.00 Build 0)  -->
<svg version="1.1" id="Ebene_1" xmlns="http://www.w3.org/2000/svg" xmlns:xlink="http://www.w3.org/1999/xlink" x="0px" y="0px"
	 viewBox="0 0 98.3 109.3" enable-background="new 0 0 98.3 109.3" xml:space="preserve">
<g>
	<path fill="none" stroke="#000000" stroke-width="5" stroke-linecap="round" stroke-linejoin="round" stroke-miterlimit="10" d="
		M21.5,47.9"/>
	<path fill="none" stroke="#000000" stroke-width="5" stroke-linecap="round" stroke-linejoin="round" stroke-miterlimit="10" d="
		M49.1,45.7"/>
	<path fill="none" stroke="#000000" stroke-width="5" stroke-linecap="round" stroke-linejoin="round" stroke-miterlimit="10" d="
		M76.8,47.8"/>
	<path d="M49.2,109.3c-0.2,0-0.3-0.1-0.4-0.2C41,99,32.3,87.9,23.8,77.2C16.2,67.7,8.4,57.7,1.4,48.6c-0.2-0.2-0.1-0.6,0.1-0.8
		C1.7,47.7,2,47.7,2.2,48c7,9.1,14.8,19,22.4,28.6c8.5,10.7,17.2,21.7,24.9,31.9c0.2,0.2,0.1,0.6-0.1,0.8
		C49.4,109.3,49.3,109.3,49.2,109.3z"/>
	<path d="M49.1,109.3c-0.1,0-0.2,0-0.3-0.1c-0.2-0.2-0.3-0.5-0.1-0.8c9.1-11.7,19.4-24.9,29.4-37.6c6.3-8,12.3-15.6,17.9-22.9
		c0.2-0.2,0.5-0.3,0.8-0.1c0.2,0.2,0.3,0.5,0.1,0.8C91.3,55.9,85.3,63.5,79,71.5c-10,12.7-20.3,25.8-29.4,37.6
		C49.5,109.2,49.3,109.3,49.1,109.3z"/>
	<path d="M49.2,109.3c-0.2,0-0.4-0.1-0.5-0.3L21,48.1c-0.1-0.3,0-0.6,0.3-0.7c0.3-0.1,0.6,0,0.7,0.3l27.7,60.8
		c0.1,0.3,0,0.6-0.3,0.7C49.3,109.3,49.2,109.3,49.2,109.3z"/>
	<path d="M49.2,109.3c-0.3,0-0.6-0.2-0.6-0.6l-0.1-63c0-0.3,0.2-0.6,0.6-0.6c0,0,0,0,0,0c0.3,0,0.6,0.2,0.6,0.6l0.1,63
		C49.7,109.1,49.5,109.3,49.2,109.3C49.2,109.3,49.2,109.3,49.2,109.3z"/>
	<path d="M49.1,109.3c-0.1,0-0.2,0-0.2,0c-0.3-0.1-0.4-0.5-0.3-0.7l27.7-60.9c0.1-0.3,0.5-0.4,0.7-0.3c0.3,0.1,0.4,0.5,0.3,0.7
		L49.7,109C49.6,109.2,49.4,109.3,49.1,109.3z"/>
	<path d="M1.8,49.2c-0.2,0-0.3,0-0.5-0.1c-0.3-0.2-0.5-0.5-0.5-0.8C0.9,21.7,22.5,0,49.2,0c26.6,0,48.3,21.7,48.3,48.3
		c0,0.3-0.2,0.6-0.5,0.8c-0.3,0.2-0.6,0.2-0.9,0c-6.4-3.7-12.7-3.9-18.8-0.6c-0.4,0.2-0.9,0.1-1.1-0.2c-3.4-4.1-7.9-6.5-12.7-6.9
		c-4.8-0.4-9.7,1.4-13.8,4.9c-0.4,0.3-0.9,0.3-1.2,0c-4-3.6-8.5-5.2-13.5-4.9c-5,0.4-9.2,2.7-12.7,7c-0.3,0.3-0.8,0.4-1.2,0.2
		c-6.3-3.4-12.6-3.3-18.8,0.4C2.1,49.2,2,49.2,1.8,49.2z M11.9,44.4c3.1,0,6.2,0.8,9.3,2.4c3.8-4.4,8.3-6.8,13.6-7.1
		c5.2-0.4,10,1.2,14.3,4.8c4.3-3.5,9.4-5.3,14.5-4.9c5,0.4,9.8,2.9,13.5,7c6-3.1,12.3-3,18.5,0.2C94.7,21.9,74.2,1.9,49.2,1.9
		c-25.1,0-45.6,20-46.4,44.8C5.8,45.2,8.8,44.4,11.9,44.4z"/>
	<path d="M96.5,49.2c-0.5,0-0.9-0.4-0.9-0.9c0-25.6-20.8-46.4-46.4-46.4S2.7,22.7,2.7,48.3c0,0.5-0.4,0.9-0.9,0.9s-0.9-0.4-0.9-0.9
		C0.9,21.7,22.5,0,49.2,0c26.6,0,48.3,21.7,48.3,48.3C97.4,48.8,97,49.2,96.5,49.2z"/>
</g>
</svg>
