<?xml version="1.0" encoding="utf-8"?>
<!-- Generator: Adobe Illustrator 22.0.1, SVG Export Plug-In . SVG Version: 6.00 Build 0)  -->
<svg version="1.1" id="Ebene_1" xmlns="http://www.w3.org/2000/svg" xmlns:xlink="http://www.w3.org/1999/xlink" x="0px" y="0px"
	 viewBox="0 0 132.5 123.2" style="enable-background:new 0 0 132.5 123.2;" xml:space="preserve">
<g>
	<path d="M3,123.2c-1.6,0-3-1.3-3-3v-8.6c0-1.6,1.3-3,3-3s3,1.3,3,3v8.6C5.9,121.9,4.6,123.2,3,123.2z M3,110.8
		c-0.5,0-0.8,0.4-0.8,0.8v8.6c0,0.5,0.4,0.8,0.8,0.8c0.5,0,0.8-0.4,0.8-0.8v-8.6C3.8,111.1,3.4,110.8,3,110.8z"/>
	<path d="M3,110.8c-0.6,0-1.1-0.5-1.1-1.1V28.2c0-0.6,0.5-1.1,1.1-1.1S4,27.6,4,28.2v81.5C4,110.3,3.5,110.8,3,110.8z"/>
	<path d="M8.2,38H3c-0.6,0-1.1-0.5-1.1-1.1s0.5-1.1,1.1-1.1h5.3c0.6,0,1.1,0.5,1.1,1.1S8.8,38,8.2,38z"/>
	<path d="M8.2,69.2H3c-0.6,0-1.1-0.5-1.1-1.1c0-0.6,0.5-1.1,1.1-1.1h5.3c0.6,0,1.1,0.5,1.1,1.1C9.3,68.8,8.8,69.2,8.2,69.2z"/>
	<path d="M129.5,123.2c-1.6,0-3-1.3-3-3v-8.6c0-1.6,1.3-3,3-3c1.6,0,3,1.3,3,3v8.6C132.5,121.9,131.2,123.2,129.5,123.2z
		 M129.5,110.8c-0.4,0-0.8,0.3-0.8,0.8v8.6c0,0.4,0.3,0.8,0.8,0.8c0.4,0,0.8-0.3,0.8-0.8v-8.6C130.4,111.2,130.1,110.8,129.5,110.8z
		"/>
	<path d="M129.5,110.8c-0.6,0-1.1-0.5-1.1-1.1V28.2c0-0.6,0.5-1.1,1.1-1.1s1.1,0.5,1.1,1.1v81.5
		C130.6,110.3,130.1,110.8,129.5,110.8z"/>
	<path d="M129.5,38h-5.3c-0.6,0-1.1-0.5-1.1-1.1s0.5-1.1,1.1-1.1h5.3c0.6,0,1.1,0.5,1.1,1.1S130.1,38,129.5,38z"/>
	<path d="M129.5,69.2h-5.3c-0.6,0-1.1-0.5-1.1-1.1c0-0.6,0.5-1.1,1.1-1.1h5.3c0.6,0,1.1,0.5,1.1,1.1
		C130.6,68.8,130.1,69.2,129.5,69.2z"/>
	<path d="M123.5,72.1H8.9c-0.6,0-1.1-0.5-1.1-1.1V33.9c0-0.6,0.5-1.1,1.1-1.1h114.6c0.6,0,1.1,0.5,1.1,1.1v37.2
		C124.6,71.7,124.1,72.1,123.5,72.1z M10,70h112.5V35H10V70z"/>
	<g>
		<path d="M30.7,17.4c-3.6,0-6.4-2.9-6.4-6.4s2.9-6.4,6.4-6.4s6.4,2.9,6.4,6.4S34.3,17.4,30.7,17.4z M30.7,6.6
			c-2.4,0-4.3,1.9-4.3,4.3s1.9,4.3,4.3,4.3s4.3-1.9,4.3-4.3S33.1,6.6,30.7,6.6z"/>
		<path d="M30.7,4.8c-0.6,0-1.1-0.5-1.1-1.1V1.1c0-0.6,0.5-1.1,1.1-1.1c0.6,0,1.1,0.5,1.1,1.1v2.7C31.8,4.3,31.3,4.8,30.7,4.8z"/>
		<path d="M30.7,21.9c-0.6,0-1.1-0.5-1.1-1.1v-2.7c0-0.6,0.5-1.1,1.1-1.1c0.6,0,1.1,0.5,1.1,1.1v2.7C31.8,21.4,31.3,21.9,30.7,21.9z
			"/>
		<path d="M23.5,12h-2.7c-0.6,0-1.1-0.5-1.1-1.1c0-0.6,0.5-1.1,1.1-1.1h2.7c0.6,0,1.1,0.5,1.1,1.1C24.6,11.5,24.1,12,23.5,12z"/>
		<path d="M40.6,12h-2.7c-0.6,0-1.1-0.5-1.1-1.1c0-0.6,0.5-1.1,1.1-1.1h2.7c0.6,0,1.1,0.5,1.1,1.1C41.7,11.5,41.2,12,40.6,12z"/>
		<path d="M25.6,6.9c-0.3,0-0.5-0.1-0.7-0.3L23,4.7c-0.4-0.4-0.4-1.1,0-1.5c0.4-0.4,1.1-0.4,1.5,0l1.9,1.9c0.4,0.4,0.4,1.1,0,1.5
			C26.2,6.8,25.9,6.9,25.6,6.9z"/>
		<path d="M37.7,19c-0.3,0-0.5-0.1-0.7-0.3l-1.9-1.9c-0.4-0.4-0.4-1.1,0-1.5c0.4-0.4,1.1-0.4,1.5,0l1.9,1.9c0.4,0.4,0.4,1.1,0,1.5
			C38.3,18.9,38,19,37.7,19z"/>
		<path d="M23.7,19c-0.3,0-0.5-0.1-0.7-0.3c-0.4-0.4-0.4-1.1,0-1.5l1.9-1.9c0.4-0.4,1.1-0.4,1.5,0c0.4,0.4,0.4,1.1,0,1.5l-1.9,1.9
			C24.3,18.9,24,19,23.7,19z"/>
		<path d="M35.8,6.9c-0.3,0-0.5-0.1-0.7-0.3c-0.4-0.4-0.4-1.1,0-1.5L37,3.2c0.4-0.4,1.1-0.4,1.5,0c0.4,0.4,0.4,1.1,0,1.5l-1.9,1.9
			C36.4,6.8,36.1,6.9,35.8,6.9z"/>
	</g>
	<path d="M123.5,46.5H8.9c-0.3,0-0.6-0.3-0.6-0.6s0.3-0.6,0.6-0.6h114.6c0.3,0,0.6,0.3,0.6,0.6S123.9,46.5,123.5,46.5z"/>
	<path d="M123.5,60H8.9c-0.3,0-0.6-0.3-0.6-0.6s0.3-0.6,0.6-0.6h114.6c0.3,0,0.6,0.3,0.6,0.6S123.9,60,123.5,60z"/>
	<path d="M20.6,71.7c-0.3,0-0.6-0.3-0.6-0.6V33.9c0-0.3,0.3-0.6,0.6-0.6s0.6,0.3,0.6,0.6v37.2C21.3,71.4,21,71.7,20.6,71.7z"/>
	<path d="M32.1,71.7c-0.3,0-0.6-0.3-0.6-0.6V33.9c0-0.3,0.3-0.6,0.6-0.6c0.3,0,0.6,0.3,0.6,0.6v37.2C32.8,71.4,32.5,71.7,32.1,71.7z
		"/>
	<path d="M43.6,71.7c-0.3,0-0.6-0.3-0.6-0.6V33.9c0-0.3,0.3-0.6,0.6-0.6s0.6,0.3,0.6,0.6v37.2C44.2,71.4,44,71.7,43.6,71.7z"/>
	<path d="M55,71.7c-0.3,0-0.6-0.3-0.6-0.6V33.9c0-0.3,0.3-0.6,0.6-0.6s0.6,0.3,0.6,0.6v37.2C55.6,71.4,55.4,71.7,55,71.7z"/>
	<path d="M66.5,71.7c-0.3,0-0.6-0.3-0.6-0.6V33.9c0-0.3,0.3-0.6,0.6-0.6s0.6,0.3,0.6,0.6v37.2C67.1,71.4,66.8,71.7,66.5,71.7z"/>
	<path d="M78,71.7c-0.3,0-0.6-0.3-0.6-0.6V33.9c0-0.3,0.3-0.6,0.6-0.6s0.6,0.3,0.6,0.6v37.2C78.6,71.4,78.3,71.7,78,71.7z"/>
	<path d="M89.5,71.7c-0.3,0-0.6-0.3-0.6-0.6V33.9c0-0.3,0.3-0.6,0.6-0.6s0.6,0.3,0.6,0.6v37.2C90.1,71.4,89.8,71.7,89.5,71.7z"/>
	<path d="M101,71.7c-0.3,0-0.6-0.3-0.6-0.6V33.9c0-0.3,0.3-0.6,0.6-0.6s0.6,0.3,0.6,0.6v37.2C101.6,71.4,101.3,71.7,101,71.7z"/>
	<path d="M112.4,71.7c-0.3,0-0.6-0.3-0.6-0.6V33.9c0-0.3,0.3-0.6,0.6-0.6s0.6,0.3,0.6,0.6v37.2C113,71.4,112.7,71.7,112.4,71.7z"/>
</g>
</svg>
