<?xml version="1.0" encoding="utf-8"?>
<!-- Generator: Adobe Illustrator 22.0.1, SVG Export Plug-In . SVG Version: 6.00 Build 0)  -->
<svg version="1.1" id="Ebene_1" xmlns="http://www.w3.org/2000/svg" xmlns:xlink="http://www.w3.org/1999/xlink" x="0px" y="0px"
	 viewBox="0 0 88.8 77.9" style="enable-background:new 0 0 88.8 77.9;" xml:space="preserve">
<g>
	<path d="M54.3,77.6H1c-0.3,0-0.5-0.1-0.6-0.3c-0.1-0.2-0.2-0.5-0.1-0.7l26.6-59.4c0.1-0.3,0.4-0.4,0.7-0.4c0,0,0,0,0,0
		c0.3,0,0.6,0.2,0.7,0.4L55,76.6c0.1,0.2,0.1,0.5-0.1,0.7C54.8,77.5,54.6,77.6,54.3,77.6z M2.1,76.1h51L27.6,19.3L2.1,76.1z"/>
	<path d="M87.8,77.6H54.3c-0.4,0-0.8-0.3-0.8-0.8s0.3-0.8,0.8-0.8h32.4L53.8,2.9L37.7,38.7c-0.2,0.4-0.6,0.6-1,0.4
		c-0.4-0.2-0.6-0.6-0.4-1L53.1,0.7c0.1-0.3,0.4-0.4,0.7-0.4c0,0,0,0,0,0c0.3,0,0.6,0.2,0.7,0.4l34,75.8c0.1,0.2,0.1,0.5-0.1,0.7
		C88.3,77.5,88.1,77.6,87.8,77.6z"/>
	<path d="M38.2,54.1c-0.1,0-0.1,0-0.2,0c-2.8-0.1-5.8-2.2-9.1-6.6c-4.7-5.9-15.1,1.9-15.2,1.9c-0.2,0.2-0.5,0.1-0.6-0.1
		c-0.2-0.2-0.1-0.5,0.1-0.6c0.1-0.1,2.8-2.1,6.1-3.4c4.6-1.7,8.1-1.2,10.3,1.6c3.1,4.1,6,6.1,8.4,6.2c1.5,0,3-0.7,4.4-2.3
		c0.2-0.2,0.5-0.2,0.6,0c0.2,0.2,0.2,0.5,0,0.6C41.7,53.3,40,54.1,38.2,54.1z"/>
	<path d="M66.5,29.9c-0.2,0-0.3-0.1-0.4-0.3c-2.4-5.6-5.3-5.1-9-4.5c-0.9,0.1-1.9,0.3-2.9,0.4c-4.9,0.4-9.1-5.4-9.3-5.6
		c-0.1-0.2-0.1-0.5,0.1-0.6c0.2-0.1,0.5-0.1,0.6,0.1c0,0.1,4.1,5.6,8.5,5.3c0.9,0,1.9-0.2,2.8-0.3c3.6-0.6,7.2-1.2,9.9,5.1
		c0.1,0.2,0,0.5-0.2,0.6C66.7,29.9,66.6,29.9,66.5,29.9z"/>
</g>
</svg>
