<?xml version="1.0" encoding="utf-8"?>
<!-- Generator: Adobe Illustrator 22.0.1, SVG Export Plug-In . SVG Version: 6.00 Build 0)  -->
<svg version="1.1" id="Ebene_1" xmlns="http://www.w3.org/2000/svg" xmlns:xlink="http://www.w3.org/1999/xlink" x="0px" y="0px"
	 viewBox="0 0 80.8 75.9" style="enable-background:new 0 0 80.8 75.9;" xml:space="preserve">
<g>
	<path d="M31.8,44.2l0.1-0.9c2.2-19.5,7.9-28.7,12.6-34.5c0.8-1.1,1.7-2,2.5-3c0.4-0.5,0.8-0.9,1.2-1.4c3.4-3.9,7.9-5.3,13.2-3.9
		c7.4,2,13.2,8.5,14.3,15.9c0.6,4.2-0.7,7.9-3.8,11C63.1,36,52.1,41.2,38.2,43.3l-0.8,0.1c-1.5,0.2-3,0.4-4.7,0.7L31.8,44.2z
		 M57.5,1.4c-3.2,0-6,1.3-8.3,3.9c-0.4,0.5-0.8,1-1.2,1.4c-0.8,0.9-1.6,1.9-2.4,2.9c-8.4,10.4-11,22.9-12.2,32.8
		c1.4-0.2,2.6-0.4,3.8-0.5l0.8-0.1c13.6-2,24.4-7.1,32.9-15.5c2.8-2.8,3.9-6.1,3.4-9.8C73.3,9.8,67.9,3.7,61,1.9
		C59.8,1.6,58.6,1.4,57.5,1.4z"/>
	<rect x="21.3" y="47.3" transform="matrix(0.7114 -0.7028 0.7028 0.7114 -25.6788 33.443)" width="13.2" height="1.4"/>
	<path d="M76.1,44c-2.6,0-4.7-2.1-4.7-4.7c0-2.6,2.1-4.7,4.7-4.7c2.6,0,4.7,2.1,4.7,4.7C80.8,41.9,78.7,44,76.1,44z M76.1,36
		c-1.8,0-3.3,1.5-3.3,3.3c0,1.8,1.5,3.3,3.3,3.3c1.8,0,3.3-1.5,3.3-3.3C79.4,37.5,77.9,36,76.1,36z"/>
	<path d="M2.7,75.7c-0.6,0-1.1-0.2-1.6-0.6l0,0l-0.3-0.3c-0.8-0.8-0.8-2.1,0-3.1l0,0L20.3,52c0.8-0.8,2.1-0.8,3.1,0l0,0l0.3,0.3
		c0.8,0.8,0.8,2.1,0,3.1l0,0L4.2,75c-0.3,0.4-0.8,0.6-1.3,0.6C2.9,75.7,2.8,75.7,2.7,75.7z M2.1,74c0.2,0.2,0.5,0.3,0.8,0.2
		c0.2,0,0.3-0.1,0.3-0.2L3.2,74l19.5-19.5c0.3-0.4,0.3-0.9,0-1.2L22.5,53c-0.4-0.3-0.9-0.3-1.2,0L1.8,72.6c-0.3,0.4-0.3,0.9,0,1.2
		L2.1,74z"/>
</g>
</svg>
