<?xml version="1.0" encoding="utf-8"?>
<!-- Generator: Adobe Illustrator 22.0.1, SVG Export Plug-In . SVG Version: 6.00 Build 0)  -->
<svg version="1.1" id="Ebene_1" xmlns="http://www.w3.org/2000/svg" xmlns:xlink="http://www.w3.org/1999/xlink" x="0px" y="0px"
	 viewBox="0 0 41.5 113.9" style="enable-background:new 0 0 41.5 113.9;" xml:space="preserve">
<g>
	<path d="M12.2,114.1c-0.1,0-0.1,0-0.2,0c-0.3-0.1-0.5-0.2-0.6-0.5c-4.9-11-10.9-28.2-11.4-48.3C-0.5,42,6.2,20.2,20.1,0.4
		C20.2,0.1,20.5,0,20.8,0c0.3,0,0.5,0.1,0.7,0.4C53,45.5,40.3,90.7,30,113.6c-0.1,0.3-0.3,0.4-0.6,0.5c-0.3,0-0.6,0-0.8-0.2
		l-7.8-7.8l-7.9,7.8C12.7,114,12.4,114.1,12.2,114.1z M20.8,2.3C7.6,21.6,1.2,42.7,1.8,65.2c0.5,19.1,6,35.7,10.7,46.5l7.7-7.6
		c0.3-0.3,0.9-0.3,1.2,0l7.6,7.6C38.9,89,50.4,45.8,20.8,2.3z"/>
	<path d="M20.8,65c-0.3,0-0.5-0.2-0.5-0.5V0.8c0-0.3,0.2-0.5,0.5-0.5s0.5,0.2,0.5,0.5v63.7C21.3,64.8,21,65,20.8,65z"/>
	<path d="M20.8,105.2c-0.3,0-0.5-0.2-0.5-0.5V73c0-0.3,0.2-0.5,0.5-0.5s0.5,0.2,0.5,0.5v31.6C21.3,105,21,105.2,20.8,105.2z"/>
	<path d="M40,73.5H1.9c-0.3,0-0.5-0.2-0.5-0.5s0.2-0.5,0.5-0.5H40c0.3,0,0.5,0.2,0.5,0.5S40.3,73.5,40,73.5z"/>
	<path d="M40,65.4H1.9c-0.3,0-0.5-0.2-0.5-0.5c0-0.3,0.2-0.5,0.5-0.5H40c0.3,0,0.5,0.2,0.5,0.5C40.5,65.2,40.3,65.4,40,65.4z"/>
</g>
</svg>
