<?xml version="1.0" encoding="utf-8"?>
<!-- Generator: Adobe Illustrator 22.0.1, SVG Export Plug-In . SVG Version: 6.00 Build 0)  -->
<svg version="1.1" id="Ebene_1" xmlns="http://www.w3.org/2000/svg" xmlns:xlink="http://www.w3.org/1999/xlink" x="0px" y="0px"
	 viewBox="0 0 117.7 80.7" style="enable-background:new 0 0 117.7 80.7;" xml:space="preserve">
<g>
	<path d="M94.2,50.7c-0.4,0-0.8-0.2-0.9-0.6L78.9,8.1c-0.1-0.3-0.1-0.6,0.1-0.9c0.2-0.2,0.5-0.4,0.8-0.4h13.7c4.1,0,7.2,3.2,7.2,7.2
		c0,4-3.2,7.2-7.2,7.2c-1.7,0-3.2-0.5-4.3-1.5c-0.4-0.3-0.4-0.9-0.1-1.3c0.3-0.4,0.9-0.4,1.3-0.1c0.7,0.6,1.9,1,3.1,1
		c2.9,0,5.3-2.4,5.3-5.3c0-3-2.3-5.3-5.3-5.3H81.1l13.9,40.6c0.2,0.5-0.1,1-0.6,1.2C94.4,50.6,94.3,50.7,94.2,50.7z"/>
	<path d="M56.7,50.9C56.7,50.9,56.7,50.9,56.7,50.9l-33.2-0.3c-0.5,0-0.9-0.4-0.9-1c0-0.5,0.4-0.9,0.9-0.9c0,0,0,0,0,0L56.7,49
		c0.5,0,0.9,0.4,0.9,1C57.7,50.5,57.2,50.9,56.7,50.9z"/>
	<path d="M48.6,8.8H35.8c-0.5,0-0.9-0.4-0.9-0.9s0.4-0.9,0.9-0.9h12.7c0.5,0,0.9,0.4,0.9,0.9S49.1,8.8,48.6,8.8z"/>
	<path d="M84.9,23.8H47.6c-0.5,0-0.9-0.4-0.9-0.9c0-0.5,0.4-0.9,0.9-0.9h37.3c0.5,0,0.9,0.4,0.9,0.9C85.9,23.3,85.5,23.8,84.9,23.8z
		"/>
	<path d="M56.7,50.9c-0.4,0-0.8-0.3-0.9-0.6L41.7,8.1c-0.2-0.5,0.1-1,0.6-1.2c0.5-0.2,1,0.1,1.2,0.6l14.1,42.2
		c0.2,0.5-0.1,1-0.6,1.2C56.9,50.9,56.8,50.9,56.7,50.9z"/>
	<path d="M23.5,50.7c-0.2,0-0.5-0.1-0.6-0.2c-0.4-0.3-0.4-0.9-0.1-1.3l24.1-26.9c0.3-0.4,0.9-0.4,1.3-0.1c0.4,0.3,0.4,0.9,0.1,1.3
		L24.2,50.3C24,50.5,23.8,50.7,23.5,50.7z"/>
	<path d="M56.7,50.9c-0.2,0-0.5-0.1-0.7-0.3c-0.4-0.4-0.4-1,0-1.3l28.2-27.2c0.4-0.4,1-0.4,1.3,0c0.4,0.4,0.4,1,0,1.3L57.4,50.7
		C57.2,50.8,57,50.9,56.7,50.9z"/>
	<path d="M23.5,73.2C10.5,73.2,0,62.7,0,49.7s10.5-23.5,23.5-23.5S47,36.7,47,49.7S36.5,73.2,23.5,73.2z M23.5,28.1
		c-11.9,0-21.6,9.7-21.6,21.6s9.7,21.6,21.6,21.6s21.6-9.7,21.6-21.6S35.4,28.1,23.5,28.1z"/>
	<path d="M94.2,73.2c-13,0-23.5-10.5-23.5-23.5s10.5-23.5,23.5-23.5s23.5,10.5,23.5,23.5S107.2,73.2,94.2,73.2z M94.2,28.1
		c-11.9,0-21.6,9.7-21.6,21.6s9.7,21.6,21.6,21.6s21.6-9.7,21.6-21.6S106.1,28.1,94.2,28.1z"/>
</g>
</svg>
