<?xml version="1.0" encoding="utf-8"?>
<!-- Generator: Adobe Illustrator 22.0.1, SVG Export Plug-In . SVG Version: 6.00 Build 0)  -->
<svg version="1.1" id="Ebene_1" xmlns="http://www.w3.org/2000/svg" xmlns:xlink="http://www.w3.org/1999/xlink" x="0px" y="0px"
	 viewBox="0 0 82.3 82.1" style="enable-background:new 0 0 82.3 82.1;" xml:space="preserve">
<g>
	<path d="M41.2,82.1C18.1,82.1,0,75.3,0,66.6s18.1-15.5,41.2-15.5s41.2,6.8,41.2,15.5S64.2,82.1,41.2,82.1z M41.2,52.7
		c-21.4,0-39.5,6.4-39.5,13.9c0,7.5,18.1,13.9,39.5,13.9s39.5-6.4,39.5-13.9C80.7,59.1,62.6,52.7,41.2,52.7z"/>
	<path d="M23.6,64.9c-2.9,0-6-0.8-6-2.7c0-1.8,3.1-2.7,6-2.7c2.9,0,6,0.8,6,2.7C29.7,64,26.5,64.9,23.6,64.9z M19.2,62.2
		c0.2,0.3,1.7,1.1,4.4,1.1c2.7,0,4.2-0.7,4.4-1.1c-0.2-0.3-1.7-1.1-4.4-1.1S19.5,61.9,19.2,62.2z M28.1,62.2L28.1,62.2L28.1,62.2z"
		/>
	<path d="M23.6,60.1c-0.4,0-0.8-0.4-0.8-0.8V21.6c0,0,0,0,0,0V1c0-0.3,0.1-0.5,0.4-0.7c0.2-0.1,0.5-0.2,0.7-0.1L45,8.6
		c0.3,0.1,0.5,0.4,0.5,0.7c0,0.3-0.1,0.6-0.4,0.8L24.4,22.1v37.2C24.4,59.7,24.1,60.1,23.6,60.1z M24.4,2.2v18.1L42.9,9.5L24.4,2.2z
		"/>
</g>
</svg>
