<?xml version="1.0" encoding="utf-8"?>
<!-- Generator: Adobe Illustrator 22.0.1, SVG Export Plug-In . SVG Version: 6.00 Build 0)  -->
<svg version="1.1" id="Ebene_1" xmlns="http://www.w3.org/2000/svg" xmlns:xlink="http://www.w3.org/1999/xlink" x="0px" y="0px"
	 viewBox="0 0 82.9 82.3" style="enable-background:new 0 0 82.9 82.3;" xml:space="preserve">
<g>
	<path d="M40.9,29.5C40.8,29.5,40.8,29.5,40.9,29.5c-0.5,0-0.8-0.4-0.8-0.8l0.3-5.5c0-0.4,0.4-0.8,0.8-0.8c0.4,0,0.8,0.4,0.8,0.8
		l-0.3,5.5C41.6,29.2,41.3,29.5,40.9,29.5z"/>
	<path d="M39.3,42.1C39.3,42.1,39.3,42.1,39.3,42.1c-0.5,0-0.8-0.4-0.8-0.9l0.6-6c0-0.4,0.4-0.8,0.9-0.7c0.4,0,0.8,0.4,0.7,0.9
		l-0.6,6C40.1,41.8,39.8,42.1,39.3,42.1z"/>
	<path d="M7.4,42.1c0,0-0.1,0-0.1,0c-0.4-0.1-0.8-0.5-0.7-0.9l4-31.7c0-2.4,2.1-4.4,4.6-4.4h15c1.3,0,2.8-0.5,4-1.4l3.8-2.9
		c1.1-0.9,2.6-1.1,4-0.5c1.4,0.6,2.3,1.8,2.5,3.2c0,0,0,0.1,0,0.1V4c0,0,0,0,0,0.1l-1.1,12.6c0,0.4-0.4,0.8-0.9,0.7
		c-0.4,0-0.8-0.4-0.7-0.9l1.1-12.6V3.7c-0.1-0.9-0.7-1.6-1.5-1.9c-0.8-0.3-1.7-0.2-2.4,0.3L35.1,5c-1.4,1-3.3,1.7-4.9,1.7h-15
		c-1.6,0-3,1.3-3,2.9c0,0,0,0.1,0,0.1l-4,31.7C8.1,41.8,7.8,42.1,7.4,42.1z"/>
	<path d="M78.4,63.8c-0.4,0-0.8-0.4-0.8-0.8v-4.9c0-0.1,0-0.2,0-0.2c0-0.1,0-1-2.1-1.9c0,0,0,0,0,0c-2.8-1.5-36-13.7-36.3-13.8
		c-0.4-0.2-0.6-0.6-0.5-1c0.2-0.4,0.6-0.6,1-0.5c1.4,0.5,33.4,12.3,36.5,13.9c3.1,1.4,3.1,3.2,2.9,3.7V63
		C79.2,63.5,78.9,63.8,78.4,63.8z M77.7,57.9L77.7,57.9L77.7,57.9z"/>
	<path d="M4.5,64c-0.4,0-0.8-0.3-0.8-0.8c-0.8-16.3,2.9-22,3-22.2c0.2-0.4,0.7-0.5,1.1-0.2c0.4,0.2,0.5,0.7,0.2,1.1
		c0,0.1-3.5,5.7-2.8,21.3C5.3,63.6,5,64,4.5,64C4.5,64,4.5,64,4.5,64z"/>
	<path d="M82.1,73H0.8C0.4,73,0,72.6,0,72.2v-5.4c0-2.4,2-4.5,4.5-4.5c0.4,0,0.8,0.4,0.8,0.8s-0.4,0.8-0.8,0.8
		c-1.6,0-2.9,1.3-2.9,2.9v4.6h79.7v-4.6c0-1.6-1.3-2.9-2.9-2.9c-0.4,0-0.8-0.4-0.8-0.8s0.4-0.8,0.8-0.8c2.4,0,4.5,2,4.5,4.5v5.4
		C82.9,72.6,82.5,73,82.1,73z"/>
	<path d="M13.1,82.1c-4,0-7.3-3.3-7.3-7.3c0-1.1,0.3-2.2,0.8-3c0.2-0.4,0.7-0.5,1.1-0.3c0.4,0.2,0.5,0.7,0.3,1.1
		c-0.3,0.6-0.5,1.4-0.5,2.2c0,3.1,2.5,5.7,5.7,5.7s5.7-2.5,5.7-5.7c0-0.6-0.2-1.4-0.6-2.3c-0.2-0.4,0-0.9,0.4-1.1
		c0.4-0.2,0.9,0,1.1,0.4c0.5,1.1,0.7,2.1,0.7,2.9C20.4,78.8,17.1,82.1,13.1,82.1z"/>
	<path d="M31.5,82.1c-4,0-7.3-3.3-7.3-7.3c0-0.8,0.2-1.6,0.6-2.6c0.2-0.4,0.6-0.6,1.1-0.4c0.4,0.2,0.6,0.6,0.4,1.1
		c-0.3,0.7-0.5,1.4-0.5,2c0,3.1,2.5,5.7,5.7,5.7s5.7-2.5,5.7-5.7c0-0.6-0.2-1.4-0.6-2.3c-0.2-0.4,0-0.9,0.4-1.1
		c0.4-0.2,0.9,0,1.1,0.4c0.5,1.1,0.7,2.1,0.7,2.9C38.7,78.8,35.5,82.1,31.5,82.1z"/>
	<path d="M49.8,82.1c-4,0-7.3-3.3-7.3-7.3c0-1.1,0.3-2.2,0.8-3c0.2-0.4,0.7-0.5,1.1-0.3c0.4,0.2,0.5,0.7,0.3,1.1
		c-0.3,0.6-0.5,1.4-0.5,2.2c0,3.1,2.5,5.7,5.7,5.7c3.1,0,5.7-2.5,5.7-5.7c0-0.6-0.2-1.4-0.6-2.3c-0.2-0.4,0-0.9,0.4-1.1
		c0.4-0.2,0.9,0,1.1,0.4c0.5,1.1,0.7,2.1,0.7,2.9C57.1,78.8,53.8,82.1,49.8,82.1z"/>
	<path d="M68.2,82.1c-4,0-7.3-3.3-7.3-7.3c0-1.1,0.3-2.2,0.8-3c0.2-0.4,0.7-0.5,1.1-0.3c0.4,0.2,0.5,0.7,0.3,1.1
		c-0.3,0.6-0.5,1.4-0.5,2.2c0,3.1,2.5,5.7,5.7,5.7c3.1,0,5.7-2.5,5.7-5.7c0-0.6-0.2-1.4-0.6-2.3c-0.2-0.4,0-0.9,0.4-1.1
		c0.4-0.2,0.9,0,1.1,0.4c0.5,1.1,0.7,2.1,0.7,2.9C75.5,78.8,72.2,82.1,68.2,82.1z"/>
	<path d="M44.2,23.5H26.4c-2,0-3.7-1.7-3.7-3.7s1.7-3.7,3.7-3.7h17.7c2,0,3.7,1.7,3.7,3.7c0.1,0.9-0.3,1.8-1,2.5
		C46.1,23.1,45.2,23.5,44.2,23.5z M26.4,17.7c-1,0-2.1,0.8-2.1,2.1c0,1,0.8,2.1,2.1,2.1h17.8c0.5,0,1.1-0.3,1.5-0.7
		c0.4-0.4,0.6-0.9,0.5-1.4c0,0,0,0,0-0.1c0-1-0.8-2.1-2.1-2.1H26.4z"/>
	<path d="M44.2,35.9H26.4c-2,0-3.7-1.7-3.7-3.7c0-2,1.7-3.7,3.7-3.7h17.7c2,0,3.7,1.7,3.7,3.7c0.1,0.9-0.3,1.8-1,2.5
		C46.1,35.4,45.2,35.9,44.2,35.9z M26.4,30c-1,0-2.1,0.8-2.1,2.1c0,1,0.8,2.1,2.1,2.1h17.8c0.5,0,1.1-0.3,1.5-0.7
		c0.4-0.4,0.6-0.9,0.5-1.4c0,0,0,0,0-0.1c0-1-0.8-2.1-2.1-2.1H26.4z"/>
	<g>
		<path d="M46.7,54c-0.1,0-0.1,0-0.2,0c-0.2-0.1-0.3-0.4-0.2-0.6l3.7-7.6c0.1-0.2,0.4-0.3,0.6-0.2c0.2,0.1,0.3,0.4,0.2,0.6l-3.7,7.6
			C47,53.9,46.9,54,46.7,54z"/>
		<path d="M60.6,58.4c-0.1,0-0.1,0-0.2-0.1c-0.2-0.1-0.3-0.4-0.2-0.6l3.7-7.1c0.1-0.2,0.4-0.3,0.6-0.2c0.2,0.1,0.3,0.4,0.2,0.6
			L61,58.2C61,58.3,60.8,58.4,60.6,58.4z"/>
		<path d="M53.5,55.9c-0.1,0-0.1,0-0.2,0c-0.2-0.1-0.3-0.4-0.2-0.6l3.7-7.4c0.1-0.2,0.4-0.3,0.6-0.2c0.2,0.1,0.3,0.4,0.2,0.6
			l-3.7,7.4C53.8,55.8,53.7,55.9,53.5,55.9z"/>
	</g>
	<path d="M78.4,64h-74C4.2,64,4,63.8,4,63.5S4.2,63,4.5,63h74c0.3,0,0.5,0.2,0.5,0.5S78.7,64,78.4,64z"/>
	<path d="M19.2,52.6c-0.2,0-0.4,0-0.6,0C7.9,52.5,6.9,41.5,6.9,41.4c0-0.3,0.2-0.5,0.4-0.5c0.3,0,0.5,0.2,0.5,0.4
		c0,0,0.2,2.6,1.7,5.2c1.9,3.4,5,5.1,9.1,5.2C28.7,52.1,38.9,41.1,39,41c0.2-0.2,0.5-0.2,0.7,0c0.2,0.2,0.2,0.5,0,0.7
		c-0.1,0.1-2.7,2.9-6.6,5.6C29.7,49.7,24.5,52.6,19.2,52.6z"/>
</g>
</svg>
