<?xml version="1.0" encoding="utf-8"?>
<!-- Generator: Adobe Illustrator 22.0.1, SVG Export Plug-In . SVG Version: 6.00 Build 0)  -->
<svg version="1.1" id="Ebene_1" xmlns="http://www.w3.org/2000/svg" xmlns:xlink="http://www.w3.org/1999/xlink" x="0px" y="0px"
	 viewBox="0 0 68.7 78.8" style="enable-background:new 0 0 68.7 78.8;" xml:space="preserve">
<g>
	<path d="M64.7,39.5c-0.1,0-0.3,0-0.4,0l-12.4-0.4L51.8,39c-0.4-0.2-0.8-0.4-1.1-0.7l0,0l-7.5-9c-0.2-0.3-0.2-0.7,0.1-1
		c0.3-0.2,0.7-0.2,1,0.1l7.5,9c0.1,0.1,0.4,0.2,0.6,0.3l12.2,0.4c0.6,0.1,1.2-0.1,1.7-0.5c0.5-0.4,0.8-0.9,0.8-1.5
		c0.1-1.3-0.7-2.4-2-2.6l-9.5-0.4c0,0,0,0,0,0c-0.6,0-1.2-0.3-1.5-0.8l-9.1-11c-0.2-0.3-0.2-0.7,0.1-1c0.3-0.2,0.7-0.2,1,0.1
		l9.2,11.1l0,0.1c0.1,0.2,0.2,0.2,0.3,0.2l9.6,0.4c1,0.1,1.8,0.6,2.4,1.4c0.6,0.8,0.8,1.7,0.7,2.7c-0.1,1-0.6,1.8-1.4,2.4
		C66.3,39.2,65.5,39.5,64.7,39.5z"/>
	<path d="M48,78.4c-2.6,0-4.7-2.2-4.7-4.7l0.2-14.1c0-0.2-0.1-0.4-0.2-0.5l-0.1,0l-15-10.1c-3.3-1.8-5.1-5.4-4.5-9l0-0.1l5.9-17.1
		l0,0c0.1-0.2,0-0.4,0-0.5c-0.1-0.2-0.3-0.3-0.4-0.4l-6.3-0.7c-0.2,0-0.4,0.1-0.7,0.3l-8.5,7.5c-1.3,1.3-3.6,1.2-5-0.2
		c-0.7-0.7-1-1.6-0.9-2.5c0.1-0.9,0.5-1.8,1.1-2.5l10.5-9.9c0.3-0.3,0.9-0.6,1.4-0.6l0,0c4.9,0.3,14.4,0.7,14.7,0.7l0.1,0l0.1,0
		l6.2,2.6c2.8,1.1,4.5,3.8,4.1,6.6l0,0.1l-6,19.3c0,0.2,0.2,0.4,0.3,0.5l11.9,12.1c0.5,0.5,0.7,1,0.7,1.6l-0.2,16.9
		C52.7,76.2,50.6,78.4,48,78.4z M44,57.9c0.6,0.3,0.9,1.1,0.9,1.7l-0.2,14.1c0,1.8,1.5,3.4,3.4,3.4c1.8,0,3.4-1.5,3.4-3.4l0.2-16.9
		c0-0.2-0.2-0.5-0.4-0.6L39.3,44c-0.5-0.5-0.7-1-0.7-1.6v-0.1l0-0.1l6-19.4c0.3-2.1-1.1-4.3-3.3-5.1l-6.1-2.5
		c-1.3-0.1-11.3-0.6-14.6-0.7c-0.2,0-0.4,0.1-0.4,0.2L9.7,24.6c-0.4,0.4-0.7,1-0.7,1.6c0,0.6,0.2,1.1,0.5,1.5
		c0.8,0.8,2.2,1.1,3.1,0.2l0,0l8.7-7.6l0.1,0c0.4-0.2,0.9-0.4,1.4-0.4l0.1,0l6.5,0.8c0.6,0.1,1.1,0.6,1.4,1.2c0.2,0.5,0.2,1.1,0,1.6
		l-5.8,17c-0.5,3,1.1,6,3.9,7.5l0.1,0L44,57.9z"/>
	<path d="M22.3,66.8L4.8,66.3c-2.6-0.2-4.7-2.6-4.5-5.1c0.1-1.2,0.7-2.4,1.7-3.3c1-0.9,2.2-1.3,3.5-1.2l12.6,0.5l6.4-12.8
		c0.2-0.3,0.6-0.5,0.9-0.3c0.3,0.2,0.5,0.6,0.3,0.9l-6.8,13.6L5.4,58c-0.9-0.1-1.7,0.2-2.5,0.9c-0.7,0.6-1.1,1.5-1.2,2.4
		c-0.1,1.8,1.4,3.5,3.2,3.7l17.4,0.6c0.8,0,1.5-0.4,1.7-1l0-0.1l7.7-13.6c0.2-0.3,0.6-0.4,0.9-0.3s0.4,0.6,0.3,0.9L25.3,65
		C24.8,66.1,23.7,66.8,22.3,66.8z"/>
	<path d="M45.1,14.9c-4,0-7.3-3.3-7.3-7.3s3.3-7.3,7.3-7.3c4,0,7.3,3.3,7.3,7.3S49.1,14.9,45.1,14.9z M45.1,1.7
		c-3.3,0-5.9,2.7-5.9,5.9s2.7,5.9,5.9,5.9c3.3,0,5.9-2.7,5.9-5.9S48.4,1.7,45.1,1.7z"/>
</g>
</svg>
