<svg xmlns="http://www.w3.org/2000/svg" viewBox="0 0 282.7 307.8"><path d="M46.7 209.5a13.75 13.75 0 0 0 3.5-3.3 11.94 11.94 0 0 0 2.1-4.4 17.66 17.66 0 0 0 .7-5.2 18.1 18.1 0 0 0-1.1-6.3 12.38 12.38 0 0 0-3.4-4.7 13.79 13.79 0 0 0-5.5-2.9 25 25 0 0 0-7.6-1H15.3v50.5H22v-19.7h12.8l12.6 19.7h7.3l-12.8-20.5a15.07 15.07 0 0 0 4.8-2.2zm-11.1-2.9H22v-19.1h13.6a15.32 15.32 0 0 1 4.5.6 8.77 8.77 0 0 1 3.3 1.8 8.64 8.64 0 0 1 2.1 2.9 9 9 0 0 1 .7 3.7 10 10 0 0 1-.7 3.9 8.25 8.25 0 0 1-2 3.2 9.33 9.33 0 0 1-3.3 2.1 10.78 10.78 0 0 1-4.6.9zm50.1-10.3h6.5v35.8H86V226h-.3a18.1 18.1 0 0 1-1.8 2.7 8.76 8.76 0 0 1-2.4 1.9 9.77 9.77 0 0 1-3 1.1 19.82 19.82 0 0 1-3.6.4 16 16 0 0 1-5.1-.8 11.19 11.19 0 0 1-4.2-2.5 12.5 12.5 0 0 1-2.9-4.6 19.89 19.89 0 0 1-1-6.8v-21.2h6.5v20.3a16.27 16.27 0 0 0 .6 4.7 7.14 7.14 0 0 0 1.7 3.1 5.63 5.63 0 0 0 2.6 1.7 9 9 0 0 0 3.4.5 8.19 8.19 0 0 0 3.8-.9 8.93 8.93 0 0 0 3-2.5 10.15 10.15 0 0 0 1.9-3.9 19.47 19.47 0 0 0 .7-5v-17.9zm44.6 4.6a14.6 14.6 0 0 0-5-3.5 16.44 16.44 0 0 0-6.3-1.2 22.18 22.18 0 0 0-3.7.3 13.31 13.31 0 0 0-3.4 1 7.5 7.5 0 0 0-2.8 1.8 10.88 10.88 0 0 0-2.1 2.6h-.3v-5.6h-6.2v52h6.5v-15.2c0-1-.1-2.1-.1-3.2s-.1-2.2-.1-3.2h.3a10.88 10.88 0 0 0 2.1 2.6 10.57 10.57 0 0 0 2.6 1.7 15 15 0 0 0 3.2 1 20.16 20.16 0 0 0 3.6.3 15.6 15.6 0 0 0 6.4-1.3 15 15 0 0 0 5.3-3.7 16.09 16.09 0 0 0 3.5-5.8 22.26 22.26 0 0 0 1.2-7.5 21.27 21.27 0 0 0-1.2-7.4 19.72 19.72 0 0 0-3.5-5.7zm-3.1 18.3a11.84 11.84 0 0 1-2.2 4 10.33 10.33 0 0 1-3.4 2.5 9.78 9.78 0 0 1-4.1.9 10.7 10.7 0 0 1-4.1-.8 11.65 11.65 0 0 1-3.4-2.4 10.69 10.69 0 0 1-2.2-3.9 17.18 17.18 0 0 1-.8-5.2v-.6a14.87 14.87 0 0 1 .9-5 10.58 10.58 0 0 1 2.3-3.7 10.37 10.37 0 0 1 3.3-2.3 11 11 0 0 1 4-.8 10.7 10.7 0 0 1 4.1.8 9.76 9.76 0 0 1 3.4 2.3 9.53 9.53 0 0 1 2.2 3.8 16.69 16.69 0 0 1 .8 5.2 17.18 17.18 0 0 1-.8 5.2zm21.7 18.9V233c0-1-.1-2.1-.1-3.2s-.1-2.2-.1-3.2h.3a10.88 10.88 0 0 0 2.1 2.6 10.57 10.57 0 0 0 2.6 1.7 15 15 0 0 0 3.2 1 20.16 20.16 0 0 0 3.6.3 15.6 15.6 0 0 0 6.4-1.3 15 15 0 0 0 5.3-3.7 16.09 16.09 0 0 0 3.5-5.8 22.26 22.26 0 0 0 1.2-7.5 21.27 21.27 0 0 0-1.2-7.4 16.29 16.29 0 0 0-3.3-5.6 14.6 14.6 0 0 0-5-3.5 16.44 16.44 0 0 0-6.3-1.2 22.18 22.18 0 0 0-3.7.3 13.31 13.31 0 0 0-3.4 1 7.5 7.5 0 0 0-2.8 1.8 10.88 10.88 0 0 0-2.1 2.6h-.3v-5.6h-6.2v52h6.5v-10.2zm0-24.4a14.87 14.87 0 0 1 .9-5 10.58 10.58 0 0 1 2.3-3.7 10.37 10.37 0 0 1 3.3-2.3 11 11 0 0 1 4-.8 10.7 10.7 0 0 1 4.1.8 9.76 9.76 0 0 1 3.4 2.3 9.53 9.53 0 0 1 2.2 3.8 16.69 16.69 0 0 1 .8 5.2 17.85 17.85 0 0 1-.8 5.3 11.84 11.84 0 0 1-2.2 4 10.33 10.33 0 0 1-3.4 2.5 9.78 9.78 0 0 1-4.1.9 10.7 10.7 0 0 1-4.1-.8 11.65 11.65 0 0 1-3.4-2.4 10.69 10.69 0 0 1-2.2-3.9 17.18 17.18 0 0 1-.8-5.2zM47.2 257H54v50.5h-6.8v-22.6H22v22.6h-6.8V257H22v22h25.2zm38.5 14.6h6.5v35.8H86v-6.1h-.3a18.1 18.1 0 0 1-1.8 2.7 8.76 8.76 0 0 1-2.4 1.9 9.77 9.77 0 0 1-3 1.1 19.82 19.82 0 0 1-3.6.4 16 16 0 0 1-5.1-.8 11.19 11.19 0 0 1-4.2-2.5 12.5 12.5 0 0 1-2.9-4.6 19.89 19.89 0 0 1-1-6.8v-21.2h6.5V292a16.27 16.27 0 0 0 .6 4.7 7.14 7.14 0 0 0 1.7 3.1 5.63 5.63 0 0 0 2.6 1.7 9 9 0 0 0 3.4.5 8.19 8.19 0 0 0 3.8-.9 8.93 8.93 0 0 0 3-2.5 10.15 10.15 0 0 0 1.9-3.9 19.47 19.47 0 0 0 .7-5v-18.1zm44.6 4.6a14.6 14.6 0 0 0-5-3.5 16.44 16.44 0 0 0-6.3-1.2 22.18 22.18 0 0 0-3.7.3 18.87 18.87 0 0 0-3.4.9 10.62 10.62 0 0 0-2.8 1.5 11 11 0 0 0-2.1 2.2h-.3c0-1 .1-2.1.1-3.3s.1-2.2.1-3.2v-16.3h-6.5v53.7h6.2v-6.4h.3a11.42 11.42 0 0 0 2.1 3 12.05 12.05 0 0 0 2.6 2 11 11 0 0 0 3.2 1.1 19.82 19.82 0 0 0 3.6.4 15.6 15.6 0 0 0 6.4-1.3 15 15 0 0 0 5.3-3.7 16.09 16.09 0 0 0 3.5-5.8 22.26 22.26 0 0 0 1.2-7.5 21.27 21.27 0 0 0-1.2-7.4 17.91 17.91 0 0 0-3.3-5.5zm-3.1 18.4a11.84 11.84 0 0 1-2.2 4 10.33 10.33 0 0 1-3.4 2.5 9.78 9.78 0 0 1-4.1.9 10.7 10.7 0 0 1-4.1-.8 11.65 11.65 0 0 1-3.4-2.4 10.69 10.69 0 0 1-2.2-3.9 17.18 17.18 0 0 1-.8-5.2v-.7a14.87 14.87 0 0 1 .9-5 10.58 10.58 0 0 1 2.3-3.7 10.37 10.37 0 0 1 3.3-2.3 11 11 0 0 1 4-.8 10.7 10.7 0 0 1 4.1.8 9.76 9.76 0 0 1 3.4 2.3 9.53 9.53 0 0 1 2.2 3.8 16.69 16.69 0 0 1 .8 5.2 17.85 17.85 0 0 1-.8 5.3zm35.7-22.2l-2.1 6.6-1.2-.6a7.6 7.6 0 0 0-1.1-.4 3.59 3.59 0 0 0-1.1-.2 4.1 4.1 0 0 0-1.1-.1 6.76 6.76 0 0 0-3.5.9 8.51 8.51 0 0 0-2.5 2.5 10.28 10.28 0 0 0-1.5 3.7 21.18 21.18 0 0 0-.5 4.4v18.2h-6.5v-35.8h6.2v6h.2a11.34 11.34 0 0 1 1.6-2.6 9.52 9.52 0 0 1 2.1-1.9 12.27 12.27 0 0 1 2.6-1.2 10.55 10.55 0 0 1 3.1-.4h1.2c.4 0 .8.1 1.2.1s.8.1 1.3.2c.8.3 1.2.4 1.6.6zm26.5 2.6a11.25 11.25 0 0 0-4.4-2.5 19.09 19.09 0 0 0-6.1-.9 17.84 17.84 0 0 0-5.9.9 13.73 13.73 0 0 0-4.5 2.4 10.1 10.1 0 0 0-2.8 3.7 12 12 0 0 0-1.1 4.6h6.2a7.71 7.71 0 0 1 .7-2.6 5.26 5.26 0 0 1 1.6-2 6.61 6.61 0 0 1 2.5-1.3 11.76 11.76 0 0 1 3.4-.4 11.42 11.42 0 0 1 3.3.5 5.66 5.66 0 0 1 2.4 1.4 6.36 6.36 0 0 1 1.4 2.2 8.68 8.68 0 0 1 .5 2.8 3 3 0 0 1-.2 1 1.58 1.58 0 0 1-.7.7 7.17 7.17 0 0 1-1.4.5c-.6.1-1.4.3-2.4.5l-7 1.1a23.5 23.5 0 0 0-5.4 1.4 10.5 10.5 0 0 0-3.6 2.2 7.48 7.48 0 0 0-2.1 3 11.18 11.18 0 0 0-.7 3.8 10.19 10.19 0 0 0 .8 4 8.67 8.67 0 0 0 2.3 3.1 10.56 10.56 0 0 0 3.8 2 16.13 16.13 0 0 0 5.1.7 14.48 14.48 0 0 0 3.7-.4 11 11 0 0 0 3.2-1.1 8.06 8.06 0 0 0 2.6-1.8 8.76 8.76 0 0 0 1.9-2.4h.3v5.6h6.2v-23a15.29 15.29 0 0 0-.9-5.4 12.18 12.18 0 0 0-2.7-4.3zm-3 17.3a11.76 11.76 0 0 1-.8 4.3 8.74 8.74 0 0 1-2.2 3.1 8.94 8.94 0 0 1-3.3 1.9 12.9 12.9 0 0 1-4 .6 13.86 13.86 0 0 1-3-.3 5.14 5.14 0 0 1-2.1-1 3.57 3.57 0 0 1-1.2-1.6 5.2 5.2 0 0 1 0-4 4.19 4.19 0 0 1 1.1-1.6 7.56 7.56 0 0 1 2-1.2 16 16 0 0 1 3-.8l6.8-1.1c.4-.1.9-.2 1.2-.3l1.1-.3a5.94 5.94 0 0 0 .8-.4c.2-.2.5-.4.7-.6v3.3zm19.6-7.8a16 16 0 0 0 0 10 10.69 10.69 0 0 0 2.2 3.9 8.07 8.07 0 0 0 3.3 2.5 9.15 9.15 0 0 0 4.1.9 12.5 12.5 0 0 0 3.6-.5 6.91 6.91 0 0 0 2.7-1.4 5.48 5.48 0 0 0 1.8-2.2 10.21 10.21 0 0 0 1-2.8h6.5a16.17 16.17 0 0 1-1.5 5 12.31 12.31 0 0 1-3.2 4 15.35 15.35 0 0 1-4.7 2.6 19.53 19.53 0 0 1-6.1.9 18 18 0 0 1-7.1-1.3 14.25 14.25 0 0 1-5.4-3.6 16.33 16.33 0 0 1-3.4-5.7 21.67 21.67 0 0 1-1.2-7.4 19 19 0 0 1 1.3-7.3 18.45 18.45 0 0 1 3.6-5.7 16.77 16.77 0 0 1 5.4-3.7 18.58 18.58 0 0 1 6.7-1.3 19.53 19.53 0 0 1 6.1.9 14.27 14.27 0 0 1 4.7 2.6 12.58 12.58 0 0 1 3.2 4 13.86 13.86 0 0 1 1.5 5h-6.5a9.38 9.38 0 0 0-1-2.8 7.28 7.28 0 0 0-1.8-2.2 8.67 8.67 0 0 0-2.7-1.4 13.61 13.61 0 0 0-3.6-.5 9.46 9.46 0 0 0-4.1.9 10 10 0 0 0-3.3 2.6 13.87 13.87 0 0 0-2.1 4zm61.5 1.7v21.2H261v-20.3a15.1 15.1 0 0 0-.6-4.6 7.14 7.14 0 0 0-1.7-3.1 5.63 5.63 0 0 0-2.6-1.7 9 9 0 0 0-3.4-.5 9.57 9.57 0 0 0-3.8.8 10.34 10.34 0 0 0-3.1 2.4 12.16 12.16 0 0 0-2.1 3.9 15.91 15.91 0 0 0-.7 5v18.2h-6.5v-53.7h6.5v17c0 1.1-.1 2.2-.1 3.5s-.1 2.4-.1 3.5h.3a12.71 12.71 0 0 1 1.8-2.7 9.2 9.2 0 0 1 2.5-1.9 16.59 16.59 0 0 1 3.1-1.2 14 14 0 0 1 3.7-.4 16 16 0 0 1 5.1.8 11.19 11.19 0 0 1 4.2 2.5 12.5 12.5 0 0 1 2.9 4.6 18.78 18.78 0 0 1 1.1 6.7zm-30-77.1h-16.1v-4.8h16.1v-16.1h4.8v16.1h16.1v4.8h-16.1v16.1h-4.8zM213.5 0a69.1 69.1 0 0 0-64.9 45.2v17h18v13.5h-18v17.6A69.21 69.21 0 1 0 213.5 0zm32.3 106.3h-12.6V72.7c0-20.8-30.2-21.4-30.2 6.1v27.5h-12.7V22.5H203V57c14.2-17.6 42.8-12.6 42.8 13.3zM69.2 0a69.2 69.2 0 1 0 65.4 91.8V75.6h-18V62.2h18V46.6A69.16 69.16 0 0 0 69.2 0zm19.6 61.4a16.68 16.68 0 0 0-6.2-1.2c-7.4 0-14.1 5.3-14.1 17.4v28.7h-13V47.4H68V58c2.2-5.1 7.4-11.4 16.1-11.4a17.8 17.8 0 0 1 8 1.9z"></path></svg>