<svg id="Capa_1" enable-background="new 0 0 513.003 513.003" height="512" viewBox="0 0 513.003 513.003" width="512" xmlns="http://www.w3.org/2000/svg"><g><g><g><path d="m236.873 8.48c-120.607 7.487-218.766 105.646-226.253 226.253-8.737 140.756 102.835 257.639 241.706 257.639 33.557 0 65.45-6.958 94.507-19.296l108.45-90.775c24.787-37.999 39.229-83.362 39.229-132.115 0-138.872-116.883-250.443-257.639-241.706z" fill="#00d2dc"/></g><g><path d="m269.028 350.35v.002c0 26.864 10.194 52.727 28.524 72.367l72.506 77.685c7.314 7.836 20.314 5.263 24.091-4.769l25.201-66.94z" fill="#0096d2"/></g><g><path d="m398.516 417.835c-.895.342-1.263.483-2.158.825l-10.792 28.67c-4.072 10.816-18.088 13.591-25.973 5.142l-43.724-46.85c-10.893-11.671-17.933-26.098-20.574-41.582-7.575-3.948-26.267-13.69-26.267-13.69v.002c0 26.864 10.194 52.727 28.524 72.367l72.506 77.685c7.314 7.837 20.315 5.263 24.092-4.769l25.201-66.94c0-.001-14.389-7.5-20.835-10.86z" fill="#00d2dc"/></g><g><path d="m319.136 475.67c-133.756 0-242.186-108.431-242.186-242.187 0-101.361 62.293-188.129 150.663-224.237-122.147 12.38-217.473 115.527-217.473 240.94 0 133.756 108.431 242.186 242.186 242.186 32.395 0 63.279-6.409 91.522-17.949-8.125.823-16.37 1.247-24.712 1.247z" fill="#0096d2"/></g><g><circle cx="202.218" cy="216.781" fill="#fff" r="41.756"/></g><g><path d="m483.95 179.317c-4.399-2.666-9.274-4.292-14.492-4.292-18.449 0-33.405 18.695-33.405 41.756s14.956 41.756 33.405 41.756c9.951 0 18.787-5.548 24.906-14.178-.535-22.578-4.106-44.4-10.414-65.042z" fill="#fff"/></g><g><ellipse cx="473.634" cy="216.781" fill="#0096d2" rx="12.527" ry="16.702"/></g><g><path d="m455.192 320.128c-6.959-15.659-21.81-28.185-42.104-28.185-11.03 0-21.312 3.174-29.996 8.653-8.516 5.374-19.135 5.416-27.645.033-10.337-6.538-22.944-9.807-36.383-8.339-28.897 3.156-50.035 28.993-50.035 58.061v.03l180.158 94.323c13.193 3.848 24.878 11.671 33.463 22.402l5.457 6.822c4.893 6.116 14.756 2.656 14.756-5.176v-7.004c0-22.026-4.586-43.81-13.465-63.967z" fill="#beebeb"/></g><g><circle cx="202.218" cy="216.781" fill="#0096d2" r="16.702"/></g></g><g fill="#283c64"><path d="m496.72 394.555-17.305-39.282c15.315-33.028 23.096-68.369 23.096-105.086 0-66.827-26.024-129.654-73.278-176.908s-110.08-73.279-176.907-73.279-129.655 26.024-176.909 73.278-73.277 110.081-73.277 176.908 26.024 129.654 73.277 176.908 110.081 73.278 176.908 73.278c31.379 0 61.923-5.738 90.865-17.031l21.019 22.521c4.31 4.618 10.204 7.141 16.354 7.141 1.464 0 2.945-.143 4.42-.436 7.671-1.519 13.897-6.795 16.652-14.114l22.451-59.636 30.616 16.493c.013.007.028.012.041.019.018.009.033.021.051.03.142.074 14.211 7.499 21.607 16.744l5.458 6.822c4.382 5.477 11.49 7.515 18.108 5.194 6.618-2.322 10.895-8.354 10.895-15.368v-7.004c.001-23.282-4.758-45.888-14.142-67.192zm-244.394 89.817c-62.553 0-121.362-24.359-165.594-68.592-44.233-44.232-68.592-103.041-68.592-165.594s24.359-121.363 68.591-165.595 103.041-68.591 165.595-68.591 121.362 24.359 165.594 68.591c42.269 42.269 66.373 97.853 68.431 157.292-4.692 5.582-10.663 8.654-16.893 8.654-14.008 0-25.405-15.143-25.405-33.756 0-11.322 4.301-21.857 11.505-28.182 3.32-2.915 3.649-7.969.734-11.29-2.916-3.321-7.971-3.649-11.29-.734-10.613 9.317-16.95 24.348-16.95 40.206 0 27.436 18.574 49.756 41.405 49.756 5.881 0 11.547-1.45 16.738-4.192-1.27 25.176-6.509 49.585-15.613 72.877l-8.081-18.344c-9.03-20.316-27.964-32.937-49.415-32.937-12.168 0-24.02 3.421-34.272 9.892-5.913 3.732-13.226 3.747-19.086.038-13.957-8.831-30.752-11.906-47.291-8.656-29.79 5.852-51.411 33.246-51.41 65.136 0 28.992 10.894 56.631 30.676 77.825l39.675 42.509c-25.292 9.08-51.834 13.687-79.052 13.687zm134.337 8.444c-1.142 3.032-3.727 3.847-4.786 4.056-1.06.208-3.76.441-5.97-1.927l-72.506-77.685c-14.833-15.892-23.849-36-25.913-57.417l132.386 71.317zm108.2-24.066c0 .104-.013.163-.01.163-.062.08-.291.163-.375.144-.012-.007-.059-.044-.125-.127l-5.458-6.822c-9.453-11.816-25.732-20.428-26.675-20.921l-184.505-99.395c3.291-20.454 18.178-37.02 37.807-40.876 12.508-2.458 25.167-.157 35.651 6.477 11.131 7.043 24.995 7.032 36.182-.028 7.693-4.856 16.591-7.422 25.732-7.422 15.265 0 28.271 8.761 34.783 23.411l34.207 77.652c8.484 19.259 12.786 39.695 12.786 60.741z"/><path d="m240.723 198.716c-4.283 1.087-6.873 5.44-5.785 9.723.688 2.709 1.037 5.516 1.037 8.342 0 18.613-15.143 33.756-33.756 33.756s-33.756-15.143-33.756-33.756 15.143-33.756 33.756-33.756c5.379 0 10.518 1.225 15.272 3.642 3.938 2.003 8.754.432 10.756-3.506s.432-8.754-3.506-10.756c-6.922-3.519-14.71-5.379-22.522-5.379-27.436 0-49.756 22.32-49.756 49.756s22.321 49.756 49.756 49.756 49.756-22.321 49.756-49.756c0-4.153-.514-8.285-1.529-12.279-1.087-4.284-5.446-6.876-9.723-5.787z"/></g></g></svg>