<?xml version="1.0" encoding="utf-8"?>
<!-- Generator: Adobe Illustrator 23.0.5, SVG Export Plug-In . SVG Version: 6.00 Build 0)  -->
<svg version="1.1" id="Слой_1" xmlns="http://www.w3.org/2000/svg" xmlns:xlink="http://www.w3.org/1999/xlink" x="0px" y="0px"
	 viewBox="0 0 2834 1628" style="enable-background:new 0 0 2834 1628;" xml:space="preserve">
<style type="text/css">
	.st0{fill:none;stroke:#334DC9;stroke-width:3.2;stroke-linecap:square;stroke-dasharray:8,8;}
	.st1{opacity:0.3;enable-background:new    ;}
	.st2{enable-background:new    ;}
	.st3{fill:#93989D;}
	.st4{fill:none;}
</style>
<link rel="stylesheet" href="./style/footer.css"><title>from-above</title>
<desc>Created with Sketch.</desc>
<g id="from-above">
	
		<image style="overflow:visible;enable-background:new    ;" width="3543" height="2038" id="vonoben-2-copy" xlink:href="BE0061E2.png"  transform="matrix(0.7998 0 0 0.7998 0.1477 -2.018493e-05)">
	</image>
	<path id="Line-Copy-12" class="st0" d="M600.2,250.7v328.6"/>
	<path id="Line-Copy-13" class="st0" d="M1071.2,250.7v328.6"/>
	<path id="Line-Copy-14" class="st0" d="M1628.7,250.7V658"/>
	<path id="Line-Copy-15" class="st0" d="M2548.2,250.7V658"/>
	<path id="Line-2-Copy-15" class="st1" d="M1015.8,301.3l10,5.5v-1.3l-10,5.5l-0.6,0.3l0.7,1.3l0.6-0.3l10-5.5l1.1-0.6l-1.1-0.6
		l-10-5.5l-0.6-0.3l-0.7,1.3L1015.8,301.3z M915.2,306.9h100.9h8.7h0.7v-1.4h-0.7h-8.7H915.2h-0.7v1.4H915.2z"/>
	<path id="Line-2-Copy-16" class="st1" d="M1579.8,301.3l10,5.5v-1.3l-10,5.5l-0.6,0.3l0.7,1.3l0.6-0.3l10-5.5l1.1-0.6l-1.1-0.6
		l-10-5.5l-0.6-0.3l-0.7,1.3L1579.8,301.3z M1479.2,306.9h100.9h8.7h0.7v-1.4h-0.7h-8.7h-100.9h-0.7v1.4H1479.2z"/>
	<path id="Line-2-Copy-17" class="st1" d="M2476.8,301.3l10,5.5v-1.3l-10,5.5l-0.6,0.3l0.7,1.3l0.6-0.3l10-5.5l1.1-0.6l-1.1-0.6
		l-10-5.5l-0.6-0.3l-0.7,1.3L2476.8,301.3z M2376.2,306.9h100.9h8.7h0.7v-1.4h-0.7h-8.7h-100.9h-0.7v1.4H2376.2z"/>
</g>
<g class="st2">
	<path d="M629.2,283.6h-1.9v-20.9h1.9V283.6z"/>
	<path d="M645.6,288.3v-4.7H634v4.7h-1.6V282h1.3c0.6-0.9,1.2-1.9,1.7-3s0.9-2.1,1.2-3.3c0.3-1.1,0.6-2.3,0.8-3.5s0.3-2.4,0.3-3.6
		h7.2V282h2.3v6.3H645.6z M643.1,270.3h-3.7c-0.1,2.1-0.5,4.1-1.1,6.1s-1.4,3.9-2.5,5.6h7.3V270.3z"/>
	<path d="M651.2,276.5c0,0.9,0.1,1.7,0.4,2.5c0.2,0.7,0.6,1.3,1,1.9c0.4,0.5,1,0.9,1.6,1.2c0.6,0.3,1.3,0.4,2.1,0.4
		c1.7,0,3.3-0.6,4.8-1.8v1.8c-1.4,1-3.2,1.5-5.2,1.5c-1,0-1.9-0.2-2.7-0.5c-0.8-0.4-1.5-0.9-2.1-1.5c-0.6-0.7-1-1.5-1.3-2.5
		s-0.5-2.1-0.5-3.3c0-1.1,0.2-2.2,0.5-3.1c0.3-1,0.8-1.8,1.4-2.5c0.6-0.7,1.3-1.2,2.1-1.6s1.7-0.6,2.7-0.6s1.8,0.2,2.6,0.5
		c0.7,0.3,1.4,0.8,1.9,1.4s0.9,1.4,1.1,2.3c0.3,0.9,0.4,1.9,0.4,3v0.9L651.2,276.5L651.2,276.5z M660.1,274.8c0-1.6-0.4-2.8-1.1-3.6
		c-0.7-0.9-1.7-1.3-3-1.3c-0.6,0-1.2,0.1-1.8,0.3s-1,0.5-1.4,1c-0.4,0.4-0.7,0.9-1,1.5s-0.5,1.3-0.6,2h8.9V274.8z"/>
	<path d="M674.3,283.6V281h-0.1c-0.5,1-1.1,1.7-2,2.2c-0.8,0.5-1.8,0.8-2.9,0.8c-0.7,0-1.4-0.1-1.9-0.3c-0.6-0.2-1.1-0.5-1.5-0.9
		s-0.7-0.8-0.9-1.3s-0.3-1.1-0.3-1.7c0-1.4,0.4-2.4,1.3-3.2c0.8-0.8,2.1-1.3,3.8-1.6l4.5-0.7c0-2.9-1.1-4.3-3.3-4.3
		c-1.7,0-3.4,0.6-4.8,1.9v-2c0.3-0.2,0.7-0.4,1.1-0.6c0.4-0.2,0.8-0.3,1.2-0.5c0.4-0.1,0.9-0.2,1.3-0.3c0.5-0.1,0.9-0.1,1.3-0.1
		c1.7,0,2.9,0.5,3.8,1.4c0.9,0.9,1.3,2.3,1.3,4.2v9.7h-1.9V283.6z M670.4,276.4c-0.7,0.1-1.2,0.2-1.7,0.4c-0.5,0.1-0.9,0.3-1.2,0.6
		c-0.3,0.2-0.5,0.6-0.7,0.9c-0.1,0.4-0.2,0.8-0.2,1.3c0,0.4,0.1,0.8,0.2,1.1c0.1,0.3,0.3,0.6,0.6,0.9c0.3,0.2,0.6,0.4,1,0.6
		c0.4,0.1,0.8,0.2,1.3,0.2c0.7,0,1.3-0.1,1.8-0.4s1-0.6,1.4-1s0.7-1,0.9-1.6s0.3-1.3,0.3-2v-1.5L670.4,276.4z"/>
	<path d="M689.3,283.6v-13.3h-3.9c-0.2,2.3-0.4,4.3-0.7,6s-0.7,3.1-1.1,4.2c-0.5,1.1-1,1.9-1.6,2.5c-0.6,0.5-1.4,0.8-2.3,0.8
		c-0.2,0-0.4,0-0.6,0s-0.4-0.1-0.5-0.1V282c0.1,0.1,0.3,0.1,0.5,0.1s0.3,0.1,0.5,0.1c0.6,0,1.1-0.3,1.6-0.9s0.9-1.4,1.2-2.6
		c0.3-1.1,0.6-2.6,0.9-4.2c0.2-1.7,0.4-3.6,0.6-5.9h7.4v14.9h-2V283.6z"/>
	<path d="M706.8,279c0,0.7-0.1,1.4-0.4,2c-0.3,0.6-0.6,1-1,1.4s-0.9,0.7-1.5,0.9s-1.1,0.3-1.8,0.3H696v-14.9h1.9v5.9h4.1
		c0.7,0,1.4,0.1,2,0.3c0.6,0.2,1.1,0.5,1.5,0.9s0.7,0.8,1,1.4S706.8,278.3,706.8,279z M704.9,279c0-0.9-0.3-1.5-0.8-2
		s-1.4-0.8-2.4-0.8h-3.8v5.7h3.8c0.6,0,1-0.1,1.5-0.2c0.4-0.1,0.7-0.3,1-0.6c0.3-0.3,0.5-0.6,0.6-0.9
		C704.8,279.9,704.9,279.5,704.9,279z"/>
	<path d="M720.5,283.6v-7h-8.2v7h-1.9v-14.9h1.9v6.4h8.2v-6.4h1.9v14.9H720.5z"/>
	<path d="M733.3,284c-1.1,0-2.1-0.2-3-0.6s-1.6-0.9-2.3-1.6s-1.1-1.5-1.4-2.4c-0.3-0.9-0.5-2-0.5-3.1c0-1.2,0.2-2.4,0.5-3.3
		c0.4-1,0.8-1.8,1.5-2.5c0.6-0.7,1.4-1.2,2.3-1.6c0.9-0.4,1.9-0.5,3.1-0.5c1.1,0,2.1,0.2,2.9,0.5c0.9,0.4,1.6,0.9,2.2,1.5
		c0.6,0.7,1.1,1.5,1.4,2.5c0.3,1,0.5,2.1,0.5,3.3c0,1.2-0.2,2.2-0.5,3.2s-0.8,1.8-1.4,2.5s-1.4,1.2-2.3,1.6
		C735.4,283.8,734.4,284,733.3,284z M733.4,269.9c-0.8,0-1.6,0.1-2.2,0.4c-0.7,0.3-1.2,0.7-1.7,1.2s-0.8,1.2-1.1,2s-0.4,1.7-0.4,2.7
		c0,0.9,0.1,1.8,0.4,2.5c0.3,0.7,0.6,1.4,1.1,1.9s1,0.9,1.7,1.2c0.7,0.3,1.4,0.4,2.2,0.4s1.6-0.1,2.2-0.4c0.6-0.3,1.2-0.7,1.6-1.2
		c0.4-0.5,0.8-1.2,1-1.9c0.2-0.8,0.3-1.6,0.3-2.6c0-2-0.4-3.6-1.3-4.6C736.4,270.5,735.1,269.9,733.4,269.9z"/>
	<path d="M763.7,288.3v-4.7h-11.5v4.7h-1.6V282h1.3c0.6-0.9,1.2-1.9,1.7-3s0.9-2.1,1.2-3.3c0.3-1.1,0.6-2.3,0.8-3.5s0.3-2.4,0.3-3.6
		h7.2V282h2.3v6.3H763.7z M761.2,270.3h-3.7c-0.1,2.1-0.5,4.1-1.1,6.1s-1.4,3.9-2.5,5.6h7.3V270.3z"/>
	<path d="M777.4,283.6v-13.3h-3.9c-0.2,2.3-0.4,4.3-0.7,6s-0.7,3.1-1.1,4.2c-0.5,1.1-1,1.9-1.6,2.5c-0.6,0.5-1.4,0.8-2.3,0.8
		c-0.2,0-0.4,0-0.6,0s-0.4-0.1-0.5-0.1V282c0.1,0.1,0.3,0.1,0.5,0.1s0.3,0.1,0.5,0.1c0.6,0,1.1-0.3,1.6-0.9s0.9-1.4,1.2-2.6
		c0.3-1.1,0.6-2.6,0.9-4.2c0.2-1.7,0.4-3.6,0.6-5.9h7.4v14.9h-2V283.6z"/>
	<path d="M792.1,283.6v-6.3h-2.2c-0.3,0-0.5,0-0.8,0.1s-0.5,0.2-0.8,0.4c-0.3,0.2-0.5,0.5-0.7,0.8s-0.5,0.7-0.7,1.2l-1.8,3.8h-2.2
		l2.2-4.4c0.3-0.6,0.6-1.1,1-1.5s0.8-0.7,1.3-0.9c-1.2-0.1-2.1-0.6-2.7-1.3c-0.6-0.7-0.9-1.6-0.9-2.7c0-0.6,0.1-1.1,0.3-1.6
		s0.5-1,1-1.3c0.4-0.4,1-0.7,1.6-0.9c0.7-0.2,1.4-0.3,2.3-0.3h5v14.9L792.1,283.6L792.1,283.6z M792.1,270.3h-3
		c-1.1,0-1.9,0.2-2.5,0.7c-0.5,0.5-0.8,1.1-0.8,2c0,1,0.3,1.6,0.9,2.1c0.6,0.4,1.4,0.7,2.4,0.7h3.1v-5.5H792.1z"/>
	<path d="M820.1,276.4c0,1-0.1,2-0.4,2.9c-0.3,0.9-0.7,1.7-1.3,2.4c-0.6,0.7-1.3,1.2-2.1,1.6s-1.8,0.6-2.9,0.6c-1.1,0-2.1-0.2-3-0.6
		s-1.6-1-2.2-1.8c-0.6-0.8-1-1.8-1.3-2.9c-0.3-1.2-0.4-2.5-0.4-4c0-2.4,0.2-4.4,0.6-6c0.4-1.6,1-2.8,1.8-3.7
		c0.4-0.5,0.9-0.8,1.3-1.1c0.5-0.3,1-0.5,1.6-0.7s1.2-0.4,1.9-0.5s1.4-0.3,2.2-0.4c0.4-0.1,0.9-0.2,1.3-0.3s0.8-0.3,1.3-0.5v1.8
		c-0.2,0.1-0.5,0.3-0.8,0.4s-0.7,0.2-1.2,0.3c-0.5,0.1-1,0.2-1.4,0.2c-0.5,0.1-0.9,0.2-1.3,0.3c-0.4,0.1-0.8,0.2-1.2,0.3
		c-0.4,0.1-0.7,0.2-0.9,0.3c-0.9,0.4-1.6,1.1-2.1,2.2s-0.9,2.6-1,4.6h0.1c0.3-0.4,0.6-0.8,0.9-1.2c0.4-0.3,0.8-0.6,1.2-0.9
		s0.9-0.4,1.4-0.6c0.5-0.1,1.1-0.2,1.7-0.2c1,0,1.9,0.2,2.7,0.6s1.5,0.9,2,1.6s0.9,1.5,1.2,2.4C819.9,274.4,820.1,275.4,820.1,276.4
		z M818.1,276.6c0-0.9-0.1-1.7-0.3-2.5c-0.2-0.7-0.5-1.4-0.9-1.9s-0.9-0.9-1.5-1.2c-0.6-0.3-1.3-0.4-2-0.4c-0.5,0-1,0.1-1.5,0.2
		c-0.5,0.2-0.9,0.4-1.3,0.6s-0.8,0.6-1.1,1s-0.6,0.8-0.9,1.3c0,0.3,0,0.5,0,0.9c0,0.3,0,0.6,0,0.9c0,0.9,0.1,1.7,0.3,2.5
		s0.5,1.5,0.9,2.1s0.9,1.1,1.6,1.5s1.4,0.5,2.2,0.5c0.7,0,1.4-0.2,2-0.5s1.1-0.7,1.5-1.2s0.7-1.1,0.9-1.8S818.1,277.4,818.1,276.6z"
		/>
	<path d="M832.5,283.6v-13.3h-3.9c-0.2,2.3-0.4,4.3-0.7,6s-0.7,3.1-1.1,4.2c-0.5,1.1-1,1.9-1.6,2.5c-0.6,0.5-1.4,0.8-2.3,0.8
		c-0.2,0-0.4,0-0.6,0s-0.4-0.1-0.5-0.1V282c0.1,0.1,0.3,0.1,0.5,0.1s0.3,0.1,0.5,0.1c0.6,0,1.1-0.3,1.6-0.9s0.9-1.4,1.2-2.6
		c0.3-1.1,0.6-2.6,0.9-4.2c0.2-1.7,0.4-3.6,0.6-5.9h7.4v14.9h-2V283.6z"/>
	<path d="M849.5,283.6v-12.2c-0.1,0.1-0.1,0.2-0.2,0.3c-0.1,0.1-0.1,0.2-0.2,0.3l-8.2,11.5h-1.7v-14.9h1.8v12.1
		c0-0.1,0.1-0.3,0.2-0.5c0.1-0.2,0.2-0.4,0.3-0.5l8-11.1h1.8v14.9h-1.8V283.6z"/>
	<path d="M865.9,279.5c0,0.6-0.1,1.2-0.4,1.8c-0.2,0.5-0.6,1-1.1,1.4s-1.2,0.7-2,1c-0.8,0.2-1.7,0.3-2.8,0.3c-0.5,0-0.9,0-1.4-0.1
		s-0.9-0.1-1.3-0.2c-0.4-0.1-0.8-0.2-1.1-0.3c-0.4-0.1-0.7-0.2-0.9-0.4v-1.9c0.7,0.4,1.4,0.6,2.2,0.8c0.8,0.2,1.6,0.3,2.4,0.3
		c0.8,0,1.5-0.1,2.1-0.2s1-0.3,1.4-0.6s0.6-0.5,0.8-0.9c0.2-0.3,0.2-0.7,0.2-1.1c0-1-0.4-1.7-1.2-2.2c-0.8-0.4-1.9-0.6-3.4-0.6h-1.7
		V275h1.6c1.4,0,2.4-0.2,3.1-0.6c0.7-0.4,1-1.1,1-2c0-0.7-0.3-1.3-0.9-1.8c-0.6-0.5-1.5-0.7-2.7-0.7c-0.8,0-1.5,0.1-2.3,0.3
		c-0.8,0.2-1.5,0.5-2.2,0.8v-1.8c0.7-0.3,1.4-0.5,2.2-0.7s1.6-0.3,2.4-0.3c0.9,0,1.7,0.1,2.4,0.3c0.7,0.2,1.2,0.5,1.6,0.8
		c0.4,0.3,0.8,0.8,1,1.2c0.2,0.5,0.3,1,0.3,1.6c0,0.9-0.3,1.7-0.8,2.3s-1.3,1-2.3,1.2v0.1c0.6,0,1.1,0.2,1.6,0.3
		c0.5,0.2,0.9,0.5,1.2,0.8s0.6,0.7,0.7,1.1C865.8,278.5,865.9,279,865.9,279.5z"/>
</g>
<g class="st2">
	<path class="st3" d="M641.3,328.5h-2.5V324h-11.4v4.5h-2.5v-6.9h1.4c1.1-2,1.9-4.3,2.7-6.9s1.1-5.1,1.2-7.5h8.7v14.4h2.3
		L641.3,328.5L641.3,328.5z M636.2,321.6v-12h-3.6c-0.1,1.7-0.5,3.8-1.1,6.1c-0.6,2.4-1.4,4.3-2.2,5.9H636.2z"/>
	<path class="st3" d="M651.1,324.3c-2.4,0-4.4-0.8-5.8-2.4c-1.5-1.6-2.2-3.6-2.2-6.1c0-2.7,0.7-4.9,2.2-6.5s3.5-2.4,6-2.4
		c2.4,0,4.3,0.8,5.7,2.3s2.2,3.6,2.2,6.1c0,2.7-0.7,4.9-2.2,6.5S653.6,324.3,651.1,324.3z M651.2,309.4c-1.5,0-2.8,0.6-3.8,1.7
		s-1.4,2.7-1.4,4.5c0,1.9,0.5,3.4,1.4,4.5s2.2,1.7,3.7,1.7c1.6,0,2.9-0.5,3.8-1.6c0.9-1.1,1.4-2.6,1.4-4.6s-0.5-3.6-1.4-4.6
		C654.1,309.9,652.8,309.4,651.2,309.4z"/>
	<path class="st3" d="M674,306.8V324h-2.7v-13.8c-0.5,0.4-1,0.7-1.6,0.9c-0.6,0.2-1.2,0.5-1.9,0.6v-2.3c0.5-0.1,0.9-0.3,1.3-0.5
		s0.8-0.3,1.2-0.6c0.4-0.2,0.8-0.4,1.2-0.7c0.4-0.3,0.8-0.5,1.3-0.9L674,306.8L674,306.8z"/>
	<path class="st3" d="M703.2,324h-2.8v-10.9c0-0.9,0.1-2,0.2-3.3l0,0c-0.2,0.7-0.3,1.3-0.5,1.6l-5,12.6h-1.9l-5-12.5
		c-0.1-0.4-0.3-0.9-0.4-1.7l0,0c0.1,0.7,0.1,1.8,0.1,3.3V324h-2.6v-16.8h3.9l4.4,11.2c0.3,0.9,0.6,1.5,0.7,1.9h0.1
		c0.3-0.9,0.5-1.5,0.7-2l4.5-11.1h3.8V324H703.2z"/>
	<path class="st3" d="M716.7,324h-9.4v-16.8h9.1v2.4h-6.3v4.8h5.8v2.4h-5.8v5h6.6L716.7,324L716.7,324z"/>
	<path class="st3" d="M730.5,309.6h-4.8V324h-2.8v-14.4h-4.8v-2.4h12.4L730.5,309.6L730.5,309.6z"/>
	<path class="st3" d="M735.7,317.9v6.1H733v-16.8h5.1c1.9,0,3.4,0.4,4.5,1.3s1.6,2.2,1.6,3.8s-0.6,3-1.7,4c-1.1,1-2.6,1.6-4.5,1.6
		H735.7z M735.7,309.5v6.1h1.8c1.2,0,2.1-0.3,2.7-0.8c0.6-0.6,0.9-1.3,0.9-2.3c0-2-1.1-3-3.4-3L735.7,309.5L735.7,309.5z"/>
	<path class="st3" d="M758.9,307.2l-5.2,11.6c-1,2.1-1.9,3.6-2.8,4.3c-0.9,0.8-1.9,1.1-3,1.1c-0.9,0-1.6-0.1-2.1-0.4v-2.7
		c0.7,0.4,1.3,0.6,2,0.6c0.6,0,1.1-0.2,1.5-0.6c0.5-0.4,1-1.2,1.5-2.2l-5.6-11.8h3.2l3.5,8c0.1,0.2,0.2,0.6,0.4,1.2l0,0
		c0-0.1,0.2-0.5,0.4-1.2l3.3-8h2.9V307.2z"/>
</g>
<g class="st2">
	<path d="M1165.1,283.6h-1.9v-20.9h1.9V283.6z"/>
	<path d="M1181.4,288.3v-4.7h-11.5v4.7h-1.6V282h1.3c0.6-0.9,1.2-1.9,1.7-3s0.9-2.1,1.2-3.3c0.3-1.1,0.6-2.3,0.8-3.5
		c0.2-1.2,0.3-2.4,0.3-3.6h7.2V282h2.3v6.3H1181.4z M1178.9,270.3h-3.7c-0.1,2.1-0.5,4.1-1.1,6.1s-1.4,3.9-2.5,5.6h7.3L1178.9,270.3
		L1178.9,270.3z"/>
	<path d="M1187.1,276.5c0,0.9,0.1,1.7,0.4,2.5c0.2,0.7,0.6,1.3,1,1.9c0.4,0.5,1,0.9,1.6,1.2c0.6,0.3,1.3,0.4,2.1,0.4
		c1.7,0,3.3-0.6,4.8-1.8v1.8c-1.4,1-3.2,1.5-5.2,1.5c-1,0-1.9-0.2-2.7-0.5c-0.8-0.4-1.5-0.9-2.1-1.5c-0.6-0.7-1-1.5-1.3-2.5
		s-0.5-2.1-0.5-3.3c0-1.1,0.2-2.2,0.5-3.1c0.3-1,0.8-1.8,1.4-2.5s1.3-1.2,2.1-1.6c0.8-0.4,1.7-0.6,2.7-0.6s1.8,0.2,2.6,0.5
		c0.7,0.3,1.4,0.8,1.9,1.4s0.9,1.4,1.1,2.3c0.3,0.9,0.4,1.9,0.4,3v0.9L1187.1,276.5L1187.1,276.5z M1196,274.8
		c0-1.6-0.4-2.8-1.1-3.6c-0.7-0.9-1.7-1.3-3-1.3c-0.6,0-1.2,0.1-1.8,0.3s-1,0.5-1.4,1c-0.4,0.4-0.7,0.9-1,1.5s-0.5,1.3-0.6,2h8.9
		V274.8z"/>
	<path d="M1210.2,283.6V281h-0.1c-0.5,1-1.1,1.7-2,2.2c-0.8,0.5-1.8,0.8-2.9,0.8c-0.7,0-1.4-0.1-1.9-0.3c-0.6-0.2-1.1-0.5-1.5-0.9
		s-0.7-0.8-0.9-1.3c-0.2-0.5-0.3-1.1-0.3-1.7c0-1.4,0.4-2.4,1.3-3.2c0.8-0.8,2.1-1.3,3.8-1.6l4.5-0.7c0-2.9-1.1-4.3-3.3-4.3
		c-1.7,0-3.4,0.6-4.8,1.9v-2c0.3-0.2,0.7-0.4,1.1-0.6s0.8-0.3,1.2-0.5c0.4-0.1,0.9-0.2,1.3-0.3c0.5-0.1,0.9-0.1,1.3-0.1
		c1.7,0,2.9,0.5,3.8,1.4s1.3,2.3,1.3,4.2v9.7h-1.9V283.6z M1206.3,276.4c-0.7,0.1-1.2,0.2-1.7,0.4c-0.5,0.1-0.9,0.3-1.2,0.6
		c-0.3,0.2-0.5,0.6-0.7,0.9c-0.1,0.4-0.2,0.8-0.2,1.3c0,0.4,0.1,0.8,0.2,1.1c0.1,0.3,0.3,0.6,0.6,0.9c0.3,0.2,0.6,0.4,1,0.6
		c0.4,0.1,0.8,0.2,1.3,0.2c0.7,0,1.3-0.1,1.8-0.4s1-0.6,1.4-1s0.7-1,0.9-1.6s0.3-1.3,0.3-2v-1.5L1206.3,276.4z"/>
	<path d="M1225.2,283.6v-13.3h-3.9c-0.2,2.3-0.4,4.3-0.7,6s-0.7,3.1-1.1,4.2c-0.5,1.1-1,1.9-1.6,2.5c-0.6,0.5-1.4,0.8-2.3,0.8
		c-0.2,0-0.4,0-0.6,0s-0.4-0.1-0.5-0.1V282c0.1,0.1,0.3,0.1,0.5,0.1s0.3,0.1,0.5,0.1c0.6,0,1.1-0.3,1.6-0.9s0.9-1.4,1.2-2.6
		c0.3-1.1,0.6-2.6,0.9-4.2c0.2-1.7,0.4-3.6,0.6-5.9h7.4v14.9h-2V283.6z"/>
	<path d="M1242.7,279c0,0.7-0.1,1.4-0.4,2s-0.6,1-1,1.4s-0.9,0.7-1.5,0.9s-1.1,0.3-1.8,0.3h-6.2v-14.9h1.9v5.9h4.1
		c0.7,0,1.4,0.1,2,0.3c0.6,0.2,1.1,0.5,1.5,0.9s0.7,0.8,1,1.4S1242.7,278.3,1242.7,279z M1240.8,279c0-0.9-0.3-1.5-0.8-2
		s-1.4-0.8-2.4-0.8h-3.8v5.7h3.8c0.6,0,1-0.1,1.5-0.2c0.4-0.1,0.7-0.3,1-0.6c0.3-0.3,0.5-0.6,0.6-0.9
		C1240.7,279.9,1240.8,279.5,1240.8,279z"/>
	<path d="M1256.4,283.6v-7h-8.2v7h-1.9v-14.9h1.9v6.4h8.2v-6.4h1.9v14.9H1256.4z"/>
	<path d="M1269.2,284c-1.1,0-2.1-0.2-3-0.6s-1.6-0.9-2.3-1.6s-1.1-1.5-1.4-2.4s-0.5-2-0.5-3.1c0-1.2,0.2-2.4,0.5-3.3
		c0.4-1,0.8-1.8,1.5-2.5c0.6-0.7,1.4-1.2,2.3-1.6s1.9-0.5,3.1-0.5c1.1,0,2.1,0.2,2.9,0.5c0.9,0.4,1.6,0.9,2.2,1.5
		c0.6,0.7,1.1,1.5,1.4,2.5s0.5,2.1,0.5,3.3c0,1.2-0.2,2.2-0.5,3.2s-0.8,1.8-1.4,2.5s-1.4,1.2-2.3,1.6
		C1271.3,283.8,1270.3,284,1269.2,284z M1269.3,269.9c-0.8,0-1.6,0.1-2.2,0.4c-0.7,0.3-1.2,0.7-1.7,1.2s-0.8,1.2-1.1,2
		c-0.3,0.8-0.4,1.7-0.4,2.7c0,0.9,0.1,1.8,0.4,2.5s0.6,1.4,1.1,1.9s1,0.9,1.7,1.2c0.7,0.3,1.4,0.4,2.2,0.4c0.8,0,1.6-0.1,2.2-0.4
		s1.2-0.7,1.6-1.2s0.8-1.2,1-1.9c0.2-0.8,0.3-1.6,0.3-2.6c0-2-0.4-3.6-1.3-4.6S1271,269.9,1269.3,269.9z"/>
	<path d="M1299.5,288.3v-4.7H1288v4.7h-1.6V282h1.3c0.6-0.9,1.2-1.9,1.7-3s0.9-2.1,1.2-3.3c0.3-1.1,0.6-2.3,0.8-3.5
		c0.2-1.2,0.3-2.4,0.3-3.6h7.2V282h2.3v6.3H1299.5z M1297,270.3h-3.7c-0.1,2.1-0.5,4.1-1.1,6.1s-1.4,3.9-2.5,5.6h7.3L1297,270.3
		L1297,270.3z"/>
	<path d="M1313.3,283.6v-13.3h-3.9c-0.2,2.3-0.4,4.3-0.7,6s-0.7,3.1-1.1,4.2c-0.5,1.1-1,1.9-1.6,2.5c-0.6,0.5-1.4,0.8-2.3,0.8
		c-0.2,0-0.4,0-0.6,0s-0.4-0.1-0.5-0.1V282c0.1,0.1,0.3,0.1,0.5,0.1s0.3,0.1,0.5,0.1c0.6,0,1.1-0.3,1.6-0.9s0.9-1.4,1.2-2.6
		c0.3-1.1,0.6-2.6,0.9-4.2c0.2-1.7,0.4-3.6,0.6-5.9h7.4v14.9h-2V283.6z"/>
	<path d="M1328,283.6v-6.3h-2.2c-0.3,0-0.5,0-0.8,0.1s-0.5,0.2-0.8,0.4c-0.3,0.2-0.5,0.5-0.7,0.8s-0.5,0.7-0.7,1.2l-1.8,3.8h-2.2
		l2.2-4.4c0.3-0.6,0.6-1.1,1-1.5s0.8-0.7,1.3-0.9c-1.2-0.1-2.1-0.6-2.7-1.3c-0.6-0.7-0.9-1.6-0.9-2.7c0-0.6,0.1-1.1,0.3-1.6
		c0.2-0.5,0.5-1,1-1.3c0.4-0.4,1-0.7,1.6-0.9c0.7-0.2,1.4-0.3,2.3-0.3h5v14.9L1328,283.6L1328,283.6z M1328,270.3h-3
		c-1.1,0-1.9,0.2-2.5,0.7c-0.5,0.5-0.8,1.1-0.8,2c0,1,0.3,1.6,0.9,2.1c0.6,0.4,1.4,0.7,2.4,0.7h3.1L1328,270.3L1328,270.3z"/>
	<path d="M1352.8,282.9c-1.1,0.7-2.4,1-4,1c-1.1,0-2-0.2-2.9-0.6s-1.6-0.9-2.2-1.6s-1.1-1.5-1.4-2.4s-0.5-1.9-0.5-3s0.2-2.2,0.5-3.2
		s0.8-1.8,1.5-2.6c0.7-0.7,1.4-1.3,2.4-1.7c0.9-0.4,2-0.6,3.2-0.6s2.4,0.2,3.4,0.7v2c-1.1-0.7-2.3-1.1-3.5-1.1
		c-0.9,0-1.7,0.2-2.4,0.5c-0.7,0.3-1.3,0.8-1.7,1.4c-0.5,0.6-0.8,1.3-1.1,2c-0.2,0.8-0.4,1.6-0.4,2.5c0,0.8,0.1,1.6,0.3,2.3
		c0.2,0.7,0.5,1.4,1,1.9c0.4,0.6,1,1,1.6,1.3c0.7,0.3,1.4,0.5,2.3,0.5c1.4,0,2.7-0.4,3.8-1.3L1352.8,282.9L1352.8,282.9z"/>
	<path d="M1357.3,276.5c0,0.9,0.1,1.7,0.4,2.5c0.2,0.7,0.6,1.3,1,1.9c0.4,0.5,1,0.9,1.6,1.2c0.6,0.3,1.3,0.4,2.1,0.4
		c1.7,0,3.3-0.6,4.8-1.8v1.8c-1.4,1-3.2,1.5-5.2,1.5c-1,0-1.9-0.2-2.7-0.5c-0.8-0.4-1.5-0.9-2.1-1.5c-0.6-0.7-1-1.5-1.3-2.5
		s-0.5-2.1-0.5-3.3c0-1.1,0.2-2.2,0.5-3.1c0.3-1,0.8-1.8,1.4-2.5s1.3-1.2,2.1-1.6c0.8-0.4,1.7-0.6,2.7-0.6s1.8,0.2,2.6,0.5
		c0.7,0.3,1.4,0.8,1.9,1.4s0.9,1.4,1.1,2.3c0.3,0.9,0.4,1.9,0.4,3v0.9L1357.3,276.5L1357.3,276.5z M1366.1,274.8
		c0-1.6-0.4-2.8-1.1-3.6c-0.7-0.9-1.7-1.3-3-1.3c-0.6,0-1.2,0.1-1.8,0.3s-1,0.5-1.4,1c-0.4,0.4-0.7,0.9-1,1.5s-0.5,1.3-0.6,2h8.9
		V274.8z"/>
	<path d="M1373.6,281.2v9.3h-1.9v-21.8h1.9v2.9h0.1c0.6-1,1.3-1.8,2.2-2.4s2-0.8,3.1-0.8c1,0,1.8,0.2,2.6,0.5
		c0.8,0.3,1.4,0.8,1.9,1.5s0.9,1.4,1.2,2.3s0.4,1.9,0.4,3c0,1.2-0.2,2.4-0.5,3.4s-0.8,1.9-1.3,2.6c-0.6,0.7-1.3,1.3-2.1,1.7
		s-1.8,0.6-2.8,0.6C1376.3,284,1374.7,283,1373.6,281.2L1373.6,281.2z M1373.6,277.4c0,0.7,0.1,1.3,0.3,1.9s0.5,1.1,1,1.6
		c0.4,0.5,0.9,0.8,1.5,1.1c0.6,0.3,1.2,0.4,1.9,0.4c0.7,0,1.4-0.2,2-0.5s1.1-0.8,1.5-1.3c0.4-0.6,0.7-1.3,1-2.1s0.3-1.8,0.3-2.8
		c0-0.9-0.1-1.7-0.3-2.4c-0.2-0.7-0.5-1.3-0.9-1.8s-0.9-0.9-1.4-1.1c-0.6-0.3-1.2-0.4-1.9-0.4c-0.8,0-1.5,0.1-2.1,0.4
		s-1.2,0.7-1.6,1.2s-0.8,1.1-1,1.7c-0.2,0.7-0.3,1.4-0.3,2.1V277.4z"/>
	<path d="M1389.7,276.5c0,0.9,0.1,1.7,0.4,2.5c0.2,0.7,0.6,1.3,1,1.9c0.4,0.5,1,0.9,1.6,1.2c0.6,0.3,1.3,0.4,2.1,0.4
		c1.7,0,3.3-0.6,4.8-1.8v1.8c-1.4,1-3.2,1.5-5.2,1.5c-1,0-1.9-0.2-2.7-0.5c-0.8-0.4-1.5-0.9-2.1-1.5c-0.6-0.7-1-1.5-1.3-2.5
		s-0.5-2.1-0.5-3.3c0-1.1,0.2-2.2,0.5-3.1c0.3-1,0.8-1.8,1.4-2.5s1.3-1.2,2.1-1.6c0.8-0.4,1.7-0.6,2.7-0.6s1.8,0.2,2.6,0.5
		c0.7,0.3,1.4,0.8,1.9,1.4s0.9,1.4,1.1,2.3c0.3,0.9,0.4,1.9,0.4,3v0.9L1389.7,276.5L1389.7,276.5z M1398.6,274.8
		c0-1.6-0.4-2.8-1.1-3.6c-0.7-0.9-1.7-1.3-3-1.3c-0.6,0-1.2,0.1-1.8,0.3s-1,0.5-1.4,1c-0.4,0.4-0.7,0.9-1,1.5s-0.5,1.3-0.6,2h8.9
		V274.8z"/>
	<path d="M1415.4,288.3v-4.7h-11.5v4.7h-1.6V282h1.3c0.6-0.9,1.2-1.9,1.7-3s0.9-2.1,1.2-3.3c0.3-1.1,0.6-2.3,0.8-3.5
		c0.2-1.2,0.3-2.4,0.3-3.6h7.2V282h2.3v6.3H1415.4z M1412.9,270.3h-3.7c-0.1,2.1-0.5,4.1-1.1,6.1s-1.4,3.9-2.5,5.6h7.3L1412.9,270.3
		L1412.9,270.3z"/>
	<path d="M1430.3,283.6v-7h-8.2v7h-1.9v-14.9h1.9v6.4h8.2v-6.4h1.9v14.9H1430.3z"/>
	<path d="M1447.8,279c0,0.7-0.1,1.4-0.4,2s-0.6,1-1,1.4s-0.9,0.7-1.5,0.9c-0.6,0.2-1.1,0.3-1.8,0.3h-6.2v-14.9h1.9v5.9h4.1
		c0.7,0,1.4,0.1,2,0.3s1.1,0.5,1.5,0.9s0.7,0.8,1,1.4S1447.8,278.3,1447.8,279z M1445.8,279c0-0.9-0.3-1.5-0.8-2s-1.4-0.8-2.4-0.8
		h-3.8v5.7h3.8c0.6,0,1-0.1,1.5-0.2c0.4-0.1,0.7-0.3,1-0.6c0.3-0.3,0.5-0.6,0.6-0.9C1445.8,279.9,1445.8,279.5,1445.8,279z"/>
	<path d="M1457.3,284c-1.1,0-2.1-0.2-3-0.6s-1.6-0.9-2.3-1.6s-1.1-1.5-1.4-2.4s-0.5-2-0.5-3.1c0-1.2,0.2-2.4,0.5-3.3
		c0.4-1,0.8-1.8,1.5-2.5c0.6-0.7,1.4-1.2,2.3-1.6s1.9-0.5,3.1-0.5c1.1,0,2.1,0.2,2.9,0.5c0.9,0.4,1.6,0.9,2.2,1.5
		c0.6,0.7,1.1,1.5,1.4,2.5s0.5,2.1,0.5,3.3c0,1.2-0.2,2.2-0.5,3.2s-0.8,1.8-1.4,2.5s-1.4,1.2-2.3,1.6S1458.4,284,1457.3,284z
		 M1457.5,269.9c-0.8,0-1.6,0.1-2.2,0.4c-0.7,0.3-1.2,0.7-1.7,1.2s-0.8,1.2-1.1,2s-0.4,1.7-0.4,2.7c0,0.9,0.1,1.8,0.4,2.5
		s0.6,1.4,1.1,1.9s1,0.9,1.7,1.2c0.7,0.3,1.4,0.4,2.2,0.4c0.8,0,1.6-0.1,2.2-0.4s1.2-0.7,1.6-1.2s0.8-1.2,1-1.9s0.3-1.6,0.3-2.6
		c0-2-0.4-3.6-1.3-4.6S1459.1,269.9,1457.5,269.9z"/>
	<path d="M1466.7,266.1c-0.2,0-0.3,0-0.5-0.1s-0.3-0.2-0.4-0.3c-0.1-0.1-0.2-0.2-0.3-0.4s-0.1-0.3-0.1-0.5c0-0.4,0.1-0.7,0.4-0.9
		c0.2-0.2,0.5-0.3,0.9-0.3c0.2,0,0.3,0,0.5,0.1s0.3,0.1,0.4,0.3c0.1,0.1,0.2,0.2,0.3,0.4c0.1,0.2,0.1,0.3,0.1,0.5
		c0,0.3-0.1,0.6-0.4,0.9S1467,266.1,1466.7,266.1z M1468.3,283.6v-14.9h1.9v14.9H1468.3z M1471.9,266.1c-0.3,0-0.6-0.1-0.9-0.3
		c-0.2-0.2-0.4-0.5-0.4-0.9s0.1-0.7,0.4-0.9c0.2-0.2,0.5-0.3,0.8-0.3s0.7,0.1,0.9,0.4c0.3,0.2,0.4,0.5,0.4,0.9
		c0,0.3-0.1,0.6-0.4,0.9S1472.2,266.1,1471.9,266.1z"/>
	<path d="M1492.9,279.5c0,0.6-0.1,1.2-0.4,1.8c-0.2,0.5-0.6,1-1.1,1.4s-1.2,0.7-2,1s-1.7,0.3-2.8,0.3c-0.5,0-0.9,0-1.4-0.1
		c-0.4,0-0.9-0.1-1.3-0.2s-0.8-0.2-1.1-0.3c-0.4-0.1-0.7-0.2-0.9-0.4v-1.9c0.7,0.4,1.4,0.6,2.2,0.8c0.8,0.2,1.6,0.3,2.4,0.3
		s1.5-0.1,2.1-0.2s1-0.3,1.4-0.6s0.6-0.5,0.8-0.9c0.2-0.3,0.2-0.7,0.2-1.1c0-1-0.4-1.7-1.2-2.2c-0.8-0.4-1.9-0.6-3.4-0.6h-1.8V275
		h1.6c1.4,0,2.4-0.2,3.1-0.6s1-1.1,1-2c0-0.7-0.3-1.3-0.9-1.8s-1.5-0.7-2.7-0.7c-0.8,0-1.5,0.1-2.3,0.3c-0.8,0.2-1.5,0.5-2.2,0.8
		v-1.8c0.7-0.3,1.4-0.5,2.2-0.7s1.6-0.3,2.5-0.3s1.7,0.1,2.4,0.3s1.2,0.5,1.6,0.8s0.8,0.8,1,1.2c0.2,0.5,0.3,1,0.3,1.6
		c0,0.9-0.3,1.7-0.8,2.3s-1.3,1-2.3,1.2v0.1c0.6,0,1.1,0.2,1.6,0.3s0.9,0.5,1.2,0.8c0.3,0.3,0.6,0.7,0.7,1.1
		S1492.9,279,1492.9,279.5z"/>
	<path d="M1502.8,284c-1.1,0-2.1-0.2-3-0.6s-1.6-0.9-2.3-1.6c-0.6-0.7-1.1-1.5-1.4-2.4s-0.5-2-0.5-3.1c0-1.2,0.2-2.4,0.5-3.3
		c0.3-1,0.8-1.8,1.5-2.5c0.6-0.7,1.4-1.2,2.3-1.6s1.9-0.5,3.1-0.5c1.1,0,2.1,0.2,2.9,0.5c0.9,0.4,1.6,0.9,2.2,1.5
		c0.6,0.7,1.1,1.5,1.4,2.5s0.5,2.1,0.5,3.3c0,1.2-0.2,2.2-0.5,3.2s-0.8,1.8-1.4,2.5s-1.4,1.2-2.3,1.6
		C1504.9,283.8,1503.9,284,1502.8,284z M1502.9,269.9c-0.8,0-1.6,0.1-2.2,0.4c-0.7,0.3-1.2,0.7-1.7,1.2s-0.8,1.2-1.1,2
		c-0.3,0.8-0.4,1.7-0.4,2.7c0,0.9,0.1,1.8,0.4,2.5s0.6,1.4,1.1,1.9s1,0.9,1.7,1.2c0.7,0.3,1.4,0.4,2.2,0.4c0.8,0,1.6-0.1,2.2-0.4
		s1.2-0.7,1.6-1.2s0.8-1.2,1-1.9s0.3-1.6,0.3-2.6c0-2-0.4-3.6-1.3-4.6S1504.6,269.9,1502.9,269.9z"/>
	<path d="M1523.8,283.6v-7h-8.2v7h-1.9v-14.9h1.9v6.4h8.2v-6.4h1.9v14.9H1523.8z"/>
	<path d="M1540.9,283.6v-12.2c-0.1,0.1-0.1,0.2-0.2,0.3c-0.1,0.1-0.1,0.2-0.2,0.3l-8.2,11.5h-1.7v-14.9h1.8v12.1
		c0-0.1,0.1-0.3,0.2-0.5s0.2-0.4,0.3-0.5l8-11.1h1.8v14.9h-1.8V283.6z"/>
</g>
<g class="st2">
	<path class="st3" d="M1177.1,328.5h-2.5V324h-11.4v4.5h-2.5v-6.9h1.4c1.1-2,1.9-4.3,2.7-6.9c0.7-2.6,1.1-5.1,1.2-7.5h8.7v14.4h2.3
		v6.9H1177.1z M1172,321.6v-12h-3.6c-0.1,1.7-0.5,3.8-1.1,6.1c-0.6,2.4-1.4,4.3-2.2,5.9H1172z"/>
	<path class="st3" d="M1187,324.3c-2.4,0-4.4-0.8-5.8-2.4s-2.2-3.6-2.2-6.1c0-2.7,0.7-4.9,2.2-6.5s3.5-2.4,6-2.4
		c2.4,0,4.3,0.8,5.7,2.3s2.2,3.6,2.2,6.1c0,2.7-0.7,4.9-2.2,6.5S1189.4,324.3,1187,324.3z M1187.1,309.4c-1.5,0-2.8,0.6-3.8,1.7
		s-1.4,2.7-1.4,4.5c0,1.9,0.5,3.4,1.4,4.5s2.2,1.7,3.7,1.7c1.6,0,2.9-0.5,3.8-1.6s1.4-2.6,1.4-4.6s-0.5-3.6-1.4-4.6
		C1189.9,309.9,1188.7,309.4,1187.1,309.4z"/>
	<path class="st3" d="M1214.4,324h-10.5v-1.3c0-0.5,0.1-1,0.2-1.5s0.3-0.9,0.6-1.3c0.3-0.4,0.5-0.8,0.9-1.2c0.3-0.4,0.7-0.7,1.1-1.1
		s0.8-0.7,1.2-1c0.4-0.3,0.8-0.6,1.2-1c0.4-0.3,0.7-0.6,1-0.9s0.6-0.6,0.8-0.9c0.2-0.3,0.4-0.6,0.5-1c0.1-0.3,0.2-0.7,0.2-1.1
		s-0.1-0.8-0.2-1.2s-0.3-0.6-0.6-0.8c-0.2-0.2-0.5-0.4-0.9-0.5s-0.7-0.2-1.1-0.2c-0.7,0-1.4,0.2-2.1,0.5s-1.4,0.8-2,1.4v-2.6
		c0.3-0.3,0.7-0.5,1-0.7s0.7-0.4,1.1-0.5s0.8-0.2,1.2-0.3c0.4-0.1,0.9-0.1,1.3-0.1c0.8,0,1.4,0.1,2.1,0.3s1.1,0.5,1.6,0.9
		c0.4,0.4,0.8,0.9,1,1.4c0.2,0.6,0.4,1.2,0.4,2c0,0.7-0.1,1.3-0.3,1.8s-0.4,1-0.7,1.5s-0.7,0.9-1.1,1.3s-0.9,0.9-1.5,1.3
		c-0.5,0.4-0.9,0.7-1.4,1.1c-0.4,0.3-0.9,0.7-1.2,1s-0.6,0.7-0.9,1c-0.2,0.3-0.3,0.7-0.3,1v0.1h7.6v2.6H1214.4z"/>
	<path class="st3" d="M1242.7,324h-2.8v-10.9c0-0.9,0.1-2,0.2-3.3l0,0c-0.2,0.7-0.3,1.3-0.5,1.6l-5,12.6h-1.9l-5-12.5
		c-0.1-0.4-0.3-0.9-0.4-1.7l0,0c0.1,0.7,0.1,1.8,0.1,3.3V324h-2.6v-16.8h3.9l4.4,11.2c0.3,0.9,0.6,1.5,0.7,1.9h0.1
		c0.3-0.9,0.5-1.5,0.7-2l4.5-11.1h3.8V324H1242.7z"/>
	<path class="st3" d="M1256.3,324h-9.4v-16.8h9.1v2.4h-6.3v4.8h5.8v2.4h-5.8v5h6.6L1256.3,324L1256.3,324z"/>
	<path class="st3" d="M1270,309.6h-4.8V324h-2.8v-14.4h-4.8v-2.4h12.4L1270,309.6L1270,309.6z"/>
	<path class="st3" d="M1275.3,317.9v6.1h-2.8v-16.8h5.1c1.9,0,3.4,0.4,4.5,1.3s1.6,2.2,1.6,3.8s-0.6,3-1.7,4s-2.6,1.6-4.5,1.6
		H1275.3z M1275.3,309.5v6.1h1.8c1.2,0,2.1-0.3,2.7-0.8c0.6-0.6,0.9-1.3,0.9-2.3c0-2-1.1-3-3.4-3L1275.3,309.5L1275.3,309.5z"/>
	<path class="st3" d="M1289.4,324h-2.9v-16.8h2.9V324z"/>
	<path class="st3" d="M1293.5,324v-16.8h5.3c1.6,0,2.9,0.4,3.9,1.1c0.9,0.7,1.4,1.6,1.4,2.8c0,1-0.3,1.8-0.8,2.5s-1.3,1.2-2.2,1.5
		l0,0c1.2,0.1,2.1,0.6,2.8,1.3c0.7,0.7,1,1.7,1,2.8c0,1.4-0.6,2.6-1.7,3.5s-2.6,1.3-4.3,1.3L1293.5,324L1293.5,324z M1296.3,309.4
		v4.8h1.8c1,0,1.7-0.2,2.3-0.7c0.5-0.5,0.8-1.1,0.8-1.9c0-1.4-1-2.2-2.9-2.2L1296.3,309.4L1296.3,309.4z M1296.3,316.5v5.3h2.4
		c1,0,1.8-0.2,2.4-0.7s0.8-1.1,0.8-2c0-1.7-1.2-2.6-3.6-2.6L1296.3,316.5L1296.3,316.5z"/>
</g>
<g class="st2">
	<path d="M1923.6,284c-1.5,0-2.9-0.3-4.1-0.8s-2.2-1.3-3.1-2.3c-0.8-1-1.5-2.1-1.9-3.4s-0.7-2.7-0.7-4.1c0-1.6,0.2-3.1,0.7-4.5
		s1.1-2.5,2-3.5s1.9-1.7,3.2-2.3c1.3-0.5,2.7-0.8,4.3-0.8c1.5,0,2.8,0.3,4,0.8s2.2,1.3,3,2.2c0.8,0.9,1.5,2,1.9,3.3s0.7,2.7,0.7,4.2
		c0,1.6-0.2,3.1-0.6,4.4c-0.4,1.4-1.1,2.5-1.9,3.5s-1.9,1.8-3.1,2.3S1925.2,284,1923.6,284z M1923.8,264.1c-1.3,0-2.4,0.2-3.4,0.7
		s-1.8,1.1-2.5,2c-0.7,0.8-1.2,1.8-1.5,2.9s-0.5,2.3-0.5,3.5s0.1,2.3,0.5,3.4c0.3,1.1,0.8,2,1.4,2.9s1.4,1.5,2.4,2s2.1,0.7,3.4,0.7
		s2.4-0.2,3.4-0.7s1.8-1.1,2.5-1.9s1.2-1.8,1.5-2.9s0.5-2.3,0.5-3.6c0-1.2-0.1-2.4-0.4-3.5s-0.8-2.1-1.4-2.9s-1.4-1.5-2.4-2
		C1926.3,264.4,1925.1,264.1,1923.8,264.1z"/>
	<path d="M1947.5,283.6v-13.3h-8.2v13.3h-1.9v-14.9h11.9v14.9H1947.5z"/>
	<path d="M1958.5,270.3v13.3h-1.9v-13.3h-4.5v-1.6h10.8v1.6H1958.5z"/>
	<path d="M1976.1,283.6v-12.2c-0.1,0.1-0.1,0.2-0.2,0.3c-0.1,0.1-0.1,0.2-0.2,0.3l-8.2,11.5h-1.7v-14.9h1.8v12.1
		c0-0.1,0.1-0.3,0.2-0.5s0.2-0.4,0.3-0.5l8-11.1h1.8v14.9h-1.8V283.6z"/>
	<path d="M1996,283.6V271c0,0.1-0.1,0.2-0.1,0.4c-0.1,0.2-0.2,0.4-0.2,0.7c-0.1,0.3-0.2,0.5-0.3,0.8c-0.1,0.3-0.2,0.6-0.3,0.8
		l-3.9,9.9h-1.6l-4.1-9.9c-0.1-0.2-0.1-0.4-0.2-0.6s-0.2-0.5-0.3-0.8c-0.1-0.3-0.2-0.5-0.3-0.8s-0.2-0.4-0.2-0.6v12.6h-1.7v-14.9
		h2.3l4.2,10c0.1,0.2,0.2,0.4,0.3,0.7c0.1,0.3,0.2,0.5,0.3,0.8c0.1,0.3,0.2,0.5,0.3,0.8c0.1,0.2,0.2,0.4,0.2,0.6
		c0-0.1,0.1-0.3,0.2-0.5s0.2-0.5,0.3-0.7c0.1-0.3,0.2-0.5,0.3-0.8c0.1-0.3,0.2-0.5,0.3-0.8l4-10.1h2.4v14.9h-1.9V283.6z"/>
	<path d="M2011.2,283.6V281h-0.1c-0.5,1-1.1,1.7-2,2.2c-0.8,0.5-1.8,0.8-2.9,0.8c-0.7,0-1.4-0.1-1.9-0.3c-0.6-0.2-1.1-0.5-1.5-0.9
		s-0.7-0.8-0.9-1.3c-0.2-0.5-0.3-1.1-0.3-1.7c0-1.4,0.4-2.4,1.3-3.2s2.1-1.3,3.8-1.6l4.5-0.7c0-2.9-1.1-4.3-3.3-4.3
		c-1.7,0-3.4,0.6-4.8,1.9v-2c0.3-0.2,0.7-0.4,1.1-0.6s0.8-0.3,1.2-0.5c0.4-0.1,0.9-0.2,1.3-0.3c0.5-0.1,0.9-0.1,1.3-0.1
		c1.7,0,2.9,0.5,3.8,1.4s1.3,2.3,1.3,4.2v9.7h-1.9V283.6z M2007.4,276.4c-0.7,0.1-1.2,0.2-1.7,0.4c-0.5,0.1-0.9,0.3-1.2,0.6
		c-0.3,0.2-0.5,0.6-0.7,0.9s-0.2,0.8-0.2,1.3c0,0.4,0.1,0.8,0.2,1.1c0.1,0.3,0.3,0.6,0.6,0.9c0.3,0.2,0.6,0.4,1,0.6s0.8,0.2,1.3,0.2
		c0.7,0,1.3-0.1,1.8-0.4c0.6-0.3,1-0.6,1.4-1s0.7-1,0.9-1.6s0.3-1.3,0.3-2v-1.5L2007.4,276.4z"/>
	<path d="M2026.3,283.6v-13.3h-3.9c-0.2,2.3-0.4,4.3-0.7,6c-0.3,1.7-0.7,3.1-1.1,4.2c-0.5,1.1-1,1.9-1.6,2.5
		c-0.6,0.5-1.4,0.8-2.3,0.8c-0.2,0-0.4,0-0.6,0s-0.3-0.1-0.5-0.1V282c0.1,0.1,0.3,0.1,0.5,0.1s0.3,0.1,0.5,0.1
		c0.6,0,1.1-0.3,1.6-0.9s0.9-1.4,1.2-2.6c0.3-1.1,0.6-2.6,0.9-4.2c0.2-1.7,0.4-3.6,0.6-5.9h7.4v14.9h-2V283.6z"/>
	<path d="M2043.8,279c0,0.7-0.1,1.4-0.4,2s-0.6,1-1,1.4s-0.9,0.7-1.5,0.9c-0.6,0.2-1.1,0.3-1.8,0.3h-6.2v-14.9h1.9v5.9h4.1
		c0.7,0,1.4,0.1,2,0.3c0.6,0.2,1.1,0.5,1.5,0.9s0.7,0.8,1,1.4S2043.8,278.3,2043.8,279z M2041.8,279c0-0.9-0.3-1.5-0.8-2
		s-1.4-0.8-2.4-0.8h-3.8v5.7h3.8c0.6,0,1-0.1,1.5-0.2c0.4-0.1,0.7-0.3,1-0.6c0.3-0.3,0.5-0.6,0.6-0.9
		C2041.8,279.9,2041.8,279.5,2041.8,279z"/>
	<path d="M2057.4,283.6v-7h-8.2v7h-1.9v-14.9h1.9v6.4h8.2v-6.4h1.9v14.9H2057.4z"/>
	<path d="M2074.5,283.6v-12.2c-0.1,0.1-0.1,0.2-0.2,0.3s-0.1,0.2-0.2,0.3l-8.2,11.5h-1.7v-14.9h1.8v12.1c0-0.1,0.1-0.3,0.2-0.5
		s0.2-0.4,0.3-0.5l8-11.1h1.8v14.9h-1.8V283.6z"/>
	<path d="M2091.4,283.6v-12.2c-0.1,0.1-0.1,0.2-0.2,0.3c-0.1,0.1-0.1,0.2-0.2,0.3l-8.2,11.5h-1.7v-14.9h1.8v12.1
		c0-0.1,0.1-0.3,0.2-0.5c0.1-0.2,0.2-0.4,0.3-0.5l8-11.1h1.8v14.9h-1.8V283.6z M2087.1,264.7c0.4,0,0.9-0.1,1.3-0.2
		c0.4-0.1,0.7-0.4,1-0.6c0.3-0.3,0.5-0.6,0.7-0.9c0.2-0.4,0.3-0.7,0.3-1.1h1.9c-0.1,0.6-0.3,1.2-0.5,1.7c-0.3,0.5-0.6,1-1.1,1.4
		c-0.4,0.4-1,0.7-1.6,0.9c-0.6,0.2-1.3,0.3-2,0.3c-0.8,0-1.4-0.1-2-0.3s-1.1-0.5-1.5-0.9s-0.8-0.8-1-1.4c-0.2-0.5-0.4-1.1-0.5-1.7
		h1.9c0,0.4,0.1,0.8,0.3,1.2c0.2,0.4,0.4,0.7,0.6,0.9c0.3,0.3,0.6,0.5,1,0.6S2086.6,264.7,2087.1,264.7z"/>
	<path d="M2112.2,284c-1.1,0-2.1-0.2-3-0.6s-1.6-0.9-2.3-1.6s-1.1-1.5-1.4-2.4c-0.3-0.9-0.5-2-0.5-3.1c0-1.2,0.2-2.4,0.5-3.3
		c0.4-1,0.8-1.8,1.5-2.5c0.6-0.7,1.4-1.2,2.3-1.6c0.9-0.4,1.9-0.5,3.1-0.5c1.1,0,2.1,0.2,2.9,0.5c0.9,0.4,1.6,0.9,2.2,1.5
		c0.6,0.7,1.1,1.5,1.4,2.5c0.3,1,0.5,2.1,0.5,3.3c0,1.2-0.2,2.2-0.5,3.2s-0.8,1.8-1.4,2.5s-1.4,1.2-2.3,1.6
		C2114.4,283.8,2113.3,284,2112.2,284z M2112.4,269.9c-0.8,0-1.6,0.1-2.2,0.4c-0.7,0.3-1.2,0.7-1.7,1.2s-0.8,1.2-1.1,2
		s-0.4,1.7-0.4,2.7c0,0.9,0.1,1.8,0.4,2.5c0.3,0.7,0.6,1.4,1.1,1.9s1,0.9,1.7,1.2c0.7,0.3,1.4,0.4,2.2,0.4s1.6-0.1,2.2-0.4
		c0.6-0.3,1.2-0.7,1.6-1.2c0.4-0.5,0.8-1.2,1-1.9s0.3-1.6,0.3-2.6c0-2-0.4-3.6-1.3-4.6S2114,269.9,2112.4,269.9z"/>
	<path d="M2125.1,270.3v13.3h-1.9v-14.9h7.8v1.6H2125.1z"/>
	<path d="M2141.6,283.6v-13.3h-3.9c-0.2,2.3-0.4,4.3-0.7,6s-0.7,3.1-1.1,4.2c-0.5,1.1-1,1.9-1.6,2.5c-0.6,0.5-1.4,0.8-2.3,0.8
		c-0.2,0-0.4,0-0.6,0s-0.4-0.1-0.5-0.1V282c0.1,0.1,0.3,0.1,0.5,0.1s0.3,0.1,0.5,0.1c0.6,0,1.1-0.3,1.6-0.9s0.9-1.4,1.2-2.6
		c0.3-1.1,0.6-2.6,0.9-4.2s0.4-3.6,0.6-5.9h7.4v14.9h-2V283.6z"/>
	<path d="M2156.3,283.6v-6.3h-2.2c-0.3,0-0.5,0-0.8,0.1s-0.5,0.2-0.8,0.4c-0.3,0.2-0.5,0.5-0.7,0.8s-0.5,0.7-0.7,1.2l-1.8,3.8h-2.2
		l2.2-4.4c0.3-0.6,0.6-1.1,1-1.5s0.8-0.7,1.3-0.9c-1.2-0.1-2.1-0.6-2.7-1.3s-0.9-1.6-0.9-2.7c0-0.6,0.1-1.1,0.3-1.6s0.5-1,1-1.3
		c0.4-0.4,1-0.7,1.6-0.9s1.4-0.3,2.3-0.3h5v14.9L2156.3,283.6L2156.3,283.6z M2156.3,270.3h-3c-1.1,0-1.9,0.2-2.5,0.7
		c-0.5,0.5-0.8,1.1-0.8,2c0,1,0.3,1.6,0.9,2.1c0.6,0.4,1.4,0.7,2.4,0.7h3.1L2156.3,270.3L2156.3,270.3z"/>
	<path d="M2174.2,288.3v-4.7h-11.5v4.7h-1.6V282h1.3c0.6-0.9,1.2-1.9,1.7-3c0.5-1,0.9-2.1,1.2-3.3c0.3-1.1,0.6-2.3,0.8-3.5
		s0.3-2.4,0.3-3.6h7.2V282h2.3v6.3H2174.2z M2171.7,270.3h-3.7c-0.1,2.1-0.5,4.1-1.1,6.1s-1.4,3.9-2.5,5.6h7.3V270.3z"/>
	<path d="M2197.2,283.6v-13.3h-8.2v13.3h-1.9v-14.9h11.9v14.9H2197.2z"/>
	<path d="M2210,284c-1.1,0-2.1-0.2-3-0.6s-1.6-0.9-2.3-1.6s-1.1-1.5-1.4-2.4c-0.3-0.9-0.5-2-0.5-3.1c0-1.2,0.2-2.4,0.5-3.3
		c0.3-1,0.8-1.8,1.5-2.5c0.6-0.7,1.4-1.2,2.3-1.6c0.9-0.4,1.9-0.5,3.1-0.5c1.1,0,2.1,0.2,2.9,0.5c0.9,0.4,1.6,0.9,2.2,1.5
		c0.6,0.7,1.1,1.5,1.4,2.5c0.3,1,0.5,2.1,0.5,3.3c0,1.2-0.2,2.2-0.5,3.2s-0.8,1.8-1.4,2.5s-1.4,1.2-2.3,1.6
		C2212.1,283.8,2211.1,284,2210,284z M2210.2,269.9c-0.8,0-1.6,0.1-2.2,0.4c-0.7,0.3-1.2,0.7-1.7,1.2s-0.8,1.2-1.1,2
		s-0.4,1.7-0.4,2.7c0,0.9,0.1,1.8,0.4,2.5c0.3,0.7,0.6,1.4,1.1,1.9s1,0.9,1.7,1.2c0.7,0.3,1.4,0.4,2.2,0.4s1.6-0.1,2.2-0.4
		c0.6-0.3,1.2-0.7,1.6-1.2c0.4-0.5,0.8-1.2,1-1.9s0.3-1.6,0.3-2.6c0-2-0.4-3.6-1.3-4.6S2211.8,269.9,2210.2,269.9z"/>
	<path d="M2240.4,279.3c0,0.6-0.1,1.2-0.4,1.7c-0.2,0.5-0.6,1-1,1.4s-0.9,0.7-1.5,0.9s-1.2,0.3-1.9,0.3h-6.5v-14.9h6.1
		c0.7,0,1.4,0.1,2,0.3c0.6,0.2,1,0.4,1.4,0.8c0.4,0.3,0.7,0.7,0.9,1.1s0.3,0.9,0.3,1.5c0,0.9-0.2,1.7-0.7,2.3s-1.2,1-2.1,1.2
		c1.1,0.1,2,0.5,2.6,1.1C2240.1,277.6,2240.4,278.4,2240.4,279.3z M2237.9,272.6c0-0.3-0.1-0.6-0.2-0.9c-0.1-0.3-0.3-0.5-0.5-0.7
		s-0.5-0.4-0.9-0.5s-0.8-0.2-1.3-0.2h-4v4.8h3.7c0.6,0,1.1-0.1,1.5-0.2s0.7-0.3,1-0.5s0.4-0.5,0.6-0.8
		C2237.9,273.3,2237.9,272.9,2237.9,272.6z M2238.5,279.3c0-0.4-0.1-0.7-0.2-1.1c-0.1-0.3-0.3-0.6-0.6-0.8s-0.7-0.4-1.1-0.5
		c-0.4-0.1-1-0.2-1.6-0.2h-3.9v5.2h4.3c1,0,1.8-0.2,2.4-0.7C2238.2,280.8,2238.5,280.2,2238.5,279.3z"/>
	<path d="M2254.2,282.9c-1.1,0.7-2.5,1-4,1c-1.1,0-2-0.2-2.9-0.6s-1.6-0.9-2.2-1.6c-0.6-0.7-1.1-1.5-1.4-2.4c-0.3-0.9-0.5-1.9-0.5-3
		s0.2-2.2,0.5-3.2s0.8-1.8,1.5-2.6c0.7-0.7,1.4-1.3,2.4-1.7c0.9-0.4,2-0.6,3.2-0.6s2.4,0.2,3.4,0.7v2c-1.1-0.7-2.3-1.1-3.5-1.1
		c-0.9,0-1.7,0.2-2.4,0.5s-1.3,0.8-1.7,1.4c-0.5,0.6-0.8,1.3-1.1,2c-0.2,0.8-0.4,1.6-0.4,2.5c0,0.8,0.1,1.6,0.3,2.3
		c0.2,0.7,0.5,1.4,1,1.9c0.4,0.6,1,1,1.6,1.3c0.7,0.3,1.4,0.5,2.3,0.5c1.4,0,2.7-0.4,3.8-1.3L2254.2,282.9L2254.2,282.9z"/>
	<path d="M2258.7,264.9c-0.4,0-0.7-0.1-0.9-0.4c-0.3-0.3-0.4-0.6-0.4-1s0.1-0.7,0.4-0.9c0.3-0.2,0.6-0.4,0.9-0.4
		c0.2,0,0.4,0,0.5,0.1c0.2,0.1,0.3,0.2,0.4,0.3c0.1,0.1,0.2,0.3,0.3,0.4c0.1,0.2,0.1,0.3,0.1,0.5s0,0.4-0.1,0.5
		c-0.1,0.2-0.2,0.3-0.3,0.4s-0.3,0.2-0.4,0.3C2259.1,264.9,2258.9,264.9,2258.7,264.9z M2257.8,283.6v-14.9h1.9v14.9H2257.8z"/>
	<path d="M2274.8,283.6v-12.2c-0.1,0.1-0.1,0.2-0.2,0.3c-0.1,0.1-0.1,0.2-0.2,0.3l-8.2,11.5h-1.7v-14.9h1.8v12.1
		c0-0.1,0.1-0.3,0.2-0.5c0.1-0.2,0.2-0.4,0.3-0.5l8-11.1h1.8v14.9h-1.8V283.6z M2270.5,264.7c0.4,0,0.9-0.1,1.3-0.2
		c0.4-0.1,0.7-0.4,1-0.6c0.3-0.3,0.5-0.6,0.7-0.9c0.2-0.4,0.3-0.7,0.3-1.1h1.9c-0.1,0.6-0.3,1.2-0.5,1.7c-0.3,0.5-0.6,1-1.1,1.4
		c-0.4,0.4-1,0.7-1.6,0.9s-1.3,0.3-2,0.3s-1.4-0.1-2-0.3s-1.1-0.5-1.5-0.9s-0.8-0.8-1-1.4c-0.2-0.5-0.4-1.1-0.5-1.7h1.9
		c0,0.4,0.1,0.8,0.3,1.2c0.2,0.4,0.4,0.7,0.6,0.9c0.3,0.3,0.6,0.5,1,0.6C2269.6,264.6,2270,264.7,2270.5,264.7z"/>
	<path d="M2298.3,283.6l-6.8-7.2h-0.1v7.2h-1.9v-14.9h1.9v7h0.1l6.6-7h2.4l-7.1,7.2l7.5,7.7L2298.3,283.6L2298.3,283.6z"/>
	<path d="M2304.4,264.9c-0.4,0-0.7-0.1-0.9-0.4c-0.3-0.3-0.4-0.6-0.4-1s0.1-0.7,0.4-0.9c0.3-0.2,0.6-0.4,0.9-0.4
		c0.2,0,0.4,0,0.5,0.1c0.2,0.1,0.3,0.2,0.4,0.3c0.1,0.1,0.2,0.3,0.3,0.4c0.1,0.2,0.1,0.3,0.1,0.5s0,0.4-0.1,0.5
		c-0.1,0.2-0.2,0.3-0.3,0.4s-0.3,0.2-0.4,0.3C2304.7,264.9,2304.6,264.9,2304.4,264.9z M2303.4,283.6v-14.9h1.9v14.9H2303.4z"/>
	<path d="M2323.4,283.6V271c0,0.1-0.1,0.2-0.1,0.4c-0.1,0.2-0.2,0.4-0.2,0.7c-0.1,0.3-0.2,0.5-0.3,0.8s-0.2,0.6-0.3,0.8l-3.9,9.9
		h-1.6l-4.1-9.9c-0.1-0.2-0.1-0.4-0.2-0.6c-0.1-0.2-0.2-0.5-0.3-0.8s-0.2-0.5-0.3-0.8c-0.1-0.2-0.2-0.4-0.2-0.6v12.6h-1.7v-14.9h2.3
		l4.2,10c0.1,0.2,0.2,0.4,0.3,0.7c0.1,0.3,0.2,0.5,0.3,0.8s0.2,0.5,0.3,0.8c0.1,0.2,0.2,0.4,0.2,0.6c0-0.1,0.1-0.3,0.2-0.5
		c0.1-0.2,0.2-0.5,0.3-0.7c0.1-0.3,0.2-0.5,0.3-0.8s0.2-0.5,0.3-0.8l4-10.1h2.4v14.9h-1.9V283.6z"/>
	<path d="M2340.2,283.6v-7h-8.2v7h-1.9v-14.9h1.9v6.4h8.2v-6.4h1.9v14.9H2340.2z"/>
	<path d="M2355.4,283.6V281h-0.1c-0.5,1-1.1,1.7-2,2.2c-0.8,0.5-1.8,0.8-2.9,0.8c-0.7,0-1.4-0.1-1.9-0.3c-0.6-0.2-1.1-0.5-1.5-0.9
		s-0.7-0.8-0.9-1.3s-0.3-1.1-0.3-1.7c0-1.4,0.4-2.4,1.3-3.2s2.1-1.3,3.8-1.6l4.5-0.7c0-2.9-1.1-4.3-3.3-4.3c-1.7,0-3.4,0.6-4.8,1.9
		v-2c0.3-0.2,0.7-0.4,1.1-0.6c0.4-0.2,0.8-0.3,1.2-0.5c0.4-0.1,0.9-0.2,1.3-0.3s0.9-0.1,1.3-0.1c1.7,0,2.9,0.5,3.8,1.4
		c0.9,0.9,1.3,2.3,1.3,4.2v9.7h-1.9V283.6z M2351.6,276.4c-0.7,0.1-1.2,0.2-1.7,0.4c-0.5,0.1-0.9,0.3-1.2,0.6
		c-0.3,0.2-0.5,0.6-0.7,0.9s-0.2,0.8-0.2,1.3c0,0.4,0.1,0.8,0.2,1.1c0.1,0.3,0.3,0.6,0.6,0.9c0.3,0.2,0.6,0.4,1,0.6s0.8,0.2,1.3,0.2
		c0.7,0,1.3-0.1,1.8-0.4s1-0.6,1.4-1s0.7-1,0.9-1.6s0.3-1.3,0.3-2v-1.5L2351.6,276.4z"/>
	<path d="M2366.2,270.3v13.3h-1.9v-13.3h-4.5v-1.6h10.8v1.6H2366.2z"/>
	<path d="M2374.4,264.9c-0.4,0-0.7-0.1-0.9-0.4c-0.3-0.3-0.4-0.6-0.4-1s0.1-0.7,0.4-0.9c0.3-0.2,0.6-0.4,0.9-0.4
		c0.2,0,0.4,0,0.5,0.1c0.2,0.1,0.3,0.2,0.4,0.3c0.1,0.1,0.2,0.3,0.3,0.4c0.1,0.2,0.1,0.3,0.1,0.5s0,0.4-0.1,0.5
		c-0.1,0.2-0.2,0.3-0.3,0.4s-0.3,0.2-0.4,0.3C2374.7,264.9,2374.5,264.9,2374.4,264.9z M2373.4,283.6v-14.9h1.9v14.9H2373.4z"/>
</g>
<g class="st2">
	<path class="st3" d="M1929.1,328.5h-2.5V324h-11.4v4.5h-2.5v-6.9h1.4c1.1-2,1.9-4.3,2.7-6.9c0.7-2.6,1.1-5.1,1.2-7.5h8.7v14.4h2.3
		v6.9H1929.1z M1924,321.6v-12h-3.6c-0.1,1.7-0.5,3.8-1.1,6.1c-0.6,2.4-1.4,4.3-2.2,5.9H1924z"/>
	<path class="st3" d="M1938.9,324.3c-2.4,0-4.4-0.8-5.8-2.4s-2.2-3.6-2.2-6.1c0-2.7,0.7-4.9,2.2-6.5s3.5-2.4,6-2.4
		c2.4,0,4.3,0.8,5.7,2.3s2.2,3.6,2.2,6.1c0,2.7-0.7,4.9-2.2,6.5S1941.3,324.3,1938.9,324.3z M1939,309.4c-1.5,0-2.8,0.6-3.8,1.7
		s-1.4,2.7-1.4,4.5c0,1.9,0.5,3.4,1.4,4.5s2.2,1.7,3.7,1.7c1.6,0,2.9-0.5,3.8-1.6s1.4-2.6,1.4-4.6s-0.5-3.6-1.4-4.6
		C1941.8,309.9,1940.6,309.4,1939,309.4z"/>
	<path class="st3" d="M1965.5,307.2V318h2.5v2.3h-2.5v3.7h-2.6v-3.7h-7.6V318c0.7-0.8,1.4-1.6,2.1-2.5s1.4-1.8,2.1-2.8
		c0.7-0.9,1.3-1.9,1.9-2.8s1.1-1.8,1.4-2.7H1965.5z M1962.8,318.1v-7c-0.9,1.5-1.7,2.9-2.5,4s-1.6,2.2-2.3,3H1962.8z"/>
	<path class="st3" d="M1995.1,324h-2.8v-10.9c0-0.9,0.1-2,0.2-3.3l0,0c-0.2,0.7-0.3,1.3-0.5,1.6l-5,12.6h-1.9l-5-12.5
		c-0.1-0.4-0.3-0.9-0.4-1.7l0,0c0.1,0.7,0.1,1.8,0.1,3.3V324h-2.6v-16.8h3.9l4.4,11.2c0.3,0.9,0.6,1.5,0.7,1.9h0.1
		c0.3-0.9,0.5-1.5,0.7-2l4.5-11.1h3.8V324H1995.1z"/>
	<path class="st3" d="M2008.7,324h-9.4v-16.8h9.1v2.4h-6.3v4.8h5.8v2.4h-5.8v5h6.6L2008.7,324L2008.7,324z"/>
	<path class="st3" d="M2022.5,309.6h-4.8V324h-2.8v-14.4h-4.8v-2.4h12.4L2022.5,309.6L2022.5,309.6z"/>
	<path class="st3" d="M2027.7,317.9v6.1h-2.8v-16.8h5.1c1.9,0,3.4,0.4,4.5,1.3s1.6,2.2,1.6,3.8s-0.6,3-1.7,4s-2.6,1.6-4.5,1.6
		H2027.7z M2027.7,309.5v6.1h1.8c1.2,0,2.1-0.3,2.7-0.8c0.6-0.6,0.9-1.3,0.9-2.3c0-2-1.1-3-3.4-3L2027.7,309.5L2027.7,309.5z"/>
	<path class="st3" d="M2041.8,324h-2.9v-16.8h2.9V324z"/>
	<path class="st3" d="M2045.9,324v-16.8h5.3c1.6,0,2.9,0.4,3.9,1.1c0.9,0.7,1.4,1.6,1.4,2.8c0,1-0.3,1.8-0.8,2.5s-1.3,1.2-2.2,1.5
		l0,0c1.2,0.1,2.1,0.6,2.8,1.3c0.7,0.7,1,1.7,1,2.8c0,1.4-0.6,2.6-1.7,3.5c-1.1,0.9-2.6,1.3-4.3,1.3L2045.9,324L2045.9,324z
		 M2048.7,309.4v4.8h1.8c1,0,1.7-0.2,2.3-0.7c0.5-0.5,0.8-1.1,0.8-1.9c0-1.4-1-2.2-2.9-2.2L2048.7,309.4L2048.7,309.4z
		 M2048.7,316.5v5.3h2.4c1,0,1.8-0.2,2.4-0.7c0.6-0.5,0.8-1.1,0.8-2c0-1.7-1.2-2.6-3.6-2.6L2048.7,316.5L2048.7,316.5z"/>
</g>
<polygon class="st4" points="1256.2,272.7 1252.5,272.7 1252.5,272.7 "/>
<g>
	<path d="M874.2,286.3c-0.6,1.5-1.3,2.6-2,3.3c-0.8,0.7-1.7,1.1-2.8,1.1c-0.5,0-1-0.1-1.4-0.2v-1.8c0.2,0.1,0.4,0.1,0.7,0.2
		s0.4,0.1,0.7,0.1c0.6,0,1.1-0.2,1.6-0.6c0.5-0.4,0.8-1,1.2-1.7l1.3-3.1l-5.8-14.9h2.1l4.3,11.9c0.1,0.2,0.1,0.3,0.2,0.5
		c0.1,0.2,0.1,0.4,0.2,0.6h0.1c0-0.2,0.1-0.3,0.1-0.5c0-0.2,0.1-0.4,0.2-0.6l4.6-11.9h2L874.2,286.3z"/>
</g>
</svg>
