<?xml version="1.0" encoding="utf-8"?>
<!-- Generator: Adobe Illustrator 23.0.5, SVG Export Plug-In . SVG Version: 6.00 Build 0)  -->
<svg version="1.1" id="Слой_1" xmlns="http://www.w3.org/2000/svg" xmlns:xlink="http://www.w3.org/1999/xlink" x="0px" y="0px"
	 viewBox="0 0 5160 2815" style="enable-background:new 0 0 5160 2815;" xml:space="preserve">
<style type="text/css">
	.st0{opacity:0.1;fill-rule:evenodd;clip-rule:evenodd;fill:#4A4A4A;enable-background:new    ;}
	.st1{fill:none;stroke:#334DC9;stroke-width:6;stroke-linecap:square;stroke-dasharray:15,20;}
	.st2{fill:none;stroke:#979797;stroke-width:2.4192;stroke-linecap:square;}
	.st3{filter:url(#Adobe_OpacityMaskFilter);}
	.st4{fill-rule:evenodd;clip-rule:evenodd;fill:#FFFFFF;}
	.st5{fill:#B2B2B2;}
</style>
<link rel="stylesheet" href="./style/footer.css"><title>glass-final EN</title>
<desc>Created with Sketch.</desc>
<g id="glass-final-EN">
	<path id="Path-7" class="st0" d="M2382.7,1670c-202.7,0-461.4,30.8-500.4,144.5c-32.5,94.8,93.3,179.4,115,321.1
		c0.6,3.7,58.5,18.1,138.6-60.7C2275.9,1937.5,2462.9,1670,2382.7,1670z"/>
	<path id="Clip-2" class="st0" d="M1473,2136.1c-0.9,5.9-115.6,3.4-214.3-133.7c-62.8-87.1-129.5-331.6-123.2-331.4
		c193.5,4.7,416.6,39,452.6,144C1620.5,1909.8,1494.7,1994.4,1473,2136.1z"/>
	<path id="Line" class="st1" d="M1165,1673.3h1186"/>
	<path id="Path-7-Copy" class="st0" d="M2749.3,1670c202.7,0,461.4,30.8,500.4,144.5c32.5,94.8-93.3,179.4-115,321.1
		c-0.6,3.7-58.5,18.1-138.6-60.7C2856.1,1937.5,2669.1,1670,2749.3,1670z"/>
	<path id="Clip-2-Copy" class="st0" d="M3658,2136.1c0.9,5.9,115.6,3.4,214.3-133.7c62.8-87.1,129.5-331.6,123.2-331.4
		c-193.5,4.7-416.6,39-452.6,144C3510.5,1909.8,3636.3,1994.4,3658,2136.1z"/>
	<path id="Line-Copy" class="st1" d="M1558,1944.2h351"/>
	<path id="Line-5" class="st2" d="M3360,1663l225,158"/>
	<g id="Image-1-Copy-3" transform="translate(950.000000, 2173.600000)">
		<g id="Mask">
		</g>
		<defs>
			<filter id="Adobe_OpacityMaskFilter" filterUnits="userSpaceOnUse" x="-210.4" y="134.9" width="3390.4" height="139.1">
				<feColorMatrix  type="matrix" values="1 0 0 0 0  0 1 0 0 0  0 0 1 0 0  0 0 0 1 0"/>
			</filter>
		</defs>
		<mask maskUnits="userSpaceOnUse" x="-210.4" y="134.9" width="3390.4" height="139.1" id="mask-2_1_">
			<g class="st3">
				<rect id="path-1_1_" y="0" class="st4" width="3259.2" height="336"/>
			</g>
		</mask>
		<g transform="matrix(1 0 0 1 0 0)" style="mask:url(#mask-2_1_);enable-background:new    ;">
			
				<image style="overflow:visible;" width="975" height="40" xlink:href="7DC4B0B3.png"  transform="matrix(3.4773 0 0 3.4773 -210.4 134.8533)">
			</image>
		</g>
	</g>
	
		<image style="overflow:visible;enable-background:new    ;" width="3146" height="1132" xlink:href="7DC4B0B1.png"  transform="matrix(1 0 0 1 1006 1127)">
	</image>
</g>
<g>
	<path d="M1667.2,1461.9V1451h-30.3v10.9h-3.6v-14.3h3.2c0.9-1.7,1.8-3.5,2.6-5.5c0.8-2,1.6-4,2.4-6.1s1.4-4.2,2.1-6.4
		c0.6-2.2,1.2-4.4,1.6-6.6c0.5-2.2,0.8-4.3,1.1-6.5s0.5-4.2,0.5-6.1h18.3v37.1h5.6v14.3H1667.2z M1661.4,1413.9h-11.2
		c-0.1,1.5-0.3,3.2-0.5,5c-0.3,1.8-0.7,3.7-1.1,5.7s-1,4-1.6,6.1c-0.6,2.1-1.2,4.1-1.9,6.1s-1.4,3.9-2.2,5.7
		c-0.8,1.8-1.5,3.5-2.3,5.1h20.8V1413.9z"/>
	<path d="M1693.4,1451v-5.1h-0.1c-0.9,1.8-2.2,3.3-3.9,4.3c-1.6,1-3.5,1.5-5.5,1.5c-1.4,0-2.7-0.2-3.8-0.6c-1.1-0.4-2.1-1-2.9-1.7
		s-1.4-1.6-1.8-2.6c-0.4-1-0.6-2.1-0.6-3.4c0-2.6,0.8-4.7,2.4-6.3c1.6-1.6,4.1-2.6,7.4-3l8.8-1.3c0-5.6-2.2-8.3-6.5-8.3
		c-3.4,0-6.5,1.2-9.4,3.7v-4c0.6-0.4,1.3-0.8,2.1-1.2c0.8-0.3,1.6-0.7,2.4-0.9s1.7-0.5,2.6-0.6c0.9-0.1,1.8-0.2,2.6-0.2
		c3.2,0,5.7,0.9,7.3,2.7c1.7,1.8,2.5,4.5,2.5,8.1v18.8H1693.4z M1685.9,1436.9c-1.3,0.2-2.4,0.4-3.3,0.7c-0.9,0.3-1.7,0.7-2.3,1.1
		c-0.6,0.5-1,1.1-1.3,1.8c-0.3,0.7-0.4,1.6-0.4,2.6c0,0.8,0.1,1.5,0.4,2.2c0.3,0.7,0.7,1.2,1.2,1.7c0.5,0.5,1.2,0.9,1.9,1.1
		c0.7,0.3,1.6,0.4,2.5,0.4c1.3,0,2.5-0.2,3.5-0.7s2-1.2,2.8-2c0.8-0.9,1.4-1.9,1.8-3.1s0.7-2.5,0.7-3.9v-2.9L1685.9,1436.9z"/>
	<path d="M1722.5,1451v-25.8h-7.6c-0.3,4.5-0.8,8.4-1.4,11.7c-0.6,3.3-1.3,6-2.2,8.2c-0.9,2.2-2,3.7-3.2,4.8s-2.7,1.6-4.4,1.6
		c-0.4,0-0.7,0-1.1-0.1c-0.4-0.1-0.7-0.1-1-0.2v-3.1c0.2,0.1,0.5,0.2,0.9,0.3c0.3,0.1,0.7,0.1,1,0.1c1.2,0,2.2-0.6,3.1-1.7
		c0.9-1.1,1.7-2.8,2.3-5c0.7-2.2,1.2-5,1.7-8.2c0.5-3.3,0.9-7.1,1.2-11.4h14.3v29H1722.5z"/>
	<path d="M1755.5,1451v-23.7c-0.1,0.2-0.3,0.4-0.4,0.7s-0.3,0.4-0.4,0.6l-16,22.4h-3.3v-29h3.4v23.4c0.1-0.3,0.2-0.6,0.4-0.9
		c0.2-0.3,0.4-0.7,0.7-1.1l15.5-21.5h3.5v29H1755.5z"/>
	<path d="M1787.8,1451v-13.5h-15.9v13.5h-3.6v-29h3.6v12.3h15.9V1422h3.6v29H1787.8z"/>
	<path d="M1817.5,1451v-5.1h-0.1c-0.9,1.8-2.2,3.3-3.9,4.3c-1.6,1-3.5,1.5-5.5,1.5c-1.4,0-2.7-0.2-3.8-0.6c-1.1-0.4-2.1-1-2.9-1.7
		s-1.4-1.6-1.8-2.6c-0.4-1-0.6-2.1-0.6-3.4c0-2.6,0.8-4.7,2.4-6.3c1.6-1.6,4.1-2.6,7.4-3l8.8-1.3c0-5.6-2.2-8.3-6.5-8.3
		c-3.4,0-6.5,1.2-9.4,3.7v-4c0.6-0.4,1.3-0.8,2.1-1.2c0.8-0.3,1.6-0.7,2.4-0.9s1.7-0.5,2.6-0.6c0.9-0.1,1.8-0.2,2.6-0.2
		c3.2,0,5.7,0.9,7.3,2.7c1.7,1.8,2.5,4.5,2.5,8.1v18.8H1817.5z M1810,1436.9c-1.3,0.2-2.4,0.4-3.3,0.7c-0.9,0.3-1.7,0.7-2.3,1.1
		c-0.6,0.5-1,1.1-1.3,1.8c-0.3,0.7-0.4,1.6-0.4,2.6c0,0.8,0.1,1.5,0.4,2.2c0.3,0.7,0.7,1.2,1.2,1.7c0.5,0.5,1.2,0.9,1.9,1.1
		c0.7,0.3,1.6,0.4,2.5,0.4c1.3,0,2.5-0.2,3.5-0.7s2-1.2,2.8-2c0.8-0.9,1.4-1.9,1.8-3.1s0.7-2.5,0.7-3.9v-2.9L1810,1436.9z"/>
</g>
<g>
	<path class="st5" d="M1639.6,1489.2l-18,8.7v-3.8l13.2-5.9v-0.1l-13.2-6.5v-3.8l18,9.4V1489.2z"/>
	<path class="st5" d="M1659.4,1499.2v-4.5c1.9,1.3,3.8,1.9,5.8,1.9c2,0,3.5-0.5,4.7-1.5s1.8-2.3,1.8-4c0-1.6-0.6-2.9-1.8-3.8
		c-1.2-0.9-3-1.4-5.2-1.4c-0.8,0-2.4,0.1-4.7,0.2l1-15.2h14.2v4h-10.3l-0.5,7.2c0.9-0.1,1.8-0.1,2.5-0.1c3.1,0,5.4,0.8,7.1,2.4
		c1.7,1.6,2.5,3.7,2.5,6.5c0,2.9-1,5.2-2.9,6.9s-4.5,2.6-7.9,2.6C1662.9,1500.4,1660.8,1500,1659.4,1499.2z"/>
	<path class="st5" d="M1725.2,1499.9h-4.8v-18.7c0-1.5,0.1-3.4,0.3-5.6h-0.1c-0.3,1.3-0.6,2.2-0.8,2.7l-8.6,21.6h-3.3l-8.7-21.5
		c-0.2-0.6-0.5-1.6-0.8-2.9h-0.1c0.1,1.2,0.2,3,0.2,5.7v18.7h-4.4V1471h6.8l7.6,19.3c0.6,1.5,1,2.6,1.1,3.3h0.1
		c0.5-1.5,0.9-2.6,1.2-3.4l7.7-19.2h6.5V1499.9z"/>
	<path class="st5" d="M1748.6,1499.9h-16.2V1471h15.6v4.1h-10.8v8.2h9.9v4.1h-9.9v8.6h11.4V1499.9z"/>
	<path class="st5" d="M1772.3,1475.1h-8.3v24.8h-4.8v-24.8h-8.3v-4.1h21.4V1475.1z"/>
	<path class="st5" d="M1781.3,1489.4v10.5h-4.8V1471h8.8c3.3,0,5.9,0.8,7.7,2.3c1.8,1.5,2.7,3.7,2.7,6.5c0,2.8-1,5.1-2.9,6.9
		c-1.9,1.8-4.5,2.7-7.7,2.7H1781.3z M1781.3,1474.9v10.6h3.1c2.1,0,3.6-0.5,4.7-1.4c1.1-1,1.6-2.3,1.6-4c0-3.4-2-5.1-5.9-5.1H1781.3
		z"/>
	<path class="st5" d="M1805.6,1499.9h-4.9V1471h4.9V1499.9z"/>
	<path class="st5" d="M1812.7,1499.9V1471h9.2c2.8,0,5,0.6,6.6,1.8c1.6,1.2,2.5,2.8,2.5,4.8c0,1.6-0.5,3.1-1.4,4.3
		c-0.9,1.2-2.2,2.1-3.9,2.6v0.1c2,0.2,3.6,1,4.8,2.2c1.2,1.2,1.8,2.9,1.8,4.9c0,2.5-1,4.5-2.9,6c-2,1.5-4.4,2.3-7.4,2.3H1812.7z
		 M1817.5,1474.8v8.2h3.1c1.7,0,3-0.4,3.9-1.2c0.9-0.8,1.4-1.9,1.4-3.3c0-2.5-1.7-3.7-5-3.7H1817.5z M1817.5,1486.9v9.2h4.1
		c1.8,0,3.2-0.4,4.1-1.2c1-0.8,1.5-2,1.5-3.4c0-3-2.1-4.5-6.2-4.5H1817.5z"/>
</g>
<g>
	<path d="M1587.7,1798.1c-3.1,1.5-6.7,2.2-10.7,2.2c-2.9,0-5.5-0.5-7.8-1.5c-2.3-1-4.3-2.4-6-4.2c-1.7-1.8-2.9-3.9-3.8-6.4
		c-0.9-2.5-1.3-5.2-1.3-8.1c0-3.1,0.5-5.9,1.4-8.6c1-2.7,2.3-5,4.1-6.9c1.8-2,3.9-3.5,6.4-4.6c2.5-1.1,5.3-1.7,8.5-1.7
		c3.5,0,6.5,0.5,9.3,1.6v4c-2.9-1.5-6-2.2-9.3-2.2c-2.6,0-5,0.5-7,1.4c-2,0.9-3.8,2.2-5.1,3.8c-1.4,1.6-2.5,3.5-3.2,5.7
		c-0.7,2.2-1.1,4.6-1.1,7.2c0,2.3,0.3,4.5,1,6.6c0.7,2.1,1.6,3.9,2.9,5.4c1.3,1.5,2.9,2.8,4.8,3.7c1.9,0.9,4.2,1.4,6.7,1.4
		c3.9,0,7.3-0.8,10.3-2.5V1798.1z"/>
	<path d="M1597.5,1785.8c0,1.8,0.3,3.4,0.7,4.8c0.5,1.4,1.1,2.6,2,3.6c0.8,1,1.9,1.7,3.1,2.2c1.2,0.5,2.6,0.8,4.1,0.8
		c3.3,0,6.3-1.1,9.3-3.4v3.6c-2.8,2-6.1,3-10.1,3c-1.9,0-3.7-0.3-5.3-1c-1.6-0.7-2.9-1.7-4-3c-1.1-1.3-2-2.9-2.6-4.8
		c-0.6-1.9-0.9-4-0.9-6.5c0-2.2,0.3-4.2,1-6c0.7-1.8,1.6-3.4,2.7-4.8c1.2-1.3,2.6-2.4,4.2-3.2c1.6-0.8,3.4-1.1,5.3-1.1
		c1.9,0,3.5,0.3,5,1c1.4,0.7,2.6,1.6,3.6,2.8s1.7,2.7,2.2,4.4s0.8,3.7,0.8,5.8v1.8H1597.5z M1614.7,1782.6c-0.1-3-0.8-5.4-2.2-7
		c-1.4-1.7-3.3-2.5-5.7-2.5c-1.2,0-2.4,0.2-3.4,0.7c-1,0.4-2,1.1-2.8,1.9c-0.8,0.8-1.4,1.8-2,3c-0.5,1.2-0.9,2.5-1.1,4H1614.7z"/>
	<path d="M1629.2,1794.9v18h-3.6v-42.3h3.6v5.5h0.1c1.1-2,2.5-3.6,4.3-4.6c1.8-1.1,3.8-1.6,6.1-1.6c1.8,0,3.5,0.3,5,1
		c1.5,0.7,2.7,1.6,3.7,2.8c1,1.2,1.8,2.7,2.3,4.5s0.8,3.7,0.8,5.9c0,2.4-0.3,4.6-0.9,6.5c-0.6,2-1.5,3.7-2.6,5.1s-2.5,2.5-4.1,3.3
		c-1.6,0.8-3.4,1.2-5.4,1.2c-4.1,0-7.1-1.8-9.1-5.3H1629.2z M1629.2,1787.5c0,1.3,0.2,2.6,0.7,3.7c0.4,1.2,1.1,2.2,1.9,3.1
		c0.8,0.9,1.7,1.6,2.9,2.1c1.1,0.5,2.4,0.8,3.7,0.8c1.5,0,2.8-0.3,3.9-0.9c1.2-0.6,2.2-1.5,3-2.6c0.8-1.1,1.5-2.5,1.9-4.1
		c0.4-1.6,0.7-3.4,0.7-5.4c0-1.7-0.2-3.2-0.6-4.6c-0.4-1.4-1-2.5-1.8-3.5c-0.8-1-1.7-1.7-2.8-2.2s-2.3-0.8-3.6-0.8
		c-1.5,0-2.9,0.3-4.1,0.8c-1.2,0.6-2.2,1.3-3.1,2.3s-1.5,2.1-2,3.4s-0.7,2.7-0.7,4.1V1787.5z"/>
	<path d="M1660.5,1785.8c0,1.8,0.3,3.4,0.7,4.8c0.5,1.4,1.1,2.6,2,3.6c0.8,1,1.9,1.7,3.1,2.2c1.2,0.5,2.6,0.8,4.1,0.8
		c3.3,0,6.3-1.1,9.3-3.4v3.6c-2.8,2-6.1,3-10.1,3c-1.9,0-3.7-0.3-5.3-1c-1.6-0.7-2.9-1.7-4-3c-1.1-1.3-2-2.9-2.6-4.8
		c-0.6-1.9-0.9-4-0.9-6.5c0-2.2,0.3-4.2,1-6c0.7-1.8,1.6-3.4,2.7-4.8c1.2-1.3,2.6-2.4,4.2-3.2c1.6-0.8,3.4-1.1,5.3-1.1
		c1.9,0,3.5,0.3,5,1c1.4,0.7,2.6,1.6,3.6,2.8s1.7,2.7,2.2,4.4s0.8,3.7,0.8,5.8v1.8H1660.5z M1677.7,1782.6c-0.1-3-0.8-5.4-2.2-7
		c-1.4-1.7-3.3-2.5-5.7-2.5c-1.2,0-2.4,0.2-3.4,0.7c-1,0.4-2,1.1-2.8,1.9c-0.8,0.8-1.4,1.8-2,3c-0.5,1.2-0.9,2.5-1.1,4H1677.7z"/>
	<path d="M1710.3,1808.7v-9.1h-22.4v9.1h-3.2v-12.2h2.6c1.2-1.8,2.3-3.7,3.3-5.8c1-2,1.7-4.1,2.4-6.3c0.6-2.2,1.1-4.4,1.5-6.7
		c0.3-2.3,0.5-4.7,0.6-7h14v25.8h4.4v12.2H1710.3z M1705.4,1773.8h-7.2c-0.3,4-1,7.9-2.1,11.8c-1.1,3.9-2.8,7.5-4.9,10.9h14.2
		V1773.8z"/>
	<path d="M1739.1,1799.6v-13.5h-15.9v13.5h-3.6v-29h3.6v12.3h15.9v-12.3h3.6v29H1739.1z"/>
	<path d="M1767.6,1799.6v-12.3h-4.3c-0.5,0-1,0.1-1.5,0.3c-0.5,0.2-1,0.4-1.5,0.8c-0.5,0.4-1,0.9-1.4,1.5c-0.5,0.6-0.9,1.4-1.3,2.3
		l-3.5,7.5h-4.3l4.2-8.5c0.6-1.1,1.2-2.1,2-2.9c0.7-0.8,1.6-1.4,2.6-1.8c-2.3-0.3-4-1.1-5.2-2.5c-1.2-1.4-1.8-3.1-1.8-5.1
		c0-1.1,0.2-2.2,0.6-3.2c0.4-1,1-1.9,1.9-2.6c0.8-0.7,1.9-1.3,3.2-1.8c1.3-0.4,2.8-0.7,4.5-0.7h9.6v29H1767.6z M1767.6,1773.7h-5.9
		c-2.1,0-3.7,0.4-4.8,1.3c-1.1,0.9-1.6,2.1-1.6,3.8c0,1.8,0.6,3.2,1.7,4c1.1,0.8,2.6,1.3,4.6,1.3h6V1773.7z"/>
	<path d="M1815.5,1791.6c0,1.2-0.2,2.4-0.7,3.4s-1.2,2-2.2,2.8c-1,0.8-2.3,1.4-3.8,1.9c-1.5,0.5-3.3,0.7-5.4,0.7
		c-0.9,0-1.8,0-2.6-0.1c-0.9-0.1-1.7-0.2-2.5-0.4c-0.8-0.2-1.5-0.3-2.2-0.5c-0.7-0.2-1.3-0.4-1.8-0.7v-3.6c1.3,0.7,2.7,1.3,4.3,1.6
		c1.6,0.4,3.1,0.6,4.7,0.6s2.9-0.1,4-0.4c1.1-0.3,2-0.7,2.7-1.1c0.7-0.5,1.2-1.1,1.5-1.7c0.3-0.7,0.5-1.4,0.5-2.2
		c0-2-0.8-3.4-2.3-4.2c-1.6-0.8-3.8-1.2-6.6-1.2h-3.4v-3.1h3.1c2.7,0,4.6-0.4,5.9-1.3c1.3-0.8,2-2.1,2-3.9c0-1.4-0.6-2.6-1.8-3.5
		c-1.2-0.9-2.9-1.3-5.2-1.3c-1.5,0-3,0.2-4.5,0.6c-1.5,0.4-2.9,0.9-4.3,1.6v-3.5c1.4-0.5,2.8-1,4.4-1.3c1.5-0.4,3.1-0.5,4.8-0.5
		c1.8,0,3.3,0.2,4.6,0.6c1.3,0.4,2.4,0.9,3.2,1.6c0.8,0.7,1.5,1.5,1.9,2.4s0.6,2,0.6,3.1c0,1.8-0.5,3.3-1.6,4.5
		c-1,1.2-2.5,2-4.4,2.4v0.1c1.1,0.1,2.2,0.3,3.1,0.7c0.9,0.4,1.7,0.9,2.3,1.5s1.1,1.3,1.4,2.2
		C1815.3,1789.7,1815.5,1790.6,1815.5,1791.6z"/>
	<path d="M1834.5,1800.3c-2.2,0-4.1-0.4-5.8-1.1s-3.2-1.7-4.4-3c-1.2-1.3-2.1-2.9-2.8-4.7c-0.6-1.8-1-3.9-1-6.1c0-2.4,0.3-4.6,1-6.5
		c0.7-1.9,1.6-3.5,2.9-4.9s2.8-2.3,4.5-3c1.8-0.7,3.8-1,5.9-1c2.1,0,4,0.3,5.7,1c1.7,0.7,3.1,1.7,4.3,3c1.2,1.3,2.1,2.9,2.7,4.8
		s0.9,4,0.9,6.4c0,2.3-0.3,4.3-1,6.2c-0.7,1.9-1.6,3.5-2.8,4.8c-1.2,1.3-2.7,2.4-4.4,3.1C1838.7,1799.9,1836.7,1800.3,1834.5,1800.3
		z M1834.8,1773.1c-1.6,0-3,0.3-4.3,0.8s-2.4,1.3-3.3,2.4s-1.6,2.3-2.1,3.8c-0.5,1.5-0.7,3.2-0.7,5.2c0,1.8,0.2,3.4,0.7,4.9
		c0.5,1.5,1.2,2.7,2.1,3.7c0.9,1,2,1.8,3.3,2.4c1.3,0.6,2.7,0.8,4.3,0.8c1.6,0,3.1-0.3,4.3-0.8c1.2-0.5,2.3-1.3,3.2-2.3
		c0.9-1,1.5-2.3,2-3.8c0.4-1.5,0.7-3.2,0.7-5.1c0-3.9-0.9-6.9-2.6-9C1840.5,1774.1,1838,1773.1,1834.8,1773.1z"/>
	<path d="M1875.4,1799.6v-13.5h-15.9v13.5h-3.6v-29h3.6v12.3h15.9v-12.3h3.6v29H1875.4z"/>
	<path d="M1905.1,1799.6v-5.2h-0.1c-0.9,1.8-2.2,3.3-3.9,4.3c-1.6,1-3.5,1.5-5.5,1.5c-1.4,0-2.7-0.2-3.8-0.6c-1.1-0.4-2.1-1-2.9-1.7
		c-0.8-0.7-1.4-1.6-1.8-2.6c-0.4-1-0.6-2.1-0.6-3.4c0-2.6,0.8-4.7,2.4-6.3c1.6-1.6,4.1-2.6,7.4-3l8.8-1.3c0-5.6-2.2-8.3-6.5-8.3
		c-3.4,0-6.5,1.2-9.4,3.7v-4c0.6-0.4,1.3-0.8,2.1-1.2c0.8-0.3,1.6-0.7,2.4-0.9c0.8-0.3,1.7-0.5,2.6-0.6c0.9-0.1,1.8-0.2,2.6-0.2
		c3.2,0,5.7,0.9,7.3,2.7c1.7,1.8,2.5,4.5,2.5,8.1v18.8H1905.1z M1897.6,1785.5c-1.3,0.2-2.4,0.4-3.3,0.7c-0.9,0.3-1.7,0.7-2.3,1.1
		c-0.6,0.5-1,1.1-1.3,1.8c-0.3,0.7-0.4,1.6-0.4,2.6c0,0.8,0.1,1.5,0.4,2.2c0.3,0.7,0.7,1.2,1.2,1.7c0.5,0.5,1.2,0.9,1.9,1.1
		c0.7,0.3,1.6,0.4,2.5,0.4c1.3,0,2.5-0.2,3.5-0.7c1.1-0.5,2-1.2,2.8-2c0.8-0.9,1.4-1.9,1.8-3.1s0.7-2.5,0.7-3.9v-2.9L1897.6,1785.5z
		"/>
</g>
<g>
	<path class="st5" d="M1610.4,1849c-3,0-5.4-1.2-7-3.7s-2.5-6-2.5-10.7c0-5.1,0.9-9,2.6-11.6s4.3-3.9,7.6-3.9
		c6.4,0,9.5,4.9,9.5,14.8c0,4.9-0.9,8.6-2.7,11.2C1616.1,1847.7,1613.6,1849,1610.4,1849z M1610.9,1822.8c-3.5,0-5.3,3.9-5.3,11.6
		c0,7.2,1.7,10.9,5.2,10.9c3.4,0,5.1-3.7,5.1-11C1615.8,1826.6,1614.2,1822.8,1610.9,1822.8z"/>
	<path class="st5" d="M1627.2,1848.9c-0.8,0-1.5-0.3-2.1-0.8c-0.6-0.5-0.8-1.2-0.8-1.9c0-0.8,0.3-1.4,0.8-1.9
		c0.6-0.5,1.3-0.8,2.1-0.8c0.8,0,1.5,0.3,2.1,0.8c0.6,0.5,0.9,1.2,0.9,1.9c0,0.7-0.3,1.4-0.9,1.9
		C1628.7,1848.7,1628,1848.9,1627.2,1848.9z"/>
	<path class="st5" d="M1653.6,1839.2c0,1.5-0.2,2.8-0.7,4c-0.5,1.2-1.1,2.2-2,3.1s-1.9,1.5-3,2c-1.2,0.5-2.4,0.7-3.8,0.7
		c-1.5,0-2.8-0.3-4-0.8s-2.3-1.4-3.1-2.5s-1.6-2.5-2-4.2c-0.5-1.7-0.7-3.6-0.7-5.8c0-2.7,0.3-5,1-7.1c0.6-2.1,1.5-3.8,2.6-5.2
		s2.4-2.5,3.9-3.2c1.5-0.7,3.1-1.1,4.9-1.1c1.1,0,2.1,0.1,3,0.2c0.9,0.1,1.6,0.3,2.1,0.6v4.2c-0.7-0.3-1.4-0.6-2.2-0.9
		s-1.7-0.4-2.7-0.4c-1.1,0-2.2,0.2-3.1,0.7c-1,0.5-1.8,1.1-2.5,2c-0.7,0.9-1.2,2-1.6,3.3c-0.4,1.3-0.6,2.8-0.6,4.5h0.1
		c0.6-1,1.5-1.7,2.5-2.3c1.1-0.6,2.3-0.8,3.7-0.8c1.3,0,2.4,0.2,3.4,0.6s1.9,1,2.6,1.8s1.3,1.7,1.7,2.8
		C1653.4,1836.6,1653.6,1837.8,1653.6,1839.2z M1648.9,1839.6c0-0.8-0.1-1.6-0.3-2.3c-0.2-0.7-0.5-1.3-0.9-1.8s-0.9-0.9-1.5-1.1
		c-0.6-0.3-1.3-0.4-2.1-0.4s-1.5,0.1-2.1,0.4c-0.6,0.3-1.1,0.7-1.5,1.1c-0.4,0.5-0.7,1-0.9,1.6c-0.2,0.6-0.3,1.2-0.3,1.9
		c0,0.7,0.1,1.4,0.3,2.1c0.2,0.7,0.5,1.4,0.9,2c0.4,0.6,0.9,1.1,1.5,1.5c0.6,0.4,1.4,0.6,2.2,0.6c0.8,0,1.4-0.1,2-0.4
		c0.6-0.3,1.1-0.7,1.5-1.2c0.4-0.5,0.7-1.1,0.9-1.8C1648.8,1841.1,1648.9,1840.4,1648.9,1839.6z"/>
	<path class="st5" d="M1680.5,1838.9h-11v-3.4h11V1838.9z"/>
	<path class="st5" d="M1697.6,1847.8v-4.5c1.9,1.3,3.8,1.9,5.8,1.9c2,0,3.5-0.5,4.7-1.5s1.8-2.3,1.8-4c0-1.6-0.6-2.9-1.8-3.8
		c-1.2-0.9-3-1.4-5.2-1.4c-0.8,0-2.4,0.1-4.7,0.2l1-15.2h14.2v4h-10.3l-0.5,7.2c0.9-0.1,1.8-0.1,2.5-0.1c3.1,0,5.4,0.8,7.1,2.4
		c1.7,1.6,2.5,3.7,2.5,6.5c0,2.9-1,5.2-2.9,6.9s-4.5,2.6-7.9,2.6C1701.1,1849,1699,1848.6,1697.6,1847.8z"/>
	<path class="st5" d="M1763.4,1848.5h-4.8v-18.7c0-1.5,0.1-3.4,0.3-5.6h-0.1c-0.3,1.3-0.6,2.2-0.8,2.7l-8.6,21.6h-3.3l-8.7-21.5
		c-0.2-0.6-0.5-1.6-0.8-2.9h-0.1c0.1,1.2,0.2,3,0.2,5.7v18.7h-4.4v-28.9h6.8l7.6,19.3c0.6,1.5,1,2.6,1.1,3.3h0.1
		c0.5-1.5,0.9-2.6,1.2-3.4l7.7-19.2h6.5V1848.5z"/>
	<path class="st5" d="M1786.8,1848.5h-16.2v-28.9h15.6v4.1h-10.8v8.2h9.9v4.1h-9.9v8.6h11.4V1848.5z"/>
	<path class="st5" d="M1810.5,1823.7h-8.3v24.8h-4.8v-24.8h-8.3v-4.1h21.4V1823.7z"/>
	<path class="st5" d="M1819.5,1838v10.5h-4.8v-28.9h8.8c3.3,0,5.9,0.8,7.7,2.3c1.8,1.5,2.7,3.7,2.7,6.5c0,2.8-1,5.1-2.9,6.9
		c-1.9,1.8-4.5,2.7-7.7,2.7H1819.5z M1819.5,1823.5v10.6h3.1c2.1,0,3.6-0.5,4.7-1.4c1.1-1,1.6-2.3,1.6-4c0-3.4-2-5.1-5.9-5.1H1819.5
		z"/>
	<path class="st5" d="M1843.8,1848.5h-4.9v-28.9h4.9V1848.5z"/>
	<path class="st5" d="M1850.9,1848.5v-28.9h9.2c2.8,0,5,0.6,6.6,1.8c1.6,1.2,2.5,2.8,2.5,4.8c0,1.6-0.5,3.1-1.4,4.3
		c-0.9,1.2-2.2,2.1-3.9,2.6v0.1c2,0.2,3.6,1,4.8,2.2c1.2,1.2,1.8,2.9,1.8,4.9c0,2.5-1,4.5-2.9,6c-2,1.5-4.4,2.3-7.4,2.3H1850.9z
		 M1855.7,1823.4v8.2h3.1c1.7,0,3-0.4,3.9-1.2c0.9-0.8,1.4-1.9,1.4-3.3c0-2.5-1.7-3.7-5-3.7H1855.7z M1855.7,1835.5v9.2h4.1
		c1.8,0,3.2-0.4,4.1-1.2c1-0.8,1.5-2,1.5-3.4c0-3-2.1-4.5-6.2-4.5H1855.7z"/>
</g>
<g>
	<path d="M1691,2041.2c0,1.7-0.3,3.3-0.9,4.8c-0.6,1.5-1.4,2.7-2.5,3.8c-1.1,1.1-2.4,1.9-4,2.5c-1.6,0.6-3.3,0.9-5.3,0.9h-11.6
		v-40.6h21v3.5h-17.3v14.2h8.5c1.8,0,3.5,0.2,5,0.7c1.5,0.5,2.8,1.1,3.8,2.1c1.1,0.9,1.9,2.1,2.4,3.5
		C1690.7,2037.7,1691,2039.3,1691,2041.2z M1687.1,2041.4c0-2.7-0.8-4.7-2.4-6c-1.6-1.3-3.9-1.9-7-1.9h-7.2v16.1h7.2
		c1.6,0,3-0.2,4.1-0.6c1.2-0.4,2.1-1,2.9-1.7c0.8-0.7,1.3-1.6,1.7-2.6C1686.9,2043.8,1687.1,2042.7,1687.1,2041.4z"/>
	<path d="M1715.1,2053.1v-25.8h-7.6c-0.3,4.5-0.8,8.4-1.4,11.7c-0.6,3.3-1.3,6-2.2,8.2c-0.9,2.2-2,3.7-3.2,4.8s-2.7,1.6-4.4,1.6
		c-0.4,0-0.7,0-1.1-0.1c-0.4-0.1-0.7-0.1-1-0.2v-3.1c0.2,0.1,0.5,0.2,0.9,0.3c0.3,0.1,0.7,0.1,1,0.1c1.2,0,2.2-0.6,3.1-1.7
		c0.9-1.1,1.7-2.8,2.3-5c0.7-2.2,1.2-5,1.7-8.2c0.5-3.3,0.9-7.1,1.2-11.4h14.3v29H1715.1z"/>
	<path d="M1748.1,2053.1v-23.7c-0.1,0.2-0.3,0.4-0.4,0.7s-0.3,0.4-0.4,0.6l-16,22.4h-3.3v-29h3.4v23.4c0.1-0.3,0.2-0.6,0.4-0.9
		c0.2-0.3,0.4-0.7,0.7-1.1l15.5-21.5h3.5v29H1748.1z"/>
	<path d="M1779.8,2045.1c0,1.2-0.2,2.4-0.7,3.4c-0.5,1.1-1.2,2-2.2,2.8c-1,0.8-2.3,1.4-3.8,1.9c-1.5,0.5-3.3,0.7-5.4,0.7
		c-0.9,0-1.8,0-2.6-0.1s-1.7-0.2-2.5-0.4c-0.8-0.2-1.5-0.3-2.2-0.5c-0.7-0.2-1.3-0.4-1.8-0.7v-3.6c1.3,0.7,2.7,1.3,4.3,1.6
		c1.6,0.4,3.1,0.6,4.7,0.6s2.9-0.1,4-0.4c1.1-0.3,2-0.7,2.7-1.1c0.7-0.5,1.2-1.1,1.5-1.7c0.3-0.7,0.5-1.4,0.5-2.2
		c0-2-0.8-3.4-2.3-4.2s-3.8-1.2-6.6-1.2h-3.4v-3.1h3.1c2.7,0,4.6-0.4,5.9-1.3c1.3-0.8,2-2.1,2-3.9c0-1.4-0.6-2.6-1.8-3.5
		c-1.2-0.9-2.9-1.3-5.2-1.3c-1.5,0-3,0.2-4.5,0.6c-1.5,0.4-2.9,0.9-4.3,1.6v-3.5c1.4-0.5,2.8-1,4.4-1.3c1.5-0.4,3.1-0.5,4.8-0.5
		c1.8,0,3.3,0.2,4.6,0.6c1.3,0.4,2.4,0.9,3.2,1.6c0.8,0.7,1.5,1.5,1.9,2.4s0.6,2,0.6,3.1c0,1.8-0.5,3.3-1.6,4.5
		c-1,1.2-2.5,2-4.4,2.4v0.1c1.1,0.1,2.2,0.3,3.1,0.7c0.9,0.4,1.7,0.9,2.3,1.5c0.6,0.6,1.1,1.3,1.4,2.2
		C1779.6,2043.2,1779.8,2044.1,1779.8,2045.1z"/>
	<path d="M1808,2044.2c0,1.4-0.2,2.7-0.7,3.8c-0.5,1.1-1.2,2-2,2.8s-1.8,1.3-2.9,1.7c-1.1,0.4-2.2,0.6-3.4,0.6h-12v-29h3.6v11.5h8
		c1.4,0,2.7,0.2,3.9,0.6s2.1,0.9,2.9,1.7c0.8,0.7,1.4,1.6,1.9,2.7C1807.8,2041.7,1808,2042.9,1808,2044.2z M1804.2,2044.2
		c0-1.7-0.5-3-1.6-4c-1-1-2.6-1.5-4.7-1.5h-7.3v11.1h7.4c1.1,0,2-0.1,2.8-0.4c0.8-0.3,1.4-0.7,1.9-1.1c0.5-0.5,0.9-1.1,1.1-1.8
		C1804.1,2045.9,1804.2,2045.1,1804.2,2044.2z"/>
</g>
<g>
	<path d="M3022,1479.8c0,1.4-0.3,2.8-0.8,4c-0.5,1.3-1.3,2.4-2.4,3.3s-2.3,1.7-3.9,2.2c-1.5,0.5-3.3,0.8-5.3,0.8
		c-2,0-3.7-0.2-5.2-0.6s-2.8-0.9-3.9-1.6v-3.5c1.4,1,2.8,1.8,4.4,2.2c1.6,0.5,3.2,0.7,4.8,0.7c1.4,0,2.7-0.2,3.8-0.6
		s2.1-0.9,2.8-1.5s1.4-1.4,1.8-2.3c0.4-0.9,0.6-1.8,0.6-2.9c0-2.5-0.9-4.3-2.6-5.5s-4.2-1.8-7.4-1.8h-3.4v-2.7h2.9
		c1.4,0,2.7-0.2,3.8-0.5s2.1-0.8,2.9-1.4s1.4-1.4,1.8-2.2s0.6-1.9,0.6-3c0-0.9-0.2-1.7-0.5-2.5c-0.3-0.8-0.8-1.4-1.4-2
		s-1.3-1-2.2-1.3s-1.9-0.5-3-0.5c-1.5,0-2.9,0.2-4.3,0.7c-1.4,0.5-2.7,1.1-3.9,2v-3.3c1.2-0.7,2.5-1.2,3.8-1.6
		c1.4-0.4,2.9-0.6,4.6-0.6c1.6,0,3,0.2,4.3,0.6s2.3,1,3.2,1.8c0.9,0.7,1.5,1.6,2,2.7c0.5,1,0.7,2.2,0.7,3.4c0,2.3-0.6,4.2-1.8,5.6
		c-1.2,1.5-2.9,2.5-5.2,3.1v0.1c1.3,0.1,2.5,0.4,3.5,0.9s1.9,1.1,2.6,1.9c0.7,0.8,1.2,1.7,1.6,2.6
		C3021.8,1477.7,3022,1478.7,3022,1479.8z"/>
	<path d="M3039,1490.1c-1.9,0-3.5-0.3-5-0.9s-2.7-1.5-3.8-2.6c-1-1.1-1.8-2.5-2.4-4.1c-0.6-1.6-0.8-3.3-0.8-5.2
		c0-2.1,0.3-3.9,0.9-5.6s1.4-3,2.5-4.2s2.4-2,3.9-2.6c1.5-0.6,3.2-0.9,5.1-0.9c1.8,0,3.4,0.3,4.9,0.9c1.4,0.6,2.7,1.5,3.7,2.6
		c1,1.1,1.8,2.5,2.3,4.1s0.8,3.4,0.8,5.5c0,2-0.3,3.7-0.8,5.3c-0.6,1.6-1.4,3-2.4,4.1c-1,1.2-2.3,2.1-3.8,2.7
		C3042.6,1489.8,3040.9,1490.1,3039,1490.1z M3039.3,1466.6c-1.4,0-2.6,0.2-3.7,0.7c-1.1,0.5-2.1,1.2-2.8,2.1s-1.4,2-1.8,3.3
		c-0.4,1.3-0.6,2.8-0.6,4.5c0,1.6,0.2,3,0.6,4.2c0.4,1.3,1,2.3,1.8,3.2s1.7,1.6,2.8,2.1c1.1,0.5,2.3,0.7,3.7,0.7
		c1.4,0,2.6-0.2,3.7-0.7s2-1.1,2.7-2c0.7-0.9,1.3-2,1.7-3.3s0.6-2.8,0.6-4.4c0-3.4-0.7-5.9-2.2-7.7
		C3044.2,1467.5,3042.1,1466.6,3039.3,1466.6z"/>
	<path d="M3074.3,1489.5v-11.6h-13.7v11.6h-3.1v-25h3.1v10.6h13.7v-10.6h3.1v25H3074.3z"/>
	<path d="M3099.9,1489.5v-4.4h-0.1c-0.8,1.6-1.9,2.8-3.3,3.7s-3,1.3-4.8,1.3c-1.2,0-2.3-0.2-3.3-0.5s-1.8-0.8-2.5-1.5
		c-0.7-0.6-1.2-1.4-1.6-2.3s-0.5-1.8-0.5-2.9c0-2.3,0.7-4.1,2.1-5.4c1.4-1.3,3.5-2.2,6.3-2.6l7.6-1.1c0-4.8-1.9-7.2-5.6-7.2
		c-2.9,0-5.6,1.1-8.1,3.2v-3.4c0.5-0.4,1.1-0.7,1.8-1c0.7-0.3,1.4-0.6,2.1-0.8s1.5-0.4,2.3-0.5s1.5-0.2,2.3-0.2
		c2.8,0,4.9,0.8,6.3,2.3s2.1,3.9,2.1,7v16.3H3099.9z M3093.5,1477.4c-1.1,0.2-2.1,0.4-2.9,0.6c-0.8,0.2-1.5,0.6-2,1
		c-0.5,0.4-0.9,0.9-1.1,1.5s-0.4,1.4-0.4,2.3c0,0.7,0.1,1.3,0.4,1.9s0.6,1.1,1,1.5s1,0.7,1.6,1s1.4,0.3,2.2,0.3
		c1.1,0,2.1-0.2,3.1-0.6s1.7-1,2.4-1.8s1.2-1.6,1.6-2.7s0.6-2.2,0.6-3.4v-2.5L3093.5,1477.4z"/>
	<path d="M3110,1495.8h-2.4l3.2-11.8h3.2L3110,1495.8z"/>
	<path d="M3167,1498.6v-9.1h-31.7v-25h3.1v22.3h10.7v-22.3h3.1v22.3h10.7v-22.3h3.1v22.3h3.8v11.8H3167z"/>
	<path d="M3185.3,1490.1c-1.9,0-3.5-0.3-5-0.9s-2.7-1.5-3.8-2.6c-1-1.1-1.8-2.5-2.4-4.1c-0.6-1.6-0.8-3.3-0.8-5.2
		c0-2.1,0.3-3.9,0.9-5.6s1.4-3,2.5-4.2s2.4-2,3.9-2.6c1.5-0.6,3.2-0.9,5.1-0.9c1.8,0,3.4,0.3,4.9,0.9c1.4,0.6,2.7,1.5,3.7,2.6
		c1,1.1,1.8,2.5,2.3,4.1s0.8,3.4,0.8,5.5c0,2-0.3,3.7-0.8,5.3c-0.6,1.6-1.4,3-2.4,4.1c-1,1.2-2.3,2.1-3.8,2.7
		C3188.9,1489.8,3187.2,1490.1,3185.3,1490.1z M3185.5,1466.6c-1.4,0-2.6,0.2-3.7,0.7c-1.1,0.5-2.1,1.2-2.8,2.1s-1.4,2-1.8,3.3
		c-0.4,1.3-0.6,2.8-0.6,4.5c0,1.6,0.2,3,0.6,4.2c0.4,1.3,1,2.3,1.8,3.2s1.7,1.6,2.8,2.1c1.1,0.5,2.3,0.7,3.7,0.7
		c1.4,0,2.6-0.2,3.7-0.7s2-1.1,2.7-2c0.7-0.9,1.3-2,1.7-3.3s0.6-2.8,0.6-4.4c0-3.4-0.7-5.9-2.2-7.7
		C3190.5,1467.5,3188.3,1466.6,3185.5,1466.6z"/>
	<path d="M3234.3,1489.5v-11.6h-13.7v11.6h-3.1v-25h3.1v10.6h13.7v-10.6h3.1v25H3234.3z"/>
	<path d="M3247,1477.6c0,1.5,0.2,2.9,0.6,4.1s1,2.3,1.7,3.1s1.6,1.5,2.7,1.9c1,0.4,2.2,0.7,3.6,0.7c2.8,0,5.5-1,8-3v3.1
		c-2.4,1.7-5.3,2.6-8.7,2.6c-1.7,0-3.2-0.3-4.6-0.9s-2.5-1.4-3.5-2.6c-1-1.1-1.7-2.5-2.2-4.1c-0.5-1.6-0.8-3.5-0.8-5.6
		c0-1.9,0.3-3.6,0.9-5.2c0.6-1.6,1.4-3,2.4-4.1c1-1.2,2.2-2.1,3.6-2.7c1.4-0.7,2.9-1,4.5-1c1.6,0,3,0.3,4.3,0.8
		c1.2,0.6,2.3,1.4,3.1,2.4s1.5,2.3,1.9,3.8s0.7,3.2,0.7,5v1.6H3247z M3261.8,1474.8c0-2.6-0.7-4.6-1.9-6.1c-1.2-1.4-2.8-2.1-5-2.1
		c-1.1,0-2,0.2-2.9,0.6s-1.7,0.9-2.4,1.6s-1.3,1.6-1.7,2.6c-0.4,1-0.8,2.2-0.9,3.4H3261.8z"/>
	<path d="M3303.6,1482.3c0,1-0.2,2-0.6,2.8c-0.4,0.9-0.9,1.6-1.6,2.3c-0.7,0.6-1.5,1.1-2.5,1.5c-1,0.4-2,0.5-3.1,0.5h-10.9v-25h10.2
		c1.3,0,2.4,0.2,3.3,0.5c0.9,0.3,1.7,0.7,2.4,1.3s1.1,1.2,1.4,1.9c0.3,0.7,0.5,1.6,0.5,2.4c0,1.6-0.4,2.9-1.2,3.9
		c-0.8,1-2,1.7-3.5,2c1.9,0.2,3.3,0.9,4.3,1.9C3303.1,1479.4,3303.6,1480.7,3303.6,1482.3z M3299.5,1471c0-0.6-0.1-1.1-0.3-1.5
		c-0.2-0.5-0.5-0.9-0.8-1.2c-0.4-0.3-0.9-0.6-1.5-0.8c-0.6-0.2-1.3-0.3-2.2-0.3h-6.7v8.1h6.2c1,0,1.8-0.1,2.4-0.3
		c0.7-0.2,1.2-0.5,1.6-0.9c0.4-0.4,0.7-0.8,0.9-1.4S3299.5,1471.6,3299.5,1471z M3300.4,1482.4c0-0.7-0.1-1.2-0.3-1.8
		c-0.2-0.5-0.6-1-1-1.4c-0.5-0.4-1.1-0.7-1.8-0.9c-0.7-0.2-1.7-0.3-2.7-0.3h-6.5v8.7h7.2c1.8,0,3.1-0.4,3.9-1.2
		S3300.4,1483.7,3300.4,1482.4z"/>
	<path d="M3327.4,1489.5v-20.4c-0.1,0.2-0.2,0.4-0.3,0.6c-0.1,0.2-0.2,0.4-0.3,0.5l-13.8,19.3h-2.9v-25h3v20.2
		c0.1-0.2,0.2-0.5,0.4-0.8c0.2-0.3,0.3-0.6,0.6-0.9l13.4-18.5h3v25H3327.4z"/>
	<path d="M3353,1489.5l-11.4-12.1h-0.1v12.1h-3.1v-25h3.1v11.7h0.1l11-11.7h4.1l-11.8,12.1l12.5,12.9H3353z"/>
	<path d="M3370.9,1490.1c-1.9,0-3.5-0.3-5-0.9s-2.7-1.5-3.8-2.6c-1-1.1-1.8-2.5-2.4-4.1c-0.6-1.6-0.8-3.3-0.8-5.2
		c0-2.1,0.3-3.9,0.9-5.6s1.4-3,2.5-4.2s2.4-2,3.9-2.6c1.5-0.6,3.2-0.9,5.1-0.9c1.8,0,3.4,0.3,4.9,0.9c1.4,0.6,2.7,1.5,3.7,2.6
		c1,1.1,1.8,2.5,2.3,4.1s0.8,3.4,0.8,5.5c0,2-0.3,3.7-0.8,5.3c-0.6,1.6-1.4,3-2.4,4.1c-1,1.2-2.3,2.1-3.8,2.7
		C3374.5,1489.8,3372.8,1490.1,3370.9,1490.1z M3371.1,1466.6c-1.4,0-2.6,0.2-3.7,0.7c-1.1,0.5-2.1,1.2-2.8,2.1s-1.4,2-1.8,3.3
		c-0.4,1.3-0.6,2.8-0.6,4.5c0,1.6,0.2,3,0.6,4.2c0.4,1.3,1,2.3,1.8,3.2s1.7,1.6,2.8,2.1c1.1,0.5,2.3,0.7,3.7,0.7
		c1.4,0,2.6-0.2,3.7-0.7s2-1.1,2.7-2c0.7-0.9,1.3-2,1.7-3.3s0.6-2.8,0.6-4.4c0-3.4-0.7-5.9-2.2-7.7
		C3376.1,1467.5,3373.9,1466.6,3371.1,1466.6z"/>
	<path d="M3392.5,1485.5v15.5h-3.1v-36.5h3.1v4.8h0.1c0.9-1.7,2.2-3.1,3.7-4c1.6-0.9,3.3-1.4,5.3-1.4c1.6,0,3,0.3,4.3,0.9
		c1.3,0.6,2.3,1.4,3.2,2.5s1.5,2.3,2,3.9s0.7,3.2,0.7,5.1c0,2.1-0.3,4-0.8,5.7c-0.5,1.7-1.3,3.2-2.2,4.4s-2.2,2.2-3.6,2.8
		c-1.4,0.7-3,1-4.7,1C3396.9,1490.1,3394.3,1488.6,3392.5,1485.5L3392.5,1485.5z M3392.5,1479.1c0,1.1,0.2,2.2,0.6,3.2
		s0.9,1.9,1.6,2.6s1.5,1.4,2.5,1.8s2,0.7,3.2,0.7c1.3,0,2.4-0.3,3.4-0.8c1-0.5,1.9-1.3,2.6-2.3s1.3-2.2,1.6-3.5s0.6-2.9,0.6-4.6
		c0-1.5-0.2-2.8-0.5-4c-0.4-1.2-0.9-2.2-1.5-3s-1.5-1.5-2.4-1.9s-2-0.7-3.1-0.7c-1.3,0-2.5,0.2-3.5,0.7c-1,0.5-1.9,1.1-2.7,2
		s-1.3,1.8-1.7,2.9c-0.4,1.1-0.6,2.3-0.6,3.6V1479.1z"/>
	<path d="M3435.3,1489.5v-20.4c-0.1,0.2-0.2,0.4-0.3,0.6c-0.1,0.2-0.2,0.4-0.3,0.5l-13.8,19.3h-2.9v-25h3v20.2
		c0.1-0.2,0.2-0.5,0.4-0.8c0.2-0.3,0.3-0.6,0.6-0.9l13.4-18.5h3v25H3435.3z"/>
	<path d="M3462.9,1488.4c-1.9,1.1-4.1,1.7-6.7,1.7c-1.8,0-3.4-0.3-4.8-0.9c-1.4-0.6-2.7-1.5-3.7-2.6c-1-1.1-1.8-2.5-2.3-4
		s-0.8-3.2-0.8-5c0-1.9,0.3-3.6,0.9-5.3c0.6-1.7,1.4-3.1,2.5-4.3c1.1-1.2,2.4-2.2,4-2.9c1.6-0.7,3.4-1.1,5.4-1.1
		c2.1,0,4,0.4,5.7,1.2v3.3c-1.8-1.2-3.8-1.8-5.9-1.8c-1.5,0-2.8,0.3-4,0.8c-1.2,0.6-2.1,1.3-2.9,2.3c-0.8,1-1.4,2.1-1.8,3.4
		s-0.6,2.7-0.6,4.1c0,1.3,0.2,2.6,0.5,3.8s0.9,2.3,1.6,3.2c0.7,0.9,1.6,1.7,2.7,2.2c1.1,0.6,2.4,0.8,3.9,0.8c2.3,0,4.5-0.7,6.3-2.1
		V1488.4z"/>
	<path d="M3476.2,1467.2v22.3h-3.1v-22.3h-7.5v-2.7h18.1v2.7H3476.2z"/>
	<path d="M3497.8,1490.1c-1.9,0-3.5-0.3-5-0.9s-2.7-1.5-3.8-2.6c-1-1.1-1.8-2.5-2.4-4.1c-0.6-1.6-0.8-3.3-0.8-5.2
		c0-2.1,0.3-3.9,0.9-5.6s1.4-3,2.5-4.2s2.4-2,3.9-2.6c1.5-0.6,3.2-0.9,5.1-0.9c1.8,0,3.4,0.3,4.9,0.9c1.4,0.6,2.7,1.5,3.7,2.6
		c1,1.1,1.8,2.5,2.3,4.1s0.8,3.4,0.8,5.5c0,2-0.3,3.7-0.8,5.3c-0.6,1.6-1.4,3-2.4,4.1c-1,1.2-2.3,2.1-3.8,2.7
		C3501.3,1489.8,3499.6,1490.1,3497.8,1490.1z M3498,1466.6c-1.4,0-2.6,0.2-3.7,0.7c-1.1,0.5-2.1,1.2-2.8,2.1s-1.4,2-1.8,3.3
		c-0.4,1.3-0.6,2.8-0.6,4.5c0,1.6,0.2,3,0.6,4.2c0.4,1.3,1,2.3,1.8,3.2s1.7,1.6,2.8,2.1c1.1,0.5,2.3,0.7,3.7,0.7
		c1.4,0,2.6-0.2,3.7-0.7s2-1.1,2.7-2c0.7-0.9,1.3-2,1.7-3.3s0.6-2.8,0.6-4.4c0-3.4-0.7-5.9-2.2-7.7
		C3502.9,1467.5,3500.8,1466.6,3498,1466.6z"/>
	<path d="M3534.9,1482.3c0,1-0.2,2-0.6,2.8c-0.4,0.9-0.9,1.6-1.6,2.3c-0.7,0.6-1.5,1.1-2.5,1.5c-1,0.4-2,0.5-3.1,0.5h-10.9v-25h10.2
		c1.3,0,2.4,0.2,3.3,0.5c0.9,0.3,1.7,0.7,2.4,1.3s1.1,1.2,1.4,1.9c0.3,0.7,0.5,1.6,0.5,2.4c0,1.6-0.4,2.9-1.2,3.9
		c-0.8,1-2,1.7-3.5,2c1.9,0.2,3.3,0.9,4.3,1.9C3534.5,1479.4,3534.9,1480.7,3534.9,1482.3z M3530.8,1471c0-0.6-0.1-1.1-0.3-1.5
		c-0.2-0.5-0.5-0.9-0.8-1.2c-0.4-0.3-0.9-0.6-1.5-0.8c-0.6-0.2-1.3-0.3-2.2-0.3h-6.7v8.1h6.2c1,0,1.8-0.1,2.4-0.3
		c0.7-0.2,1.2-0.5,1.6-0.9c0.4-0.4,0.7-0.8,0.9-1.4S3530.8,1471.6,3530.8,1471z M3531.8,1482.4c0-0.7-0.1-1.2-0.3-1.8
		c-0.2-0.5-0.6-1-1-1.4c-0.5-0.4-1.1-0.7-1.8-0.9c-0.7-0.2-1.7-0.3-2.7-0.3h-6.5v8.7h7.2c1.8,0,3.1-0.4,3.9-1.2
		S3531.8,1483.7,3531.8,1482.4z"/>
	<path d="M3548.7,1494c-1,2.4-2.1,4.3-3.4,5.4s-2.8,1.8-4.6,1.8c-0.9,0-1.7-0.1-2.3-0.3v-2.9c0.4,0.1,0.7,0.2,1.1,0.3
		c0.4,0.1,0.7,0.1,1.1,0.1c1,0,1.9-0.3,2.7-1s1.4-1.6,2-2.9l2.2-5.1l-9.6-24.9h3.5l7.2,19.8c0.1,0.3,0.2,0.6,0.3,0.9
		c0.1,0.3,0.2,0.7,0.3,1h0.1c0.1-0.3,0.2-0.6,0.2-0.8c0.1-0.3,0.2-0.6,0.3-0.9l7.6-19.9h3.3L3548.7,1494z"/>
	<path d="M3578.3,1489.6c-1.1,0.3-2.4,0.5-3.8,0.5c-1.8,0-3.4-0.3-4.9-0.9s-2.7-1.5-3.7-2.6c-1-1.1-1.8-2.4-2.3-4s-0.8-3.3-0.8-5.2
		c0-2.1,0.3-3.9,0.9-5.6c0.6-1.7,1.5-3.1,2.6-4.2s2.4-2.1,4-2.7s3.3-1,5.2-1c1.1,0,2.2,0.1,3.1,0.3s1.8,0.5,2.6,0.9v3.2
		c-0.7-0.5-1.6-0.9-2.6-1.3s-2.1-0.5-3.3-0.5c-1.3,0-2.5,0.2-3.6,0.7s-2,1.1-2.8,1.8c-0.8,0.8-1.4,1.7-1.9,2.8
		c-0.5,1.1-0.8,2.3-0.9,3.7h11.5v2.7H3566c0.1,1.4,0.3,2.6,0.8,3.8s1,2.1,1.8,2.9c0.8,0.8,1.6,1.4,2.7,1.8s2.2,0.6,3.4,0.6
		c1.3,0,2.5-0.2,3.6-0.6s2.1-0.9,2.9-1.5v3.1C3580.4,1488.9,3579.4,1489.3,3578.3,1489.6z"/>
	<path d="M3594.6,1467.2v22.3h-3.1v-22.3h-7.5v-2.7h18.1v2.7H3594.6z"/>
	<path d="M3624.9,1481.9c0,1.2-0.2,2.3-0.6,3.3c-0.4,1-1,1.8-1.7,2.4c-0.7,0.6-1.5,1.1-2.5,1.5c-0.9,0.3-1.9,0.5-3,0.5h-10.3v-25
		h3.1v9.9h6.9c1.2,0,2.4,0.2,3.3,0.5c1,0.3,1.8,0.8,2.5,1.5c0.7,0.6,1.2,1.4,1.6,2.3C3624.7,1479.6,3624.9,1480.7,3624.9,1481.9z
		 M3621.7,1481.9c0-1.4-0.5-2.6-1.4-3.4s-2.3-1.3-4.1-1.3h-6.3v9.6h6.4c0.9,0,1.8-0.1,2.4-0.4c0.7-0.2,1.2-0.6,1.7-1s0.8-0.9,1-1.6
		C3621.6,1483.3,3621.7,1482.6,3621.7,1481.9z"/>
	<path d="M3647.3,1488.4c-1.9,1.1-4.1,1.7-6.7,1.7c-1.8,0-3.4-0.3-4.8-0.9c-1.4-0.6-2.7-1.5-3.7-2.6c-1-1.1-1.8-2.5-2.3-4
		s-0.8-3.2-0.8-5c0-1.9,0.3-3.6,0.9-5.3c0.6-1.7,1.4-3.1,2.5-4.3c1.1-1.2,2.4-2.2,4-2.9c1.6-0.7,3.4-1.1,5.4-1.1
		c2.1,0,4,0.4,5.7,1.2v3.3c-1.8-1.2-3.8-1.8-5.9-1.8c-1.5,0-2.8,0.3-4,0.8c-1.2,0.6-2.1,1.3-2.9,2.3c-0.8,1-1.4,2.1-1.8,3.4
		s-0.6,2.7-0.6,4.1c0,1.3,0.2,2.6,0.5,3.8s0.9,2.3,1.6,3.2c0.7,0.9,1.6,1.7,2.7,2.2c1.1,0.6,2.4,0.8,3.9,0.8c2.3,0,4.5-0.7,6.3-2.1
		V1488.4z"/>
	<path d="M3666.7,1489.5v-10.6h-3.7c-0.4,0-0.9,0.1-1.3,0.2s-0.9,0.4-1.3,0.7c-0.4,0.3-0.8,0.8-1.2,1.3c-0.4,0.5-0.8,1.2-1.1,2
		l-3,6.4h-3.7l3.7-7.3c0.5-1,1-1.8,1.7-2.5c0.6-0.7,1.4-1.2,2.2-1.5c-2-0.2-3.5-1-4.5-2.1c-1-1.2-1.5-2.7-1.5-4.4
		c0-1,0.2-1.9,0.5-2.7s0.9-1.6,1.6-2.2c0.7-0.6,1.6-1.2,2.7-1.5s2.4-0.6,3.9-0.6h8.3v25H3666.7z M3666.7,1467.2h-5.1
		c-1.8,0-3.2,0.4-4.1,1.1s-1.4,1.9-1.4,3.3c0,1.6,0.5,2.8,1.4,3.5s2.3,1.1,3.9,1.1h5.2V1467.2z"/>
	<path d="M3679.4,1490c-0.7,0-1.2-0.2-1.7-0.7c-0.5-0.5-0.7-1-0.7-1.7c0-0.7,0.2-1.2,0.7-1.7s1-0.7,1.7-0.7c0.3,0,0.6,0.1,0.9,0.2
		s0.5,0.3,0.7,0.5c0.2,0.2,0.4,0.5,0.5,0.7c0.1,0.3,0.2,0.6,0.2,1c0,0.3-0.1,0.6-0.2,0.9c-0.1,0.3-0.3,0.5-0.5,0.7
		c-0.2,0.2-0.5,0.4-0.7,0.5S3679.7,1490,3679.4,1490z"/>
	<path d="M3021.7,1549.5v-15.8c-1.9,0.9-3.7,1.5-5.5,2.1c-1.8,0.5-3.5,0.8-5.3,0.8c-1.5,0-2.9-0.2-4-0.6c-1.1-0.4-2.1-1-2.8-1.8
		c-0.8-0.8-1.3-1.7-1.7-2.8c-0.4-1.1-0.6-2.3-0.6-3.6v-13.2h3.2v12.9c0,0.9,0.1,1.8,0.4,2.6c0.3,0.8,0.7,1.4,1.2,2
		c0.5,0.5,1.2,0.9,2,1.2c0.8,0.3,1.7,0.4,2.7,0.4c1.6,0,3.2-0.2,5-0.7c1.7-0.5,3.5-1.1,5.4-1.9v-16.5h3.2v35H3021.7z"/>
	<path d="M3050.8,1549.5v-20.4c-0.1,0.2-0.2,0.4-0.3,0.6c-0.1,0.2-0.2,0.4-0.3,0.5l-13.8,19.3h-2.9v-25h3v20.2
		c0.1-0.2,0.2-0.5,0.4-0.8c0.2-0.3,0.3-0.6,0.6-0.9l13.4-18.5h3v25H3050.8z"/>
	<path d="M3084.1,1549.5v-21.1c0,0.1-0.1,0.4-0.2,0.7c-0.1,0.3-0.3,0.7-0.4,1.1c-0.2,0.4-0.3,0.9-0.5,1.4c-0.2,0.5-0.4,0.9-0.5,1.4
		l-6.5,16.5h-2.7l-6.9-16.5c-0.1-0.3-0.2-0.6-0.4-1c-0.2-0.4-0.3-0.8-0.5-1.3c-0.2-0.4-0.3-0.9-0.5-1.3c-0.1-0.4-0.3-0.7-0.4-1v21.1
		h-2.8v-25h3.9l7.1,16.8c0.1,0.3,0.3,0.7,0.5,1.2s0.3,0.9,0.5,1.3c0.2,0.4,0.3,0.9,0.5,1.3c0.1,0.4,0.3,0.7,0.4,1
		c0.1-0.2,0.2-0.5,0.3-0.9c0.1-0.4,0.3-0.8,0.5-1.2s0.3-0.9,0.5-1.3c0.2-0.5,0.3-0.9,0.5-1.3l6.8-16.9h4v25H3084.1z"/>
	<path d="M3127.7,1542.3c0,1-0.2,2-0.6,2.8c-0.4,0.9-0.9,1.6-1.6,2.3c-0.7,0.6-1.5,1.1-2.5,1.5c-1,0.4-2,0.5-3.1,0.5h-10.9v-25h10.2
		c1.3,0,2.4,0.2,3.3,0.5c0.9,0.3,1.7,0.7,2.4,1.3s1.1,1.2,1.4,1.9c0.3,0.7,0.5,1.6,0.5,2.4c0,1.6-0.4,2.9-1.2,3.9
		c-0.8,1-2,1.7-3.5,2c1.9,0.2,3.3,0.9,4.3,1.9C3127.2,1539.4,3127.7,1540.7,3127.7,1542.3z M3123.5,1531c0-0.6-0.1-1.1-0.3-1.5
		c-0.2-0.5-0.5-0.9-0.8-1.2c-0.4-0.3-0.9-0.6-1.5-0.8c-0.6-0.2-1.3-0.3-2.2-0.3h-6.7v8.1h6.2c1,0,1.8-0.1,2.4-0.3
		c0.7-0.2,1.2-0.5,1.6-0.9c0.4-0.4,0.7-0.8,0.9-1.4C3123.4,1532.2,3123.5,1531.6,3123.5,1531z M3124.5,1542.4c0-0.7-0.1-1.2-0.3-1.8
		c-0.2-0.5-0.6-1-1-1.4c-0.5-0.4-1.1-0.7-1.8-0.9c-0.7-0.2-1.7-0.3-2.7-0.3h-6.5v8.7h7.2c1.8,0,3.1-0.4,3.9-1.2
		S3124.5,1543.7,3124.5,1542.4z"/>
	<path d="M3144.4,1550.1c-1.9,0-3.5-0.3-5-0.9s-2.7-1.5-3.8-2.6c-1-1.1-1.8-2.5-2.4-4.1c-0.6-1.6-0.8-3.3-0.8-5.2
		c0-2.1,0.3-3.9,0.9-5.6c0.6-1.6,1.4-3,2.5-4.2c1.1-1.1,2.4-2,3.9-2.6c1.5-0.6,3.2-0.9,5.1-0.9c1.8,0,3.4,0.3,4.9,0.9
		c1.4,0.6,2.7,1.5,3.7,2.6c1,1.1,1.8,2.5,2.3,4.1s0.8,3.4,0.8,5.5c0,2-0.3,3.7-0.8,5.3c-0.6,1.6-1.4,3-2.4,4.1
		c-1,1.2-2.3,2.1-3.8,2.7C3148,1549.8,3146.3,1550.1,3144.4,1550.1z M3144.6,1526.6c-1.4,0-2.6,0.2-3.7,0.7
		c-1.1,0.5-2.1,1.2-2.8,2.1c-0.8,0.9-1.4,2-1.8,3.3c-0.4,1.3-0.6,2.8-0.6,4.5c0,1.6,0.2,3,0.6,4.2c0.4,1.3,1,2.3,1.8,3.2
		c0.8,0.9,1.7,1.6,2.8,2.1c1.1,0.5,2.3,0.7,3.7,0.7c1.4,0,2.6-0.2,3.7-0.7c1.1-0.5,2-1.1,2.7-2c0.7-0.9,1.3-2,1.7-3.3
		c0.4-1.3,0.6-2.8,0.6-4.4c0-3.4-0.7-5.9-2.2-7.7C3149.5,1527.5,3147.4,1526.6,3144.6,1526.6z"/>
	<path d="M3179.7,1549.5v-11.6h-13.7v11.6h-3.1v-25h3.1v10.6h13.7v-10.6h3.1v25H3179.7z"/>
	<path d="M3205.3,1549.5v-4.4h-0.1c-0.8,1.6-1.9,2.8-3.3,3.7s-3,1.3-4.8,1.3c-1.2,0-2.3-0.2-3.3-0.5s-1.8-0.8-2.5-1.5
		c-0.7-0.6-1.2-1.4-1.6-2.3s-0.5-1.8-0.5-2.9c0-2.3,0.7-4.1,2.1-5.4c1.4-1.3,3.5-2.2,6.3-2.6l7.6-1.1c0-4.8-1.9-7.2-5.6-7.2
		c-2.9,0-5.6,1.1-8.1,3.2v-3.4c0.5-0.4,1.1-0.7,1.8-1c0.7-0.3,1.4-0.6,2.1-0.8c0.7-0.2,1.5-0.4,2.3-0.5c0.8-0.1,1.5-0.2,2.3-0.2
		c2.8,0,4.9,0.8,6.3,2.3s2.1,3.9,2.1,7v16.3H3205.3z M3198.8,1537.4c-1.1,0.2-2.1,0.4-2.9,0.6c-0.8,0.2-1.5,0.6-2,1
		c-0.5,0.4-0.9,0.9-1.1,1.5c-0.2,0.6-0.4,1.4-0.4,2.3c0,0.7,0.1,1.3,0.4,1.9c0.2,0.6,0.6,1.1,1,1.5c0.4,0.4,1,0.7,1.6,1
		c0.6,0.2,1.4,0.3,2.2,0.3c1.1,0,2.1-0.2,3.1-0.6c0.9-0.4,1.7-1,2.4-1.8c0.7-0.7,1.2-1.6,1.6-2.7c0.4-1,0.6-2.2,0.6-3.4v-2.5
		L3198.8,1537.4z"/>
	<path d="M3251.9,1549.5v-21.1c0,0.1-0.1,0.4-0.2,0.7c-0.1,0.3-0.3,0.7-0.4,1.1c-0.2,0.4-0.3,0.9-0.5,1.4c-0.2,0.5-0.4,0.9-0.5,1.4
		l-6.5,16.5h-2.7l-6.9-16.5c-0.1-0.3-0.2-0.6-0.4-1c-0.2-0.4-0.3-0.8-0.5-1.3c-0.2-0.4-0.3-0.9-0.5-1.3c-0.1-0.4-0.3-0.7-0.4-1v21.1
		h-2.8v-25h3.9l7.1,16.8c0.1,0.3,0.3,0.7,0.5,1.2s0.3,0.9,0.5,1.3c0.2,0.4,0.3,0.9,0.5,1.3c0.1,0.4,0.3,0.7,0.4,1
		c0.1-0.2,0.2-0.5,0.3-0.9c0.1-0.4,0.3-0.8,0.5-1.2s0.3-0.9,0.5-1.3c0.2-0.5,0.3-0.9,0.5-1.3l6.8-16.9h4v25H3251.9z"/>
	<path d="M3264.5,1537.6c0,1.5,0.2,2.9,0.6,4.1s1,2.3,1.7,3.1c0.7,0.8,1.6,1.5,2.7,1.9c1,0.4,2.2,0.7,3.6,0.7c2.8,0,5.5-1,8-3v3.1
		c-2.4,1.7-5.3,2.6-8.7,2.6c-1.7,0-3.2-0.3-4.6-0.9s-2.5-1.4-3.5-2.6c-1-1.1-1.7-2.5-2.2-4.1c-0.5-1.6-0.8-3.5-0.8-5.6
		c0-1.9,0.3-3.6,0.9-5.2c0.6-1.6,1.4-3,2.4-4.1c1-1.2,2.2-2.1,3.6-2.7c1.4-0.7,2.9-1,4.5-1c1.6,0,3,0.3,4.3,0.8
		c1.2,0.6,2.3,1.4,3.1,2.4c0.8,1,1.5,2.3,1.9,3.8c0.4,1.5,0.7,3.2,0.7,5v1.6H3264.5z M3279.4,1534.8c0-2.6-0.7-4.6-1.9-6.1
		c-1.2-1.4-2.8-2.1-5-2.1c-1.1,0-2,0.2-2.9,0.6c-0.9,0.4-1.7,0.9-2.4,1.6c-0.7,0.7-1.3,1.6-1.7,2.6c-0.4,1-0.8,2.2-0.9,3.4H3279.4z"
		/>
	<path d="M3305.6,1549.5v-11.6h-13.7v11.6h-3.1v-25h3.1v10.6h13.7v-10.6h3.1v25H3305.6z"/>
	<path d="M3316.8,1549.5v-25h3.1v22.3h10.7v-22.3h3.1v22.3h10.7v-22.3h3.1v25H3316.8z"/>
	<path d="M3369.9,1549.5v-4.4h-0.1c-0.8,1.6-1.9,2.8-3.3,3.7s-3,1.3-4.8,1.3c-1.2,0-2.3-0.2-3.3-0.5s-1.8-0.8-2.5-1.5
		c-0.7-0.6-1.2-1.4-1.6-2.3s-0.5-1.8-0.5-2.9c0-2.3,0.7-4.1,2.1-5.4c1.4-1.3,3.5-2.2,6.3-2.6l7.6-1.1c0-4.8-1.9-7.2-5.6-7.2
		c-2.9,0-5.6,1.1-8.1,3.2v-3.4c0.5-0.4,1.1-0.7,1.8-1c0.7-0.3,1.4-0.6,2.1-0.8c0.7-0.2,1.5-0.4,2.3-0.5c0.8-0.1,1.5-0.2,2.3-0.2
		c2.8,0,4.9,0.8,6.3,2.3s2.1,3.9,2.1,7v16.3H3369.9z M3363.5,1537.4c-1.1,0.2-2.1,0.4-2.9,0.6c-0.8,0.2-1.5,0.6-2,1
		c-0.5,0.4-0.9,0.9-1.1,1.5c-0.2,0.6-0.4,1.4-0.4,2.3c0,0.7,0.1,1.3,0.4,1.9c0.2,0.6,0.6,1.1,1,1.5c0.4,0.4,1,0.7,1.6,1
		c0.6,0.2,1.4,0.3,2.2,0.3c1.1,0,2.1-0.2,3.1-0.6c0.9-0.4,1.7-1,2.4-1.8c0.7-0.7,1.2-1.6,1.6-2.7c0.4-1,0.6-2.2,0.6-3.4v-2.5
		L3363.5,1537.4z"/>
	<path d="M3380,1555.8h-2.4l3.2-11.8h3.2L3380,1555.8z"/>
	<path d="M3412.5,1527.2v22.3h-3.1v-22.3h-7.5v-2.7h18.1v2.7H3412.5z"/>
	<path d="M3442,1549.5v-20.4c-0.1,0.2-0.2,0.4-0.3,0.6c-0.1,0.2-0.2,0.4-0.3,0.5l-13.8,19.3h-2.9v-25h3v20.2
		c0.1-0.2,0.2-0.5,0.4-0.8c0.2-0.3,0.3-0.6,0.6-0.9l13.4-18.5h3v25H3442z"/>
	<path d="M3475.3,1549.5v-21.1c0,0.1-0.1,0.4-0.2,0.7c-0.1,0.3-0.3,0.7-0.4,1.1c-0.2,0.4-0.3,0.9-0.5,1.4c-0.2,0.5-0.4,0.9-0.5,1.4
		l-6.5,16.5h-2.7l-6.9-16.5c-0.1-0.3-0.2-0.6-0.4-1c-0.2-0.4-0.3-0.8-0.5-1.3c-0.2-0.4-0.3-0.9-0.5-1.3c-0.1-0.4-0.3-0.7-0.4-1v21.1
		h-2.8v-25h3.9l7.1,16.8c0.1,0.3,0.3,0.7,0.5,1.2s0.3,0.9,0.5,1.3c0.2,0.4,0.3,0.9,0.5,1.3c0.1,0.4,0.3,0.7,0.4,1
		c0.1-0.2,0.2-0.5,0.3-0.9c0.1-0.4,0.3-0.8,0.5-1.2s0.3-0.9,0.5-1.3c0.2-0.5,0.3-0.9,0.5-1.3l6.8-16.9h4v25H3475.3z"/>
	<path d="M3500.1,1549.5v-25h3.1v22.3h10.7v-22.3h3.1v22.3h10.7v-22.3h3.1v25H3500.1z"/>
	<path d="M3556.2,1549.5v-20.4c-0.1,0.2-0.2,0.4-0.3,0.6c-0.1,0.2-0.2,0.4-0.3,0.5l-13.8,19.3h-2.9v-25h3v20.2
		c0.1-0.2,0.2-0.5,0.4-0.8c0.2-0.3,0.3-0.6,0.6-0.9l13.4-18.5h3v25H3556.2z"/>
	<path d="M3570.3,1545.5v15.5h-3.1v-36.5h3.1v4.8h0.1c0.9-1.7,2.2-3.1,3.7-4c1.6-0.9,3.3-1.4,5.3-1.4c1.6,0,3,0.3,4.3,0.9
		c1.3,0.6,2.3,1.4,3.2,2.5c0.9,1.1,1.5,2.3,2,3.9s0.7,3.2,0.7,5.1c0,2.1-0.3,4-0.8,5.7c-0.5,1.7-1.3,3.2-2.2,4.4s-2.2,2.2-3.6,2.8
		c-1.4,0.7-3,1-4.7,1C3574.8,1550.1,3572.2,1548.6,3570.3,1545.5L3570.3,1545.5z M3570.3,1539.1c0,1.1,0.2,2.2,0.6,3.2
		c0.4,1,0.9,1.9,1.6,2.6c0.7,0.8,1.5,1.4,2.5,1.8s2,0.7,3.2,0.7c1.3,0,2.4-0.3,3.4-0.8c1-0.5,1.9-1.3,2.6-2.3s1.3-2.2,1.6-3.5
		c0.4-1.4,0.6-2.9,0.6-4.6c0-1.5-0.2-2.8-0.5-4c-0.4-1.2-0.9-2.2-1.5-3s-1.5-1.5-2.4-1.9s-2-0.7-3.1-0.7c-1.3,0-2.5,0.2-3.5,0.7
		c-1,0.5-1.9,1.1-2.7,2s-1.3,1.8-1.7,2.9c-0.4,1.1-0.6,2.3-0.6,3.6V1539.1z"/>
	<path d="M3595.9,1549.5v-25h3.1v22.3h10.7v-22.3h3.1v22.3h10.7v-22.3h3.1v25H3595.9z"/>
	<path d="M3636.2,1537.6c0,1.5,0.2,2.9,0.6,4.1s1,2.3,1.7,3.1c0.7,0.8,1.6,1.5,2.7,1.9c1,0.4,2.2,0.7,3.6,0.7c2.8,0,5.5-1,8-3v3.1
		c-2.4,1.7-5.3,2.6-8.7,2.6c-1.7,0-3.2-0.3-4.6-0.9s-2.5-1.4-3.5-2.6c-1-1.1-1.7-2.5-2.2-4.1c-0.5-1.6-0.8-3.5-0.8-5.6
		c0-1.9,0.3-3.6,0.9-5.2c0.6-1.6,1.4-3,2.4-4.1c1-1.2,2.2-2.1,3.6-2.7c1.4-0.7,2.9-1,4.5-1c1.6,0,3,0.3,4.3,0.8
		c1.2,0.6,2.3,1.4,3.1,2.4c0.8,1,1.5,2.3,1.9,3.8c0.4,1.5,0.7,3.2,0.7,5v1.6H3636.2z M3651,1534.8c0-2.6-0.7-4.6-1.9-6.1
		c-1.2-1.4-2.8-2.1-5-2.1c-1.1,0-2,0.2-2.9,0.6c-0.9,0.4-1.7,0.9-2.4,1.6c-0.7,0.7-1.3,1.6-1.7,2.6c-0.4,1-0.8,2.2-0.9,3.4H3651z"/>
	<path d="M3018.7,1609.5v-22.3H3005v22.3h-3.1v-25h20v25H3018.7z"/>
	<path d="M3040.1,1610.1c-1.9,0-3.5-0.3-5-0.9s-2.7-1.5-3.8-2.6c-1-1.1-1.8-2.5-2.4-4.1c-0.6-1.6-0.8-3.3-0.8-5.2
		c0-2.1,0.3-3.9,0.9-5.6c0.6-1.6,1.4-3,2.5-4.2c1.1-1.1,2.4-2,3.9-2.6c1.5-0.6,3.2-0.9,5.1-0.9c1.8,0,3.4,0.3,4.9,0.9
		c1.4,0.6,2.7,1.5,3.7,2.6c1,1.1,1.8,2.5,2.3,4.1s0.8,3.4,0.8,5.5c0,2-0.3,3.7-0.8,5.3c-0.6,1.6-1.4,3-2.4,4.1
		c-1,1.2-2.3,2.1-3.8,2.7C3043.7,1609.8,3042,1610.1,3040.1,1610.1z M3040.4,1586.6c-1.4,0-2.6,0.2-3.7,0.7
		c-1.1,0.5-2.1,1.2-2.8,2.1c-0.8,0.9-1.4,2-1.8,3.3c-0.4,1.3-0.6,2.8-0.6,4.5c0,1.6,0.2,3,0.6,4.2c0.4,1.3,1,2.3,1.8,3.2
		c0.8,0.9,1.7,1.6,2.8,2.1c1.1,0.5,2.3,0.7,3.7,0.7c1.4,0,2.6-0.2,3.7-0.7c1.1-0.5,2-1.1,2.7-2c0.7-0.9,1.3-2,1.7-3.3
		c0.4-1.3,0.6-2.8,0.6-4.4c0-3.4-0.7-5.9-2.2-7.7C3045.3,1587.5,3043.1,1586.6,3040.4,1586.6z"/>
	<path d="M3073.1,1609.5v-22.3h-6.6c-0.3,3.9-0.7,7.2-1.2,10.1c-0.5,2.8-1.1,5.2-1.9,7s-1.7,3.2-2.8,4.1c-1.1,0.9-2.3,1.4-3.8,1.4
		c-0.3,0-0.6,0-1-0.1c-0.3,0-0.6-0.1-0.8-0.2v-2.7c0.2,0.1,0.5,0.2,0.8,0.2c0.3,0.1,0.6,0.1,0.8,0.1c1,0,1.9-0.5,2.6-1.5
		c0.8-1,1.4-2.4,2-4.3s1.1-4.3,1.5-7.1c0.4-2.8,0.7-6.1,1-9.8h12.3v25H3073.1z"/>
	<path d="M3097.6,1609.5v-10.6h-3.7c-0.4,0-0.9,0.1-1.3,0.2s-0.9,0.4-1.3,0.7c-0.4,0.3-0.8,0.8-1.2,1.3c-0.4,0.5-0.8,1.2-1.1,2
		l-3,6.4h-3.7l3.7-7.3c0.5-1,1-1.8,1.7-2.5c0.6-0.7,1.4-1.2,2.2-1.5c-2-0.2-3.5-1-4.5-2.1c-1-1.2-1.5-2.7-1.5-4.4
		c0-1,0.2-1.9,0.5-2.7c0.3-0.9,0.9-1.6,1.6-2.2c0.7-0.6,1.6-1.2,2.7-1.5c1.1-0.4,2.4-0.6,3.9-0.6h8.3v25H3097.6z M3097.6,1587.2
		h-5.1c-1.8,0-3.2,0.4-4.1,1.1c-0.9,0.8-1.4,1.9-1.4,3.3c0,1.6,0.5,2.8,1.4,3.5s2.3,1.1,3.9,1.1h5.2V1587.2z"/>
	<path d="M3138.9,1602.6c0,1.1-0.2,2-0.6,3c-0.4,0.9-1.1,1.7-1.9,2.4c-0.9,0.7-2,1.2-3.3,1.6s-2.9,0.6-4.7,0.6c-0.8,0-1.5,0-2.3-0.1
		c-0.7-0.1-1.5-0.2-2.1-0.3c-0.7-0.1-1.3-0.3-1.9-0.5c-0.6-0.2-1.1-0.4-1.5-0.6v-3.1c1.1,0.6,2.4,1.1,3.7,1.4
		c1.3,0.3,2.7,0.5,4.1,0.5s2.5-0.1,3.5-0.4c1-0.2,1.7-0.6,2.3-1c0.6-0.4,1-0.9,1.3-1.5c0.3-0.6,0.4-1.2,0.4-1.9c0-1.7-0.7-2.9-2-3.6
		c-1.3-0.7-3.3-1.1-5.7-1.1h-2.9v-2.7h2.7c2.3,0,4-0.4,5.1-1.1c1.1-0.7,1.7-1.9,1.7-3.4c0-1.2-0.5-2.2-1.5-3c-1-0.8-2.5-1.2-4.5-1.2
		c-1.3,0-2.6,0.2-3.9,0.5c-1.3,0.3-2.5,0.8-3.7,1.4v-3c1.2-0.5,2.4-0.8,3.8-1.1c1.3-0.3,2.7-0.5,4.1-0.5c1.5,0,2.9,0.2,4,0.5
		c1.1,0.3,2,0.8,2.8,1.4c0.7,0.6,1.3,1.3,1.6,2.1c0.3,0.8,0.5,1.7,0.5,2.6c0,1.5-0.5,2.8-1.4,3.9c-0.9,1.1-2.2,1.7-3.8,2.1v0.1
		c1,0.1,1.9,0.3,2.6,0.6c0.8,0.3,1.4,0.8,2,1.3s1,1.2,1.2,1.9C3138.8,1601,3138.9,1601.8,3138.9,1602.6z"/>
	<path d="M3155.3,1610.1c-1.9,0-3.5-0.3-5-0.9s-2.7-1.5-3.8-2.6c-1-1.1-1.8-2.5-2.4-4.1c-0.6-1.6-0.8-3.3-0.8-5.2
		c0-2.1,0.3-3.9,0.9-5.6c0.6-1.6,1.4-3,2.5-4.2c1.1-1.1,2.4-2,3.9-2.6c1.5-0.6,3.2-0.9,5.1-0.9c1.8,0,3.4,0.3,4.9,0.9
		c1.4,0.6,2.7,1.5,3.7,2.6c1,1.1,1.8,2.5,2.3,4.1s0.8,3.4,0.8,5.5c0,2-0.3,3.7-0.8,5.3c-0.6,1.6-1.4,3-2.4,4.1
		c-1,1.2-2.3,2.1-3.8,2.7C3158.9,1609.8,3157.2,1610.1,3155.3,1610.1z M3155.6,1586.6c-1.4,0-2.6,0.2-3.7,0.7
		c-1.1,0.5-2.1,1.2-2.8,2.1c-0.8,0.9-1.4,2-1.8,3.3c-0.4,1.3-0.6,2.8-0.6,4.5c0,1.6,0.2,3,0.6,4.2c0.4,1.3,1,2.3,1.8,3.2
		c0.8,0.9,1.7,1.6,2.8,2.1c1.1,0.5,2.3,0.7,3.7,0.7c1.4,0,2.6-0.2,3.7-0.7c1.1-0.5,2-1.1,2.7-2c0.7-0.9,1.3-2,1.7-3.3
		c0.4-1.3,0.6-2.8,0.6-4.4c0-3.4-0.7-5.9-2.2-7.7C3160.5,1587.5,3158.4,1586.6,3155.6,1586.6z"/>
	<path d="M3176.9,1605.5v15.5h-3.1v-36.5h3.1v4.8h0.1c0.9-1.7,2.2-3.1,3.7-4c1.6-0.9,3.3-1.4,5.3-1.4c1.6,0,3,0.3,4.3,0.9
		c1.3,0.6,2.3,1.4,3.2,2.5c0.9,1.1,1.5,2.3,2,3.9s0.7,3.2,0.7,5.1c0,2.1-0.3,4-0.8,5.7c-0.5,1.7-1.3,3.2-2.2,4.4s-2.2,2.2-3.6,2.8
		c-1.4,0.7-3,1-4.7,1C3181.4,1610.1,3178.7,1608.6,3176.9,1605.5L3176.9,1605.5z M3176.9,1599.1c0,1.1,0.2,2.2,0.6,3.2
		c0.4,1,0.9,1.9,1.6,2.6c0.7,0.8,1.5,1.4,2.5,1.8s2,0.7,3.2,0.7c1.3,0,2.4-0.3,3.4-0.8c1-0.5,1.9-1.3,2.6-2.3s1.3-2.2,1.6-3.5
		c0.4-1.4,0.6-2.9,0.6-4.6c0-1.5-0.2-2.8-0.5-4c-0.4-1.2-0.9-2.2-1.5-3s-1.5-1.5-2.4-1.9s-2-0.7-3.1-0.7c-1.3,0-2.5,0.2-3.5,0.7
		c-1,0.5-1.9,1.1-2.7,2s-1.3,1.8-1.7,2.9c-0.4,1.1-0.6,2.3-0.6,3.6V1599.1z"/>
	<path d="M3209.7,1614c-1,2.4-2.1,4.3-3.4,5.4c-1.3,1.2-2.8,1.8-4.6,1.8c-0.9,0-1.7-0.1-2.3-0.3v-2.9c0.4,0.1,0.7,0.2,1.1,0.3
		c0.4,0.1,0.7,0.1,1.1,0.1c1,0,1.9-0.3,2.7-1c0.8-0.6,1.4-1.6,2-2.9l2.2-5.1l-9.6-24.9h3.5l7.2,19.8c0.1,0.3,0.2,0.6,0.3,0.9
		c0.1,0.3,0.2,0.7,0.3,1h0.1c0.1-0.3,0.2-0.6,0.2-0.8c0.1-0.3,0.2-0.6,0.3-0.9l7.6-19.9h3.3L3209.7,1614z"/>
</g>
<g>
	<path class="st5" d="M1664.8,2109.8h-4.3v-7.8h-19.6v7.8h-4.3v-11.9h2.4c1.8-3.4,3.4-7.4,4.6-11.9c1.3-4.5,2-8.9,2.1-12.9h15v24.8
		h4V2109.8z M1656,2097.9v-20.7h-6.3c-0.2,3-0.8,6.5-2,10.6c-1.1,4-2.4,7.4-3.7,10.1H1656z"/>
	<path class="st5" d="M1681.7,2102.5c-4.2,0-7.5-1.4-10-4.1c-2.5-2.7-3.8-6.2-3.8-10.5c0-4.7,1.3-8.4,3.8-11.1
		c2.6-2.8,6-4.2,10.4-4.2c4.1,0,7.3,1.3,9.8,4c2.5,2.7,3.7,6.2,3.7,10.5c0,4.7-1.3,8.5-3.8,11.2S1686,2102.5,1681.7,2102.5z
		 M1682,2076.8c-2.6,0-4.8,1-6.5,3c-1.7,2-2.5,4.6-2.5,7.8c0,3.2,0.8,5.8,2.4,7.8c1.6,2,3.7,2.9,6.3,2.9c2.8,0,5-0.9,6.6-2.8
		c1.6-1.9,2.4-4.5,2.4-7.8c0-3.5-0.8-6.1-2.3-8C1686.8,2077.7,1684.7,2076.8,1682,2076.8z"/>
	<path class="st5" d="M1730.3,2092.7c0,1.5-0.2,2.8-0.7,4c-0.5,1.2-1.1,2.2-2,3.1s-1.9,1.5-3,2c-1.2,0.5-2.4,0.7-3.8,0.7
		c-1.5,0-2.8-0.3-4-0.8s-2.3-1.4-3.1-2.5s-1.6-2.5-2-4.2c-0.5-1.7-0.7-3.6-0.7-5.8c0-2.7,0.3-5,1-7.1c0.6-2.1,1.5-3.8,2.6-5.2
		s2.4-2.5,3.9-3.2c1.5-0.7,3.1-1.1,4.9-1.1c1.1,0,2.1,0.1,3,0.2c0.9,0.1,1.6,0.3,2.1,0.6v4.2c-0.7-0.3-1.4-0.6-2.2-0.9
		s-1.7-0.4-2.7-0.4c-1.1,0-2.2,0.2-3.1,0.7c-1,0.5-1.8,1.1-2.5,2c-0.7,0.9-1.2,2-1.6,3.3c-0.4,1.3-0.6,2.8-0.6,4.5h0.1
		c0.6-1,1.5-1.7,2.5-2.3c1.1-0.6,2.3-0.8,3.7-0.8c1.3,0,2.4,0.2,3.4,0.6s1.9,1,2.6,1.8s1.3,1.7,1.7,2.8
		C1730.1,2090.1,1730.3,2091.3,1730.3,2092.7z M1725.6,2093.1c0-0.8-0.1-1.6-0.3-2.3c-0.2-0.7-0.5-1.3-0.9-1.8s-0.9-0.9-1.5-1.1
		c-0.6-0.3-1.3-0.4-2.1-0.4s-1.5,0.1-2.1,0.4c-0.6,0.3-1.1,0.7-1.5,1.1c-0.4,0.5-0.7,1-0.9,1.6c-0.2,0.6-0.3,1.2-0.3,1.9
		c0,0.7,0.1,1.4,0.3,2.1c0.2,0.7,0.5,1.4,0.9,2c0.4,0.6,0.9,1.1,1.5,1.5c0.6,0.4,1.4,0.6,2.2,0.6c0.8,0,1.4-0.1,2-0.4
		c0.6-0.3,1.1-0.7,1.5-1.2c0.4-0.5,0.7-1.1,0.9-1.8C1725.5,2094.6,1725.6,2093.9,1725.6,2093.1z"/>
	<path class="st5" d="M1743,2102.5c-3,0-5.4-1.2-7-3.7s-2.5-6-2.5-10.7c0-5.1,0.9-9,2.6-11.6s4.3-3.9,7.6-3.9
		c6.4,0,9.5,4.9,9.5,14.8c0,4.9-0.9,8.6-2.7,11.2C1748.8,2101.2,1746.3,2102.5,1743,2102.5z M1743.5,2076.3c-3.5,0-5.3,3.9-5.3,11.6
		c0,7.2,1.7,10.9,5.2,10.9c3.4,0,5.1-3.7,5.1-11C1748.5,2080.1,1746.8,2076.3,1743.5,2076.3z"/>
	<path class="st5" d="M1789.9,2100.8c-2.2,1.1-4.9,1.7-8.1,1.7c-4.2,0-7.6-1.3-10.1-4s-3.8-6.1-3.8-10.4c0-4.6,1.4-8.4,4.3-11.2
		c2.8-2.9,6.4-4.3,10.8-4.3c2.8,0,5.1,0.4,7,1.2v4.8c-1.9-1.2-4.1-1.7-6.5-1.7c-3.1,0-5.7,1-7.6,3c-1.9,2-2.9,4.7-2.9,8
		c0,3.2,0.9,5.7,2.7,7.6c1.8,1.9,4.2,2.8,7.2,2.8c2.7,0,5.1-0.6,7.1-1.9V2100.8z"/>
	<path class="st5" d="M1826.5,2102h-4.8v-18.7c0-1.5,0.1-3.4,0.3-5.6h-0.1c-0.3,1.3-0.6,2.2-0.8,2.7l-8.6,21.6h-3.3l-8.7-21.5
		c-0.2-0.6-0.5-1.6-0.8-2.9h-0.1c0.1,1.2,0.2,3,0.2,5.7v18.7h-4.4v-28.9h6.8l7.6,19.3c0.6,1.5,1,2.6,1.1,3.3h0.1
		c0.5-1.5,0.9-2.6,1.2-3.4l7.7-19.2h6.5V2102z"/>
</g>
</svg>
