<?xml version="1.0" encoding="utf-8"?>
<!-- Generator: Adobe Illustrator 22.0.1, SVG Export Plug-In . SVG Version: 6.00 Build 0)  -->
<svg version="1.1" id="Ebene_1" xmlns="http://www.w3.org/2000/svg" xmlns:xlink="http://www.w3.org/1999/xlink" x="0px" y="0px"
	 viewBox="0 0 566 159" style="enable-background:new 0 0 566 159;" xml:space="preserve">
<style type="text/css">
	.st0{fill:#FFFFFF;}
</style>
<g>
	<g id="Mk0iKA.tif_2_">
		<g>
			<path class="st0" d="M307.9,152.3l-1.8-0.6c0-0.1,0.1-0.2,0.1-0.4c0.2-0.6,0.5-1.4,0.8-2c0.8-2.2,1.6-4.8,2-7.4
				c0.4-2.5,0.1-5-0.8-8.1c-1.1-3.1-2.6-5.9-4.1-8.6c-1.7-2.9-2.9-5.5-3.7-7.8c-1.2-3.1-1.5-6.2-0.9-9.2c0.3-2.4,0.7-4.7,1.1-7
				c0.3-2,0.7-3.8,0.9-5.7c0.3-2,0.6-4,0.9-6c0.5-2.6,0.9-5,1.1-7.6c0.5-5.1,0.6-10,0.6-14.2c-0.2-8-2.4-15.1-6.6-21.6c0,0,0,0,0,0
				c-0.5-0.9-1.2-1.7-1.9-2.6c-0.4-0.5-0.8-1-1.2-1.5c-0.2-0.2-0.4-0.6-0.4-1.1v-4.1h1.9v4c0,0,0,0,0,0c0.4,0.5,0.8,1,1.2,1.5
				c0.7,0.9,1.4,1.8,2,2.8c4.4,6.8,6.7,14.1,6.9,22.6c0,4.3-0.1,9.3-0.6,14.4c-0.2,2.7-0.7,5.3-1.1,7.8c-0.3,1.9-0.7,3.9-0.9,5.9
				c-0.3,1.9-0.6,3.8-0.9,5.8c-0.4,2.2-0.8,4.5-1.1,6.9c0,0,0,0,0,0.1c-0.5,2.6-0.2,5.5,0.8,8.2c0,0,0,0,0,0
				c0.8,2.2,1.9,4.7,3.6,7.5c1.5,2.7,3.1,5.6,4.3,8.9c1.1,3.4,1.4,6.2,0.9,9c-0.4,2.8-1.3,5.5-2.1,7.8c0,0.1-0.1,0.1-0.1,0.2
				c-0.2,0.4-0.5,1.1-0.7,1.6C308,152.1,307.9,152.2,307.9,152.3z"/>
			<path class="st0" d="M276.4,151.9c-0.3-0.7-0.6-1.9-0.6-2.6c-0.4-2-0.6-4.1-0.9-6.1c-0.2-1.3-0.3-2.5-0.5-3.7
				c-0.1-0.6-0.2-1.2-0.3-1.8c-0.1-1.1-0.3-2.2-0.6-3.4c0,0,0-0.1,0-0.1c-0.1-1.1-0.6-2.3-1.1-3.4c-0.2-0.6-0.5-1.1-0.7-1.7
				c-2.1-4.7-3.1-10-3.1-15.9V79.1c0-3,0.1-6.3,0.6-9.7c0.6-4.2,1.6-7.6,2.8-10.3c1.9-4.1,4.4-7.9,7.4-11.1c1.2-1.3,1.8-2.9,1.8-4.8
				V37h1.9v6.3c0,2.4-0.8,4.5-2.3,6.1c-2.9,3-5.3,6.6-7.1,10.5c-1.2,2.5-2.1,5.7-2.7,9.8c-0.5,3.3-0.6,6.4-0.6,9.4v34.3
				c0,5.6,1,10.7,3,15.1c0,0,0,0,0,0.1c0.2,0.5,0.4,1,0.7,1.6c0.5,1.2,1.1,2.5,1.2,3.8c0.3,1.2,0.5,2.4,0.6,3.5
				c0.1,0.6,0.2,1.2,0.3,1.8c0.2,1.2,0.4,2.5,0.5,3.7c0.3,2,0.6,4.1,0.9,6.1c0,0.1,0,0.1,0,0.2c0,0.5,0.2,1.4,0.4,1.8L276.4,151.9z"
				/>
		</g>
	</g>
	<path class="st0" d="M290.4,152h-1.1v-1.4h1.1V152z M290.4,146.8h-1.1V143h1.1V146.8z M290.4,139.2h-1.1v-3.8h1.1V139.2z
		 M290.4,131.7h-1.1v-3.8h1.1V131.7z M290.4,124.1h-1.1v-3.8h1.1V124.1z M290.4,116.5h-1.1v-3.8h1.1V116.5z M290.4,108.9h-1.1v-3.8
		h1.1V108.9z M290.4,101.4h-1.1v-3.8h1.1V101.4z M290.4,93.8h-1.1V90h1.1V93.8z M290.4,86.2h-1.1v-3.8h1.1V86.2z M290.4,78.7h-1.1
		v-3.8h1.1V78.7z M290.4,71.1h-1.1v-3.8h1.1V71.1z M290.4,63.5h-1.1v-3.8h1.1V63.5z M290.4,55.9h-1.1v-3.8h1.1V55.9z M290.4,48.4
		h-1.1v-3.8h1.1V48.4z M290.4,40.8h-1.1V37h1.1V40.8z"/>
	<path class="st0" d="M239.2,145.6l-0.3-1.1l3.7-1l0.3,1.1L239.2,145.6z M246.6,143.6l-0.3-1.1l3.7-1l0.3,1.1L246.6,143.6z
		 M253.9,141.6l-0.3-1.1l3.7-1l0.3,1.1L253.9,141.6z M261.2,139.7l-0.3-1.1l3.7-1l0.3,1.1L261.2,139.7z M268.5,137.7l-0.3-1.1l3.7-1
		l0.3,1.1L268.5,137.7z M275.8,135.7l-0.3-1.1l3.7-1l0.3,1.1L275.8,135.7z M283.1,133.8l-0.3-1.1l3.7-1l0.3,1.1L283.1,133.8z
		 M290.4,131.8l-0.3-1.1l3.7-1l0.3,1.1L290.4,131.8z M297.7,129.8l-0.3-1.1l3.7-1l0.3,1.1L297.7,129.8z M305,127.9l-0.3-1.1l3.7-1
		l0.3,1.1L305,127.9z M312.4,125.9l-0.3-1.1l3.7-1l0.3,1.1L312.4,125.9z M319.7,123.9l-0.3-1.1l3.7-1l0.3,1.1L319.7,123.9z M327,122
		l-0.3-1.1l3.7-1l0.3,1.1L327,122z"/>
</g>
</svg>
