<?xml version="1.0" encoding="utf-8"?>
<!-- Generator: Adobe Illustrator 22.0.1, SVG Export Plug-In . SVG Version: 6.00 Build 0)  -->
<svg version="1.1" id="Ebene_1" xmlns="http://www.w3.org/2000/svg" xmlns:xlink="http://www.w3.org/1999/xlink" x="0px" y="0px"
	 viewBox="0 0 566 145" style="enable-background:new 0 0 566 145;" xml:space="preserve">
<style type="text/css">
	.st0{fill:#FFFFFF;}
</style>
<g>
	<path class="st0" d="M249.2,35.1h-5.1c-0.4,0-0.6-0.3-0.6-0.6s0.3-0.6,0.6-0.6h5.1c0.4,0,0.6,0.3,0.6,0.6S249.5,35.1,249.2,35.1z"
		/>
	<path class="st0" d="M246.7,37.6c-0.4,0-0.6-0.3-0.6-0.6v-5.2c0-0.4,0.3-0.6,0.6-0.6c0.4,0,0.6,0.3,0.6,0.6V37
		C247.3,37.3,247.1,37.6,246.7,37.6z"/>
	<path class="st0" d="M322.7,35.1h-5.1c-0.4,0-0.6-0.3-0.6-0.6s0.3-0.6,0.6-0.6h5.1c0.4,0,0.6,0.3,0.6,0.6S323,35.1,322.7,35.1z"/>
	<path class="st0" d="M320.1,37.6c-0.4,0-0.6-0.3-0.6-0.6v-5.2c0-0.4,0.3-0.6,0.6-0.6c0.4,0,0.6,0.3,0.6,0.6V37
		C320.7,37.3,320.4,37.6,320.1,37.6z"/>
</g>
<g>
	<path class="st0" d="M351.3,105.5h-5.1c-0.4,0-0.6-0.3-0.6-0.6s0.3-0.6,0.6-0.6h5.1c0.4,0,0.6,0.3,0.6,0.6S351.6,105.5,351.3,105.5
		z"/>
	<path class="st0" d="M348.7,107.9c-0.4,0-0.6-0.3-0.6-0.6v-5.2c0-0.4,0.3-0.6,0.6-0.6c0.4,0,0.6,0.3,0.6,0.6v5.2
		C349.3,107.7,349,107.9,348.7,107.9z"/>
	<path class="st0" d="M220.6,100.6h-5.2c-0.4,0-0.6-0.3-0.6-0.6c0-0.4,0.3-0.6,0.6-0.6h5.2c0.4,0,0.6,0.3,0.6,0.6
		C221.3,100.3,221,100.6,220.6,100.6z"/>
	<path class="st0" d="M217.9,103.2c-0.4,0-0.6-0.3-0.6-0.6v-5.4c0-0.4,0.3-0.6,0.6-0.6s0.6,0.3,0.6,0.6v5.4
		C218.6,103,218.3,103.2,217.9,103.2z"/>
</g>
<path class="st0" d="M283.4,20.9c-1.9,0-3.4-1.5-3.4-3.4s1.5-3.4,3.4-3.4s3.4,1.5,3.4,3.4S285.2,20.9,283.4,20.9z M283.4,15.4
	c-1.2,0-2.1,0.9-2.1,2.1s0.9,2.1,2.1,2.1c1.2,0,2.1-0.9,2.1-2.1S284.5,15.4,283.4,15.4z"/>
<g>
	<path class="st0" d="M352.6,18.6c-1.9,0-3.4-1.5-3.4-3.4s1.5-3.4,3.4-3.4c1.9,0,3.4,1.5,3.4,3.4S354.5,18.6,352.6,18.6z
		 M352.6,13.2c-1.2,0-2.1,0.9-2.1,2.1s0.9,2.1,2.1,2.1c1.2,0,2.1-0.9,2.1-2.1S353.8,13.2,352.6,13.2z"/>
	<path class="st0" d="M212.1,26.3c-1.9,0-3.4-1.5-3.4-3.4c0-1.9,1.5-3.4,3.4-3.4c1.9,0,3.4,1.5,3.4,3.4
		C215.4,24.8,213.9,26.3,212.1,26.3z M212.1,20.9c-1.2,0-2.1,0.9-2.1,2.1c0,1.2,0.9,2.1,2.1,2.1c1.2,0,2.1-0.9,2.1-2.1
		C214.2,21.8,213.2,20.9,212.1,20.9z"/>
</g>
<g>
	<path class="st0" d="M342.8,68.2h-5.2c-0.4,0-0.6-0.3-0.6-0.6c0-0.4,0.3-0.6,0.6-0.6h5.2c0.4,0,0.6,0.3,0.6,0.6
		C343.5,67.9,343.2,68.2,342.8,68.2z"/>
	<path class="st0" d="M340.1,70.9c-0.4,0-0.6-0.3-0.6-0.6v-5.2c0-0.4,0.3-0.6,0.6-0.6c0.4,0,0.6,0.3,0.6,0.6v5.2
		C340.8,70.6,340.5,70.9,340.1,70.9z"/>
	<path class="st0" d="M226.7,61.3c-1.9,0-3.4-1.5-3.4-3.4c0-1.9,1.5-3.4,3.4-3.4s3.4,1.5,3.4,3.4C230,59.8,228.5,61.3,226.7,61.3z
		 M226.7,55.8c-1.2,0-2.1,0.9-2.1,2.1s0.9,2.1,2.1,2.1c1.2,0,2.1-0.9,2.1-2.1S227.8,55.8,226.7,55.8z"/>
</g>
<g>
	<g>
		<path class="st0" d="M283.4,42.8c16,0,29,13,29,29c0,17.1-16.8,24.1-16.8,38v17.5c0,2-1.6,3.5-3.5,3.5h-17.4c-2,0-3.5-1.6-3.5-3.5
			v-17.5c0-13.8-16.5-20.8-16.8-37.5c-0.3-15.9,12.5-29.1,28.3-29.5C282.9,42.8,283.2,42.8,283.4,42.8 M283.4,42.4
			c-0.2,0-0.5,0-0.7,0c-16.1,0.4-29,13.8-28.7,29.9c0.2,8.8,4.7,14.9,9.1,20.8c3.9,5.3,7.7,10.2,7.7,16.7v17.5c0,2.2,1.8,4,4,4h17.4
			c2.2,0,4-1.8,4-4v-17.5c0-6.5,3.7-11.4,7.7-16.7c4.5-6,9.1-12.2,9.1-21.3C312.8,55.6,299.6,42.4,283.4,42.4L283.4,42.4z"/>
		<path class="st0" d="M283.4,138c-4,0-7.2-3.2-7.2-7.2c0-0.6,0.5-1.1,1.1-1.1c0.6,0,1.1,0.5,1.1,1.1c0,2.8,2.3,5.1,5.1,5.1
			c2.8,0,5.1-2.3,5.1-5.1c0-0.6,0.5-1.1,1.1-1.1c0.6,0,1.1,0.5,1.1,1.1C290.6,134.8,287.4,138,283.4,138z"/>
		<path class="st0" d="M292.1,131h-17.4c-2.1,0-3.7-1.7-3.7-3.7v-17.5h0.4v17.5c0,1.8,1.5,3.3,3.3,3.3h17.4c1.8,0,3.3-1.5,3.3-3.3
			v-17.5h0.4v17.5C295.9,129.3,294.2,131,292.1,131z"/>
		<path class="st0" d="M292.1,131.9h-17.4c-2.5,0-4.6-2.1-4.6-4.6v-17.5c0-6.3-3.7-11.2-7.5-16.3c-4.5-6-9.1-12.1-9.2-21.2
			c-0.3-16.5,12.9-30.2,29.4-30.6c8.2-0.2,15.9,2.8,21.7,8.6c5.8,5.7,9.1,13.3,9.1,21.5c0,9.3-4.7,15.6-9.2,21.7
			c-3.9,5.2-7.5,10.1-7.5,16.3v17.5C296.7,129.8,294.6,131.9,292.1,131.9z M283.4,43.9c-0.2,0-0.4,0-0.7,0
			c-15.3,0.4-27.6,13.1-27.3,28.4c0.2,8.4,4.6,14.2,8.8,19.9c4.1,5.5,8,10.6,8,17.6v17.5c0,1.4,1.1,2.5,2.5,2.5h17.4
			c1.4,0,2.5-1.1,2.5-2.5v-17.5c0-7,3.9-12.1,8-17.6c4.3-5.8,8.8-11.8,8.8-20.4c0-7.6-3-14.7-8.4-20
			C297.7,46.7,290.7,43.9,283.4,43.9z"/>
		<path class="st0" d="M295.6,110.5h-24.5c-0.4,0-0.6-0.3-0.6-0.6c0-0.4,0.3-0.6,0.6-0.6h24.5c0.4,0,0.6,0.3,0.6,0.6
			C296.3,110.2,296,110.5,295.6,110.5z"/>
		<path class="st0" d="M295.6,117.3C295.6,117.3,295.6,117.3,295.6,117.3l-24.6-3.4c-0.3,0-0.6-0.4-0.5-0.7c0-0.3,0.4-0.6,0.7-0.5
			l24.5,3.4c0.3,0,0.6,0.4,0.5,0.7C296.2,117,296,117.3,295.6,117.3z"/>
		<path class="st0" d="M295.6,127.5C295.6,127.5,295.6,127.5,295.6,127.5l-24.6-3.4c-0.3,0-0.6-0.4-0.5-0.7c0-0.3,0.4-0.6,0.7-0.5
			l24.5,3.4c0.3,0,0.6,0.4,0.5,0.7C296.2,127.2,296,127.5,295.6,127.5z"/>
		<path class="st0" d="M295.6,122.4C295.6,122.4,295.6,122.4,295.6,122.4L271,119c-0.3,0-0.6-0.4-0.5-0.7c0-0.3,0.4-0.6,0.7-0.5
			l24.5,3.4c0.3,0,0.6,0.4,0.5,0.7C296.2,122.1,296,122.4,295.6,122.4z"/>
	</g>
	<g>
		<path class="st0" d="M283.4,99.7c-0.5,0-0.7-0.3-1.5-1.7c-0.8-1.4-2.3-4.2-5.4-9.8c-6.3-11.7,6.4-19.6,6.5-19.6
			c0.2-0.1,0.5-0.1,0.7,0c0.1,0.1,13,8.1,6.5,19.6l-6.3,11.2C283.8,99.6,283.6,99.7,283.4,99.7z M283.4,69.9
			c-0.8,0.6-3.1,2.3-4.9,4.8c-2.9,4.1-3.2,8.5-0.8,12.9c3.4,6.3,5,9.1,5.7,10.3l5.8-10.3c2.5-4.4,2.2-8.7-0.7-12.9
			C286.5,72.2,284.2,70.5,283.4,69.9z"/>
		<path class="st0" d="M283.4,110.5c-0.4,0-0.6-0.3-0.6-0.6V78.6c0-0.4,0.3-0.6,0.6-0.6s0.6,0.3,0.6,0.6v31.2
			C284,110.2,283.7,110.5,283.4,110.5z"/>
		<path class="st0" d="M283.4,87.4c-0.1,0-0.3,0-0.4-0.1c-0.3-0.2-0.3-0.6-0.1-0.9l3.9-5.2c0.2-0.3,0.6-0.3,0.9-0.1
			c0.3,0.2,0.3,0.6,0.1,0.9l-3.9,5.2C283.8,87.3,283.6,87.4,283.4,87.4z"/>
		<path class="st0" d="M283.4,87.4c-0.2,0-0.4-0.1-0.5-0.3l-3.7-5.2c-0.2-0.3-0.1-0.7,0.2-0.9c0.3-0.2,0.7-0.1,0.9,0.2l3.7,5.2
			c0.2,0.3,0.1,0.7-0.2,0.9C283.6,87.3,283.5,87.4,283.4,87.4z"/>
	</g>
</g>
</svg>
