<?xml version="1.0" encoding="utf-8"?>
<!-- Generator: Adobe Illustrator 22.0.1, SVG Export Plug-In . SVG Version: 6.00 Build 0)  -->
<svg version="1.1" id="Ebene_1" xmlns="http://www.w3.org/2000/svg" xmlns:xlink="http://www.w3.org/1999/xlink" x="0px" y="0px"
	 viewBox="0 0 917.6 143.5" style="enable-background:new 0 0 917.6 143.5;" xml:space="preserve">
<style type="text/css">
	.st0{fill:url(#Oval-8-Copy_1_);}
	.st1{fill:url(#Oval-8-Copy-2_1_);}
	.st2{fill:url(#Oval-8_1_);}
	.st3{enable-background:new    ;}
	.st4{fill:#563A23;}
	.st5{fill:url(#SVGID_1_);}
	.st6{fill:#29353A;}
	.st7{fill:url(#SVGID_2_);}
	.st8{fill:#274B2F;}
	.st9{fill:url(#SVGID_3_);}
</style>
<title>Group 7</title>
<desc>Created with Sketch.</desc>
<g>
	<g id="Artboard-3" transform="translate(-66.000000, -370.000000)">
		<g id="Group-7" transform="translate(66.000000, 370.000000)">
			
				<linearGradient id="Oval-8-Copy_1_" gradientUnits="userSpaceOnUse" x1="71.7401" y1="6.5859" x2="71.7401" y2="7.5859" gradientTransform="matrix(99 0 0 99 -6877.8652 -652.0022)">
				<stop  offset="0" style="stop-color:#563A22"/>
				<stop  offset="1" style="stop-color:#EAE6E2"/>
			</linearGradient>
			<circle id="Oval-8-Copy" class="st0" cx="224.4" cy="49.5" r="49.5"/>
			
				<linearGradient id="Oval-8-Copy-2_1_" gradientUnits="userSpaceOnUse" x1="71.7401" y1="6.5859" x2="71.7401" y2="7.5859" gradientTransform="matrix(99 0 0 99 -6561.8652 -652.0022)">
				<stop  offset="0" style="stop-color:#BCC1C4"/>
				<stop  offset="1" style="stop-color:#F7F8F9"/>
			</linearGradient>
			<circle id="Oval-8-Copy-2" class="st1" cx="540.4" cy="49.5" r="49.5"/>
			
				<linearGradient id="Oval-8_1_" gradientUnits="userSpaceOnUse" x1="71.7401" y1="6.5859" x2="71.7401" y2="7.5859" gradientTransform="matrix(99 0 0 99 -6247.8652 -652.0022)">
				<stop  offset="0" style="stop-color:#274B2F"/>
				<stop  offset="1" style="stop-color:#E1E6E1"/>
			</linearGradient>
			<circle id="Oval-8" class="st2" cx="854.4" cy="49.5" r="49.5"/>
		</g>
	</g>
	<g class="st3">
		<path d="M1.4,137.6v-13h5.2c0.7,0,1.3,0.1,1.8,0.2c0.5,0.1,0.9,0.4,1.3,0.6c0.3,0.3,0.6,0.6,0.7,1s0.2,0.9,0.2,1.4
			c0,0.3,0,0.6-0.1,0.9c-0.1,0.3-0.2,0.6-0.4,0.8c-0.2,0.2-0.4,0.5-0.7,0.6c-0.3,0.2-0.6,0.3-0.9,0.4v0.1c0.4,0.1,0.8,0.2,1.1,0.4
			c0.3,0.2,0.6,0.4,0.9,0.7c0.2,0.3,0.4,0.6,0.5,0.9c0.1,0.3,0.2,0.7,0.2,1.1c0,0.6-0.1,1.1-0.3,1.5c-0.2,0.5-0.4,0.9-0.8,1.2
			c-0.4,0.3-0.8,0.6-1.3,0.8c-0.5,0.2-1.1,0.3-1.8,0.3H1.4z M2.8,125.8v4.5h3.9c0.4,0,0.8-0.1,1.1-0.2c0.3-0.1,0.6-0.3,0.8-0.5
			s0.4-0.5,0.5-0.8c0.1-0.3,0.2-0.6,0.2-0.9c0-0.3-0.1-0.6-0.2-0.9c-0.1-0.3-0.3-0.5-0.5-0.7c-0.2-0.2-0.5-0.3-0.8-0.4
			c-0.3-0.1-0.7-0.1-1.2-0.1H2.8z M2.8,131.5v5H7c0.5,0,0.9-0.1,1.3-0.2c0.4-0.1,0.7-0.3,0.9-0.5c0.2-0.2,0.4-0.5,0.5-0.8
			c0.1-0.3,0.2-0.7,0.2-1.1c0-0.3-0.1-0.7-0.2-1c-0.1-0.3-0.3-0.5-0.5-0.8c-0.2-0.2-0.5-0.4-0.9-0.5c-0.4-0.1-0.8-0.2-1.3-0.2H2.8z"
			/>
		<path d="M13.6,137.6v-9.2h1.2v1.7h0.1c0.1-0.3,0.2-0.5,0.4-0.7c0.2-0.2,0.3-0.4,0.6-0.5c0.2-0.1,0.4-0.3,0.7-0.3
			c0.3-0.1,0.5-0.1,0.8-0.1c0.1,0,0.2,0,0.3,0c0.1,0,0.2,0,0.3,0c0.1,0,0.2,0,0.3,0.1c0.1,0,0.2,0.1,0.3,0.1l-0.4,1.3
			c-0.1,0-0.2-0.1-0.3-0.1c-0.1,0-0.2-0.1-0.3-0.1c-0.1,0-0.2,0-0.3,0s-0.2,0-0.3,0c-0.4,0-0.7,0.1-1,0.3c-0.3,0.2-0.5,0.4-0.7,0.7
			c-0.2,0.3-0.3,0.6-0.4,1s-0.1,0.8-0.1,1.2v4.7H13.6z"/>
		<path d="M20.2,125.6v-1.8h1.4v1.8H20.2z M20.2,137.6v-9.2h1.3v9.2H20.2z"/>
		<path d="M24.5,137.6v-13.8h1.3v13.8H24.5z"/>
		<path d="M28.8,137.6v-13.8h1.3v13.8H28.8z"/>
		<path d="M33.1,125.6v-1.8h1.4v1.8H33.1z M33.1,137.6v-9.2h1.3v9.2H33.1z"/>
		<path d="M37,134.2c0.1-0.3,0.3-0.5,0.5-0.8c0.2-0.2,0.5-0.4,0.9-0.5c0.4-0.1,0.8-0.3,1.3-0.3l2-0.3c0.3,0,0.5-0.1,0.6-0.1
			c0.2,0,0.3-0.1,0.4-0.1s0.2-0.1,0.2-0.2c0-0.1,0.1-0.2,0.1-0.3c0-0.3-0.1-0.6-0.2-0.9s-0.2-0.5-0.4-0.7c-0.2-0.2-0.4-0.3-0.7-0.4
			c-0.3-0.1-0.6-0.1-0.9-0.1c-0.4,0-0.7,0-1,0.1c-0.3,0.1-0.5,0.2-0.7,0.4c-0.2,0.2-0.4,0.4-0.5,0.6c-0.1,0.2-0.2,0.5-0.2,0.8h-1.2
			c0-0.4,0.1-0.8,0.3-1.2c0.2-0.4,0.4-0.7,0.7-0.9s0.7-0.5,1.1-0.6s0.9-0.2,1.5-0.2c0.6,0,1,0.1,1.5,0.2c0.4,0.1,0.8,0.4,1.1,0.6
			c0.3,0.3,0.5,0.6,0.7,1c0.2,0.4,0.2,0.9,0.2,1.4v5.9H43V136H43c-0.1,0.3-0.3,0.5-0.5,0.7c-0.2,0.2-0.4,0.4-0.7,0.5
			c-0.3,0.1-0.6,0.2-0.9,0.3c-0.3,0.1-0.7,0.1-1,0.1c-0.5,0-0.9-0.1-1.3-0.2c-0.4-0.1-0.7-0.3-1-0.5c-0.3-0.2-0.5-0.5-0.6-0.8
			s-0.2-0.6-0.2-1C36.8,134.8,36.9,134.5,37,134.2z M43,132.7c-0.1,0.1-0.1,0.1-0.2,0.2c-0.1,0-0.2,0.1-0.2,0.1
			c-0.1,0-0.2,0.1-0.3,0.1c-0.1,0-0.2,0-0.3,0.1l-1.9,0.3c-0.3,0-0.6,0.1-0.8,0.2c-0.2,0.1-0.4,0.2-0.6,0.3
			c-0.2,0.1-0.3,0.3-0.3,0.5s-0.1,0.4-0.1,0.6c0,0.2,0,0.4,0.1,0.6c0.1,0.2,0.2,0.3,0.4,0.5c0.2,0.1,0.4,0.2,0.6,0.3
			c0.2,0.1,0.5,0.1,0.8,0.1c0.4,0,0.8-0.1,1.1-0.2s0.7-0.3,0.9-0.5c0.3-0.2,0.5-0.5,0.6-0.9s0.2-0.8,0.2-1.3V132.7z"/>
		<path d="M47.1,137.6v-9.2h1.2v1.7h0.1c0.1-0.3,0.3-0.5,0.5-0.7c0.2-0.2,0.4-0.4,0.7-0.5c0.3-0.1,0.5-0.2,0.8-0.3
			c0.3-0.1,0.6-0.1,1-0.1c0.5,0,0.9,0.1,1.3,0.2c0.4,0.1,0.8,0.4,1.1,0.6c0.3,0.3,0.5,0.7,0.7,1.2c0.2,0.5,0.3,1,0.3,1.7v5.5h-1.3
			v-5.3c0-0.5-0.1-0.9-0.2-1.3c-0.1-0.4-0.3-0.6-0.5-0.9c-0.2-0.2-0.5-0.4-0.7-0.5c-0.3-0.1-0.6-0.1-1-0.1c-0.4,0-0.7,0.1-1.1,0.2
			c-0.3,0.1-0.6,0.4-0.9,0.7c-0.3,0.3-0.4,0.7-0.6,1.1c-0.1,0.4-0.2,0.9-0.2,1.5v4.7H47.1z"/>
		<path d="M57.8,129.5H56v-1h1.8v-2.8H59v2.8h2.5v1H59v5.5c0,0.3,0,0.5,0.1,0.7c0.1,0.2,0.1,0.4,0.3,0.5c0.1,0.1,0.3,0.2,0.5,0.3
			s0.4,0.1,0.7,0.1h1v1.1h-1.2c-0.4,0-0.8-0.1-1.1-0.2s-0.6-0.3-0.8-0.5c-0.2-0.2-0.4-0.5-0.5-0.8s-0.2-0.7-0.2-1.2V129.5z"/>
		<path d="M67.7,137.6v-13h5.2c0.7,0,1.3,0.1,1.8,0.2c0.5,0.1,0.9,0.4,1.3,0.6c0.3,0.3,0.6,0.6,0.7,1s0.2,0.9,0.2,1.4
			c0,0.3,0,0.6-0.1,0.9c-0.1,0.3-0.2,0.6-0.4,0.8c-0.2,0.2-0.4,0.5-0.7,0.6c-0.3,0.2-0.6,0.3-0.9,0.4v0.1c0.4,0.1,0.8,0.2,1.1,0.4
			c0.3,0.2,0.6,0.4,0.9,0.7c0.2,0.3,0.4,0.6,0.5,0.9c0.1,0.3,0.2,0.7,0.2,1.1c0,0.6-0.1,1.1-0.3,1.5c-0.2,0.5-0.4,0.9-0.8,1.2
			c-0.4,0.3-0.8,0.6-1.3,0.8c-0.5,0.2-1.1,0.3-1.8,0.3H67.7z M69.1,125.8v4.5H73c0.4,0,0.8-0.1,1.1-0.2c0.3-0.1,0.6-0.3,0.8-0.5
			s0.4-0.5,0.5-0.8c0.1-0.3,0.2-0.6,0.2-0.9c0-0.3-0.1-0.6-0.2-0.9c-0.1-0.3-0.3-0.5-0.5-0.7c-0.2-0.2-0.5-0.3-0.8-0.4
			c-0.3-0.1-0.7-0.1-1.2-0.1H69.1z M69.1,131.5v5h4.2c0.5,0,0.9-0.1,1.3-0.2c0.4-0.1,0.7-0.3,0.9-0.5c0.2-0.2,0.4-0.5,0.5-0.8
			c0.1-0.3,0.2-0.7,0.2-1.1c0-0.3-0.1-0.7-0.2-1c-0.1-0.3-0.3-0.5-0.5-0.8c-0.2-0.2-0.5-0.4-0.9-0.5c-0.4-0.1-0.8-0.2-1.3-0.2H69.1z
			"/>
		<path d="M79.9,137.6v-9.2h1.2v1.7h0.1c0.1-0.3,0.2-0.5,0.4-0.7c0.2-0.2,0.3-0.4,0.6-0.5c0.2-0.1,0.4-0.3,0.7-0.3
			c0.3-0.1,0.5-0.1,0.8-0.1c0.1,0,0.2,0,0.3,0c0.1,0,0.2,0,0.3,0c0.1,0,0.2,0,0.3,0.1c0.1,0,0.2,0.1,0.3,0.1l-0.4,1.3
			c-0.1,0-0.2-0.1-0.3-0.1c-0.1,0-0.2-0.1-0.3-0.1c-0.1,0-0.2,0-0.3,0s-0.2,0-0.3,0c-0.4,0-0.7,0.1-1,0.3c-0.3,0.2-0.5,0.4-0.7,0.7
			c-0.2,0.3-0.3,0.6-0.4,1s-0.1,0.8-0.1,1.2v4.7H79.9z"/>
		<path d="M85.8,131.2c0.2-0.6,0.5-1.1,0.9-1.5c0.4-0.4,0.9-0.7,1.4-0.9s1.1-0.3,1.7-0.3c0.7,0,1.2,0.1,1.8,0.3
			c0.5,0.2,1,0.5,1.4,0.9c0.4,0.4,0.7,0.9,0.9,1.5c0.2,0.6,0.3,1.2,0.3,1.9c0,0.7-0.1,1.3-0.3,1.9s-0.5,1.1-0.9,1.5
			s-0.9,0.7-1.4,0.9c-0.5,0.2-1.1,0.3-1.7,0.3c-0.7,0-1.2-0.1-1.8-0.3s-1-0.5-1.4-0.9c-0.4-0.4-0.7-0.9-0.9-1.5
			c-0.2-0.6-0.3-1.2-0.3-1.9C85.5,132.4,85.6,131.7,85.8,131.2z M87,134.5c0.1,0.4,0.4,0.8,0.6,1.1c0.3,0.3,0.6,0.5,1,0.7
			c0.4,0.2,0.8,0.2,1.2,0.2c0.4,0,0.8-0.1,1.2-0.2c0.4-0.2,0.7-0.4,1-0.7c0.3-0.3,0.5-0.7,0.6-1.1c0.2-0.4,0.2-0.9,0.2-1.4
			c0-0.5-0.1-1-0.2-1.4c-0.1-0.4-0.4-0.8-0.6-1.1c-0.3-0.3-0.6-0.5-1-0.7c-0.4-0.2-0.8-0.2-1.2-0.2c-0.4,0-0.8,0.1-1.2,0.3
			c-0.4,0.2-0.7,0.4-1,0.7c-0.3,0.3-0.5,0.7-0.6,1.1s-0.2,0.9-0.2,1.4C86.8,133.6,86.9,134,87,134.5z"/>
		<path d="M97.9,137.6l-2.7-9.2h1.3l2.1,7.9h0.1l2.3-7.9h1.5l2.3,7.9h0.1l2.1-7.9h1.3l-2.7,9.2H104l-2.2-7.9h-0.1l-2.2,7.9H97.9z"/>
		<path d="M109.9,137.6v-9.2h1.2v1.7h0.1c0.1-0.3,0.3-0.5,0.5-0.7c0.2-0.2,0.4-0.4,0.7-0.5c0.3-0.1,0.5-0.2,0.8-0.3
			c0.3-0.1,0.6-0.1,1-0.1c0.5,0,0.9,0.1,1.3,0.2c0.4,0.1,0.8,0.4,1.1,0.6c0.3,0.3,0.5,0.7,0.7,1.2c0.2,0.5,0.3,1,0.3,1.7v5.5h-1.3
			v-5.3c0-0.5-0.1-0.9-0.2-1.3c-0.1-0.4-0.3-0.6-0.5-0.9c-0.2-0.2-0.5-0.4-0.7-0.5c-0.3-0.1-0.6-0.1-1-0.1c-0.4,0-0.7,0.1-1.1,0.2
			c-0.3,0.1-0.6,0.4-0.9,0.7c-0.3,0.3-0.4,0.7-0.6,1.1c-0.1,0.4-0.2,0.9-0.2,1.5v4.7H109.9z"/>
	</g>
	<g class="st3">
		<path d="M160.6,137.6v-13h5.2c0.7,0,1.3,0.1,1.8,0.2c0.5,0.1,0.9,0.4,1.3,0.6c0.3,0.3,0.6,0.6,0.7,1s0.2,0.9,0.2,1.4
			c0,0.3,0,0.6-0.1,0.9c-0.1,0.3-0.2,0.6-0.4,0.8c-0.2,0.2-0.4,0.5-0.7,0.6c-0.3,0.2-0.6,0.3-0.9,0.4v0.1c0.4,0.1,0.8,0.2,1.1,0.4
			c0.3,0.2,0.6,0.4,0.9,0.7c0.2,0.3,0.4,0.6,0.5,0.9c0.1,0.3,0.2,0.7,0.2,1.1c0,0.6-0.1,1.1-0.3,1.5c-0.2,0.5-0.4,0.9-0.8,1.2
			c-0.4,0.3-0.8,0.6-1.3,0.8c-0.5,0.2-1.1,0.3-1.8,0.3H160.6z M162,125.8v4.5h3.9c0.4,0,0.8-0.1,1.1-0.2c0.3-0.1,0.6-0.3,0.8-0.5
			s0.4-0.5,0.5-0.8c0.1-0.3,0.2-0.6,0.2-0.9c0-0.3-0.1-0.6-0.2-0.9c-0.1-0.3-0.3-0.5-0.5-0.7c-0.2-0.2-0.5-0.3-0.8-0.4
			c-0.3-0.1-0.7-0.1-1.2-0.1H162z M162,131.5v5h4.2c0.5,0,0.9-0.1,1.3-0.2c0.4-0.1,0.7-0.3,0.9-0.5c0.2-0.2,0.4-0.5,0.5-0.8
			c0.1-0.3,0.2-0.7,0.2-1.1c0-0.3-0.1-0.7-0.2-1c-0.1-0.3-0.3-0.5-0.5-0.8c-0.2-0.2-0.5-0.4-0.9-0.5c-0.4-0.1-0.8-0.2-1.3-0.2H162z"
			/>
		<path d="M172.8,137.6v-9.2h1.2v1.7h0.1c0.1-0.3,0.2-0.5,0.4-0.7c0.2-0.2,0.3-0.4,0.6-0.5c0.2-0.1,0.4-0.3,0.7-0.3
			c0.3-0.1,0.5-0.1,0.8-0.1c0.1,0,0.2,0,0.3,0c0.1,0,0.2,0,0.3,0c0.1,0,0.2,0,0.3,0.1c0.1,0,0.2,0.1,0.3,0.1l-0.4,1.3
			c-0.1,0-0.2-0.1-0.3-0.1c-0.1,0-0.2-0.1-0.3-0.1c-0.1,0-0.2,0-0.3,0s-0.2,0-0.3,0c-0.4,0-0.7,0.1-1,0.3c-0.3,0.2-0.5,0.4-0.7,0.7
			c-0.2,0.3-0.3,0.6-0.4,1s-0.1,0.8-0.1,1.2v4.7H172.8z"/>
		<path d="M178.7,131.2c0.2-0.6,0.5-1.1,0.9-1.5c0.4-0.4,0.9-0.7,1.4-0.9s1.1-0.3,1.7-0.3c0.7,0,1.2,0.1,1.8,0.3
			c0.5,0.2,1,0.5,1.4,0.9c0.4,0.4,0.7,0.9,0.9,1.5c0.2,0.6,0.3,1.2,0.3,1.9c0,0.7-0.1,1.3-0.3,1.9s-0.5,1.1-0.9,1.5
			s-0.9,0.7-1.4,0.9c-0.5,0.2-1.1,0.3-1.7,0.3c-0.7,0-1.2-0.1-1.8-0.3s-1-0.5-1.4-0.9c-0.4-0.4-0.7-0.9-0.9-1.5
			c-0.2-0.6-0.3-1.2-0.3-1.9C178.4,132.4,178.5,131.7,178.7,131.2z M179.9,134.5c0.1,0.4,0.4,0.8,0.6,1.1c0.3,0.3,0.6,0.5,1,0.7
			c0.4,0.2,0.8,0.2,1.2,0.2c0.4,0,0.8-0.1,1.2-0.2c0.4-0.2,0.7-0.4,1-0.7c0.3-0.3,0.5-0.7,0.6-1.1c0.2-0.4,0.2-0.9,0.2-1.4
			c0-0.5-0.1-1-0.2-1.4c-0.1-0.4-0.4-0.8-0.6-1.1c-0.3-0.3-0.6-0.5-1-0.7c-0.4-0.2-0.8-0.2-1.2-0.2c-0.4,0-0.8,0.1-1.2,0.3
			c-0.4,0.2-0.7,0.4-1,0.7c-0.3,0.3-0.5,0.7-0.6,1.1s-0.2,0.9-0.2,1.4C179.7,133.6,179.8,134,179.9,134.5z"/>
		<path d="M190.8,137.6l-2.7-9.2h1.3l2.1,7.9h0.1l2.3-7.9h1.5l2.3,7.9h0.1l2.1-7.9h1.3l-2.7,9.2h-1.5l-2.2-7.9h-0.1l-2.2,7.9H190.8z
			"/>
		<path d="M202.8,137.6v-9.2h1.2v1.7h0.1c0.1-0.3,0.3-0.5,0.5-0.7c0.2-0.2,0.4-0.4,0.7-0.5c0.3-0.1,0.5-0.2,0.8-0.3
			c0.3-0.1,0.6-0.1,1-0.1c0.5,0,0.9,0.1,1.3,0.2c0.4,0.1,0.8,0.4,1.1,0.6c0.3,0.3,0.5,0.7,0.7,1.2c0.2,0.5,0.3,1,0.3,1.7v5.5h-1.3
			v-5.3c0-0.5-0.1-0.9-0.2-1.3c-0.1-0.4-0.3-0.6-0.5-0.9c-0.2-0.2-0.5-0.4-0.7-0.5c-0.3-0.1-0.6-0.1-1-0.1c-0.4,0-0.7,0.1-1.1,0.2
			c-0.3,0.1-0.6,0.4-0.9,0.7c-0.3,0.3-0.4,0.7-0.6,1.1c-0.1,0.4-0.2,0.9-0.2,1.5v4.7H202.8z"/>
		<path d="M227.8,137.6l-0.2-2.4h0c-0.2,0.4-0.5,0.8-0.8,1.1s-0.6,0.6-1,0.8c-0.4,0.2-0.8,0.3-1.2,0.4c-0.4,0.1-0.9,0.1-1.5,0.1
			c-0.9,0-1.7-0.2-2.5-0.5c-0.8-0.3-1.4-0.8-2-1.4c-0.6-0.6-1-1.3-1.3-2.1s-0.5-1.6-0.5-2.6c0-0.9,0.2-1.8,0.5-2.6s0.7-1.5,1.3-2.1
			c0.6-0.6,1.2-1,2-1.4c0.8-0.3,1.6-0.5,2.5-0.5c0.7,0,1.4,0.1,2.1,0.3c0.6,0.2,1.2,0.5,1.6,0.8c0.5,0.3,0.9,0.8,1.2,1.2
			c0.3,0.5,0.5,1,0.7,1.5h-1.4c-0.1-0.4-0.3-0.7-0.5-1c-0.2-0.3-0.5-0.6-0.9-0.8c-0.3-0.2-0.8-0.4-1.2-0.6c-0.5-0.1-1-0.2-1.6-0.2
			c-0.7,0-1.4,0.1-2,0.4c-0.6,0.3-1.1,0.6-1.6,1.1c-0.4,0.5-0.8,1-1,1.7s-0.3,1.3-0.3,2.1c0,0.7,0.1,1.4,0.3,2.1
			c0.2,0.6,0.6,1.2,1,1.7c0.4,0.5,0.9,0.9,1.5,1.1c0.6,0.3,1.2,0.4,1.9,0.4c0.6,0,1.1-0.1,1.7-0.2c0.5-0.2,1-0.4,1.4-0.7
			s0.7-0.8,1-1.3s0.4-1.1,0.4-1.7v-0.6h-4.3v-1.2h5.6v7H227.8z"/>
		<path d="M231.6,137.6v-9.2h1.2v1.7h0.1c0.1-0.3,0.2-0.5,0.4-0.7c0.2-0.2,0.3-0.4,0.6-0.5c0.2-0.1,0.4-0.3,0.7-0.3
			c0.3-0.1,0.5-0.1,0.8-0.1c0.1,0,0.2,0,0.3,0c0.1,0,0.2,0,0.3,0c0.1,0,0.2,0,0.3,0.1c0.1,0,0.2,0.1,0.3,0.1l-0.4,1.3
			c-0.1,0-0.2-0.1-0.3-0.1c-0.1,0-0.2-0.1-0.3-0.1c-0.1,0-0.2,0-0.3,0s-0.2,0-0.3,0c-0.4,0-0.7,0.1-1,0.3c-0.3,0.2-0.5,0.4-0.7,0.7
			c-0.2,0.3-0.3,0.6-0.4,1s-0.1,0.8-0.1,1.2v4.7H231.6z"/>
		<path d="M237.6,134.2c0.1-0.3,0.3-0.5,0.5-0.8c0.2-0.2,0.5-0.4,0.9-0.5c0.4-0.1,0.8-0.3,1.3-0.3l2-0.3c0.3,0,0.5-0.1,0.6-0.1
			c0.2,0,0.3-0.1,0.4-0.1s0.2-0.1,0.2-0.2c0-0.1,0.1-0.2,0.1-0.3c0-0.3-0.1-0.6-0.2-0.9s-0.2-0.5-0.4-0.7c-0.2-0.2-0.4-0.3-0.7-0.4
			c-0.3-0.1-0.6-0.1-0.9-0.1c-0.4,0-0.7,0-1,0.1c-0.3,0.1-0.5,0.2-0.7,0.4c-0.2,0.2-0.4,0.4-0.5,0.6c-0.1,0.2-0.2,0.5-0.2,0.8h-1.2
			c0-0.4,0.1-0.8,0.3-1.2c0.2-0.4,0.4-0.7,0.7-0.9s0.7-0.5,1.1-0.6s0.9-0.2,1.5-0.2c0.6,0,1,0.1,1.5,0.2c0.4,0.1,0.8,0.4,1.1,0.6
			c0.3,0.3,0.5,0.6,0.7,1c0.2,0.4,0.2,0.9,0.2,1.4v5.9h-1.2V136h-0.1c-0.1,0.3-0.3,0.5-0.5,0.7c-0.2,0.2-0.4,0.4-0.7,0.5
			c-0.3,0.1-0.6,0.2-0.9,0.3c-0.3,0.1-0.7,0.1-1,0.1c-0.5,0-0.9-0.1-1.3-0.2c-0.4-0.1-0.7-0.3-1-0.5c-0.3-0.2-0.5-0.5-0.6-0.8
			s-0.2-0.6-0.2-1C237.4,134.8,237.4,134.5,237.6,134.2z M243.5,132.7c-0.1,0.1-0.1,0.1-0.2,0.2c-0.1,0-0.2,0.1-0.2,0.1
			c-0.1,0-0.2,0.1-0.3,0.1c-0.1,0-0.2,0-0.3,0.1l-1.9,0.3c-0.3,0-0.6,0.1-0.8,0.2c-0.2,0.1-0.4,0.2-0.6,0.3
			c-0.2,0.1-0.3,0.3-0.3,0.5s-0.1,0.4-0.1,0.6c0,0.2,0,0.4,0.1,0.6c0.1,0.2,0.2,0.3,0.4,0.5c0.2,0.1,0.4,0.2,0.6,0.3
			c0.2,0.1,0.5,0.1,0.8,0.1c0.4,0,0.8-0.1,1.1-0.2s0.7-0.3,0.9-0.5c0.3-0.2,0.5-0.5,0.6-0.9s0.2-0.8,0.2-1.3V132.7z"/>
		<path d="M247.3,131.1c0.2-0.6,0.5-1,0.9-1.4c0.4-0.4,0.8-0.7,1.3-0.9c0.5-0.2,1-0.3,1.6-0.3c0.4,0,0.7,0,1,0.1
			c0.3,0.1,0.6,0.2,0.9,0.3c0.3,0.1,0.5,0.3,0.7,0.5c0.2,0.2,0.4,0.4,0.5,0.6h0.1c0-0.2,0-0.5,0-0.8c0-0.3,0-0.6,0-1
			c0-0.3,0-0.6,0-0.9c0-0.2,0-0.5,0-0.7v-2.7h1.3v13.8h-1.2v-1.8h-0.1c-0.1,0.3-0.3,0.6-0.5,0.8c-0.2,0.2-0.5,0.4-0.8,0.6
			c-0.3,0.2-0.6,0.3-0.9,0.3c-0.3,0.1-0.7,0.1-1,0.1c-0.6,0-1.1-0.1-1.6-0.3c-0.5-0.2-0.9-0.5-1.3-0.9c-0.4-0.4-0.6-0.9-0.8-1.5
			s-0.3-1.2-0.3-2C247,132.2,247.1,131.6,247.3,131.1z M248.6,134.4c0.2,0.5,0.4,0.8,0.6,1.1c0.3,0.3,0.6,0.5,0.9,0.7
			c0.4,0.2,0.7,0.2,1.2,0.2c0.4,0,0.8-0.1,1.1-0.2c0.4-0.1,0.7-0.4,0.9-0.7c0.3-0.3,0.5-0.6,0.6-1.1c0.2-0.4,0.2-0.9,0.3-1.4v-0.3
			c0-0.5-0.1-1-0.3-1.4c-0.2-0.4-0.4-0.8-0.6-1.1c-0.3-0.3-0.6-0.5-0.9-0.7c-0.4-0.1-0.7-0.2-1.1-0.2c-0.4,0-0.8,0.1-1.2,0.2
			c-0.4,0.2-0.7,0.4-0.9,0.7c-0.3,0.3-0.5,0.7-0.6,1.1s-0.2,0.9-0.2,1.4C248.3,133.5,248.4,134,248.6,134.4z"/>
		<path d="M258.5,125.6v-1.8h1.4v1.8H258.5z M258.5,137.6v-9.2h1.3v9.2H258.5z"/>
		<path d="M262.5,131c0.2-0.5,0.5-1,0.9-1.4s0.8-0.7,1.4-0.9s1.1-0.3,1.7-0.3c0.6,0,1.1,0.1,1.6,0.3s0.9,0.4,1.3,0.8
			s0.6,0.8,0.8,1.3c0.2,0.5,0.3,1.1,0.3,1.7v0.5h-6.9c0,0.5,0.1,1,0.2,1.5c0.1,0.4,0.3,0.8,0.6,1.1c0.3,0.3,0.6,0.6,0.9,0.7
			c0.4,0.2,0.8,0.3,1.2,0.3c0.4,0,0.7,0,1-0.1c0.3-0.1,0.5-0.2,0.8-0.4c0.2-0.2,0.4-0.4,0.5-0.6s0.2-0.5,0.3-0.7h1.3
			c-0.1,0.4-0.2,0.8-0.4,1.2c-0.2,0.4-0.5,0.7-0.8,1c-0.3,0.3-0.7,0.5-1.2,0.6c-0.4,0.2-0.9,0.2-1.4,0.2c-0.7,0-1.3-0.1-1.8-0.3
			c-0.5-0.2-1-0.5-1.4-1c-0.4-0.4-0.6-0.9-0.8-1.5c-0.2-0.6-0.3-1.2-0.3-2C262.1,132.2,262.3,131.6,262.5,131z M265.4,129.7
			c-0.3,0.1-0.6,0.3-0.8,0.5c-0.3,0.2-0.5,0.5-0.6,0.8c-0.2,0.3-0.3,0.6-0.4,1h5.5c0-0.4-0.1-0.8-0.3-1.1s-0.3-0.6-0.5-0.8
			s-0.5-0.4-0.8-0.5s-0.7-0.1-1-0.1C266,129.5,265.7,129.6,265.4,129.7z"/>
		<path d="M272.6,137.6v-9.2h1.2v1.7h0.1c0.1-0.3,0.3-0.5,0.5-0.7c0.2-0.2,0.4-0.4,0.7-0.5c0.3-0.1,0.5-0.2,0.8-0.3
			c0.3-0.1,0.6-0.1,1-0.1c0.5,0,0.9,0.1,1.3,0.2c0.4,0.1,0.8,0.4,1.1,0.6c0.3,0.3,0.5,0.7,0.7,1.2c0.2,0.5,0.3,1,0.3,1.7v5.5H279
			v-5.3c0-0.5-0.1-0.9-0.2-1.3c-0.1-0.4-0.3-0.6-0.5-0.9c-0.2-0.2-0.5-0.4-0.7-0.5c-0.3-0.1-0.6-0.1-1-0.1c-0.4,0-0.7,0.1-1.1,0.2
			c-0.3,0.1-0.6,0.4-0.9,0.7c-0.3,0.3-0.4,0.7-0.6,1.1c-0.1,0.4-0.2,0.9-0.2,1.5v4.7H272.6z"/>
		<path d="M283.2,129.5h-1.8v-1h1.8v-2.8h1.3v2.8h2.5v1h-2.5v5.5c0,0.3,0,0.5,0.1,0.7c0.1,0.2,0.1,0.4,0.3,0.5
			c0.1,0.1,0.3,0.2,0.5,0.3s0.4,0.1,0.7,0.1h1v1.1h-1.2c-0.4,0-0.8-0.1-1.1-0.2s-0.6-0.3-0.8-0.5c-0.2-0.2-0.4-0.5-0.5-0.8
			s-0.2-0.7-0.2-1.2V129.5z"/>
	</g>
	<g class="st3">
		<path d="M332.7,137.6v-13h5.2c0.7,0,1.3,0.1,1.8,0.2c0.5,0.1,0.9,0.4,1.3,0.6c0.3,0.3,0.6,0.6,0.7,1s0.2,0.9,0.2,1.4
			c0,0.3,0,0.6-0.1,0.9c-0.1,0.3-0.2,0.6-0.4,0.8c-0.2,0.2-0.4,0.5-0.7,0.6c-0.3,0.2-0.6,0.3-0.9,0.4v0.1c0.4,0.1,0.8,0.2,1.1,0.4
			c0.3,0.2,0.6,0.4,0.9,0.7c0.2,0.3,0.4,0.6,0.5,0.9c0.1,0.3,0.2,0.7,0.2,1.1c0,0.6-0.1,1.1-0.3,1.5c-0.2,0.5-0.4,0.9-0.8,1.2
			c-0.4,0.3-0.8,0.6-1.3,0.8c-0.5,0.2-1.1,0.3-1.8,0.3H332.7z M334.1,125.8v4.5h3.9c0.4,0,0.8-0.1,1.1-0.2c0.3-0.1,0.6-0.3,0.8-0.5
			s0.4-0.5,0.5-0.8c0.1-0.3,0.2-0.6,0.2-0.9c0-0.3-0.1-0.6-0.2-0.9c-0.1-0.3-0.3-0.5-0.5-0.7c-0.2-0.2-0.5-0.3-0.8-0.4
			c-0.3-0.1-0.7-0.1-1.2-0.1H334.1z M334.1,131.5v5h4.2c0.5,0,0.9-0.1,1.3-0.2c0.4-0.1,0.7-0.3,0.9-0.5c0.2-0.2,0.4-0.5,0.5-0.8
			c0.1-0.3,0.2-0.7,0.2-1.1c0-0.3-0.1-0.7-0.2-1c-0.1-0.3-0.3-0.5-0.5-0.8c-0.2-0.2-0.5-0.4-0.9-0.5c-0.4-0.1-0.8-0.2-1.3-0.2H334.1
			z"/>
		<path d="M344.9,137.6v-9.2h1.2v1.7h0.1c0.1-0.3,0.2-0.5,0.4-0.7c0.2-0.2,0.3-0.4,0.6-0.5c0.2-0.1,0.4-0.3,0.7-0.3
			c0.3-0.1,0.5-0.1,0.8-0.1c0.1,0,0.2,0,0.3,0c0.1,0,0.2,0,0.3,0c0.1,0,0.2,0,0.3,0.1c0.1,0,0.2,0.1,0.3,0.1l-0.4,1.3
			c-0.1,0-0.2-0.1-0.3-0.1c-0.1,0-0.2-0.1-0.3-0.1c-0.1,0-0.2,0-0.3,0s-0.2,0-0.3,0c-0.4,0-0.7,0.1-1,0.3c-0.3,0.2-0.5,0.4-0.7,0.7
			c-0.2,0.3-0.3,0.6-0.4,1s-0.1,0.8-0.1,1.2v4.7H344.9z"/>
		<path d="M351.5,125.6v-1.8h1.4v1.8H351.5z M351.5,137.6v-9.2h1.3v9.2H351.5z"/>
		<path d="M355.8,137.6v-13.8h1.3v13.8H355.8z"/>
		<path d="M360.1,137.6v-13.8h1.3v13.8H360.1z"/>
		<path d="M364.4,125.6v-1.8h1.4v1.8H364.4z M364.4,137.6v-9.2h1.3v9.2H364.4z"/>
		<path d="M368.3,134.2c0.1-0.3,0.3-0.5,0.5-0.8c0.2-0.2,0.5-0.4,0.9-0.5c0.4-0.1,0.8-0.3,1.3-0.3l2-0.3c0.3,0,0.5-0.1,0.6-0.1
			c0.2,0,0.3-0.1,0.4-0.1s0.2-0.1,0.2-0.2c0-0.1,0.1-0.2,0.1-0.3c0-0.3-0.1-0.6-0.2-0.9s-0.2-0.5-0.4-0.7c-0.2-0.2-0.4-0.3-0.7-0.4
			c-0.3-0.1-0.6-0.1-0.9-0.1c-0.4,0-0.7,0-1,0.1c-0.3,0.1-0.5,0.2-0.7,0.4c-0.2,0.2-0.4,0.4-0.5,0.6c-0.1,0.2-0.2,0.5-0.2,0.8h-1.2
			c0-0.4,0.1-0.8,0.3-1.2c0.2-0.4,0.4-0.7,0.7-0.9s0.7-0.5,1.1-0.6s0.9-0.2,1.5-0.2c0.6,0,1,0.1,1.5,0.2c0.4,0.1,0.8,0.4,1.1,0.6
			c0.3,0.3,0.5,0.6,0.7,1c0.2,0.4,0.2,0.9,0.2,1.4v5.9h-1.2V136h-0.1c-0.1,0.3-0.3,0.5-0.5,0.7c-0.2,0.2-0.4,0.4-0.7,0.5
			c-0.3,0.1-0.6,0.2-0.9,0.3c-0.3,0.1-0.7,0.1-1,0.1c-0.5,0-0.9-0.1-1.3-0.2c-0.4-0.1-0.7-0.3-1-0.5c-0.3-0.2-0.5-0.5-0.6-0.8
			s-0.2-0.6-0.2-1C368.1,134.8,368.2,134.5,368.3,134.2z M374.3,132.7c-0.1,0.1-0.1,0.1-0.2,0.2c-0.1,0-0.2,0.1-0.2,0.1
			c-0.1,0-0.2,0.1-0.3,0.1c-0.1,0-0.2,0-0.3,0.1l-1.9,0.3c-0.3,0-0.6,0.1-0.8,0.2c-0.2,0.1-0.4,0.2-0.6,0.3
			c-0.2,0.1-0.3,0.3-0.3,0.5s-0.1,0.4-0.1,0.6c0,0.2,0,0.4,0.1,0.6c0.1,0.2,0.2,0.3,0.4,0.5c0.2,0.1,0.4,0.2,0.6,0.3
			c0.2,0.1,0.5,0.1,0.8,0.1c0.4,0,0.8-0.1,1.1-0.2s0.7-0.3,0.9-0.5c0.3-0.2,0.5-0.5,0.6-0.9s0.2-0.8,0.2-1.3V132.7z"/>
		<path d="M378.4,137.6v-9.2h1.2v1.7h0.1c0.1-0.3,0.3-0.5,0.5-0.7c0.2-0.2,0.4-0.4,0.7-0.5c0.3-0.1,0.5-0.2,0.8-0.3
			c0.3-0.1,0.6-0.1,1-0.1c0.5,0,0.9,0.1,1.3,0.2c0.4,0.1,0.8,0.4,1.1,0.6c0.3,0.3,0.5,0.7,0.7,1.2c0.2,0.5,0.3,1,0.3,1.7v5.5h-1.3
			v-5.3c0-0.5-0.1-0.9-0.2-1.3c-0.1-0.4-0.3-0.6-0.5-0.9c-0.2-0.2-0.5-0.4-0.7-0.5c-0.3-0.1-0.6-0.1-1-0.1c-0.4,0-0.7,0.1-1.1,0.2
			c-0.3,0.1-0.6,0.4-0.9,0.7c-0.3,0.3-0.4,0.7-0.6,1.1c-0.1,0.4-0.2,0.9-0.2,1.5v4.7H378.4z"/>
		<path d="M389.1,129.5h-1.8v-1h1.8v-2.8h1.3v2.8h2.5v1h-2.5v5.5c0,0.3,0,0.5,0.1,0.7c0.1,0.2,0.1,0.4,0.3,0.5
			c0.1,0.1,0.3,0.2,0.5,0.3s0.4,0.1,0.7,0.1h1v1.1h-1.2c-0.4,0-0.8-0.1-1.1-0.2s-0.6-0.3-0.8-0.5c-0.2-0.2-0.4-0.5-0.5-0.8
			s-0.2-0.7-0.2-1.2V129.5z"/>
		<path d="M409.2,137.6l-0.2-2.4h0c-0.2,0.4-0.5,0.8-0.8,1.1s-0.6,0.6-1,0.8c-0.4,0.2-0.8,0.3-1.2,0.4c-0.4,0.1-0.9,0.1-1.5,0.1
			c-0.9,0-1.7-0.2-2.5-0.5c-0.8-0.3-1.4-0.8-2-1.4c-0.6-0.6-1-1.3-1.3-2.1s-0.5-1.6-0.5-2.6c0-0.9,0.2-1.8,0.5-2.6s0.7-1.5,1.3-2.1
			c0.6-0.6,1.2-1,2-1.4c0.8-0.3,1.6-0.5,2.5-0.5c0.7,0,1.4,0.1,2.1,0.3c0.6,0.2,1.2,0.5,1.6,0.8c0.5,0.3,0.9,0.8,1.2,1.2
			c0.3,0.5,0.5,1,0.7,1.5h-1.4c-0.1-0.4-0.3-0.7-0.5-1c-0.2-0.3-0.5-0.6-0.9-0.8c-0.3-0.2-0.8-0.4-1.2-0.6c-0.5-0.1-1-0.2-1.6-0.2
			c-0.7,0-1.4,0.1-2,0.4c-0.6,0.3-1.1,0.6-1.6,1.1c-0.4,0.5-0.8,1-1,1.7s-0.3,1.3-0.3,2.1c0,0.7,0.1,1.4,0.3,2.1
			c0.2,0.6,0.6,1.2,1,1.7c0.4,0.5,0.9,0.9,1.5,1.1c0.6,0.3,1.2,0.4,1.9,0.4c0.6,0,1.1-0.1,1.7-0.2c0.5-0.2,1-0.4,1.4-0.7
			s0.7-0.8,1-1.3s0.4-1.1,0.4-1.7v-0.6h-4.3v-1.2h5.6v7H409.2z"/>
		<path d="M413.1,137.6v-9.2h1.2v1.7h0.1c0.1-0.3,0.2-0.5,0.4-0.7c0.2-0.2,0.3-0.4,0.6-0.5c0.2-0.1,0.4-0.3,0.7-0.3
			c0.3-0.1,0.5-0.1,0.8-0.1c0.1,0,0.2,0,0.3,0c0.1,0,0.2,0,0.3,0c0.1,0,0.2,0,0.3,0.1c0.1,0,0.2,0.1,0.3,0.1l-0.4,1.3
			c-0.1,0-0.2-0.1-0.3-0.1c-0.1,0-0.2-0.1-0.3-0.1c-0.1,0-0.2,0-0.3,0s-0.2,0-0.3,0c-0.4,0-0.7,0.1-1,0.3c-0.3,0.2-0.5,0.4-0.7,0.7
			c-0.2,0.3-0.3,0.6-0.4,1s-0.1,0.8-0.1,1.2v4.7H413.1z"/>
		<path d="M419,131c0.2-0.5,0.5-1,0.9-1.4s0.8-0.7,1.4-0.9s1.1-0.3,1.7-0.3c0.6,0,1.1,0.1,1.6,0.3s0.9,0.4,1.3,0.8s0.6,0.8,0.8,1.3
			c0.2,0.5,0.3,1.1,0.3,1.7v0.5H420c0,0.5,0.1,1,0.2,1.5c0.1,0.4,0.3,0.8,0.6,1.1c0.3,0.3,0.6,0.6,0.9,0.7c0.4,0.2,0.8,0.3,1.2,0.3
			c0.4,0,0.7,0,1-0.1c0.3-0.1,0.5-0.2,0.8-0.4c0.2-0.2,0.4-0.4,0.5-0.6s0.2-0.5,0.3-0.7h1.3c-0.1,0.4-0.2,0.8-0.4,1.2
			c-0.2,0.4-0.5,0.7-0.8,1c-0.3,0.3-0.7,0.5-1.2,0.6c-0.4,0.2-0.9,0.2-1.4,0.2c-0.7,0-1.3-0.1-1.8-0.3c-0.5-0.2-1-0.5-1.4-1
			c-0.4-0.4-0.6-0.9-0.8-1.5c-0.2-0.6-0.3-1.2-0.3-2C418.7,132.2,418.8,131.6,419,131z M421.9,129.7c-0.3,0.1-0.6,0.3-0.8,0.5
			c-0.3,0.2-0.5,0.5-0.6,0.8c-0.2,0.3-0.3,0.6-0.4,1h5.5c0-0.4-0.1-0.8-0.3-1.1s-0.3-0.6-0.5-0.8s-0.5-0.4-0.8-0.5s-0.7-0.1-1-0.1
			C422.6,129.5,422.2,129.6,421.9,129.7z"/>
		<path d="M428.3,140.7h0.5c0.3,0,0.5,0,0.8-0.1c0.2-0.1,0.4-0.2,0.6-0.4c0.2-0.2,0.4-0.4,0.5-0.6c0.1-0.2,0.3-0.5,0.4-0.8l0.3-0.9
			l-3.6-9.4h1.4l2.8,7.7h0.1l2.8-7.7h1.3l-4,10.7c-0.1,0.4-0.3,0.7-0.5,1c-0.2,0.3-0.4,0.6-0.6,0.8c-0.3,0.2-0.5,0.4-0.9,0.6
			c-0.3,0.1-0.7,0.2-1.1,0.2h-0.7V140.7z"/>
	</g>
	<g class="st3">
		<path d="M494.5,137.6l-0.2-2.4h0c-0.2,0.4-0.5,0.8-0.8,1.1c-0.3,0.3-0.6,0.6-1,0.8c-0.4,0.2-0.8,0.3-1.2,0.4
			c-0.4,0.1-0.9,0.1-1.5,0.1c-0.9,0-1.7-0.2-2.5-0.5c-0.8-0.3-1.4-0.8-2-1.4c-0.6-0.6-1-1.3-1.3-2.1c-0.3-0.8-0.5-1.6-0.5-2.6
			c0-0.9,0.2-1.8,0.5-2.6c0.3-0.8,0.7-1.5,1.3-2.1c0.6-0.6,1.2-1,2-1.4c0.8-0.3,1.6-0.5,2.5-0.5c0.7,0,1.4,0.1,2.1,0.3
			s1.2,0.5,1.6,0.8s0.9,0.8,1.2,1.2c0.3,0.5,0.5,1,0.7,1.5h-1.4c-0.1-0.4-0.3-0.7-0.5-1c-0.2-0.3-0.5-0.6-0.9-0.8
			c-0.3-0.2-0.8-0.4-1.2-0.6s-1-0.2-1.6-0.2c-0.7,0-1.4,0.1-2,0.4s-1.1,0.6-1.6,1.1c-0.4,0.5-0.8,1-1,1.7s-0.3,1.3-0.3,2.1
			c0,0.7,0.1,1.4,0.3,2.1c0.2,0.6,0.6,1.2,1,1.7c0.4,0.5,0.9,0.9,1.5,1.1c0.6,0.3,1.2,0.4,1.9,0.4c0.6,0,1.1-0.1,1.7-0.2
			c0.5-0.2,1-0.4,1.4-0.7c0.4-0.3,0.7-0.8,1-1.3c0.2-0.5,0.4-1.1,0.4-1.7v-0.6h-4.3v-1.2h5.6v7H494.5z"/>
		<path d="M498.3,137.6v-9.2h1.2v1.7h0.1c0.1-0.3,0.2-0.5,0.4-0.7c0.2-0.2,0.3-0.4,0.6-0.5c0.2-0.1,0.4-0.3,0.7-0.3s0.5-0.1,0.8-0.1
			c0.1,0,0.2,0,0.3,0c0.1,0,0.2,0,0.3,0c0.1,0,0.2,0,0.3,0.1c0.1,0,0.2,0.1,0.3,0.1l-0.4,1.3c-0.1,0-0.2-0.1-0.3-0.1
			c-0.1,0-0.2-0.1-0.3-0.1c-0.1,0-0.2,0-0.3,0c-0.1,0-0.2,0-0.3,0c-0.4,0-0.7,0.1-1,0.3c-0.3,0.2-0.5,0.4-0.7,0.7
			c-0.2,0.3-0.3,0.6-0.4,1c-0.1,0.4-0.1,0.8-0.1,1.2v4.7H498.3z"/>
		<path d="M504.2,131c0.2-0.5,0.5-1,0.9-1.4c0.4-0.4,0.8-0.7,1.4-0.9c0.5-0.2,1.1-0.3,1.7-0.3c0.6,0,1.1,0.1,1.6,0.3
			s0.9,0.4,1.3,0.8s0.6,0.8,0.8,1.3c0.2,0.5,0.3,1.1,0.3,1.7v0.5h-6.9c0,0.5,0.1,1,0.2,1.5c0.1,0.4,0.3,0.8,0.6,1.1
			c0.3,0.3,0.6,0.6,0.9,0.7c0.4,0.2,0.8,0.3,1.2,0.3c0.4,0,0.7,0,1-0.1c0.3-0.1,0.5-0.2,0.8-0.4c0.2-0.2,0.4-0.4,0.5-0.6
			s0.2-0.5,0.3-0.7h1.3c-0.1,0.4-0.2,0.8-0.4,1.2c-0.2,0.4-0.5,0.7-0.8,1c-0.3,0.3-0.7,0.5-1.2,0.6c-0.4,0.2-0.9,0.2-1.4,0.2
			c-0.7,0-1.3-0.1-1.8-0.3c-0.5-0.2-1-0.5-1.4-1s-0.7-0.9-0.8-1.5c-0.2-0.6-0.3-1.2-0.3-2C503.9,132.2,504,131.6,504.2,131z
			 M507.2,129.7c-0.3,0.1-0.6,0.3-0.8,0.5c-0.3,0.2-0.5,0.5-0.6,0.8c-0.2,0.3-0.3,0.6-0.4,1h5.5c0-0.4-0.1-0.8-0.3-1.1
			c-0.1-0.3-0.3-0.6-0.5-0.8c-0.2-0.2-0.5-0.4-0.8-0.5c-0.3-0.1-0.7-0.1-1-0.1C507.8,129.5,507.5,129.6,507.2,129.7z"/>
		<path d="M513.5,140.7h0.5c0.3,0,0.5,0,0.8-0.1c0.2-0.1,0.4-0.2,0.6-0.4c0.2-0.2,0.4-0.4,0.5-0.6c0.1-0.2,0.3-0.5,0.4-0.8l0.3-0.9
			l-3.6-9.4h1.4l2.8,7.7h0.1l2.8-7.7h1.3l-4,10.7c-0.1,0.4-0.3,0.7-0.5,1c-0.2,0.3-0.4,0.6-0.6,0.8c-0.3,0.2-0.5,0.4-0.9,0.6
			c-0.3,0.1-0.7,0.2-1.1,0.2h-0.7V140.7z"/>
		<path d="M537.5,137.6l-0.2-2.4h0c-0.2,0.4-0.5,0.8-0.8,1.1c-0.3,0.3-0.6,0.6-1,0.8c-0.4,0.2-0.8,0.3-1.2,0.4
			c-0.4,0.1-0.9,0.1-1.5,0.1c-0.9,0-1.7-0.2-2.5-0.5c-0.8-0.3-1.4-0.8-2-1.4c-0.6-0.6-1-1.3-1.3-2.1c-0.3-0.8-0.5-1.6-0.5-2.6
			c0-0.9,0.2-1.8,0.5-2.6c0.3-0.8,0.7-1.5,1.3-2.1s1.2-1,2-1.4c0.8-0.3,1.6-0.5,2.5-0.5c0.7,0,1.4,0.1,2.1,0.3
			c0.6,0.2,1.2,0.5,1.6,0.8c0.5,0.3,0.9,0.8,1.2,1.2c0.3,0.5,0.5,1,0.7,1.5h-1.4c-0.1-0.4-0.3-0.7-0.5-1s-0.5-0.6-0.9-0.8
			s-0.8-0.4-1.2-0.6c-0.5-0.1-1-0.2-1.6-0.2c-0.7,0-1.4,0.1-2,0.4c-0.6,0.3-1.1,0.6-1.6,1.1c-0.4,0.5-0.8,1-1,1.7s-0.3,1.3-0.3,2.1
			c0,0.7,0.1,1.4,0.3,2.1c0.2,0.6,0.6,1.2,1,1.7c0.4,0.5,0.9,0.9,1.5,1.1s1.2,0.4,2,0.4c0.6,0,1.1-0.1,1.7-0.2s1-0.4,1.4-0.7
			c0.4-0.3,0.7-0.8,1-1.3c0.2-0.5,0.4-1.1,0.4-1.7v-0.6h-4.3v-1.2h5.6v7H537.5z"/>
		<path d="M541.3,137.6v-9.2h1.2v1.7h0.1c0.1-0.3,0.2-0.5,0.4-0.7c0.2-0.2,0.3-0.4,0.6-0.5c0.2-0.1,0.4-0.3,0.7-0.3s0.5-0.1,0.8-0.1
			c0.1,0,0.2,0,0.3,0c0.1,0,0.2,0,0.3,0c0.1,0,0.2,0,0.3,0.1c0.1,0,0.2,0.1,0.3,0.1l-0.4,1.3c-0.1,0-0.2-0.1-0.3-0.1
			c-0.1,0-0.2-0.1-0.3-0.1c-0.1,0-0.2,0-0.3,0c-0.1,0-0.2,0-0.3,0c-0.4,0-0.7,0.1-1,0.3c-0.3,0.2-0.5,0.4-0.7,0.7
			c-0.2,0.3-0.3,0.6-0.4,1c-0.1,0.4-0.1,0.8-0.1,1.2v4.7H541.3z"/>
		<path d="M547.3,134.2c0.1-0.3,0.3-0.5,0.5-0.8s0.5-0.4,0.9-0.5c0.4-0.1,0.8-0.3,1.3-0.3l2-0.3c0.3,0,0.5-0.1,0.6-0.1
			s0.3-0.1,0.4-0.1c0.1-0.1,0.2-0.1,0.2-0.2c0-0.1,0.1-0.2,0.1-0.3c0-0.3-0.1-0.6-0.2-0.9c-0.1-0.3-0.2-0.5-0.4-0.7
			c-0.2-0.2-0.4-0.3-0.7-0.4c-0.3-0.1-0.6-0.1-0.9-0.1s-0.7,0-1,0.1c-0.3,0.1-0.5,0.2-0.7,0.4c-0.2,0.2-0.4,0.4-0.5,0.6
			c-0.1,0.2-0.2,0.5-0.2,0.8h-1.2c0-0.4,0.1-0.8,0.3-1.2c0.2-0.4,0.4-0.7,0.7-0.9c0.3-0.3,0.7-0.5,1.1-0.6c0.4-0.1,0.9-0.2,1.5-0.2
			c0.6,0,1,0.1,1.5,0.2c0.4,0.1,0.8,0.4,1.1,0.6c0.3,0.3,0.5,0.6,0.7,1s0.2,0.9,0.2,1.4v5.9h-1.2V136h-0.1c-0.1,0.3-0.3,0.5-0.5,0.7
			c-0.2,0.2-0.4,0.4-0.7,0.5c-0.3,0.1-0.6,0.2-0.9,0.3s-0.7,0.1-1,0.1c-0.5,0-0.9-0.1-1.3-0.2c-0.4-0.1-0.7-0.3-1-0.5
			c-0.3-0.2-0.5-0.5-0.6-0.8s-0.2-0.6-0.2-1C547.1,134.8,547.1,134.5,547.3,134.2z M553.2,132.7c-0.1,0.1-0.1,0.1-0.2,0.2
			s-0.2,0.1-0.2,0.1s-0.2,0.1-0.3,0.1c-0.1,0-0.2,0-0.3,0.1l-1.9,0.3c-0.3,0-0.6,0.1-0.8,0.2c-0.2,0.1-0.4,0.2-0.6,0.3
			s-0.3,0.3-0.3,0.5s-0.1,0.4-0.1,0.6c0,0.2,0,0.4,0.1,0.6c0.1,0.2,0.2,0.3,0.4,0.5c0.2,0.1,0.4,0.2,0.6,0.3
			c0.2,0.1,0.5,0.1,0.8,0.1c0.4,0,0.8-0.1,1.1-0.2s0.7-0.3,0.9-0.5c0.3-0.2,0.5-0.5,0.6-0.9c0.2-0.4,0.2-0.8,0.2-1.3V132.7z"/>
		<path d="M557,131.1c0.2-0.6,0.5-1,0.9-1.4c0.4-0.4,0.8-0.7,1.3-0.9c0.5-0.2,1-0.3,1.6-0.3c0.4,0,0.7,0,1,0.1
			c0.3,0.1,0.6,0.2,0.9,0.3c0.3,0.1,0.5,0.3,0.7,0.5c0.2,0.2,0.4,0.4,0.5,0.6h0.1c0-0.2,0-0.5,0-0.8c0-0.3,0-0.6,0-1
			c0-0.3,0-0.6,0-0.9c0-0.2,0-0.5,0-0.7v-2.7h1.3v13.8H564v-1.8h-0.1c-0.1,0.3-0.3,0.6-0.5,0.8c-0.2,0.2-0.5,0.4-0.8,0.6
			c-0.3,0.2-0.6,0.3-0.9,0.3c-0.3,0.1-0.7,0.1-1,0.1c-0.6,0-1.1-0.1-1.6-0.3c-0.5-0.2-0.9-0.5-1.3-0.9c-0.4-0.4-0.6-0.9-0.8-1.5
			c-0.2-0.6-0.3-1.2-0.3-2C556.7,132.2,556.8,131.6,557,131.1z M558.3,134.4c0.2,0.5,0.4,0.8,0.6,1.1c0.3,0.3,0.6,0.5,0.9,0.7
			s0.7,0.2,1.2,0.2c0.4,0,0.8-0.1,1.1-0.2c0.4-0.1,0.7-0.4,0.9-0.7c0.3-0.3,0.5-0.6,0.6-1.1c0.2-0.4,0.2-0.9,0.3-1.4v-0.3
			c0-0.5-0.1-1-0.3-1.4c-0.2-0.4-0.4-0.8-0.6-1.1c-0.3-0.3-0.6-0.5-0.9-0.7c-0.4-0.1-0.7-0.2-1.1-0.2c-0.4,0-0.8,0.1-1.2,0.2
			c-0.4,0.2-0.7,0.4-0.9,0.7c-0.3,0.3-0.5,0.7-0.6,1.1c-0.2,0.4-0.2,0.9-0.2,1.4C558,133.5,558.1,134,558.3,134.4z"/>
		<path d="M568.2,125.6v-1.8h1.4v1.8H568.2z M568.2,137.6v-9.2h1.3v9.2H568.2z"/>
		<path d="M572.2,131c0.2-0.5,0.5-1,0.9-1.4c0.4-0.4,0.8-0.7,1.4-0.9c0.5-0.2,1.1-0.3,1.7-0.3c0.6,0,1.1,0.1,1.6,0.3
			s0.9,0.4,1.3,0.8s0.6,0.8,0.8,1.3c0.2,0.5,0.3,1.1,0.3,1.7v0.5h-6.9c0,0.5,0.1,1,0.2,1.5c0.1,0.4,0.3,0.8,0.6,1.1
			c0.3,0.3,0.6,0.6,0.9,0.7c0.4,0.2,0.8,0.3,1.2,0.3c0.4,0,0.7,0,1-0.1c0.3-0.1,0.5-0.2,0.8-0.4c0.2-0.2,0.4-0.4,0.5-0.6
			s0.2-0.5,0.3-0.7h1.3c-0.1,0.4-0.2,0.8-0.4,1.2c-0.2,0.4-0.5,0.7-0.8,1c-0.3,0.3-0.7,0.5-1.2,0.6c-0.4,0.2-0.9,0.2-1.4,0.2
			c-0.7,0-1.3-0.1-1.8-0.3c-0.5-0.2-1-0.5-1.4-1s-0.7-0.9-0.8-1.5c-0.2-0.6-0.3-1.2-0.3-2C571.8,132.2,571.9,131.6,572.2,131z
			 M575.1,129.7c-0.3,0.1-0.6,0.3-0.8,0.5c-0.3,0.2-0.5,0.5-0.6,0.8c-0.2,0.3-0.3,0.6-0.4,1h5.5c0-0.4-0.1-0.8-0.3-1.1
			c-0.1-0.3-0.3-0.6-0.5-0.8c-0.2-0.2-0.5-0.4-0.8-0.5c-0.3-0.1-0.7-0.1-1-0.1C575.7,129.5,575.4,129.6,575.1,129.7z"/>
		<path d="M582.3,137.6v-9.2h1.2v1.7h0.1c0.1-0.3,0.3-0.5,0.5-0.7s0.4-0.4,0.7-0.5c0.3-0.1,0.5-0.2,0.8-0.3c0.3-0.1,0.6-0.1,1-0.1
			c0.5,0,0.9,0.1,1.3,0.2c0.4,0.1,0.8,0.4,1.1,0.6c0.3,0.3,0.5,0.7,0.7,1.2c0.2,0.5,0.3,1,0.3,1.7v5.5h-1.3v-5.3
			c0-0.5-0.1-0.9-0.2-1.3c-0.1-0.4-0.3-0.6-0.5-0.9s-0.5-0.4-0.7-0.5c-0.3-0.1-0.6-0.1-1-0.1c-0.4,0-0.7,0.1-1.1,0.2
			c-0.3,0.1-0.6,0.4-0.9,0.7c-0.3,0.3-0.4,0.7-0.6,1.1c-0.1,0.4-0.2,0.9-0.2,1.5v4.7H582.3z"/>
		<path d="M592.9,129.5h-1.8v-1h1.8v-2.8h1.3v2.8h2.5v1h-2.5v5.5c0,0.3,0,0.5,0.1,0.7c0.1,0.2,0.1,0.4,0.3,0.5
			c0.1,0.1,0.3,0.2,0.5,0.3c0.2,0.1,0.4,0.1,0.7,0.1h1v1.1h-1.2c-0.4,0-0.8-0.1-1.1-0.2c-0.3-0.1-0.6-0.3-0.8-0.5
			c-0.2-0.2-0.4-0.5-0.5-0.8c-0.1-0.3-0.2-0.7-0.2-1.2V129.5z"/>
	</g>
	<g class="st3">
		<path d="M640.5,137.6v-13h5.2c0.7,0,1.3,0.1,1.8,0.2c0.5,0.1,0.9,0.4,1.3,0.6c0.3,0.3,0.6,0.6,0.7,1s0.2,0.9,0.2,1.4
			c0,0.3,0,0.6-0.1,0.9c-0.1,0.3-0.2,0.6-0.4,0.8c-0.2,0.2-0.4,0.5-0.7,0.6c-0.3,0.2-0.6,0.3-0.9,0.4v0.1c0.4,0.1,0.8,0.2,1.1,0.4
			s0.6,0.4,0.9,0.7c0.2,0.3,0.4,0.6,0.5,0.9c0.1,0.3,0.2,0.7,0.2,1.1c0,0.6-0.1,1.1-0.3,1.5c-0.2,0.5-0.4,0.9-0.8,1.2
			c-0.4,0.3-0.8,0.6-1.3,0.8s-1.1,0.3-1.8,0.3H640.5z M641.8,125.8v4.5h3.9c0.4,0,0.8-0.1,1.1-0.2c0.3-0.1,0.6-0.3,0.8-0.5
			c0.2-0.2,0.4-0.5,0.5-0.8s0.2-0.6,0.2-0.9c0-0.3,0-0.6-0.2-0.9c-0.1-0.3-0.3-0.5-0.5-0.7c-0.2-0.2-0.5-0.3-0.8-0.4
			c-0.3-0.1-0.7-0.1-1.2-0.1H641.8z M641.8,131.5v5h4.2c0.5,0,0.9-0.1,1.3-0.2c0.4-0.1,0.7-0.3,0.9-0.5c0.2-0.2,0.4-0.5,0.5-0.8
			c0.1-0.3,0.2-0.7,0.2-1.1c0-0.3-0.1-0.7-0.2-1s-0.3-0.5-0.5-0.8c-0.2-0.2-0.5-0.4-0.9-0.5c-0.4-0.1-0.8-0.2-1.3-0.2H641.8z"/>
		<path d="M652.7,137.6v-9.2h1.2v1.7h0.1c0.1-0.3,0.2-0.5,0.4-0.7c0.2-0.2,0.3-0.4,0.6-0.5c0.2-0.1,0.4-0.3,0.7-0.3s0.5-0.1,0.8-0.1
			c0.1,0,0.2,0,0.3,0c0.1,0,0.2,0,0.3,0c0.1,0,0.2,0,0.3,0.1c0.1,0,0.2,0.1,0.3,0.1l-0.4,1.3c-0.1,0-0.2-0.1-0.3-0.1
			c-0.1,0-0.2-0.1-0.3-0.1c-0.1,0-0.2,0-0.3,0c-0.1,0-0.2,0-0.3,0c-0.4,0-0.7,0.1-1,0.3c-0.3,0.2-0.5,0.4-0.7,0.7
			c-0.2,0.3-0.3,0.6-0.4,1c-0.1,0.4-0.1,0.8-0.1,1.2v4.7H652.7z"/>
		<path d="M659.2,125.6v-1.8h1.4v1.8H659.2z M659.3,137.6v-9.2h1.3v9.2H659.3z"/>
		<path d="M663.6,137.6v-13.8h1.3v13.8H663.6z"/>
		<path d="M667.9,137.6v-13.8h1.3v13.8H667.9z"/>
		<path d="M672.1,125.6v-1.8h1.4v1.8H672.1z M672.2,137.6v-9.2h1.3v9.2H672.2z"/>
		<path d="M676.1,134.2c0.1-0.3,0.3-0.5,0.5-0.8c0.2-0.2,0.5-0.4,0.9-0.5s0.8-0.3,1.3-0.3l2-0.3c0.3,0,0.5-0.1,0.6-0.1
			c0.2,0,0.3-0.1,0.4-0.1c0.1-0.1,0.2-0.1,0.2-0.2c0-0.1,0.1-0.2,0.1-0.3c0-0.3-0.1-0.6-0.2-0.9c-0.1-0.3-0.2-0.5-0.4-0.7
			c-0.2-0.2-0.4-0.3-0.7-0.4c-0.3-0.1-0.6-0.1-0.9-0.1c-0.4,0-0.7,0-1,0.1c-0.3,0.1-0.5,0.2-0.7,0.4c-0.2,0.2-0.4,0.4-0.5,0.6
			c-0.1,0.2-0.2,0.5-0.2,0.8h-1.2c0-0.4,0.1-0.8,0.3-1.2c0.2-0.4,0.4-0.7,0.7-0.9c0.3-0.3,0.7-0.5,1.1-0.6c0.4-0.1,0.9-0.2,1.5-0.2
			c0.6,0,1,0.1,1.5,0.2s0.8,0.4,1.1,0.6c0.3,0.3,0.5,0.6,0.7,1c0.2,0.4,0.2,0.9,0.2,1.4v5.9h-1.2V136H682c-0.1,0.3-0.3,0.5-0.5,0.7
			c-0.2,0.2-0.4,0.4-0.7,0.5c-0.3,0.1-0.6,0.2-0.9,0.3c-0.3,0.1-0.7,0.1-1,0.1c-0.5,0-0.9-0.1-1.3-0.2c-0.4-0.1-0.7-0.3-1-0.5
			c-0.3-0.2-0.5-0.5-0.6-0.8s-0.2-0.6-0.2-1C675.9,134.8,675.9,134.5,676.1,134.2z M682,132.7c0,0.1-0.1,0.1-0.2,0.2
			c-0.1,0-0.2,0.1-0.2,0.1c-0.1,0-0.2,0.1-0.3,0.1c-0.1,0-0.2,0-0.3,0.1l-1.9,0.3c-0.3,0-0.6,0.1-0.8,0.2c-0.2,0.1-0.4,0.2-0.6,0.3
			c-0.2,0.1-0.3,0.3-0.3,0.5s-0.1,0.4-0.1,0.6c0,0.2,0,0.4,0.1,0.6c0.1,0.2,0.2,0.3,0.4,0.5c0.2,0.1,0.4,0.2,0.6,0.3
			c0.2,0.1,0.5,0.1,0.8,0.1c0.4,0,0.8-0.1,1.1-0.2s0.7-0.3,0.9-0.5c0.3-0.2,0.5-0.5,0.6-0.9c0.2-0.4,0.2-0.8,0.2-1.3V132.7z"/>
		<path d="M686.2,137.6v-9.2h1.2v1.7h0.1c0.1-0.3,0.3-0.5,0.5-0.7s0.4-0.4,0.7-0.5c0.3-0.1,0.5-0.2,0.8-0.3c0.3-0.1,0.6-0.1,1-0.1
			c0.5,0,0.9,0.1,1.3,0.2c0.4,0.1,0.8,0.4,1.1,0.6c0.3,0.3,0.5,0.7,0.7,1.2c0.2,0.5,0.3,1,0.3,1.7v5.5h-1.3v-5.3
			c0-0.5-0.1-0.9-0.2-1.3c-0.1-0.4-0.3-0.6-0.5-0.9s-0.5-0.4-0.7-0.5c-0.3-0.1-0.6-0.1-1-0.1c-0.4,0-0.7,0.1-1.1,0.2
			c-0.3,0.1-0.6,0.4-0.9,0.7c-0.3,0.3-0.4,0.7-0.6,1.1c-0.1,0.4-0.2,0.9-0.2,1.5v4.7H686.2z"/>
		<path d="M696.8,129.5H695v-1h1.8v-2.8h1.3v2.8h2.5v1h-2.5v5.5c0,0.3,0,0.5,0.1,0.7c0.1,0.2,0.1,0.4,0.3,0.5
			c0.1,0.1,0.3,0.2,0.5,0.3c0.2,0.1,0.4,0.1,0.7,0.1h1v1.1h-1.2c-0.4,0-0.8-0.1-1.1-0.2c-0.3-0.1-0.6-0.3-0.8-0.5
			c-0.2-0.2-0.4-0.5-0.5-0.8c-0.1-0.3-0.2-0.7-0.2-1.2V129.5z"/>
		<path d="M717,137.6l-0.2-2.4h0c-0.2,0.4-0.5,0.8-0.8,1.1c-0.3,0.3-0.6,0.6-1,0.8c-0.4,0.2-0.8,0.3-1.2,0.4
			c-0.4,0.1-0.9,0.1-1.5,0.1c-0.9,0-1.7-0.2-2.5-0.5c-0.8-0.3-1.4-0.8-2-1.4c-0.6-0.6-1-1.3-1.3-2.1c-0.3-0.8-0.5-1.6-0.5-2.6
			c0-0.9,0.2-1.8,0.5-2.6c0.3-0.8,0.7-1.5,1.3-2.1s1.2-1,2-1.4c0.8-0.3,1.6-0.5,2.5-0.5c0.7,0,1.4,0.1,2.1,0.3
			c0.6,0.2,1.2,0.5,1.6,0.8c0.5,0.3,0.9,0.8,1.2,1.2c0.3,0.5,0.5,1,0.7,1.5h-1.4c-0.1-0.4-0.3-0.7-0.5-1s-0.5-0.6-0.9-0.8
			s-0.8-0.4-1.2-0.6c-0.5-0.1-1-0.2-1.6-0.2c-0.7,0-1.4,0.1-2,0.4c-0.6,0.3-1.1,0.6-1.6,1.1c-0.4,0.5-0.8,1-1,1.7s-0.3,1.3-0.3,2.1
			c0,0.7,0.1,1.4,0.3,2.1c0.2,0.6,0.6,1.2,1,1.7c0.4,0.5,0.9,0.9,1.5,1.1s1.2,0.4,2,0.4c0.6,0,1.1-0.1,1.7-0.2s1-0.4,1.4-0.7
			c0.4-0.3,0.7-0.8,1-1.3c0.2-0.5,0.4-1.1,0.4-1.7v-0.6h-4.3v-1.2h5.6v7H717z"/>
		<path d="M720.9,137.6v-9.2h1.2v1.7h0.1c0.1-0.3,0.2-0.5,0.4-0.7c0.2-0.2,0.3-0.4,0.6-0.5c0.2-0.1,0.4-0.3,0.7-0.3
			c0.3-0.1,0.5-0.1,0.8-0.1c0.1,0,0.2,0,0.3,0s0.2,0,0.3,0c0.1,0,0.2,0,0.3,0.1c0.1,0,0.2,0.1,0.3,0.1l-0.4,1.3
			c-0.1,0-0.2-0.1-0.3-0.1s-0.2-0.1-0.3-0.1c-0.1,0-0.2,0-0.3,0c-0.1,0-0.2,0-0.3,0c-0.4,0-0.7,0.1-1,0.3s-0.5,0.4-0.7,0.7
			c-0.2,0.3-0.3,0.6-0.4,1c-0.1,0.4-0.1,0.8-0.1,1.2v4.7H720.9z"/>
		<path d="M726.8,131c0.2-0.5,0.5-1,0.9-1.4c0.4-0.4,0.8-0.7,1.4-0.9c0.5-0.2,1.1-0.3,1.7-0.3c0.6,0,1.1,0.1,1.6,0.3
			s0.9,0.4,1.3,0.8s0.6,0.8,0.8,1.3c0.2,0.5,0.3,1.1,0.3,1.7v0.5h-6.9c0,0.5,0.1,1,0.2,1.5c0.1,0.4,0.3,0.8,0.6,1.1
			c0.3,0.3,0.6,0.6,0.9,0.7c0.4,0.2,0.8,0.3,1.2,0.3c0.4,0,0.7,0,1-0.1c0.3-0.1,0.5-0.2,0.8-0.4c0.2-0.2,0.4-0.4,0.5-0.6
			s0.2-0.5,0.3-0.7h1.3c-0.1,0.4-0.2,0.8-0.4,1.2c-0.2,0.4-0.5,0.7-0.8,1c-0.3,0.3-0.7,0.5-1.2,0.6c-0.4,0.2-0.9,0.2-1.4,0.2
			c-0.7,0-1.3-0.1-1.8-0.3c-0.5-0.2-1-0.5-1.4-1s-0.7-0.9-0.8-1.5c-0.2-0.6-0.3-1.2-0.3-2C726.4,132.2,726.5,131.6,726.8,131z
			 M729.7,129.7c-0.3,0.1-0.6,0.3-0.8,0.5c-0.3,0.2-0.5,0.5-0.6,0.8c-0.2,0.3-0.3,0.6-0.4,1h5.5c0-0.4-0.1-0.8-0.3-1.1
			c-0.1-0.3-0.3-0.6-0.5-0.8c-0.2-0.2-0.5-0.4-0.8-0.5c-0.3-0.1-0.7-0.1-1-0.1C730.3,129.5,730,129.6,729.7,129.7z"/>
		<path d="M736.7,131c0.2-0.5,0.5-1,0.9-1.4c0.4-0.4,0.8-0.7,1.4-0.9c0.5-0.2,1.1-0.3,1.7-0.3c0.6,0,1.1,0.1,1.6,0.3
			s0.9,0.4,1.3,0.8s0.6,0.8,0.8,1.3c0.2,0.5,0.3,1.1,0.3,1.7v0.5h-6.9c0,0.5,0.1,1,0.2,1.5c0.1,0.4,0.3,0.8,0.6,1.1
			c0.3,0.3,0.6,0.6,0.9,0.7c0.4,0.2,0.8,0.3,1.2,0.3c0.4,0,0.7,0,1-0.1c0.3-0.1,0.5-0.2,0.8-0.4c0.2-0.2,0.4-0.4,0.5-0.6
			s0.2-0.5,0.3-0.7h1.3c-0.1,0.4-0.2,0.8-0.4,1.2c-0.2,0.4-0.5,0.7-0.8,1c-0.3,0.3-0.7,0.5-1.2,0.6c-0.4,0.2-0.9,0.2-1.4,0.2
			c-0.7,0-1.3-0.1-1.8-0.3c-0.5-0.2-1-0.5-1.4-1s-0.7-0.9-0.8-1.5c-0.2-0.6-0.3-1.2-0.3-2C736.4,132.2,736.5,131.6,736.7,131z
			 M739.7,129.7c-0.3,0.1-0.6,0.3-0.8,0.5c-0.3,0.2-0.5,0.5-0.6,0.8c-0.2,0.3-0.3,0.6-0.4,1h5.5c0-0.4-0.1-0.8-0.3-1.1
			c-0.1-0.3-0.3-0.6-0.5-0.8c-0.2-0.2-0.5-0.4-0.8-0.5c-0.3-0.1-0.7-0.1-1-0.1C740.3,129.5,740,129.6,739.7,129.7z"/>
		<path d="M746.9,137.6v-9.2h1.2v1.7h0.1c0.1-0.3,0.3-0.5,0.5-0.7s0.4-0.4,0.7-0.5c0.3-0.1,0.5-0.2,0.8-0.3c0.3-0.1,0.6-0.1,1-0.1
			c0.5,0,0.9,0.1,1.3,0.2c0.4,0.1,0.8,0.4,1.1,0.6c0.3,0.3,0.5,0.7,0.7,1.2c0.2,0.5,0.3,1,0.3,1.7v5.5h-1.3v-5.3
			c0-0.5-0.1-0.9-0.2-1.3c-0.1-0.4-0.3-0.6-0.5-0.9s-0.5-0.4-0.7-0.5c-0.3-0.1-0.6-0.1-1-0.1c-0.4,0-0.7,0.1-1.1,0.2
			c-0.3,0.1-0.6,0.4-0.9,0.7c-0.3,0.3-0.4,0.7-0.6,1.1c-0.1,0.4-0.2,0.9-0.2,1.5v4.7H746.9z"/>
	</g>
	<g class="st3">
		<path d="M802.8,137.6l-0.2-2.4h0c-0.2,0.4-0.5,0.8-0.8,1.1c-0.3,0.3-0.6,0.6-1,0.8c-0.4,0.2-0.8,0.3-1.2,0.4
			c-0.4,0.1-0.9,0.1-1.5,0.1c-0.9,0-1.7-0.2-2.5-0.5c-0.8-0.3-1.4-0.8-2-1.4c-0.6-0.6-1-1.3-1.3-2.1c-0.3-0.8-0.5-1.6-0.5-2.6
			c0-0.9,0.2-1.8,0.5-2.6c0.3-0.8,0.7-1.5,1.3-2.1c0.6-0.6,1.2-1,2-1.4c0.8-0.3,1.6-0.5,2.5-0.5c0.7,0,1.4,0.1,2.1,0.3
			s1.2,0.5,1.6,0.8s0.9,0.8,1.2,1.2c0.3,0.5,0.5,1,0.7,1.5h-1.4c-0.1-0.4-0.3-0.7-0.5-1c-0.2-0.3-0.5-0.6-0.9-0.8
			c-0.3-0.2-0.8-0.4-1.2-0.6s-1-0.2-1.6-0.2c-0.7,0-1.4,0.1-2,0.4s-1.1,0.6-1.6,1.1c-0.4,0.5-0.8,1-1,1.7s-0.3,1.3-0.3,2.1
			c0,0.7,0.1,1.4,0.3,2.1c0.2,0.6,0.6,1.2,1,1.7c0.4,0.5,0.9,0.9,1.5,1.1c0.6,0.3,1.2,0.4,1.9,0.4c0.6,0,1.1-0.1,1.7-0.2
			c0.5-0.2,1-0.4,1.4-0.7c0.4-0.3,0.7-0.8,1-1.3c0.2-0.5,0.4-1.1,0.4-1.7v-0.6h-4.3v-1.2h5.6v7H802.8z"/>
		<path d="M806.7,137.6v-9.2h1.2v1.7h0.1c0.1-0.3,0.2-0.5,0.4-0.7c0.2-0.2,0.3-0.4,0.6-0.5c0.2-0.1,0.4-0.3,0.7-0.3s0.5-0.1,0.8-0.1
			c0.1,0,0.2,0,0.3,0c0.1,0,0.2,0,0.3,0c0.1,0,0.2,0,0.3,0.1c0.1,0,0.2,0.1,0.3,0.1l-0.4,1.3c-0.1,0-0.2-0.1-0.3-0.1
			c-0.1,0-0.2-0.1-0.3-0.1c-0.1,0-0.2,0-0.3,0c-0.1,0-0.2,0-0.3,0c-0.4,0-0.7,0.1-1,0.3c-0.3,0.2-0.5,0.4-0.7,0.7
			c-0.2,0.3-0.3,0.6-0.4,1c-0.1,0.4-0.1,0.8-0.1,1.2v4.7H806.7z"/>
		<path d="M812.6,131c0.2-0.5,0.5-1,0.9-1.4c0.4-0.4,0.8-0.7,1.4-0.9c0.5-0.2,1.1-0.3,1.7-0.3c0.6,0,1.1,0.1,1.6,0.3
			s0.9,0.4,1.3,0.8s0.6,0.8,0.8,1.3c0.2,0.5,0.3,1.1,0.3,1.7v0.5h-6.9c0,0.5,0.1,1,0.2,1.5c0.1,0.4,0.3,0.8,0.6,1.1
			c0.3,0.3,0.6,0.6,0.9,0.7c0.4,0.2,0.8,0.3,1.2,0.3c0.4,0,0.7,0,1-0.1c0.3-0.1,0.5-0.2,0.8-0.4c0.2-0.2,0.4-0.4,0.5-0.6
			s0.2-0.5,0.3-0.7h1.3c-0.1,0.4-0.2,0.8-0.4,1.2c-0.2,0.4-0.5,0.7-0.8,1c-0.3,0.3-0.7,0.5-1.2,0.6c-0.4,0.2-0.9,0.2-1.4,0.2
			c-0.7,0-1.3-0.1-1.8-0.3c-0.5-0.2-1-0.5-1.4-1s-0.7-0.9-0.8-1.5c-0.2-0.6-0.3-1.2-0.3-2C812.3,132.2,812.4,131.6,812.6,131z
			 M815.5,129.7c-0.3,0.1-0.6,0.3-0.8,0.5c-0.3,0.2-0.5,0.5-0.6,0.8c-0.2,0.3-0.3,0.6-0.4,1h5.5c0-0.4-0.1-0.8-0.3-1.1
			c-0.1-0.3-0.3-0.6-0.5-0.8c-0.2-0.2-0.5-0.4-0.8-0.5c-0.3-0.1-0.7-0.1-1-0.1C816.2,129.5,815.8,129.6,815.5,129.7z"/>
		<path d="M822.6,131c0.2-0.5,0.5-1,0.9-1.4c0.4-0.4,0.8-0.7,1.4-0.9c0.5-0.2,1.1-0.3,1.7-0.3c0.6,0,1.1,0.1,1.6,0.3
			s0.9,0.4,1.3,0.8s0.6,0.8,0.8,1.3c0.2,0.5,0.3,1.1,0.3,1.7v0.5h-6.9c0,0.5,0.1,1,0.2,1.5c0.1,0.4,0.3,0.8,0.6,1.1
			c0.3,0.3,0.6,0.6,0.9,0.7c0.4,0.2,0.8,0.3,1.2,0.3c0.4,0,0.7,0,1-0.1c0.3-0.1,0.5-0.2,0.8-0.4c0.2-0.2,0.4-0.4,0.5-0.6
			s0.2-0.5,0.3-0.7h1.3c-0.1,0.4-0.2,0.8-0.4,1.2s-0.5,0.7-0.8,1s-0.7,0.5-1.2,0.6c-0.4,0.2-0.9,0.2-1.4,0.2c-0.7,0-1.3-0.1-1.8-0.3
			c-0.5-0.2-1-0.5-1.4-1c-0.4-0.4-0.6-0.9-0.8-1.5c-0.2-0.6-0.3-1.2-0.3-2C822.3,132.2,822.4,131.6,822.6,131z M825.5,129.7
			c-0.3,0.1-0.6,0.3-0.8,0.5c-0.3,0.2-0.5,0.5-0.6,0.8c-0.2,0.3-0.3,0.6-0.4,1h5.5c0-0.4-0.1-0.8-0.3-1.1c-0.1-0.3-0.3-0.6-0.5-0.8
			c-0.2-0.2-0.5-0.4-0.8-0.5c-0.3-0.1-0.7-0.1-1-0.1C826.1,129.5,825.8,129.6,825.5,129.7z"/>
		<path d="M832.7,137.6v-9.2h1.2v1.7h0.1c0.1-0.3,0.3-0.5,0.5-0.7c0.2-0.2,0.4-0.4,0.7-0.5c0.3-0.1,0.5-0.2,0.8-0.3
			c0.3-0.1,0.6-0.1,1-0.1c0.5,0,0.9,0.1,1.3,0.2c0.4,0.1,0.8,0.4,1.1,0.6c0.3,0.3,0.5,0.7,0.7,1.2c0.2,0.5,0.3,1,0.3,1.7v5.5h-1.3
			v-5.3c0-0.5-0.1-0.9-0.2-1.3c-0.1-0.4-0.3-0.6-0.5-0.9c-0.2-0.2-0.5-0.4-0.7-0.5c-0.3-0.1-0.6-0.1-1-0.1c-0.4,0-0.7,0.1-1.1,0.2
			c-0.3,0.1-0.6,0.4-0.9,0.7c-0.3,0.3-0.4,0.7-0.6,1.1c-0.1,0.4-0.2,0.9-0.2,1.5v4.7H832.7z"/>
		<path d="M857.6,137.6l-0.2-2.4h0c-0.2,0.4-0.5,0.8-0.8,1.1c-0.3,0.3-0.6,0.6-1,0.8c-0.4,0.2-0.8,0.3-1.2,0.4
			c-0.4,0.1-0.9,0.1-1.5,0.1c-0.9,0-1.7-0.2-2.5-0.5c-0.8-0.3-1.4-0.8-2-1.4c-0.6-0.6-1-1.3-1.3-2.1c-0.3-0.8-0.5-1.6-0.5-2.6
			c0-0.9,0.2-1.8,0.5-2.6c0.3-0.8,0.7-1.5,1.3-2.1c0.6-0.6,1.2-1,2-1.4c0.8-0.3,1.6-0.5,2.5-0.5c0.7,0,1.4,0.1,2.1,0.3
			s1.2,0.5,1.6,0.8s0.9,0.8,1.2,1.2c0.3,0.5,0.5,1,0.7,1.5h-1.4c-0.1-0.4-0.3-0.7-0.5-1c-0.2-0.3-0.5-0.6-0.9-0.8
			c-0.3-0.2-0.8-0.4-1.2-0.6s-1-0.2-1.6-0.2c-0.7,0-1.4,0.1-2,0.4s-1.1,0.6-1.6,1.1c-0.4,0.5-0.8,1-1,1.7s-0.3,1.3-0.3,2.1
			c0,0.7,0.1,1.4,0.3,2.1c0.2,0.6,0.6,1.2,1,1.7c0.4,0.5,0.9,0.9,1.5,1.1c0.6,0.3,1.2,0.4,1.9,0.4c0.6,0,1.1-0.1,1.7-0.2
			c0.5-0.2,1-0.4,1.4-0.7c0.4-0.3,0.7-0.8,1-1.3c0.2-0.5,0.4-1.1,0.4-1.7v-0.6H853v-1.2h5.6v7H857.6z"/>
		<path d="M861.5,137.6v-9.2h1.2v1.7h0.1c0.1-0.3,0.2-0.5,0.4-0.7c0.2-0.2,0.3-0.4,0.6-0.5c0.2-0.1,0.4-0.3,0.7-0.3s0.5-0.1,0.8-0.1
			c0.1,0,0.2,0,0.3,0c0.1,0,0.2,0,0.3,0c0.1,0,0.2,0,0.3,0.1c0.1,0,0.2,0.1,0.3,0.1l-0.4,1.3c-0.1,0-0.2-0.1-0.3-0.1
			c-0.1,0-0.2-0.1-0.3-0.1c-0.1,0-0.2,0-0.3,0c-0.1,0-0.2,0-0.3,0c-0.4,0-0.7,0.1-1,0.3c-0.3,0.2-0.5,0.4-0.7,0.7
			c-0.2,0.3-0.3,0.6-0.4,1c-0.1,0.4-0.1,0.8-0.1,1.2v4.7H861.5z"/>
		<path d="M867.4,134.2c0.1-0.3,0.3-0.5,0.5-0.8s0.5-0.4,0.9-0.5c0.4-0.1,0.8-0.3,1.3-0.3l2-0.3c0.3,0,0.5-0.1,0.6-0.1
			s0.3-0.1,0.4-0.1c0.1-0.1,0.2-0.1,0.2-0.2c0-0.1,0.1-0.2,0.1-0.3c0-0.3-0.1-0.6-0.2-0.9c-0.1-0.3-0.2-0.5-0.4-0.7
			c-0.2-0.2-0.4-0.3-0.7-0.4c-0.3-0.1-0.6-0.1-0.9-0.1s-0.7,0-1,0.1c-0.3,0.1-0.5,0.2-0.7,0.4c-0.2,0.2-0.4,0.4-0.5,0.6
			c-0.1,0.2-0.2,0.5-0.2,0.8h-1.2c0-0.4,0.1-0.8,0.3-1.2c0.2-0.4,0.4-0.7,0.7-0.9c0.3-0.3,0.7-0.5,1.1-0.6c0.4-0.1,0.9-0.2,1.5-0.2
			c0.6,0,1,0.1,1.5,0.2c0.4,0.1,0.8,0.4,1.1,0.6c0.3,0.3,0.5,0.6,0.7,1s0.2,0.9,0.2,1.4v5.9h-1.2V136h-0.1c-0.1,0.3-0.3,0.5-0.5,0.7
			c-0.2,0.2-0.4,0.4-0.7,0.5c-0.3,0.1-0.6,0.2-0.9,0.3s-0.7,0.1-1,0.1c-0.5,0-0.9-0.1-1.3-0.2c-0.4-0.1-0.7-0.3-1-0.5
			c-0.3-0.2-0.5-0.5-0.6-0.8s-0.2-0.6-0.2-1C867.3,134.8,867.3,134.5,867.4,134.2z M873.4,132.7c-0.1,0.1-0.1,0.1-0.2,0.2
			s-0.2,0.1-0.2,0.1s-0.2,0.1-0.3,0.1c-0.1,0-0.2,0-0.3,0.1l-1.9,0.3c-0.3,0-0.6,0.1-0.8,0.2c-0.2,0.1-0.4,0.2-0.6,0.3
			s-0.3,0.3-0.3,0.5s-0.1,0.4-0.1,0.6c0,0.2,0,0.4,0.1,0.6c0.1,0.2,0.2,0.3,0.4,0.5c0.2,0.1,0.4,0.2,0.6,0.3
			c0.2,0.1,0.5,0.1,0.8,0.1c0.4,0,0.8-0.1,1.1-0.2s0.7-0.3,0.9-0.5c0.3-0.2,0.5-0.5,0.6-0.9c0.2-0.4,0.2-0.8,0.2-1.3V132.7z"/>
		<path d="M877.2,131.1c0.2-0.6,0.5-1,0.9-1.4c0.4-0.4,0.8-0.7,1.3-0.9c0.5-0.2,1-0.3,1.6-0.3c0.4,0,0.7,0,1,0.1
			c0.3,0.1,0.6,0.2,0.9,0.3c0.3,0.1,0.5,0.3,0.7,0.5c0.2,0.2,0.4,0.4,0.5,0.6h0.1c0-0.2,0-0.5,0-0.8c0-0.3,0-0.6,0-1
			c0-0.3,0-0.6,0-0.9c0-0.2,0-0.5,0-0.7v-2.7h1.3v13.8h-1.2v-1.8h-0.1c-0.1,0.3-0.3,0.6-0.5,0.8c-0.2,0.2-0.5,0.4-0.8,0.6
			c-0.3,0.2-0.6,0.3-0.9,0.3c-0.3,0.1-0.7,0.1-1,0.1c-0.6,0-1.1-0.1-1.6-0.3c-0.5-0.2-0.9-0.5-1.3-0.9c-0.4-0.4-0.6-0.9-0.8-1.5
			c-0.2-0.6-0.3-1.2-0.3-2C876.9,132.2,877,131.6,877.2,131.1z M878.4,134.4c0.2,0.5,0.4,0.8,0.6,1.1c0.3,0.3,0.6,0.5,0.9,0.7
			s0.7,0.2,1.2,0.2c0.4,0,0.8-0.1,1.1-0.2c0.4-0.1,0.7-0.4,0.9-0.7c0.3-0.3,0.5-0.6,0.6-1.1c0.2-0.4,0.2-0.9,0.3-1.4v-0.3
			c0-0.5-0.1-1-0.3-1.4c-0.2-0.4-0.4-0.8-0.6-1.1c-0.3-0.3-0.6-0.5-0.9-0.7c-0.4-0.1-0.7-0.2-1.1-0.2c-0.4,0-0.8,0.1-1.2,0.2
			c-0.4,0.2-0.7,0.4-0.9,0.7c-0.3,0.3-0.5,0.7-0.6,1.1c-0.2,0.4-0.2,0.9-0.2,1.4C878.2,133.5,878.3,134,878.4,134.4z"/>
		<path d="M888.4,125.6v-1.8h1.4v1.8H888.4z M888.4,137.6v-9.2h1.3v9.2H888.4z"/>
		<path d="M892.3,131c0.2-0.5,0.5-1,0.9-1.4c0.4-0.4,0.8-0.7,1.4-0.9c0.5-0.2,1.1-0.3,1.7-0.3c0.6,0,1.1,0.1,1.6,0.3
			s0.9,0.4,1.3,0.8s0.6,0.8,0.8,1.3c0.2,0.5,0.3,1.1,0.3,1.7v0.5h-6.9c0,0.5,0.1,1,0.2,1.5c0.1,0.4,0.3,0.8,0.6,1.1
			c0.3,0.3,0.6,0.6,0.9,0.7c0.4,0.2,0.8,0.3,1.2,0.3c0.4,0,0.7,0,1-0.1c0.3-0.1,0.5-0.2,0.8-0.4c0.2-0.2,0.4-0.4,0.5-0.6
			s0.2-0.5,0.3-0.7h1.3c-0.1,0.4-0.2,0.8-0.4,1.2c-0.2,0.4-0.5,0.7-0.8,1c-0.3,0.3-0.7,0.5-1.2,0.6c-0.4,0.2-0.9,0.2-1.4,0.2
			c-0.7,0-1.3-0.1-1.8-0.3c-0.5-0.2-1-0.5-1.4-1s-0.7-0.9-0.8-1.5c-0.2-0.6-0.3-1.2-0.3-2C892,132.2,892.1,131.6,892.3,131z
			 M895.3,129.7c-0.3,0.1-0.6,0.3-0.8,0.5c-0.3,0.2-0.5,0.5-0.6,0.8c-0.2,0.3-0.3,0.6-0.4,1h5.5c0-0.4-0.1-0.8-0.3-1.1
			c-0.1-0.3-0.3-0.6-0.5-0.8c-0.2-0.2-0.5-0.4-0.8-0.5c-0.3-0.1-0.7-0.1-1-0.1C895.9,129.5,895.6,129.6,895.3,129.7z"/>
		<path d="M902.5,137.6v-9.2h1.2v1.7h0.1c0.1-0.3,0.3-0.5,0.5-0.7c0.2-0.2,0.4-0.4,0.7-0.5c0.3-0.1,0.5-0.2,0.8-0.3
			c0.3-0.1,0.6-0.1,1-0.1c0.5,0,0.9,0.1,1.3,0.2c0.4,0.1,0.8,0.4,1.1,0.6c0.3,0.3,0.5,0.7,0.7,1.2c0.2,0.5,0.3,1,0.3,1.7v5.5h-1.3
			v-5.3c0-0.5-0.1-0.9-0.2-1.3c-0.1-0.4-0.3-0.6-0.5-0.9c-0.2-0.2-0.5-0.4-0.7-0.5c-0.3-0.1-0.6-0.1-1-0.1c-0.4,0-0.7,0.1-1.1,0.2
			c-0.3,0.1-0.6,0.4-0.9,0.7c-0.3,0.3-0.4,0.7-0.6,1.1c-0.1,0.4-0.2,0.9-0.2,1.5v4.7H902.5z"/>
		<path d="M913.1,129.5h-1.8v-1h1.8v-2.8h1.3v2.8h2.5v1h-2.5v5.5c0,0.3,0,0.5,0.1,0.7c0.1,0.2,0.1,0.4,0.3,0.5
			c0.1,0.1,0.3,0.2,0.5,0.3c0.2,0.1,0.4,0.1,0.7,0.1h1v1.1h-1.2c-0.4,0-0.8-0.1-1.1-0.2c-0.3-0.1-0.6-0.3-0.8-0.5
			c-0.2-0.2-0.4-0.5-0.5-0.8c-0.1-0.3-0.2-0.7-0.2-1.2V129.5z"/>
	</g>
</g>
<g>
	<circle class="st4" cx="59.6" cy="49.5" r="49.5"/>
	<linearGradient id="SVGID_1_" gradientUnits="userSpaceOnUse" x1="32.7238" y1="17.3466" x2="88.6089" y2="57.874">
		<stop  offset="0" style="stop-color:#8A6E55"/>
		<stop  offset="1" style="stop-color:#61442A"/>
	</linearGradient>
	<path class="st5" d="M35.3,39c9.9,0,18.9,4,25.4,10.5C67.2,56,76.1,60,86,60c8.8,0,16.9-3.2,23.1-8.4l0,0c0-0.7,0-1.3,0-2
		C109.2,22.2,87,0,59.6,0S10.1,22.2,10.1,49.5C10.1,49.5,25.5,39,35.3,39z"/>
</g>
<g>
	<circle class="st6" cx="384.4" cy="49.5" r="49.5"/>
	<linearGradient id="SVGID_2_" gradientUnits="userSpaceOnUse" x1="357.4738" y1="17.3466" x2="413.3589" y2="57.874">
		<stop  offset="0" style="stop-color:#748188"/>
		<stop  offset="1" style="stop-color:#364348"/>
	</linearGradient>
	<path class="st7" d="M360,39c9.9,0,18.9,4,25.4,10.5C391.9,56,400.9,60,410.7,60c8.8,0,16.9-3.2,23.1-8.4l0,0c0-0.7,0-1.3,0-2
		c0-27.3-22.2-49.5-49.5-49.5s-49.5,22.2-49.5,49.5C334.9,49.5,350.2,39,360,39z"/>
</g>
<g>
	<circle class="st8" cx="697.2" cy="49.6" r="49.5"/>
	<linearGradient id="SVGID_3_" gradientUnits="userSpaceOnUse" x1="670.2238" y1="17.4466" x2="726.1089" y2="57.974">
		<stop  offset="0" style="stop-color:#6B866C"/>
		<stop  offset="1" style="stop-color:#34563A"/>
	</linearGradient>
	<path class="st9" d="M672.8,39.1c9.9,0,18.9,4,25.4,10.5c6.5,6.4,15.4,10.4,25.3,10.4c8.8,0,16.9-3.2,23.1-8.4l0,0c0-0.7,0-1.3,0-2
		c0-27.3-22.2-49.5-49.5-49.5s-49.5,22.2-49.5,49.5C647.7,49.6,663,39.1,672.8,39.1z"/>
</g>
</svg>
