<svg class="en" xmlns="http://www.w3.org/2000/svg" viewbox="0 0 534.5 34.6"><path d="M53.3 0a17.27 17.27 0 0 0-16.2 11.3v4.2h4.5v3.4h-4.5v4.4A17.29 17.29 0 1 0 53.3 0zm8.1 26.5h-3.1v-8.4c0-5.2-7.5-5.3-7.5 1.5v6.9h-3.2V5.6h3.2v8.6c3.6-4.4 10.7-3.1 10.7 3.3v9zM17.3 0a17.3 17.3 0 1 0 16.3 23v-4h-4.5v-3.4h4.5v-3.9A17.29 17.29 0 0 0 17.3 0zm4.9 15.3a4 4 0 0 0-1.5-.3c-1.8 0-3.5 1.3-3.5 4.4v7.2H14V11.8h3v2.6a4.25 4.25 0 0 1 4-2.8 4.55 4.55 0 0 1 2 .5zM182.9 7.3h-2.1v7.1h-7.1v2.1h7.1v7.2h2.1v-7.2h7.1v-2.1h-7.1V7.3zM105.8 16.5a5.72 5.72 0 0 0 1.6-1.5 7.5 7.5 0 0 0 1-2 9.12 9.12 0 0 0-.2-5.3 6.62 6.62 0 0 0-1.5-2.2 6.61 6.61 0 0 0-2.5-1.3 12.13 12.13 0 0 0-3.4-.5H92v23h3v-9h5.4l5.7 9h3.3l-5.9-9.3a4.83 4.83 0 0 0 2.3-.9zm-5-1.3H95V6.5h5.8a6 6 0 0 1 2 .3 5.3 5.3 0 0 1 1.5.8 3.81 3.81 0 0 1 .9 1.3 4.67 4.67 0 0 1 .3 1.7 5.66 5.66 0 0 1-.3 1.8 4.19 4.19 0 0 1-.9 1.4 5.6 5.6 0 0 1-1.5 1 5.44 5.44 0 0 1-2 .4zM122.5 18.7a8.52 8.52 0 0 1-.3 2.3 5.08 5.08 0 0 1-.9 1.8 3 3 0 0 1-1.4 1.1 3.29 3.29 0 0 1-1.7.4 7.77 7.77 0 0 1-1.6-.2 3.17 3.17 0 0 1-1.2-.8 4.68 4.68 0 0 1-.8-1.4 6.65 6.65 0 0 1-.3-2.1v-9.3h-2.9v9.7a9.59 9.59 0 0 0 .5 3.1 4.44 4.44 0 0 0 1.3 2.1 5.24 5.24 0 0 0 1.9 1.1 8.52 8.52 0 0 0 2.3.4 8.81 8.81 0 0 0 1.7-.2 5.78 5.78 0 0 0 1.4-.5 3.13 3.13 0 0 0 1.1-.9 8.34 8.34 0 0 0 .8-1.2h.1v2.8h2.8V10.5h-2.9v8.2zM143.1 12.6a6.34 6.34 0 0 0-2.3-1.6 6.82 6.82 0 0 0-2.9-.5 9.7 9.7 0 0 0-1.7.1 3.81 3.81 0 0 0-1.5.5 5.67 5.67 0 0 0-1.3.8 4 4 0 0 0-1 1.2h-.1v-2.5h-2.8v23.7h2.9v-8.4a7.57 7.57 0 0 0-.1-1.5h.1a6.23 6.23 0 0 0 .9 1.2 8.34 8.34 0 0 0 1.2.8 5.78 5.78 0 0 0 1.4.5 8.6 8.6 0 0 0 1.6.1 7.17 7.17 0 0 0 2.9-.6 6.6 6.6 0 0 0 2.4-1.7 7.6 7.6 0 0 0 1.6-2.6 9.34 9.34 0 0 0 .6-3.4 11.59 11.59 0 0 0-.5-3.4 6.27 6.27 0 0 0-1.4-2.7zm-1.4 8.3a5.24 5.24 0 0 1-1 1.8 3.27 3.27 0 0 1-1.5 1.1 4.71 4.71 0 0 1-3.8 0 4.18 4.18 0 0 1-1.5-1.1 5.24 5.24 0 0 1-1-1.8 8.6 8.6 0 0 1-.4-2.4v-.3a7.88 7.88 0 0 1 .4-2.3 6.93 6.93 0 0 1 1-1.7 4.18 4.18 0 0 1 1.5-1.1 5.84 5.84 0 0 1 1.8-.4 4.06 4.06 0 0 1 1.9.4 3.27 3.27 0 0 1 1.5 1.1 4.78 4.78 0 0 1 1 1.7 8.6 8.6 0 0 1 .4 2.4 9.28 9.28 0 0 1-.3 2.6zM161.6 12.6a6.34 6.34 0 0 0-2.3-1.6 6.82 6.82 0 0 0-2.9-.5 9.7 9.7 0 0 0-1.7.1 3.81 3.81 0 0 0-1.5.5 5.67 5.67 0 0 0-1.3.8 4 4 0 0 0-1 1.2h-.1v-2.5H148v23.7h2.9v-8.4a7.57 7.57 0 0 0-.1-1.5h.1a6.23 6.23 0 0 0 .9 1.2 8.34 8.34 0 0 0 1.2.8 5.78 5.78 0 0 0 1.4.5 8.6 8.6 0 0 0 1.6.1 7.17 7.17 0 0 0 2.9-.6 6.6 6.6 0 0 0 2.4-1.7 7.6 7.6 0 0 0 1.6-2.6 9.34 9.34 0 0 0 .6-3.4 11.59 11.59 0 0 0-.5-3.4 6.27 6.27 0 0 0-1.4-2.7zm-1.4 8.3a5.24 5.24 0 0 1-1 1.8 3.27 3.27 0 0 1-1.5 1.1 4.71 4.71 0 0 1-3.8 0 4.18 4.18 0 0 1-1.5-1.1 5.24 5.24 0 0 1-1-1.8 8.6 8.6 0 0 1-.4-2.4v-.3a7.88 7.88 0 0 1 .4-2.3 6.93 6.93 0 0 1 1-1.7 4.18 4.18 0 0 1 1.5-1.1 5.84 5.84 0 0 1 1.8-.4 4.06 4.06 0 0 1 1.9.4 3.27 3.27 0 0 1 1.5 1.1 4.78 4.78 0 0 1 1 1.7 8.6 8.6 0 0 1 .4 2.4 9.28 9.28 0 0 1-.3 2.6zM214.4 13.8H202v-10h-3v23h3V16.5h12.4v10.3h3v-23h-3v10zM231.9 18.7a8.52 8.52 0 0 1-.3 2.3 5.08 5.08 0 0 1-.9 1.8 3 3 0 0 1-1.4 1.1 3.29 3.29 0 0 1-1.7.4 7.77 7.77 0 0 1-1.6-.2 3.17 3.17 0 0 1-1.2-.8 4.68 4.68 0 0 1-.8-1.4 6.65 6.65 0 0 1-.3-2.1v-9.3h-2.9v9.7a9.59 9.59 0 0 0 .5 3.1 4.44 4.44 0 0 0 1.3 2.1 5.24 5.24 0 0 0 1.9 1.1 8.52 8.52 0 0 0 2.3.4 8.81 8.81 0 0 0 1.7-.2 5.78 5.78 0 0 0 1.4-.5 3.13 3.13 0 0 0 1.1-.9 8.34 8.34 0 0 0 .8-1.2h.1v2.8h2.8V10.5h-2.9v8.2zM252.2 12.6a6.34 6.34 0 0 0-2.3-1.6 6.82 6.82 0 0 0-2.9-.5 9.7 9.7 0 0 0-1.7.1 6.58 6.58 0 0 0-1.5.4 5.39 5.39 0 0 0-1.3.7 4.74 4.74 0 0 0-1 1h-.1a7.57 7.57 0 0 1 .1-1.5V2.4h-2.9v24.5h2.8V24h.1c.3.5.6 1 .9 1.4a4.7 4.7 0 0 0 1.2.9 5.78 5.78 0 0 0 1.4.5 8.75 8.75 0 0 0 1.6.2 7.17 7.17 0 0 0 2.9-.6 6.6 6.6 0 0 0 2.4-1.7 7.6 7.6 0 0 0 1.6-2.6 9.34 9.34 0 0 0 .6-3.4 11.59 11.59 0 0 0-.5-3.4 4.69 4.69 0 0 0-1.4-2.7zm-1.4 8.3a5.24 5.24 0 0 1-1 1.8 3.27 3.27 0 0 1-1.5 1.1 4.71 4.71 0 0 1-3.8 0 4.18 4.18 0 0 1-1.5-1.1 5.24 5.24 0 0 1-1-1.8 8.6 8.6 0 0 1-.4-2.4v-.3a7.88 7.88 0 0 1 .4-2.3 6.93 6.93 0 0 1 1-1.7 4.18 4.18 0 0 1 1.5-1.1 5.84 5.84 0 0 1 1.8-.4 4.06 4.06 0 0 1 1.9.4 3.27 3.27 0 0 1 1.5 1.1 4.78 4.78 0 0 1 1 1.7 8.6 8.6 0 0 1 .4 2.4 7.16 7.16 0 0 1-.3 2.6zM265.8 10.5a1.27 1.27 0 0 1-.6-.1h-.5a5.9 5.9 0 0 0-1.4.2 3.38 3.38 0 0 0-1.2.6 2.84 2.84 0 0 0-1 .9 3.46 3.46 0 0 0-.7 1.2h-.1v-2.7h-2.8v16.3h2.9v-8.3a12.31 12.31 0 0 1 .2-2 5.09 5.09 0 0 1 .7-1.7 2.89 2.89 0 0 1 1.1-1.1 2.73 2.73 0 0 1 1.6-.4h.5c.2 0 .3.1.5.1s.3.1.5.2a2.19 2.19 0 0 1 .5.3l.9-3c-.2-.1-.4-.1-.6-.2a.55.55 0 0 0-.5-.3zM280.1 12a5.61 5.61 0 0 0-2-1.2 7.89 7.89 0 0 0-2.8-.4 7.66 7.66 0 0 0-2.7.4 5.47 5.47 0 0 0-2 1.1 4.31 4.31 0 0 0-1.3 1.7 4.65 4.65 0 0 0-.5 2.1h2.8a5.27 5.27 0 0 1 .3-1.2 2.18 2.18 0 0 1 .7-.9 2.28 2.28 0 0 1 1.2-.6 7.77 7.77 0 0 1 1.6-.2 6.05 6.05 0 0 1 1.5.2 3.88 3.88 0 0 1 1.1.6 3.59 3.59 0 0 1 .7 1 5.07 5.07 0 0 1 .2 1.3.9.9 0 0 1-.1.5l-.3.3a1.07 1.07 0 0 1-.6.2c-.3.1-.6.1-1.1.2l-3.2.5a10.42 10.42 0 0 0-2.4.6 6.93 6.93 0 0 0-1.7 1 4.51 4.51 0 0 0-1 1.4 4.67 4.67 0 0 0-.3 1.7 3.42 3.42 0 0 0 .4 1.8 3.6 3.6 0 0 0 1.1 1.4 4.61 4.61 0 0 0 1.7.9 8.52 8.52 0 0 0 2.3.3 8.06 8.06 0 0 0 3.2-.7 8.34 8.34 0 0 0 1.2-.8 4.81 4.81 0 0 0 .9-1.1h.1v2.5h2.8V16.3a6.9 6.9 0 0 0-.4-2.5 6.23 6.23 0 0 0-1.4-1.8zm-1.3 7.9a3.81 3.81 0 0 1-.4 1.9 3.59 3.59 0 0 1-1 1.4 3.77 3.77 0 0 1-1.5.9 5.66 5.66 0 0 1-1.8.3 5.9 5.9 0 0 1-1.4-.2 3.13 3.13 0 0 1-1-.5 2 2 0 0 1-.6-.7 2.92 2.92 0 0 1-.2-.9 2.92 2.92 0 0 1 .2-.9 1.79 1.79 0 0 1 .5-.7 1.93 1.93 0 0 1 .9-.5 4.88 4.88 0 0 1 1.4-.3l3.1-.5c.2 0 .4-.1.6-.1s.3-.1.5-.1.3-.1.4-.2l.3-.3zM288.4 14.6a4.43 4.43 0 0 1 1.5-1.2 4.06 4.06 0 0 1 1.9-.4 8.81 8.81 0 0 1 1.7.2 3.46 3.46 0 0 1 1.2.7 3.92 3.92 0 0 1 .8 1 5 5 0 0 1 .4 1.3h2.9a6.15 6.15 0 0 0-.7-2.3 6.23 6.23 0 0 0-1.4-1.8 6.6 6.6 0 0 0-2.2-1.2 8.25 8.25 0 0 0-2.8-.4 8.15 8.15 0 0 0-3.1.6 7 7 0 0 0-2.5 1.7 6.33 6.33 0 0 0-1.6 2.6 8.81 8.81 0 0 0-.6 3.3 12.13 12.13 0 0 0 .5 3.4 9.34 9.34 0 0 0 1.5 2.6 6 6 0 0 0 2.5 1.6 9.34 9.34 0 0 0 6 .2 7.76 7.76 0 0 0 2.2-1.2 4.89 4.89 0 0 0 1.4-1.8 6.15 6.15 0 0 0 .7-2.3h-2.9a5 5 0 0 1-.4 1.3 3.92 3.92 0 0 1-.8 1 4.73 4.73 0 0 1-1.2.7 4.42 4.42 0 0 1-1.7.2 4.06 4.06 0 0 1-1.9-.4 4.43 4.43 0 0 1-1.5-1.2 5.24 5.24 0 0 1-1-1.8 8.52 8.52 0 0 1-.4-2.3 5.87 5.87 0 0 1 .4-2.3 7.84 7.84 0 0 1 1.1-1.8zM315.1 14a4.44 4.44 0 0 0-1.3-2.1 5.24 5.24 0 0 0-1.9-1.1 8.52 8.52 0 0 0-2.3-.4 8.81 8.81 0 0 0-1.7.2 5.78 5.78 0 0 0-1.4.5 4.7 4.7 0 0 0-1.2.9 5 5 0 0 0-.8 1.2h-.1a9.15 9.15 0 0 1 .1-1.6V2.3h-2.9v24.5h2.9v-8.3a8.52 8.52 0 0 1 .3-2.3 5.08 5.08 0 0 1 .9-1.8 3.6 3.6 0 0 1 1.4-1.1 3.29 3.29 0 0 1 1.7-.4 7.77 7.77 0 0 1 1.6.2 3.17 3.17 0 0 1 1.2.8 4.68 4.68 0 0 1 .8 1.4 6.65 6.65 0 0 1 .3 2.1v9.3h2.9V17a9.43 9.43 0 0 0-.5-3zM422.7 10.6h-2.1l-.7 3.7h-3.1l.7-3.7h-2.1l-.7 3.7h-2.9v1.8h2.6l-.8 4.9h-2.7v1.8h2.4l-.7 3.8h2.1l.7-3.8h3.1l-.7 3.8h2.1l.7-3.8h2.9V21H421l.8-4.9h2.7v-1.8h-2.4zM418.8 21h-3.1l.8-4.9h3.1z"/><g><path d="M328.1 26.8V10.6h2.7v14h7.9v2.3h-10.6zM340.7 18.6a5.67 5.67 0 0 1 1.2-1.8 4.18 4.18 0 0 1 1.8-1.1 5.87 5.87 0 0 1 2.3-.4 7.8 7.8 0 0 1 2.2.3 4.78 4.78 0 0 1 1.7 1 4.57 4.57 0 0 1 1.1 1.6 5.09 5.09 0 0 1 .4 2.2v.8h-8.5a3.34 3.34 0 0 0 .3 1.5 4.13 4.13 0 0 0 .7 1.1 2.29 2.29 0 0 0 1 .7 2.74 2.74 0 0 0 1.3.2 4.1 4.1 0 0 0 1.1-.1 2 2 0 0 0 .8-.4 2.65 2.65 0 0 0 .5-.6 4.88 4.88 0 0 0 .3-.7h2.5a8.8 8.8 0 0 1-.5 1.5 4.26 4.26 0 0 1-1.1 1.2 6 6 0 0 1-1.6.8 6.45 6.45 0 0 1-2 .3 6.9 6.9 0 0 1-2.5-.4 5.67 5.67 0 0 1-1.8-1.2 4.53 4.53 0 0 1-1.1-1.9 6.57 6.57 0 0 1-.4-2.5 5.11 5.11 0 0 1 .3-2.1zm4.3-1.2a3.55 3.55 0 0 0-.9.4 2.34 2.34 0 0 0-.7.7 3.55 3.55 0 0 0-.4.9h5.8a1.69 1.69 0 0 0-.3-1 2 2 0 0 0-.6-.7 2 2 0 0 0-.8-.4 3.75 3.75 0 0 0-1.1-.1c-.3.1-.7.1-1 .2zM354 26.8V15.3h2.5v1.9h.1l.6-.9a5.55 5.55 0 0 1 .8-.6 3 3 0 0 1 1-.4 4.87 4.87 0 0 1 1.2-.1 4.67 4.67 0 0 1 1.7.3 3.92 3.92 0 0 1 1.4.8 3.77 3.77 0 0 1 .9 1.5 6.87 6.87 0 0 1 .3 2.2v6.9h-2.6v-6.5a5.21 5.21 0 0 0-.2-1.4 1.93 1.93 0 0 0-.5-.9 2.18 2.18 0 0 0-.8-.5 3 3 0 0 0-1-.2 3.59 3.59 0 0 0-1.1.2 3.11 3.11 0 0 0-.9.7 2.28 2.28 0 0 0-.6 1.2 7.72 7.72 0 0 0-.2 1.5v5.9H354zM369.4 23.4a2.35 2.35 0 0 0 .2.8 1 1 0 0 0 .6.5 6.89 6.89 0 0 0 .8.3 2.77 2.77 0 0 0 .9.1 4.87 4.87 0 0 0 1.2-.1 6.89 6.89 0 0 0 .8-.3 1.21 1.21 0 0 0 .5-.5 1.45 1.45 0 0 0 .2-.7.75.75 0 0 0-.1-.5c-.1-.1-.2-.3-.3-.4s-.3-.2-.5-.3-.5-.1-.8-.2l-2.1-.4c-.5-.1-.9-.2-1.3-.3a3.7 3.7 0 0 1-1.1-.5 2.36 2.36 0 0 1-.8-.9 2.77 2.77 0 0 1-.3-1.3 2.6 2.6 0 0 1 .4-1.5 3.46 3.46 0 0 1 1-1.1 5.23 5.23 0 0 1 1.5-.7 5.84 5.84 0 0 1 1.9-.2 11.08 11.08 0 0 1 1.9.2 3.39 3.39 0 0 1 1.5.6 2.66 2.66 0 0 1 1 1.1 3.31 3.31 0 0 1 .4 1.5h-2.4a1.45 1.45 0 0 0-.2-.7 1.21 1.21 0 0 0-.5-.5 6.89 6.89 0 0 0-.8-.3 3.08 3.08 0 0 0-1-.1 2.77 2.77 0 0 0-.9.1c-.3.1-.5.2-.8.3a1.21 1.21 0 0 0-.5.5 1.42 1.42 0 0 0-.2.6.75.75 0 0 0 .1.5c.1.1.2.3.3.4a1.63 1.63 0 0 0 .6.3 6.37 6.37 0 0 0 .9.2l2.1.3a13 13 0 0 1 1.3.3 3 3 0 0 1 1.1.6 1.6 1.6 0 0 1 .7.9 2.77 2.77 0 0 1 .3 1.3 2.93 2.93 0 0 1-.4 1.6 2.91 2.91 0 0 1-1.1 1.1 7.74 7.74 0 0 1-1.6.7 12.48 12.48 0 0 1-2.1.2 12.31 12.31 0 0 1-2-.2 4.59 4.59 0 0 1-1.6-.7 3.46 3.46 0 0 1-1-1.1 3.31 3.31 0 0 1-.4-1.5zM379.4 18.6a5.67 5.67 0 0 1 1.2-1.8 4.18 4.18 0 0 1 1.8-1.1 5.87 5.87 0 0 1 2.3-.4 7.8 7.8 0 0 1 2.2.3 4.78 4.78 0 0 1 1.7 1 4.57 4.57 0 0 1 1.1 1.6 5.09 5.09 0 0 1 .4 2.2v.8h-8.5a3.34 3.34 0 0 0 .3 1.5 4.13 4.13 0 0 0 .7 1.1 2.29 2.29 0 0 0 1 .7 2.74 2.74 0 0 0 1.3.2 4.1 4.1 0 0 0 1.1-.1 2 2 0 0 0 .8-.4 2.65 2.65 0 0 0 .5-.6 4.88 4.88 0 0 0 .3-.7h2.5a8.8 8.8 0 0 1-.5 1.5 4.26 4.26 0 0 1-1.1 1.2 6 6 0 0 1-1.6.8 6.45 6.45 0 0 1-2 .3 6.9 6.9 0 0 1-2.5-.4 5.67 5.67 0 0 1-1.8-1.2 4.53 4.53 0 0 1-1.1-1.9 6.57 6.57 0 0 1-.4-2.5 3.86 3.86 0 0 1 .3-2.1zm4.3-1.2a3.55 3.55 0 0 0-.9.4 2.34 2.34 0 0 0-.7.7 3.55 3.55 0 0 0-.4.9h5.8a1.69 1.69 0 0 0-.3-1 2 2 0 0 0-.6-.7 2 2 0 0 0-.8-.4 3.75 3.75 0 0 0-1.1-.1c-.3.1-.7.1-1 .2zM394.4 23.4a2.35 2.35 0 0 0 .2.8 1 1 0 0 0 .6.5 6.89 6.89 0 0 0 .8.3 2.77 2.77 0 0 0 .9.1 4.87 4.87 0 0 0 1.2-.1 6.89 6.89 0 0 0 .8-.3 1.21 1.21 0 0 0 .5-.5 1.45 1.45 0 0 0 .2-.7.75.75 0 0 0-.1-.5c-.1-.1-.2-.3-.3-.4s-.3-.2-.5-.3-.5-.1-.8-.2l-2.1-.4c-.5-.1-.9-.2-1.3-.3a3.7 3.7 0 0 1-1.1-.5 2.36 2.36 0 0 1-.8-.9 2.77 2.77 0 0 1-.3-1.3 2.6 2.6 0 0 1 .4-1.5 3.46 3.46 0 0 1 1-1.1 5.23 5.23 0 0 1 1.5-.7 5.84 5.84 0 0 1 1.9-.2 11.08 11.08 0 0 1 1.9.2 3.39 3.39 0 0 1 1.5.6 2.66 2.66 0 0 1 1 1.1 3.31 3.31 0 0 1 .4 1.5h-2.4a1.45 1.45 0 0 0-.2-.7 1.21 1.21 0 0 0-.5-.5 6.89 6.89 0 0 0-.8-.3 3.08 3.08 0 0 0-1-.1 2.77 2.77 0 0 0-.9.1c-.3.1-.5.2-.8.3a1.21 1.21 0 0 0-.5.5 1.42 1.42 0 0 0-.2.6.75.75 0 0 0 .1.5c.1.1.2.3.3.4a1.63 1.63 0 0 0 .6.3 6.37 6.37 0 0 0 .9.2l2.1.3a13 13 0 0 1 1.3.3 3 3 0 0 1 1.1.6 1.6 1.6 0 0 1 .7.9 2.77 2.77 0 0 1 .3 1.3 2.93 2.93 0 0 1-.4 1.6 2.91 2.91 0 0 1-1.1 1.1 7.74 7.74 0 0 1-1.6.7 12.48 12.48 0 0 1-2.1.2 12.31 12.31 0 0 1-2-.2 4.59 4.59 0 0 1-1.6-.7 3.46 3.46 0 0 1-1-1.1 3.31 3.31 0 0 1-.4-1.5z"/></g><g><path d="M427.4 12.1V9.5h2.7v2.6zm.1 14.7V15.3h2.6v11.6h-2.6zM433.5 26.8V15.3h2.5v1.9h.1l.6-.9a5.55 5.55 0 0 1 .8-.6 3 3 0 0 1 1-.4 4.87 4.87 0 0 1 1.2-.1 4.67 4.67 0 0 1 1.7.3 3.92 3.92 0 0 1 1.4.8 3.77 3.77 0 0 1 .9 1.5 6.87 6.87 0 0 1 .3 2.2v6.9h-2.6v-6.5a5.21 5.21 0 0 0-.2-1.4 1.93 1.93 0 0 0-.5-.9 2.18 2.18 0 0 0-.8-.5 3 3 0 0 0-1-.2 3.59 3.59 0 0 0-1.1.2 3.11 3.11 0 0 0-.9.7 2.28 2.28 0 0 0-.6 1.2 7.72 7.72 0 0 0-.2 1.5v5.9h-2.6zM447.3 26.8V15.3h2.5v1.9h.1l.6-.9a5.55 5.55 0 0 1 .8-.6 3 3 0 0 1 1-.4 4.87 4.87 0 0 1 1.2-.1 4.67 4.67 0 0 1 1.7.3 3.92 3.92 0 0 1 1.4.8 3.77 3.77 0 0 1 .9 1.5 6.87 6.87 0 0 1 .3 2.2v6.9h-2.6v-6.5a5.21 5.21 0 0 0-.2-1.4 1.93 1.93 0 0 0-.5-.9 2.18 2.18 0 0 0-.8-.5 3 3 0 0 0-1-.2 3.59 3.59 0 0 0-1.1.2 3.11 3.11 0 0 0-.9.7 2.28 2.28 0 0 0-.6 1.2 7.72 7.72 0 0 0-.2 1.5v5.9h-2.6zM460.7 18.7a7.61 7.61 0 0 1 1.2-1.9 6.15 6.15 0 0 1 1.9-1.2 7.4 7.4 0 0 1 4.8 0 5.54 5.54 0 0 1 1.9 1.2 5.67 5.67 0 0 1 1.2 1.8 6.05 6.05 0 0 1 .4 2.4 6.05 6.05 0 0 1-.4 2.4 5.67 5.67 0 0 1-1.2 1.8 6.15 6.15 0 0 1-1.9 1.2 7.4 7.4 0 0 1-4.8 0 7.24 7.24 0 0 1-1.9-1.1 5.67 5.67 0 0 1-1.2-1.8 6.05 6.05 0 0 1-.4-2.4 4.69 4.69 0 0 1 .4-2.4zm2.4 3.9a4.73 4.73 0 0 0 .7 1.2 3.92 3.92 0 0 0 1 .8 3 3 0 0 0 2.6 0 2.54 2.54 0 0 0 1-.8 3.46 3.46 0 0 0 .7-1.2 3.89 3.89 0 0 0 .2-1.5 7.77 7.77 0 0 0-.2-1.6 3.46 3.46 0 0 0-.7-1.2 2.29 2.29 0 0 0-1-.7 3 3 0 0 0-2.6 0 2.54 2.54 0 0 0-1 .8 3.46 3.46 0 0 0-.7 1.2 3.89 3.89 0 0 0-.2 1.5 6.05 6.05 0 0 0 .2 1.5zM477.2 26.8l-4.3-11.6h2.8l3 8.9h.1l3-8.9h2.6l-4.2 11.6zM485.4 22.5a2.29 2.29 0 0 1 .7-1 3.46 3.46 0 0 1 1.2-.7 8 8 0 0 1 1.8-.4l2.2-.4c.3 0 .5-.1.7-.1s.3-.1.4-.1.2-.1.2-.2.1-.2.1-.3a2.77 2.77 0 0 0-.1-.9 1.53 1.53 0 0 0-1.1-1.1 5.05 5.05 0 0 0-2 0 1.61 1.61 0 0 0-.7.4 2.65 2.65 0 0 0-.5.6 1.88 1.88 0 0 0-.2.8h-2.4a4.19 4.19 0 0 1 .4-1.6 2.94 2.94 0 0 1 1-1.2 5.3 5.3 0 0 1 1.5-.8 6 6 0 0 1 2-.3 6.65 6.65 0 0 1 2.1.3 5.3 5.3 0 0 1 1.5.8 3.81 3.81 0 0 1 .9 1.3 4.84 4.84 0 0 1 .3 1.8v7.4H493v-1.7h-.1a4.35 4.35 0 0 1-.6.7 2.18 2.18 0 0 1-.8.5l-1 .3a4.87 4.87 0 0 1-1.2.1 8.81 8.81 0 0 1-1.7-.2 3.37 3.37 0 0 1-1.2-.6 3.92 3.92 0 0 1-.8-1 2.77 2.77 0 0 1-.3-1.3 2.16 2.16 0 0 1 .1-1.1zm7.4-1.4l-.2.2a.37.37 0 0 1-.3.1c-.1 0-.2.1-.3.1s-.2.1-.4.1l-2 .3a2.92 2.92 0 0 0-.9.2l-.6.3a.54.54 0 0 0-.3.4 1.85 1.85 0 0 0 0 1.2 1.76 1.76 0 0 0 .4.5l.6.3a2.48 2.48 0 0 0 .9.1 5 5 0 0 0 1.2-.2 3.13 3.13 0 0 0 1-.5 2.18 2.18 0 0 0 .7-.9 2.54 2.54 0 0 0 .2-1.2v-1zM498.9 17.3h-2.2v-2h2.2v-3.5h2.6v3.5h3v2h-3V23a2 2 0 0 0 .1.8c.1.2.1.4.3.5a2.19 2.19 0 0 0 .5.3 2 2 0 0 0 .8.1h1.3v2.1h-1.8a7.93 7.93 0 0 1-1.7-.2 2.4 2.4 0 0 1-1.2-.7 4.13 4.13 0 0 1-.7-1.1 7.93 7.93 0 0 1-.2-1.7v-5.8zM506.6 12.1V9.5h2.7v2.6zm.1 14.7V15.3h2.6v11.6h-2.6zM515.4 26.8l-4.3-11.6h2.8l3 8.9h.1l3-8.9h2.6l-4.2 11.6zM523.8 18.6a5.67 5.67 0 0 1 1.2-1.8 4.18 4.18 0 0 1 1.8-1.1 5.87 5.87 0 0 1 2.3-.4 7.8 7.8 0 0 1 2.2.3 4.78 4.78 0 0 1 1.7 1 4.57 4.57 0 0 1 1.1 1.6 5.09 5.09 0 0 1 .4 2.2v.8H526a3.34 3.34 0 0 0 .3 1.5 4.13 4.13 0 0 0 .7 1.1 2.29 2.29 0 0 0 1 .7 2.74 2.74 0 0 0 1.3.2 4.1 4.1 0 0 0 1.1-.1 2 2 0 0 0 .8-.4 2.65 2.65 0 0 0 .5-.6 4.88 4.88 0 0 0 .3-.7h2.5a8.8 8.8 0 0 1-.5 1.5 4.26 4.26 0 0 1-1.1 1.2 6 6 0 0 1-1.6.8 6.45 6.45 0 0 1-2 .3 6.9 6.9 0 0 1-2.5-.4 5.67 5.67 0 0 1-1.8-1.2 4.53 4.53 0 0 1-1.1-1.9 6.57 6.57 0 0 1-.4-2.5 3.86 3.86 0 0 1 .3-2.1zm4.2-1.2a3.55 3.55 0 0 0-.9.4 2.34 2.34 0 0 0-.7.7 3.55 3.55 0 0 0-.4.9h5.8a1.69 1.69 0 0 0-.3-1 2 2 0 0 0-.6-.7 2 2 0 0 0-.8-.4 3.75 3.75 0 0 0-1.1-.1c-.3.1-.6.1-1 .2z"/></g></svg>