<svg width="711" height="46" viewBox="0 0 711 46" fill="none" xmlns="http://www.w3.org/2000/svg">
<path d="M70.9065 4.44386e-05C66.2111 0.0014876 61.629 1.44245 57.778 4.12868C53.9269 6.81491 50.992 10.6173 49.3689 15.0232V20.607H55.3516V25.1272H49.3689V30.9769C50.8288 34.9151 53.3399 38.378 56.6293 40.9895C59.9187 43.6011 63.8608 45.2615 68.0274 45.7904C72.194 46.3194 76.4259 45.6966 80.2635 43.9898C84.1011 42.283 87.3978 39.5573 89.7954 36.1089C92.1931 32.6604 93.6001 28.621 93.8636 24.4292C94.1272 20.2374 93.2372 16.0535 91.2904 12.3319C89.3436 8.61029 86.4143 5.4932 82.8207 3.31914C79.2271 1.14509 75.1065 -0.00283318 70.9065 4.44386e-05V4.44386e-05ZM81.6753 35.2313H77.5539V24.0636C77.5539 17.1503 67.5828 17.0174 67.5828 26.0578V35.2313H63.3284V7.44513H67.5828V18.8787C72.3689 13.0289 81.8082 14.7573 81.8082 23.2659V35.2313H81.6753ZM23.0452 4.44386e-05C18.8227 -0.00825467 14.6793 1.14602 11.0693 3.33636C7.45929 5.5267 4.52191 8.66857 2.57911 12.4176C0.6363 16.1667 -0.236946 20.3782 0.0550765 24.5906C0.347099 28.8031 1.79312 32.8538 4.23465 36.2989C6.67619 39.744 10.019 42.4505 13.8967 44.1218C17.7744 45.793 22.0374 46.3646 26.2184 45.7737C30.3994 45.1828 34.3371 43.4524 37.5998 40.772C40.8626 38.0917 43.3245 34.5648 44.7157 30.5781V25.2602H38.7331V20.7399H44.7157V15.555C43.1699 11.0305 40.2518 7.10062 36.3676 4.31257C32.4834 1.52451 27.8264 0.0170388 23.0452 4.44386e-05V4.44386e-05ZM29.5597 20.3411C28.9268 20.0811 28.2496 19.9457 27.5654 19.9422C25.1724 19.9422 22.9123 21.6706 22.9123 25.7919V35.3642H18.6579V15.6879H22.6464V19.1445C23.0427 18.0527 23.7658 17.1095 24.7174 16.4434C25.669 15.7773 26.8027 15.4206 27.9643 15.422C28.8898 15.4372 29.7995 15.6647 30.6232 16.0867L29.5597 20.3411ZM243.207 9.70525H240.415V19.1445H230.976V21.9365H240.415V31.5087H243.207V21.9365H252.646V19.1445H243.207V9.70525ZM140.704 21.9365C141.535 21.4151 142.258 20.738 142.831 19.9422C143.405 19.1273 143.853 18.2311 144.161 17.2833C144.772 14.9601 144.68 12.5076 143.895 10.237C143.435 9.13708 142.757 8.142 141.901 7.31218C140.93 6.50388 139.796 5.91438 138.577 5.58386C137.109 5.14888 135.587 4.92506 134.057 4.91912H122.357V35.4972H126.346V23.5318H133.525L141.103 35.4972H145.49L137.646 23.133C138.752 23.0059 139.806 22.5936 140.704 21.9365V21.9365ZM134.057 20.2081H126.346V8.64166H134.057C134.959 8.6232 135.858 8.75807 136.716 9.04051C137.433 9.28542 138.107 9.64457 138.71 10.1041C139.225 10.5902 139.633 11.179 139.906 11.8324C140.179 12.5545 140.314 13.3209 140.305 14.0925C140.303 14.9065 140.168 15.7147 139.906 16.4856C139.636 17.1798 139.229 17.8127 138.71 18.3469C138.121 18.8948 137.448 19.3438 136.716 19.6763C135.871 20.0197 134.969 20.2001 134.057 20.2081ZM162.906 24.8613C162.914 25.894 162.779 26.9228 162.508 27.9191C162.272 28.7886 161.866 29.6023 161.311 30.3122C160.853 30.9768 160.204 31.4867 159.45 31.7746C158.758 32.1522 157.977 32.336 157.19 32.3064C156.473 32.2918 155.76 32.2027 155.063 32.0405C154.456 31.8133 153.91 31.4493 153.467 30.9769C153.008 30.4227 152.648 29.7929 152.404 29.1156C152.122 28.2123 151.987 27.2697 152.005 26.3237V13.9596H148.149V26.8555C148.143 28.2565 148.367 29.649 148.814 30.9769C149.114 32.0523 149.714 33.0204 150.542 33.7688C151.272 34.4292 152.132 34.9276 153.068 35.2313C154.058 35.548 155.087 35.7269 156.126 35.763C156.886 35.748 157.643 35.6589 158.386 35.4972C159.033 35.3566 159.658 35.1332 160.247 34.8324C160.82 34.551 161.321 34.1416 161.71 33.6359C162.11 33.1358 162.466 32.602 162.774 32.0405H162.906V35.763H166.629V13.9596H162.774V24.8613H162.906ZM190.294 16.7515C189.446 15.8233 188.401 15.0965 187.236 14.6243C186.014 14.1248 184.699 13.8979 183.38 13.9596C182.625 13.9376 181.868 13.982 181.12 14.0925C180.416 14.1722 179.737 14.3987 179.126 14.7573C178.505 15.0323 177.923 15.39 177.398 15.8209C176.854 16.2601 176.402 16.8022 176.068 17.4162H175.935V14.0925H172.213V45.6012H176.068V34.4336C176.09 33.7661 176.046 33.098 175.935 32.4393H176.068C176.401 33.0174 176.803 33.5531 177.265 34.0347C177.765 34.4347 178.299 34.7905 178.86 35.0983C179.449 35.3991 180.075 35.6225 180.721 35.763C181.425 35.8735 182.137 35.918 182.849 35.896C184.175 35.9013 185.488 35.6296 186.704 35.0983C187.924 34.5945 189.015 33.822 189.895 32.8382C190.83 31.8417 191.554 30.6658 192.022 29.3815C192.567 27.9375 192.837 26.4045 192.82 24.8613C192.824 23.3299 192.6 21.8064 192.155 20.3411C191.839 19.0099 191.199 17.7771 190.294 16.7515V16.7515ZM188.432 27.7862C188.152 28.6639 187.7 29.4773 187.103 30.1792C186.594 30.8495 185.901 31.3575 185.109 31.6417C184.313 31.9925 183.453 32.1738 182.583 32.1738C181.713 32.1738 180.853 31.9925 180.057 31.6417C179.291 31.3102 178.609 30.8103 178.063 30.1792C177.465 29.4773 177.014 28.6639 176.733 27.7862C176.405 26.7532 176.226 25.6788 176.201 24.5954V24.1966C176.226 23.1566 176.405 22.126 176.733 21.1388C177.066 20.3259 177.514 19.5648 178.063 18.8787C178.609 18.2476 179.291 17.7477 180.057 17.4162C180.821 17.1134 181.629 16.9339 182.45 16.8844C183.322 16.8548 184.189 17.0373 184.976 17.4162C185.768 17.7004 186.461 18.2084 186.97 18.8787C187.565 19.5314 188.018 20.3012 188.3 21.1388C188.627 22.1718 188.806 23.2461 188.831 24.3295C188.862 25.4948 188.728 26.6586 188.432 27.7862ZM214.889 16.7515C214.041 15.8233 212.996 15.0965 211.831 14.6243C210.61 14.1248 209.294 13.8979 207.976 13.9596C207.22 13.9376 206.464 13.982 205.716 14.0925C205.012 14.1722 204.332 14.3987 203.721 14.7573C203.1 15.0323 202.519 15.39 201.993 15.8209C201.449 16.2601 200.998 16.8022 200.664 17.4162H200.531V14.0925H196.808V45.6012H200.664V34.4336C200.686 33.7661 200.641 33.098 200.531 32.4393H200.664C200.997 33.0174 201.399 33.5531 201.86 34.0347C202.36 34.4347 202.894 34.7905 203.456 35.0983C204.045 35.3991 204.67 35.6225 205.317 35.763C206.02 35.8735 206.732 35.918 207.444 35.896C208.771 35.9013 210.084 35.6296 211.299 35.0983C212.52 34.5945 213.61 33.822 214.49 32.8382C215.426 31.8417 216.149 30.6658 216.617 29.3815C217.162 27.9375 217.432 26.4045 217.415 24.8613C217.419 23.3299 217.195 21.8064 216.75 20.3411C216.434 19.0099 215.795 17.7771 214.889 16.7515V16.7515ZM213.028 27.7862C212.747 28.6639 212.295 29.4773 211.698 30.1792C211.189 30.8495 210.496 31.3575 209.704 31.6417C208.908 31.9925 208.048 32.1738 207.178 32.1738C206.308 32.1738 205.448 31.9925 204.652 31.6417C203.886 31.3102 203.204 30.8103 202.658 30.1792C202.061 29.4773 201.609 28.6639 201.328 27.7862C201.001 26.7532 200.822 25.6788 200.797 24.5954V24.1966C200.821 23.1566 201 22.126 201.328 21.1388C201.662 20.3259 202.109 19.5648 202.658 18.8787C203.204 18.2476 203.886 17.7477 204.652 17.4162C205.417 17.1134 206.224 16.9339 207.045 16.8844C207.918 16.8548 208.785 17.0373 209.571 17.4162C210.363 17.7004 211.056 18.2084 211.565 18.8787C212.161 19.5314 212.614 20.3012 212.895 21.1388C213.222 22.1718 213.402 23.2461 213.427 24.3295C213.458 25.4948 213.323 26.6586 213.028 27.7862V27.7862ZM285.086 18.3469H268.6V5.05207H264.612V35.6301H268.6V21.9365H285.086V35.6301H289.074V5.05207H285.086V18.3469ZM308.351 24.8613C308.359 25.894 308.224 26.9228 307.953 27.9191C307.717 28.7886 307.311 29.6023 306.756 30.3122C306.298 30.9768 305.649 31.4867 304.895 31.7746C304.203 32.1522 303.422 32.336 302.635 32.3064C301.918 32.2918 301.205 32.2027 300.508 32.0405C299.901 31.8133 299.355 31.4493 298.912 30.9769C298.453 30.4227 298.093 29.7929 297.849 29.1156C297.567 28.2123 297.432 27.2697 297.45 26.3237V13.9596H293.594V26.8555C293.588 28.2565 293.813 29.649 294.259 30.9769C294.559 32.0523 295.159 33.0204 295.987 33.7688C296.717 34.4292 297.578 34.9276 298.513 35.2313C299.503 35.548 300.532 35.7269 301.571 35.763C302.331 35.748 303.088 35.6589 303.831 35.4972C304.478 35.3566 305.103 35.1332 305.693 34.8324C306.265 34.551 306.766 34.1416 307.155 33.6359C307.555 33.1358 307.911 32.602 308.219 32.0405H308.351V35.763H312.074V13.9596H308.219V24.8613H308.351ZM335.34 16.7515C334.492 15.8233 333.447 15.0965 332.282 14.6243C331.061 14.1248 329.745 13.8979 328.427 13.9596C327.671 13.9376 326.915 13.982 326.167 14.0925C325.483 14.1905 324.814 14.369 324.172 14.6243C323.556 14.8538 322.975 15.1669 322.444 15.555C321.937 15.9291 321.489 16.3773 321.115 16.8844H320.982C320.96 16.2169 321.004 15.5489 321.115 14.8902V3.1908H317.259V35.763H320.982V31.9076H321.115C321.513 32.5723 321.912 33.237 322.311 33.7688C322.775 34.2505 323.314 34.6545 323.906 34.9654C324.496 35.2661 325.121 35.4896 325.768 35.6301C326.467 35.784 327.179 35.873 327.895 35.896C329.222 35.9013 330.535 35.6296 331.75 35.0983C332.97 34.5945 334.061 33.822 334.941 32.8382C335.877 31.8417 336.6 30.6658 337.068 29.3815C337.613 27.9375 337.883 26.4045 337.866 24.8613C337.87 23.3299 337.646 21.8064 337.201 20.3411C336.997 18.971 336.342 17.708 335.34 16.7515V16.7515ZM333.479 27.7862C333.198 28.6639 332.746 29.4773 332.149 30.1792C331.64 30.8495 330.947 31.3575 330.155 31.6417C329.359 31.9925 328.499 32.1738 327.629 32.1738C326.759 32.1738 325.899 31.9925 325.103 31.6417C324.337 31.3102 323.655 30.8103 323.109 30.1792C322.512 29.4773 322.06 28.6639 321.779 27.7862C321.452 26.7532 321.273 25.6788 321.247 24.5954V24.1966C321.272 23.1566 321.451 22.126 321.779 21.1388C322.112 20.3259 322.56 19.5648 323.109 18.8787C323.655 18.2476 324.337 17.7477 325.103 17.4162C325.867 17.1134 326.675 16.9339 327.496 16.8844C328.369 16.8548 329.235 17.0373 330.022 17.4162C330.814 17.7004 331.507 18.2084 332.016 18.8787C332.612 19.5314 333.064 20.3012 333.346 21.1388C333.673 22.1718 333.852 23.2461 333.878 24.3295C333.958 25.4965 333.823 26.6682 333.479 27.7862V27.7862ZM353.421 13.9596C353.148 13.9805 352.874 13.9349 352.623 13.8266H351.958C351.33 13.8403 350.705 13.9296 350.097 14.0925C349.517 14.2491 348.975 14.5204 348.502 14.8902C347.969 15.1768 347.513 15.5872 347.172 16.0867C346.757 16.5502 346.441 17.0929 346.242 17.6821H346.109V14.0925H342.386V35.763H346.242V24.7284C346.258 23.8363 346.347 22.947 346.508 22.0694C346.678 21.2658 346.993 20.4999 347.438 19.8093C347.783 19.1973 348.289 18.6915 348.901 18.3469C349.538 17.9545 350.281 17.7688 351.028 17.8151H351.693C351.958 17.8151 352.091 17.948 352.357 17.948C352.623 17.948 352.756 18.081 353.022 18.2139C353.26 18.3166 353.484 18.4508 353.687 18.6128L354.883 14.6243C354.617 14.4914 354.351 14.4914 354.086 14.3584C354.023 14.2363 353.928 14.1342 353.81 14.0637C353.693 13.9931 353.558 13.9571 353.421 13.9596V13.9596ZM372.432 15.9538C371.668 15.2416 370.762 14.6981 369.773 14.3584C368.575 13.9584 367.314 13.7782 366.051 13.8266C364.832 13.7876 363.616 13.9677 362.461 14.3584C361.482 14.6535 360.576 15.1518 359.802 15.8209C359.045 16.4169 358.451 17.1943 358.074 18.081C357.636 18.9466 357.409 19.903 357.409 20.8729H361.132C361.202 20.3273 361.336 19.7918 361.531 19.2775C361.729 18.8032 362.05 18.3902 362.461 18.081C362.901 17.6611 363.457 17.3832 364.057 17.2833C364.755 17.1211 365.467 17.032 366.184 17.0174C366.857 17.0222 367.527 17.1115 368.178 17.2833C368.706 17.4682 369.199 17.7376 369.64 18.081C370.024 18.4678 370.339 18.9174 370.571 19.4104C370.734 19.9726 370.824 20.5536 370.837 21.1388C370.858 21.3685 370.812 21.5994 370.704 21.8035L370.305 22.2024C370.072 22.3693 369.794 22.462 369.508 22.4682C369.109 22.6012 368.71 22.6012 368.045 22.7341L363.791 23.3989C362.699 23.5371 361.628 23.8049 360.6 24.1966C359.787 24.5297 359.026 24.9774 358.34 25.5261C357.781 26.0554 357.33 26.6873 357.01 27.3873C356.738 28.1094 356.603 28.8758 356.612 29.6474C356.566 30.4788 356.75 31.3065 357.143 32.0405C357.467 32.7736 357.97 33.4136 358.606 33.9018C359.267 34.4551 360.037 34.8628 360.866 35.0983C361.862 35.37 362.891 35.5042 363.924 35.4972C365.391 35.4814 366.839 35.1647 368.178 34.5665C368.74 34.2587 369.273 33.9029 369.773 33.5029C370.243 33.0774 370.646 32.5845 370.97 32.0405H371.103V35.3642H374.825V21.6706C374.855 20.5393 374.674 19.4125 374.294 18.3469C373.826 17.4415 373.195 16.6302 372.432 15.9538V15.9538ZM370.704 26.4567C370.748 27.3305 370.565 28.2008 370.172 28.9827C369.887 29.7017 369.43 30.3405 368.843 30.844C368.281 31.3937 367.598 31.8035 366.849 32.0405C366.078 32.302 365.27 32.4367 364.456 32.4393C363.827 32.4257 363.202 32.3364 362.594 32.1735C362.115 32.0335 361.664 31.8083 361.265 31.5087C360.93 31.2649 360.657 30.9462 360.467 30.5781C360.316 30.1958 360.226 29.792 360.201 29.3815C360.226 28.9711 360.316 28.5673 360.467 28.185C360.61 27.8254 360.838 27.5059 361.132 27.2544C361.463 26.9285 361.877 26.6988 362.328 26.5896C362.926 26.3659 363.553 26.2315 364.19 26.1908L368.311 25.5261C368.577 25.5261 368.843 25.3931 369.109 25.3931C369.375 25.3931 369.508 25.2602 369.773 25.2602C370.039 25.2602 370.172 25.1272 370.305 24.9943L370.704 24.5954V26.4567ZM383.467 19.4104C384.007 18.7392 384.688 18.1946 385.461 17.8151C386.248 17.4361 387.115 17.2536 387.987 17.2833C388.748 17.2983 389.504 17.3874 390.247 17.5492C390.837 17.7483 391.379 18.0649 391.843 18.4798C392.268 18.8617 392.627 19.3108 392.906 19.8093C393.162 20.3585 393.34 20.94 393.438 21.5376H397.294C397.188 20.467 396.871 19.4279 396.363 18.4798C395.895 17.5744 395.264 16.7631 394.502 16.0867C393.638 15.373 392.645 14.8315 391.577 14.4914C390.376 14.1011 389.117 13.9212 387.854 13.9596C386.442 13.9543 385.042 14.2252 383.733 14.7573C382.474 15.2595 381.339 16.0309 380.409 17.0174C379.429 17.9788 378.699 19.1655 378.282 20.474C377.738 21.8719 377.467 23.3613 377.484 24.8613C377.49 26.392 377.714 27.914 378.149 29.3815C378.623 30.6337 379.297 31.801 380.143 32.8382C381.056 33.8144 382.198 34.5459 383.467 34.9654C386.024 35.9294 388.828 36.0229 391.444 35.2313C392.499 34.8614 393.487 34.3226 394.369 33.6359C395.169 32.996 395.807 32.176 396.23 31.2428C396.738 30.2947 397.055 29.2556 397.161 28.185H393.305C393.207 28.7827 393.029 29.3641 392.773 29.9133C392.494 30.4118 392.135 30.861 391.71 31.2428C391.227 31.6299 390.689 31.9435 390.114 32.1735C389.386 32.4085 388.618 32.4988 387.854 32.4393C386.982 32.469 386.115 32.2865 385.328 31.9076C384.555 31.528 383.874 30.9834 383.334 30.3122C382.737 29.6103 382.285 28.7969 382.005 27.9191C381.688 26.9291 381.509 25.9002 381.473 24.8613C381.444 23.8167 381.624 22.7769 382.005 21.8035C382.382 20.9436 382.874 20.1386 383.467 19.4104V19.4104ZM418.964 18.6128C418.664 17.5374 418.064 16.5693 417.236 15.8209C416.507 15.1605 415.646 14.6621 414.71 14.3584C413.72 14.0417 412.691 13.8628 411.652 13.8266C410.892 13.8417 410.135 13.9307 409.392 14.0925C408.745 14.2331 408.12 14.4565 407.531 14.7573C406.938 15.0681 406.4 15.4721 405.935 15.9538C405.505 16.4314 405.147 16.9688 404.872 17.5492H404.739C404.721 16.8376 404.765 16.1258 404.872 15.422V3.05785H401.016V35.6301H404.872V24.5954C404.865 23.5627 404.999 22.5339 405.271 21.5376C405.506 20.6681 405.913 19.8545 406.467 19.1445C406.955 18.5089 407.595 18.0061 408.328 17.6821C409.02 17.3045 409.801 17.1208 410.588 17.1503C411.305 17.165 412.018 17.2541 412.716 17.4162C413.322 17.6435 413.868 18.0074 414.311 18.4798C414.771 19.034 415.13 19.6638 415.375 20.3411C415.656 21.2444 415.791 22.187 415.773 23.133V35.4972H419.629V22.6012C419.625 21.2445 419.4 19.8975 418.964 18.6128V18.6128ZM562.016 14.0925H559.224L558.294 19.0116H554.172L555.103 14.0925H552.311L551.38 19.0116H547.525V21.4047H550.981L549.918 27.9191H546.328V30.3122H549.519L548.588 35.3642H551.38L552.311 30.3122H556.432L555.502 35.3642H558.294L559.224 30.3122H563.08V27.9191H559.756L560.82 21.4047H564.409V19.0116H561.218L562.016 14.0925ZM556.831 27.9191H552.71L553.773 21.4047H557.895L556.831 27.9191Z" fill="black"/>
<path d="M436.247 35.6301V14.0925H439.837V32.7052H450.34V35.763H436.247V35.6301ZM452.999 24.7284C453.372 23.8357 453.914 23.0232 454.594 22.3353C455.254 21.6512 456.078 21.1477 456.987 20.8729C457.961 20.4927 459.001 20.3118 460.045 20.3411C461.034 20.3339 462.019 20.4682 462.97 20.7399C463.808 21.0212 464.577 21.4739 465.23 22.0694C465.864 22.6655 466.363 23.391 466.693 24.1966C467.084 25.1201 467.266 26.1191 467.224 27.1214V28.185H455.924C455.901 28.8717 456.037 29.5543 456.323 30.1792C456.553 30.7129 456.868 31.2065 457.253 31.6417C457.604 32.0664 458.063 32.3881 458.583 32.5723C459.129 32.7999 459.722 32.8912 460.311 32.8382C460.802 32.86 461.294 32.8153 461.773 32.7052C462.164 32.6105 462.527 32.4287 462.837 32.1735C463.097 31.9418 463.321 31.673 463.502 31.3758C463.659 31.0764 463.792 30.7653 463.901 30.4451H467.224C467.063 31.1285 466.841 31.7959 466.56 32.4393C466.179 33.0602 465.683 33.6019 465.097 34.0347C464.445 34.4936 463.728 34.8521 462.97 35.0983C462.11 35.3702 461.213 35.5048 460.311 35.4971C459.18 35.5264 458.053 35.3461 456.987 34.9654C456.095 34.5921 455.282 34.0504 454.594 33.37C453.907 32.6606 453.405 31.7932 453.132 30.844C452.741 29.781 452.56 28.6522 452.6 27.5203C452.536 26.572 452.672 25.6209 452.999 24.7284ZM458.716 23.133C458.294 23.2538 457.891 23.4328 457.519 23.6648C457.146 23.9051 456.829 24.2224 456.588 24.5954C456.356 24.9676 456.177 25.3703 456.057 25.7919H463.768C463.778 25.3178 463.639 24.8524 463.369 24.4625C463.179 24.0944 462.906 23.7757 462.571 23.5318C462.261 23.2766 461.898 23.0947 461.508 23C461.029 22.8838 460.536 22.839 460.045 22.8671C459.646 23 459.114 23 458.716 23.133V23.133ZM470.681 35.6301V20.3411H474.005V22.8671H474.138L474.935 21.6706C475.265 21.3732 475.621 21.1062 475.999 20.8729C476.406 20.6169 476.857 20.4367 477.328 20.3411C477.853 20.2309 478.388 20.1863 478.924 20.2081C479.695 20.1995 480.462 20.3347 481.184 20.607C481.871 20.8287 482.505 21.1909 483.045 21.6706C483.595 22.2323 484.005 22.9154 484.242 23.6648C484.532 24.6117 484.667 25.5995 484.64 26.5896V35.763H481.184V27.1214C481.18 26.4918 481.091 25.8656 480.918 25.2602C480.809 24.8085 480.579 24.3949 480.253 24.0636C479.951 23.7671 479.588 23.5402 479.19 23.3989C478.765 23.235 478.315 23.1451 477.86 23.133C477.362 23.1447 476.868 23.2344 476.398 23.3989C475.945 23.6327 475.539 23.9482 475.201 24.3295C474.781 24.7693 474.503 25.3251 474.403 25.9249C474.25 26.5793 474.161 27.2473 474.138 27.9191V35.763H470.681V35.6301ZM491.155 31.1099C491.18 31.4773 491.27 31.8374 491.421 32.1735C491.502 32.3321 491.615 32.4727 491.752 32.5869C491.889 32.7011 492.048 32.7866 492.219 32.8382C492.564 32.993 492.92 33.1262 493.282 33.237C493.671 33.3467 494.075 33.3916 494.479 33.37C495.014 33.3918 495.55 33.3472 496.074 33.237C496.436 33.1262 496.792 32.993 497.138 32.8382C497.42 32.6877 497.652 32.4563 497.802 32.1735C497.969 31.8909 498.06 31.5706 498.068 31.2428C498.103 31.0125 498.056 30.7773 497.935 30.5781C497.802 30.4451 497.669 30.1792 497.536 30.0463C497.404 29.9133 497.138 29.7804 496.872 29.6474C496.606 29.5145 496.207 29.5145 495.808 29.3815L493.016 28.8498C492.351 28.7168 491.82 28.5839 491.288 28.4509C490.767 28.311 490.273 28.0864 489.825 27.7862C489.373 27.486 489.007 27.0737 488.762 26.5896C488.49 26.0546 488.353 25.4613 488.363 24.8613C488.333 24.1579 488.519 23.4622 488.895 22.8671C489.227 22.289 489.68 21.7901 490.224 21.4047C490.835 20.9906 491.509 20.6764 492.219 20.474C493.04 20.2473 493.894 20.1575 494.745 20.2081C495.593 20.2239 496.438 20.3128 497.271 20.474C497.99 20.5753 498.674 20.849 499.265 21.2717C499.838 21.6229 500.299 22.1302 500.594 22.7341C500.927 23.3473 501.109 24.0309 501.126 24.7284H497.935C497.927 24.4006 497.836 24.0803 497.669 23.7977C497.519 23.5149 497.287 23.2834 497.005 23.133C496.659 22.9782 496.303 22.845 495.941 22.7341C495.508 22.6173 495.059 22.5724 494.612 22.6012C494.208 22.5796 493.804 22.6245 493.415 22.7341C493.016 22.8671 492.75 23 492.351 23.133C492.069 23.2834 491.837 23.5149 491.687 23.7977C491.539 24.0403 491.448 24.3129 491.421 24.5954C491.386 24.8257 491.433 25.0609 491.554 25.2602C491.687 25.3931 491.82 25.659 491.953 25.7919C492.188 25.9788 492.46 26.1146 492.75 26.1908C493.142 26.3082 493.542 26.3971 493.947 26.4567L496.739 26.8555C497.321 26.9588 497.898 27.0919 498.467 27.2544C499.005 27.4144 499.504 27.6862 499.93 28.0521C500.376 28.3231 500.707 28.749 500.86 29.2486C501.132 29.7836 501.269 30.3769 501.259 30.9769C501.289 31.7223 501.104 32.4606 500.727 33.1041C500.381 33.7152 499.876 34.2208 499.265 34.5665C498.593 34.956 497.879 35.2682 497.138 35.4971C496.216 35.6644 495.282 35.7534 494.346 35.763C493.454 35.747 492.564 35.6581 491.687 35.4971C490.925 35.3259 490.203 35.01 489.56 34.5665C489.016 34.1811 488.562 33.6821 488.23 33.1041C487.897 32.4909 487.715 31.8074 487.698 31.1099H491.155ZM504.45 24.7284C504.823 23.8357 505.365 23.0232 506.045 22.3353C506.705 21.6512 507.529 21.1477 508.438 20.8729C509.412 20.4927 510.451 20.3118 511.496 20.3411C512.485 20.3339 513.47 20.4682 514.421 20.7399C515.258 21.0212 516.028 21.4739 516.681 22.0694C517.315 22.6655 517.814 23.391 518.143 24.1966C518.535 25.1201 518.717 26.1191 518.675 27.1214V28.185H507.375C507.351 28.8717 507.488 29.5543 507.773 30.1792C508.004 30.7129 508.318 31.2065 508.704 31.6417C509.055 32.0664 509.514 32.3881 510.034 32.5723C510.58 32.7999 511.173 32.8912 511.762 32.8382C512.253 32.86 512.745 32.8153 513.224 32.7052C513.614 32.6105 513.978 32.4287 514.288 32.1735C514.548 31.9418 514.772 31.673 514.953 31.3758C515.11 31.0764 515.243 30.7653 515.351 30.4451H518.675C518.514 31.1285 518.291 31.7959 518.01 32.4393C517.63 33.0602 517.133 33.6019 516.548 34.0347C515.896 34.4936 515.179 34.8521 514.421 35.0983C513.561 35.3702 512.664 35.5048 511.762 35.4971C510.631 35.5264 509.504 35.3461 508.438 34.9654C507.545 34.5921 506.733 34.0504 506.045 33.37C505.358 32.6606 504.856 31.7932 504.583 30.844C504.192 29.781 504.011 28.6522 504.051 27.5203C503.92 26.5707 504.059 25.6035 504.45 24.7284V24.7284ZM510.167 23.133C509.745 23.2538 509.342 23.4328 508.97 23.6648C508.597 23.9051 508.28 24.2224 508.039 24.5954C507.807 24.9676 507.628 25.3703 507.508 25.7919H515.219C515.229 25.3178 515.09 24.8524 514.82 24.4625C514.63 24.0944 514.357 23.7757 514.022 23.5318C513.712 23.2766 513.349 23.0947 512.958 23C512.48 22.8838 511.987 22.839 511.496 22.8671C511.097 23 510.565 23 510.167 23.133V23.133ZM524.392 31.1099C524.417 31.4773 524.507 31.8374 524.658 32.1735C524.739 32.3321 524.852 32.4727 524.989 32.5869C525.126 32.7011 525.285 32.7866 525.456 32.8382C525.801 32.993 526.157 33.1262 526.519 33.237C526.908 33.3467 527.312 33.3916 527.716 33.37C528.251 33.3918 528.787 33.3472 529.311 33.237C529.673 33.1262 530.029 32.993 530.375 32.8382C530.657 32.6877 530.889 32.4563 531.039 32.1735C531.206 31.8909 531.297 31.5706 531.305 31.2428C531.34 31.0125 531.293 30.7773 531.172 30.5781C531.039 30.4451 530.906 30.1792 530.773 30.0463C530.64 29.9133 530.375 29.7804 530.109 29.6474C529.843 29.5145 529.444 29.5145 529.045 29.3815L526.253 28.8498C525.588 28.7168 525.057 28.5839 524.525 28.4509C524.004 28.311 523.51 28.0864 523.062 27.7862C522.61 27.486 522.244 27.0737 521.999 26.5896C521.727 26.0546 521.59 25.4613 521.6 24.8613C521.57 24.1579 521.756 23.4622 522.132 22.8671C522.464 22.289 522.917 21.7901 523.461 21.4047C524.072 20.9906 524.746 20.6764 525.456 20.474C526.277 20.2473 527.131 20.1575 527.982 20.2081C528.83 20.2239 529.675 20.3128 530.508 20.474C531.227 20.5753 531.911 20.849 532.502 21.2717C533.075 21.6229 533.536 22.1302 533.831 22.7341C534.164 23.3473 534.346 24.0309 534.363 24.7284H531.172C531.164 24.4006 531.073 24.0803 530.906 23.7977C530.756 23.5149 530.524 23.2834 530.242 23.133C529.896 22.9782 529.54 22.845 529.178 22.7341C528.745 22.6173 528.296 22.5724 527.849 22.6012C527.445 22.5796 527.041 22.6245 526.652 22.7341C526.253 22.8671 525.987 23 525.588 23.133C525.306 23.2834 525.074 23.5149 524.924 23.7977C524.776 24.0403 524.685 24.3129 524.658 24.5954C524.623 24.8257 524.67 25.0609 524.791 25.2602C524.924 25.3931 525.057 25.659 525.19 25.7919C525.425 25.9788 525.697 26.1146 525.987 26.1908C526.379 26.3082 526.779 26.3971 527.184 26.4567L529.976 26.8555C530.558 26.9588 531.135 27.0919 531.704 27.2544C532.242 27.4144 532.741 27.6862 533.166 28.0521C533.613 28.3231 533.944 28.749 534.097 29.2486C534.369 29.7836 534.506 30.3769 534.496 30.9769C534.526 31.7223 534.341 32.4606 533.964 33.1041C533.618 33.7152 533.113 34.2208 532.502 34.5665C531.83 34.956 531.116 35.2682 530.375 35.4971C529.453 35.6644 528.519 35.7534 527.583 35.763C526.691 35.747 525.801 35.6581 524.924 35.4971C524.162 35.3259 523.44 35.01 522.797 34.5665C522.253 34.1811 521.799 33.6821 521.467 33.1041C521.134 32.4909 520.952 31.8074 520.935 31.1099H524.392Z" fill="black"/>
<path d="M568.265 16.0867V12.6301H571.854V16.0867H568.265ZM568.398 35.6301V20.3411H571.854V35.763H568.398V35.6301ZM576.375 35.6301V20.3411H579.698V22.8671H579.831L580.629 21.6706C580.959 21.3732 581.315 21.1062 581.693 20.8729C582.1 20.6169 582.55 20.4367 583.022 20.3411C583.546 20.2309 584.082 20.1863 584.617 20.2081C585.389 20.1995 586.155 20.3347 586.877 20.607C587.565 20.8287 588.199 21.1909 588.739 21.6706C589.288 22.2323 589.698 22.9154 589.935 23.6648C590.226 24.6117 590.361 25.5995 590.334 26.5896V35.763H586.877V27.1214C586.874 26.4918 586.784 25.8656 586.612 25.2602C586.502 24.8085 586.273 24.3949 585.947 24.0636C585.645 23.7671 585.282 23.5402 584.883 23.3989C584.459 23.235 584.009 23.1451 583.554 23.133C583.055 23.1447 582.562 23.2344 582.091 23.3989C581.639 23.6327 581.233 23.9482 580.895 24.3295C580.475 24.7693 580.197 25.3251 580.097 25.9249C579.943 26.5793 579.854 27.2473 579.831 27.9191V35.763H576.375V35.6301ZM594.721 35.6301V20.3411H598.045V22.8671H598.178L598.976 21.6706C599.306 21.3732 599.662 21.1062 600.039 20.8729C600.447 20.6169 600.897 20.4367 601.369 20.3411C601.893 20.2309 602.429 20.1863 602.964 20.2081C603.736 20.1995 604.502 20.3347 605.224 20.607C605.912 20.8287 606.546 21.1909 607.086 21.6706C607.635 22.2323 608.045 22.9154 608.282 23.6648C608.573 24.6117 608.707 25.5995 608.681 26.5896V35.763H605.224V27.1214C605.221 26.4918 605.131 25.8656 604.958 25.2602C604.849 24.8085 604.62 24.3949 604.294 24.0636C603.992 23.7671 603.629 23.5402 603.23 23.3989C602.805 23.235 602.356 23.1451 601.901 23.133C601.402 23.1447 600.909 23.2344 600.438 23.3989C599.985 23.6327 599.58 23.9482 599.242 24.3295C598.822 24.7693 598.544 25.3251 598.444 25.9249C598.29 26.5793 598.201 27.2473 598.178 27.9191V35.763H594.721V35.6301ZM612.536 24.8613C612.94 23.945 613.478 23.0937 614.132 22.3353C614.869 21.6529 615.725 21.1121 616.658 20.7399C618.726 20.0309 620.971 20.0309 623.039 20.7399C623.981 21.0936 624.841 21.6365 625.565 22.3353C626.246 23.0232 626.787 23.8357 627.161 24.7284C627.552 25.745 627.733 26.8305 627.693 27.9191C627.733 29.0077 627.552 30.0933 627.161 31.1099C626.787 32.0025 626.246 32.815 625.565 33.5029C624.828 34.1853 623.972 34.7262 623.039 35.0983C620.971 35.8074 618.726 35.8074 616.658 35.0983C615.746 34.7421 614.895 34.2489 614.132 33.6359C613.451 32.948 612.91 32.1355 612.536 31.2428C612.145 30.2262 611.964 29.1407 612.005 28.0521C611.898 26.9602 612.082 25.8596 612.536 24.8613V24.8613ZM615.727 30.0463C615.957 30.621 616.271 31.1586 616.658 31.6417C617.04 32.0667 617.489 32.426 617.987 32.7052C618.527 32.9645 619.117 33.0992 619.716 33.0992C620.314 33.0992 620.905 32.9645 621.444 32.7052C621.971 32.4701 622.428 32.1039 622.773 31.6417C623.188 31.1782 623.505 30.6355 623.704 30.0463C623.922 29.4054 624.013 28.7278 623.97 28.0521C623.955 27.3357 623.866 26.6228 623.704 25.9249C623.505 25.3357 623.188 24.7929 622.773 24.3295C622.423 23.9047 621.963 23.5831 621.444 23.3989C620.905 23.1396 620.314 23.005 619.716 23.005C619.117 23.005 618.527 23.1396 617.987 23.3989C617.461 23.634 617.003 24.0002 616.658 24.4625C616.243 24.9259 615.926 25.4686 615.727 26.0578C615.509 26.6988 615.419 27.3763 615.461 28.0521C615.466 28.7253 615.555 29.3953 615.727 30.0463V30.0463ZM634.473 35.6301L628.756 20.2081H632.479L636.467 32.0405H636.6L640.588 20.2081H644.045L638.461 35.6301H634.473ZM645.375 29.9133C645.559 29.3941 645.88 28.9346 646.305 28.5839C646.769 28.169 647.311 27.8524 647.901 27.6532C648.675 27.3843 649.478 27.2059 650.294 27.1214L653.218 26.5896C653.617 26.5896 653.883 26.4567 654.149 26.4567C654.415 26.4567 654.548 26.3237 654.681 26.3237C654.814 26.3237 654.947 26.1908 654.947 26.0578C654.947 25.9249 655.08 25.7919 655.08 25.659C655.101 25.2556 655.056 24.8513 654.947 24.4625C654.856 24.1102 654.673 23.7887 654.415 23.5315C654.158 23.2743 653.837 23.0908 653.484 23C652.607 22.8228 651.703 22.8228 650.825 23C650.475 23.0955 650.155 23.2785 649.895 23.5318C649.635 23.7634 649.411 24.0322 649.23 24.3295C649.064 24.66 648.973 25.0233 648.964 25.3931H645.773C645.808 24.6558 645.989 23.9328 646.305 23.2659C646.596 22.624 647.056 22.0727 647.635 21.6706C648.238 21.211 648.911 20.8519 649.629 20.607C650.486 20.3245 651.385 20.1897 652.288 20.2081C653.234 20.1908 654.177 20.3255 655.08 20.607C655.797 20.8519 656.471 21.211 657.074 21.6706C657.589 22.1567 657.997 22.7454 658.271 23.3989C658.554 24.1641 658.689 24.9762 658.669 25.7919V35.6301H655.479V33.37H655.346C655.113 33.7076 654.846 34.0195 654.548 34.3006C654.246 34.5972 653.883 34.8241 653.484 34.9654L652.155 35.3642C651.631 35.4743 651.095 35.519 650.56 35.4971C649.799 35.4821 649.042 35.393 648.299 35.2312C647.72 35.075 647.177 34.8037 646.704 34.4336C646.279 34.0517 645.92 33.6025 645.64 33.1041C645.369 32.5691 645.232 31.9758 645.242 31.3758C645.158 30.885 645.204 30.381 645.375 29.9133V29.9133ZM655.213 28.0521L654.947 28.318C654.894 28.3682 654.831 28.4062 654.762 28.4292C654.693 28.4522 654.62 28.4596 654.548 28.4509C654.415 28.4509 654.282 28.5839 654.149 28.5839C654.016 28.5839 653.883 28.7168 653.617 28.7168L650.958 29.1156C650.548 29.1404 650.144 29.2301 649.762 29.3815L648.964 29.7804C648.86 29.8303 648.769 29.9047 648.699 29.9973C648.63 30.0899 648.584 30.1979 648.565 30.3122C648.388 30.8292 648.388 31.3905 648.565 31.9076C648.7 32.1598 648.881 32.3851 649.097 32.5723L649.895 32.9711C650.282 33.0885 650.688 33.1336 651.091 33.1041C651.632 33.0807 652.168 32.9914 652.687 32.8382C653.166 32.6982 653.617 32.473 654.016 32.1734C654.427 31.8642 654.748 31.4513 654.947 30.9769C655.163 30.4745 655.255 29.927 655.213 29.3815V28.0521V28.0521ZM663.323 23H660.398V20.3411H663.323V15.6879H666.779V20.3411H670.768V23H666.779V30.5781C666.751 30.9379 666.796 31.2998 666.912 31.6417C667.045 31.9075 667.045 32.1734 667.311 32.3064C667.514 32.4684 667.737 32.6025 667.976 32.7052C668.318 32.8213 668.679 32.8665 669.039 32.8382H670.768V35.6301H668.375C667.614 35.6233 666.856 35.5341 666.114 35.3642C665.503 35.218 664.947 34.8943 664.519 34.4336C664.133 33.9984 663.819 33.5048 663.588 32.9711C663.419 32.2296 663.329 31.4718 663.323 30.711V23V23ZM673.56 16.0867V12.6301H677.149V16.0867H673.56ZM673.693 35.6301V20.3411H677.149V35.763H673.693V35.6301ZM685.259 35.6301L679.542 20.2081H683.265L687.253 32.0405H687.386L691.375 20.2081H694.831L689.247 35.6301H685.259ZM696.427 24.7284C696.8 23.8357 697.342 23.0232 698.022 22.3353C698.682 21.6512 699.505 21.1477 700.415 20.8729C701.388 20.4927 702.428 20.3118 703.473 20.3411C704.462 20.3339 705.447 20.4682 706.398 20.7399C707.235 21.0211 708.005 21.4739 708.658 22.0694C709.292 22.6655 709.791 23.3909 710.12 24.1966C710.512 25.1201 710.694 26.1191 710.652 27.1214V28.185H699.351C699.328 28.8717 699.465 29.5543 699.75 30.1792C699.981 30.7129 700.295 31.2065 700.681 31.6417C701.032 32.0664 701.491 32.3881 702.01 32.5723C702.556 32.7999 703.15 32.8912 703.739 32.8382C704.23 32.86 704.722 32.8153 705.201 32.7052C705.591 32.6105 705.955 32.4287 706.265 32.1734C706.525 31.9418 706.749 31.673 706.93 31.3758C707.086 31.0764 707.22 30.7653 707.328 30.4451H710.652C710.491 31.1285 710.268 31.7959 709.987 32.4393C709.607 33.0602 709.11 33.6019 708.525 34.0347C707.873 34.4935 707.156 34.8521 706.398 35.0983C705.538 35.3702 704.64 35.5048 703.739 35.4971C702.608 35.5264 701.481 35.3461 700.415 34.9654C699.522 34.5921 698.71 34.0504 698.022 33.37C697.335 32.6606 696.833 31.7931 696.56 30.844C696.169 29.781 695.988 28.6522 696.028 27.5203C695.897 26.5706 696.036 25.6035 696.427 24.7284V24.7284ZM702.01 23.133C701.589 23.2538 701.186 23.4328 700.814 23.6648C700.441 23.9051 700.124 24.2224 699.883 24.5954C699.651 24.9676 699.472 25.3703 699.351 25.7919H707.062C707.073 25.3178 706.934 24.8524 706.664 24.4625C706.474 24.0944 706.201 23.7757 705.866 23.5318C705.556 23.2765 705.192 23.0947 704.802 23C704.324 22.8838 703.831 22.839 703.34 22.8671C702.941 23 702.542 23 702.01 23.133V23.133Z" fill="black"/>
</svg>
