<?xml version="1.0" encoding="utf-8"?>
<!-- Generator: Adobe Illustrator 22.0.1, SVG Export Plug-In . SVG Version: 6.00 Build 0)  -->
<svg version="1.1" id="Ebene_1" xmlns="http://www.w3.org/2000/svg" xmlns:xlink="http://www.w3.org/1999/xlink" x="0px" y="0px"
	 viewBox="0 0 566 117" style="enable-background:new 0 0 566 117;" xml:space="preserve">
<style type="text/css">
	.st0{fill:#FFFFFF;}
	.st1{fill:#A5CACD;}
</style>
<g>
	<path class="st0" d="M246,111.3c-0.6,0-1-0.5-1-1v-94c0-0.6,0.5-1,1-1c0.6,0,1,0.5,1,1v94C247,110.8,246.6,111.3,246,111.3z"/>
	<path class="st0" d="M321.2,45.3v14.3c-0.9,0.7-5.2,3.2-18.6,3.2c-8.2,0-14.1-1.7-19.7-3.2c-5.3-1.6-10.4-3-17.1-3
		c-11,0-17.5,1.4-19.8,2.1V45c0,0,3.2-3.6,18.9-3.6s22.8,6.2,36.3,6.2C314.7,47.6,321.2,45.3,321.2,45.3z"/>
	<path class="st1" d="M321.2,31c0,0-6.5,2.3-20,2.3c-13.5,0-20.5-6.2-36.2-6.2S246,30.7,246,30.7V45c0,0,3.2-3.6,18.9-3.6
		s22.8,6.2,36.3,6.2c13.6,0,20.1-2.3,20.1-2.3L321.2,31L321.2,31z"/>
	<path class="st0" d="M302.6,63.9c-8.1,0-13.8-1.6-19.4-3.2l-0.6-0.2c-4.9-1.4-10.1-2.9-16.9-2.9c-11.6,0-17.9,1.6-19.6,2
		c-0.3,0.1-0.7,0-0.9-0.2s-0.4-0.5-0.4-0.8V16.3c0-0.3,0.2-0.6,0.3-0.8c1-0.8,5.3-3.5,19.2-3.5c8.3,0,14.2,1.7,19.9,3.2h0.1
		c5.3,1.6,10.3,2.8,17,2.8c10.9,0,17.2-1.3,19.4-1.9c0.3-0.1,0.7,0,0.9,0.2c0.2,0.2,0.4,0.5,0.4,0.8v42.5c0,0.3-0.2,0.6-0.3,0.8
		C320.9,61.3,316.5,63.9,302.6,63.9z M265.8,55.6c7.1,0,12.3,1.5,17.4,3l0.6,0.2c5.4,1.5,11.1,3.1,18.9,3.1c11.9,0,16.3-2,17.6-2.7
		V18.4c-3.2,0.7-9.3,1.7-18.6,1.7c-6.9,0-12.1-1.3-17.6-2.9h-0.1c-5.6-1.5-11.3-3.2-19.4-3.2c-11.9,0-16.3,2-17.6,2.7v40.6
		C249.8,56.8,256,55.6,265.8,55.6z"/>
</g>
</svg>
