<?xml version="1.0" encoding="UTF-8"?>
<svg width="190px" height="96px" viewBox="0 0 190 96" version="1.1" xmlns="http://www.w3.org/2000/svg" xmlns:xlink="http://www.w3.org/1999/xlink">
    <!-- Generator: Sketch 53.2 (72643) - https://sketchapp.com -->
    <link rel="stylesheet" href="./style/footer.css"><title>reebok</title>
    <desc>Created with Sketch.</desc>
    <g id="screens" stroke="none" stroke-width="1" fill="none" fill-rule="evenodd">
        <g id="t/1920/sehwelten/sport/1" transform="translate(-156.000000, -840.000000)" fill="#FFFFFF" fill-rule="nonzero">
            <g id="reebok" transform="translate(156.000000, 840.000000)">
                <path d="M145.656347,26.0404571 C149.334246,26.0404571 152.326549,23.0416595 152.326549,19.3541898 C152.326549,15.6967882 149.334246,12.7211542 145.656347,12.7211542 C141.965884,12.7211542 138.962813,15.6967882 138.962813,19.3541898 C138.962813,23.0416595 141.965884,26.0404571 145.656347,26.0404571 Z M145.660385,6.35294118 L145.660161,6.35294118 C154.502912,6.35294118 160.444444,11.5988324 160.444444,19.4076443 C160.444444,27.0986335 154.364716,32.4705882 145.660161,32.4705882 C137.239401,32.4705882 130.888889,26.8547473 130.888889,19.4076443 C130.888889,11.5988324 136.825486,6.35294118 145.660385,6.35294118 Z M116.245474,6.97918992 L116.246371,6.97918992 C122.060204,6.97918992 128.074074,11.7034758 128.074074,19.6076293 C128.074074,26.8801166 121.118554,31.7647059 114.620965,31.7647059 L99.9259259,31.7647059 L99.9259259,0 L108.090185,0 L108.090185,25.0301895 L114.677477,25.0301895 C116.761935,24.9793453 119.844332,23.1309724 119.844332,19.3276536 C119.844332,16.2314901 117.461389,13.7137063 114.53328,13.7137063 L110.93061,13.7012728 L110.93061,6.97918992 L116.245474,6.97918992 Z M42.9758392,19.4064491 L42.975619,19.4064491 C42.975619,22.5408634 45.475393,25.091008 48.5468207,25.091008 L62.6296296,25.091008 L62.6296296,31.7647059 L47.2841618,31.7647059 C40.6121523,31.7647059 35.1851852,26.2265466 35.1851852,19.4204025 C35.1851852,12.6142584 40.6121523,7.07720654 47.2839416,7.07698506 L62.5805238,7.05882353 L62.5805238,14.219339 L57.4277127,22.3663356 L49.7709437,22.3663356 L54.8955685,13.7194539 L48.5470409,13.7194539 C45.475393,13.7194539 42.9758392,16.2711489 42.9758392,19.4064491 Z M19.8948056,0 C25.8944602,0 32.3694747,4.23336581 32.3703704,11.0729253 C32.3703704,15.9259222 29.835715,19.9291266 24.6857968,21.6710452 C27.9638317,22.4945463 31.3697189,24.938758 31.3697189,29.7480844 L31.3697189,38.8235294 L23.0770072,38.8235294 L23.0770072,32.0075876 C23.0463316,27.3054323 20.9429259,25.1225752 16.1844015,24.9305141 L10.6453287,24.9305141 L10.6453287,18.2879175 L18.5493335,18.291928 C21.7131745,18.291928 23.9721973,15.8590796 23.9721973,12.6548673 C23.9721973,8.46383511 20.9684516,6.9676745 18.1565962,6.96344114 L7.90400483,6.95430598 L7.90400483,31.8756849 L0,31.8756849 L0,0 L19.8948056,0 Z M182.612064,18.5358136 L182.612741,18.5358136 C187.863795,19.9692285 190,23.397346 190,28.1438678 L190,31.7647059 L181.793817,31.7647059 L181.793817,27.8774338 C181.793817,24.1957599 179.285538,21.8604659 175.179849,21.8604659 L172.218394,21.8604659 L172.218394,31.7640398 L163.962963,31.7640398 L163.962963,0 L172.21749,0 L172.21749,15.1481052 L176.085748,15.146551 C179.897077,15.146551 181.613993,12.2868261 181.613993,8.29608877 L181.613993,6.95215125 L189.746755,6.95215125 L189.746755,7.86890625 C189.725971,13.8254824 188.147989,16.8215328 182.612064,18.5358136 Z M121.624545,66.3529412 L121.624097,66.3529412 L101.333333,54.2650961 C129.87281,48.6103778 171.291454,45.725002 190,44.4705882 C155.526591,52.9739459 142.516448,57.8632477 121.624545,66.3529412 Z M57,94.5882353 C59.8667969,90.6770499 69.5598545,80.3812839 86.9859256,72.7058824 C91.8299935,74.4151696 96.5928496,76.1805604 101.333333,78.0066749 C95.0710802,82.438193 89.6907464,86.4219829 84.2855792,94.5882353 L57,94.5882353 Z M62.5955034,64.2352941 L62.5961766,64.2352941 C62.6376913,64.2393386 62.739795,64.2611339 62.8968776,64.298433 C69.132161,66.1465367 75.1116241,68.0642954 80.9259259,70.0604722 C59.8440886,78.4145751 48.6247974,90.4246654 45.6781514,94.5882353 L15.4814815,94.5390274 C24.6441121,82.6767854 38.1949586,73.1007994 62.5955034,64.2352941 Z M74.9455276,45.8823529 C83.7008322,50.1423529 155.299822,92.655645 159.740741,96 C107.791365,73.7983259 75.4878106,58.1013014 8.44444444,45.8823529 L74.9455276,45.8823529 Z M74.6427886,19.4064491 C74.6427886,22.5408634 77.1425826,25.091008 80.214035,25.091008 L94.2962963,25.091008 L94.2962963,31.7647059 L78.9507053,31.7647059 C72.2788625,31.7647059 66.8518519,26.2267681 66.8518519,19.4204025 C66.8518519,12.6140369 72.2793029,7.07698506 78.9515862,7.07698506 L94.2482911,7.05882353 L94.2482911,14.219339 L89.0954386,22.3663356 L81.4377274,22.3663356 L86.5623933,13.7194539 L80.214035,13.7194539 C77.1425826,13.7194539 74.6427886,16.2711489 74.6427886,19.4064491 Z" id="Combined-Shape"></path>
            </g>
        </g>
    </g>
</svg>