<?xml version="1.0" encoding="utf-8"?>
<!-- Generator: Adobe Illustrator 22.0.1, SVG Export Plug-In . SVG Version: 6.00 Build 0)  -->
<svg version="1.1" id="Ebene_1" xmlns="http://www.w3.org/2000/svg" xmlns:xlink="http://www.w3.org/1999/xlink" x="0px" y="0px"
	 viewBox="0 0 566 144" style="enable-background:new 0 0 566 144;" xml:space="preserve">
<style type="text/css">
	.st0{fill:#FFFFFF;}
</style>
<g>
	<path class="st0" d="M334.1,125.6H231.9c-0.4,0-0.7-0.3-0.7-0.7c0-0.4,0.3-0.7,0.7-0.7h102.2c0.4,0,0.7,0.3,0.7,0.7
		C334.8,125.3,334.5,125.6,334.1,125.6z"/>
	<path class="st0" d="M313.7,75.8c-3.2,0-5.8-2.6-5.8-5.8c0-3.2,2.6-5.8,5.8-5.8c3.2,0,5.8,2.6,5.8,5.8
		C319.6,73.2,316.9,75.8,313.7,75.8z M313.7,65.5c-2.5,0-4.5,2-4.5,4.5c0,2.5,2,4.5,4.5,4.5c2.5,0,4.5-2,4.5-4.5
		C318.3,67.5,316.2,65.5,313.7,65.5z"/>
	<path class="st0" d="M251.9,75.8c-3.2,0-5.8-2.6-5.8-5.8c0-3.2,2.6-5.8,5.8-5.8c3.2,0,5.8,2.6,5.8,5.8
		C257.8,73.2,255.1,75.8,251.9,75.8z M251.9,65.5c-2.5,0-4.5,2-4.5,4.5c0,2.5,2,4.5,4.5,4.5c2.5,0,4.5-2,4.5-4.5
		C256.4,67.5,254.4,65.5,251.9,65.5z"/>
	<path class="st0" d="M325.5,111.4h-16.9c-0.4,0-0.7-0.3-0.7-0.7V93.8c0-0.4,0.3-0.7,0.7-0.7h16.9c0.4,0,0.7,0.3,0.7,0.7v16.9
		C326.1,111.1,325.8,111.4,325.5,111.4z M317.5,110.1h7.3V94.5h-7.3V110.1z M309.2,110.1h7V94.5h-7V110.1z M291.3,111.4h-16.9
		c-0.4,0-0.7-0.3-0.7-0.7V93.8c0-0.4,0.3-0.7,0.7-0.7h16.9c0.4,0,0.7,0.3,0.7,0.7v16.9C291.9,111.1,291.6,111.4,291.3,111.4z
		 M283.7,110.1h7V94.5h-7V110.1z M275,110.1h7.3V94.5H275V110.1z"/>
	<path class="st0" d="M257.4,111.4h-16.9c-0.4,0-0.7-0.3-0.7-0.7V93.8c0-0.4,0.3-0.7,0.7-0.7h16.9c0.4,0,0.7,0.3,0.7,0.7v16.9
		C258.1,111.1,257.8,111.4,257.4,111.4z M249.5,110.1h7.3V94.5h-7.3V110.1z M241.2,110.1h7V94.5h-7V110.1z"/>
	<path class="st0" d="M299.9,134.9c-0.4,0-0.7-0.3-0.7-0.7V81.7c0-0.4,0.3-0.7,0.7-0.7s0.7,0.3,0.7,0.7v52.5
		C300.6,134.6,300.3,134.9,299.9,134.9z"/>
	<path class="st0" d="M265.7,134.9c-0.4,0-0.7-0.3-0.7-0.7V81.7c0-0.4,0.3-0.7,0.7-0.7c0.4,0,0.7,0.3,0.7,0.7v52.5
		C266.4,134.6,266.1,134.9,265.7,134.9z"/>
	<path class="st0" d="M265.7,82.4c-0.4,0-0.7-0.3-0.7-0.7v-19c0-0.4,0.3-0.7,0.7-0.7c0.4,0,0.7,0.3,0.7,0.7v19
		C266.4,82.1,266.1,82.4,265.7,82.4z"/>
	<path class="st0" d="M299.9,82.4c-0.4,0-0.7-0.3-0.7-0.7v-19c0-0.4,0.3-0.7,0.7-0.7s0.7,0.3,0.7,0.7v19
		C300.6,82.1,300.3,82.4,299.9,82.4z"/>
	<path class="st0" d="M299.9,63.4h-34.2c-0.4,0-0.7-0.3-0.7-0.7c0-0.4,0.3-0.7,0.7-0.7h34.2c0.4,0,0.7,0.3,0.7,0.7
		C300.6,63.1,300.3,63.4,299.9,63.4z"/>
	<path class="st0" d="M265.7,63.8c-0.1,0-0.3,0-0.4-0.1c-0.6-0.2-0.8-0.9-0.6-1.4l6.2-14.5c0.2-0.6,0.9-0.8,1.4-0.6
		c0.6,0.2,0.8,0.9,0.6,1.4l-6.2,14.5C266.6,63.6,266.2,63.8,265.7,63.8z"/>
	<path class="st0" d="M299.9,63.8c-0.4,0-0.8-0.2-1-0.7l-6.2-14.5c-0.2-0.6,0-1.2,0.6-1.4c0.6-0.2,1.2,0,1.4,0.6l6.2,14.5
		c0.2,0.6,0,1.2-0.6,1.4C300.2,63.8,300.1,63.8,299.9,63.8z"/>
	<path class="st0" d="M334.1,82.4H231.9c-0.4,0-0.7-0.3-0.7-0.7c0-0.4,0.3-0.7,0.7-0.7h102.2c0.4,0,0.7,0.3,0.7,0.7
		C334.8,82.1,334.5,82.4,334.1,82.4z"/>
	<path class="st0" d="M283,24.1c-0.6,0-1.1-0.5-1.1-1.1V10.3c0-0.6,0.5-1.1,1.1-1.1c0.6,0,1.1,0.5,1.1,1.1V23
		C284.1,23.6,283.6,24.1,283,24.1z"/>
	<path class="st0" d="M334.1,135.3H231.9c-0.6,0-1.1-0.5-1.1-1.1V81.7c0-0.1,0-0.3,0.1-0.4l12.8-33.5c0.2-0.4,0.6-0.7,1-0.7h26.6
		L282,22.6c0.2-0.4,0.6-0.7,1-0.7c0,0,0,0,0,0c0.4,0,0.8,0.3,1,0.7l10.4,24.5h26.9c0.5,0,0.9,0.3,1,0.7l12.8,33.5
		c0,0.1,0.1,0.3,0.1,0.4v52.5C335.2,134.8,334.7,135.3,334.1,135.3z M233,133.1h100V81.9l-12.4-32.6h-26.9c-0.4,0-0.8-0.3-1-0.7
		L283,25.8l-10,22.9c-0.2,0.4-0.6,0.7-1,0.7h-26.5L233,81.9V133.1z"/>
</g>
</svg>
