<?xml version="1.0" encoding="utf-8"?>
<!-- Generator: Adobe Illustrator 23.0.5, SVG Export Plug-In . SVG Version: 6.00 Build 0)  -->
<svg version="1.1" id="Layer_1" xmlns="http://www.w3.org/2000/svg" xmlns:xlink="http://www.w3.org/1999/xlink" x="0px" y="0px"
	 viewBox="0 0 546 370" style="enable-background:new 0 0 546 370;" xml:space="preserve">
<style type="text/css">
	.st0{fill:#6C6D6D;}
	.st1{fill:#A899C9;}
	.st2{fill:#92C26E;}
	.st3{fill:#F9DA7F;}
	.st4{fill:#BADFF0;}
	.st5{fill:#FFFFFF;}
</style>
<polygon class="st0" points="351.4,285.4 353.4,289.7 353.8,291.7 357.7,292.8 355.5,296.6 352.6,296.1 352,298.7 347.2,298.1 
	343.2,302.6 339.3,302.6 331,306.6 330,308.1 329.8,311.3 324.4,312.4 318.9,317.2 319.7,321 323.1,322.2 324.9,321.4 327.2,319.1 
	333.2,319 342.2,326.9 345.5,327 347.9,326.4 355,331.3 356.9,338.4 356.3,342.3 353.3,344 353.1,345.9 353.6,350 350.4,353.1 
	349.1,355.4 351,357.5 356,358.3 358.2,361.5 363.2,363.1 364.2,360.1 366.5,362.7 370.5,361.5 375.4,357.3 378.7,354 382.5,346.2 
	391.7,341.5 396,341.8 398.3,339 402.3,342.3 403.5,340.9 404,337.3 406.4,335.9 407.8,334 410.7,333.4 411.9,328.7 415.9,325.3 
	419.7,325 426,331 430.8,330.7 433,327.2 438.4,329.5 442.1,327.1 445,326.1 442.2,321.4 444.1,315.7 446,313.3 450.3,312.9 
	449.4,310.5 441.8,309.9 432.8,309.2 429.9,316.1 426.2,313.8 424.4,311.4 421,315.7 416.5,317.9 411.7,321.4 405,318.5 
	401.4,317.9 397.7,313.9 400.5,309.7 398.1,305.3 392.9,303.5 391.8,301.4 388.1,301.4 388.1,297.3 384.3,295.9 382,293.3 
	378.9,292.6 377.5,289.4 372.7,288.6 370.4,293.4 368.1,291.9 367.8,287.6 366.3,286.5 363.9,289.8 358.1,284.5 355.1,281.5 "/>
<polygon class="st1" points="79.1,78 82.1,76.3 87.1,80.8 84.9,84.5 85.8,86.6 88.7,85.8 92.4,90.4 97.2,89.3 102,90.4 103.6,89.8 
	103.6,88 101.7,86.8 102.9,85.1 103.5,82.3 107.7,82 107.7,79.2 109.6,79.5 109.5,77.8 111.6,76.6 117.2,75.9 123.9,78.5 
	124.7,76.8 124.4,72.6 126.9,71.6 128.7,69.7 128.7,65.9 131.9,64.6 131.1,61.8 128,61.7 127.1,58.5 130.9,56.7 131.5,54.9 
	127,52.3 125,47.3 118.4,47.3 118.4,41.8 117.4,39.6 119.6,38.4 119.5,35.6 117.5,33.9 117.3,31.3 121,26.8 121,24.3 117.7,20.7 
	112.8,22.3 110.4,18.7 105.8,21.8 87.7,20.3 84.9,23.5 85,27.7 76.4,34 71,30.1 64.4,30.5 64.3,32.8 67.7,40 64.1,44.6 71.3,52.8 
	72.3,61.2 79.4,67.5 71.8,68.1 75,74.2 "/>
<polygon class="st1" points="223,57.7 223.2,60.6 228.9,63.5 229.1,68.3 227,70.2 230.1,74 229,76.4 231.2,77.5 231.8,81.9 
	228.6,85 229.9,88.4 227.8,93.4 231.9,94.4 232.8,98.7 234.4,101.6 235.1,107.3 233.1,110 233.6,112.3 236.1,114.9 232.3,118.9 
	226.4,121.2 226.4,124.7 228.1,127.8 230.1,129.4 227.5,131.5 229.4,133.5 228.3,135.6 229.2,136.5 229.1,138.9 227.1,140.9 
	233.4,146.3 233.6,149 237.2,148.9 239.3,144.9 241.4,144.9 245.4,141.3 247.4,144.1 249.1,144.1 252.2,145.7 253.6,141.4 
	258.1,141.7 260.5,139 262.1,142 263.6,141 267.5,141.7 268.1,139.2 271.5,135.6 274.6,131.6 272.8,129.1 275,128 274.6,120.8 
	276.9,116.6 282.2,115.4 287.8,118.4 291,116.1 293.9,111.2 293.6,107.4 296.3,105.2 297.4,101.1 300,100.5 302.1,95.8 297.2,91.8 
	298.8,88.3 293.9,84.8 286.2,89.8 280,90.3 275,86.6 276,83.4 271.2,78.8 262.6,79.3 263.4,75.1 260.4,72.3 258.2,68.7 259.2,62.8 
	254.5,56.5 254.4,56.5 251.5,54.4 249.8,48.1 247.5,46.4 239.8,46.1 237.6,48.9 234.1,48.4 233.7,45.6 231.6,45.8 227.5,51.7 
	225.6,51.4 226.6,54 "/>
<polygon class="st1" points="169.5,149.3 172.2,147.2 175.7,150 178.3,148.9 178.6,145.7 177.7,139.7 174.8,134.3 176,132.2 
	176.9,129 177.2,127.1 176,125.1 178.3,122.8 174.4,119.9 170.1,115.5 171.4,109.4 173.8,108.7 174.1,104.1 173,99.8 171.1,101.2 
	167.4,97.7 162.1,91.9 164.5,89.1 162.6,84.6 160.9,84.8 158.4,85.2 155.3,87.2 152.5,86.9 148.2,91.4 144.2,96 141.4,97.9 
	138.8,97.9 136.5,101.5 134.2,101.1 134.9,103.1 133.9,106.5 132.1,109.8 131.7,113.9 133.4,118.6 133.8,125.6 130.2,129.4 
	131.9,134.6 132.7,140.4 130.7,143.8 131.9,148.7 130.7,153 130.4,158.9 131.5,161.7 130.8,167.7 135.1,174.1 138.3,174.3 
	139.4,178.1 140.3,177.8 140.5,172.9 142.7,173 143.7,174.6 144.7,171.4 148,171.7 149.3,174.8 151.2,172.4 153.1,172.8 
	153.5,174.4 155.8,174.3 157.2,172.5 159.6,174.3 161.4,171.6 164.5,166 164.2,154.3 167.1,150 "/>
<polygon class="st1" points="174.7,48.2 172.9,46.8 172.9,50.6 170.6,52.3 171.3,55.1 169,58.9 168.4,62.5 163.9,65.1 163.7,69.1 
	165.1,71.3 164.1,73.6 166.2,77.3 164.1,80.8 163.3,84.1 165.6,89.2 163.3,91.9 168,97.1 171.1,100 173.5,98.3 175,104 174.6,109.4 
	172.2,110.1 171.1,115.2 175,119.3 179,122.3 182,121.3 186.9,121.4 191.2,120.1 194.1,121.6 196.8,118.9 201.2,120.6 204.6,120.3 
	207.4,117.5 211.4,116.9 212.3,122.9 211.4,126.9 213.5,130.1 219.6,130.1 224.2,127.5 227,127.6 225.5,124.9 225.5,120.6 
	231.8,118.2 234.9,114.9 232.8,112.7 232.1,109.8 234.2,107.1 233.6,101.9 232,99 231.2,95.2 226.5,94 228.9,88.4 227.6,84.7 
	230.9,81.6 230.4,78.1 227.9,76.8 229.1,74.1 225.8,70.1 228.2,68 228,64.1 222.3,61.2 222.1,57.4 225.6,53.8 224.6,51.2 
	222.5,50.9 219.6,46.6 220,41.8 218,38.7 215.9,38.6 213.8,43.3 209.9,43.3 208.3,46.1 207.9,51.5 204.1,47.3 203.6,42.1 
	198.9,40.7 196.5,43.8 192.7,37.8 189.8,41.8 185.1,42.6 182.8,38.5 181.4,44.1 178.8,45.7 177.3,44.4 "/>
<polygon class="st1" points="93.9,151.6 97.4,151.7 98.3,153.4 100.5,154.6 101.9,158 107.3,157.8 112.5,161.6 113.2,166.3 
	116.3,167.6 120.3,171 123.9,168.9 126.3,170.6 128.4,174.4 133.2,175.5 134.3,174.5 129.9,167.9 130.6,161.8 129.5,159 
	129.9,152.9 131,148.7 129.7,143.7 131.8,140.2 131,134.8 129.2,129.1 132.9,125.3 132.5,118.8 130.9,114 131.3,109.6 133.1,106.2 
	134,103.2 132.8,100.1 133,96.9 128.3,96.4 125.3,97.4 121.2,100.9 115.8,100.6 113.1,100.1 111.6,102 110.9,107.9 110,112.1 
	105.5,114.6 101,114.3 99.6,116 100.3,120.1 96.5,120.6 94.2,124.3 90.1,125.5 88.3,128.1 90.5,130.1 91.2,134.8 92.6,139.7 
	91.5,142.4 91.3,144.5 94.8,144.5 95.5,146.5 92.5,148.5 "/>
<polygon class="st1" points="118.4,33.4 120.4,35.2 120.5,38.9 118.5,40 119.3,41.5 119.3,46.4 125.6,46.4 127.7,51.7 132.6,54.6 
	131.6,57.3 128.2,58.9 128.7,60.8 131.8,60.9 132.9,65.1 129.6,66.4 129.6,70.1 127.4,72.4 125.3,73.2 125.6,76.9 124.3,79.6 
	117,76.8 111.9,77.4 110.4,78.3 110.6,80.6 108.5,80.3 108.5,82.8 104.2,83.1 103.8,85.4 103,86.6 104.5,87.6 104.4,90.3 
	102.4,91.2 101.5,93.3 101.9,94 104.2,92.7 105.5,94.9 104.5,96.8 104.3,100.7 106.3,104.2 110.4,104.6 110.8,101.7 112.7,99.2 
	115.9,99.7 120.9,100 124.9,96.6 128.2,95.5 133.9,96.1 133.7,99.9 133.8,100.2 136.1,100.5 138.4,97.1 141.2,97.1 143.6,95.3 
	147.5,90.8 152.1,85.9 155.1,86.3 158.1,84.4 160.8,83.9 162.5,83.8 163.2,80.4 165.2,77.2 163.2,73.6 164.1,71.4 162.8,69.4 
	163,64.6 167.6,61.9 168.1,58.6 170.3,55 169.6,51.9 172.1,50.1 172,44.9 174.5,46.9 176.8,43.6 177.5,39.7 175.5,39.9 173.1,37.3 
	169.6,40.4 167,40 166.6,35.6 164.1,34.7 164.1,31.5 160.2,30.5 158.8,32.6 155.4,32.6 149.9,28.5 144.1,28.9 142.2,26.3 
	136.8,26.4 133.7,22.2 127.8,22.6 126.1,21.4 121.9,24.3 121.9,27.1 118.2,31.6 "/>
<polygon class="st1" points="33.4,146.4 34.9,150.3 39.7,151.3 43.1,156.1 47,156.8 50,159.9 51.2,155.5 51.3,149.7 54.1,146.8 
	57.3,142 60.3,142.9 64.4,141.6 70,141.8 74.6,140.9 78.2,141.3 79.1,140 76.5,138.6 76.2,135.2 77.6,131.1 78.3,126.7 81.8,125.6 
	86.3,126.3 87.6,127.5 89.5,124.7 93.6,123.6 96,119.8 99.3,119.4 98.6,115.8 100.6,113.4 105.3,113.7 109.2,111.5 110.1,107.8 
	110.3,105.4 105.8,105.1 103.4,100.9 103.6,96.5 104.5,94.9 103.9,93.9 101.7,95.1 100.5,93.4 101.4,91.2 97.2,90.2 92,91.4 
	88.4,86.8 85.3,87.6 83.9,84.4 86,81 82,77.3 78.9,79 75.1,75.5 75.4,80.5 71.6,85.1 63,85.7 59.7,91 49.2,99.1 43,106.1 
	32.7,115.2 28.3,121.3 28.8,124.8 32,129.5 28.9,136 32.8,140.1 "/>
<polygon class="st2" points="292.7,201.1 297.4,204.9 296.3,209.8 302.3,209.5 304.7,212.4 308.1,208.7 312.8,209.6 317.2,211 
	321.1,209.3 321.3,205.4 322.4,200.7 325.3,201.9 329.3,198.1 332.4,199.1 340.4,191.6 345.5,187.6 342.9,176.9 352.7,170.4 
	347.8,167.9 345.7,164.9 348.6,163.5 353.7,164.1 354.9,163.4 350.2,159.7 345.3,159.8 339.2,158.6 338.1,153.7 332.8,151.9 
	324.3,151.6 324.4,151.9 324.3,156.4 316.8,159.1 312.5,154.4 307.8,154.2 305.3,156.9 304.6,162.1 301,160 296.8,164.1 
	294.9,160.3 291.5,160 286.8,160.8 286.9,164.1 282.8,169.5 278.9,168.3 274.8,170.1 270.3,168.5 262.5,167.9 258.4,172.5 
	257.6,178.2 254,176.1 248.6,181.8 246.6,179.8 242.9,182.1 240.1,185.5 237.4,183.6 235.4,185.6 240.4,189.3 241.6,192 
	242.9,194.8 248.3,195 249.2,195.9 251.6,193.8 257.3,194.1 259.7,195.4 262,192.6 264.2,192.4 265.7,195.1 269.4,193.6 
	272.4,190.6 276.7,191.3 279,196.4 283.7,195.4 286.7,196.2 286.5,198.5 289.8,195.6 294.8,196 294.1,200 "/>
<polygon class="st2" points="444.5,168.3 441.5,170.2 440.6,166.3 439,166 438.5,168.2 435.3,168 433.3,165.8 430.2,171 
	427.1,171.5 426.5,167.2 422.5,164.2 422.2,160.6 417.9,159 417.3,154.2 414.7,152.6 410.6,155.9 405.9,153.5 400.3,153.4 
	392.4,146.2 387.6,146.3 383.7,146.3 380.6,146.7 377,148.9 373.3,150.2 368.4,155.2 367.2,158.6 368.8,161.4 367.7,165.9 
	362,165.7 357.3,164.3 355.7,163.9 353.9,165 348.8,164.4 347,165.3 348.4,167.2 354.5,170.3 343.9,177.3 346.5,188 341,192.2 
	332.9,199.8 332.5,203.7 334.3,205.9 333.7,212.3 330.9,215 331.2,216.5 333.4,219.1 336.1,218.6 341.2,220.2 342.3,222.5 
	347.7,218.1 351.8,222.1 358.5,221 364.1,219.9 369,221.5 372.7,219.8 378,217.5 382.5,218.2 389.3,217.4 390.1,210.5 387.5,209.1 
	388.1,205.5 386.1,204.9 385.2,202.7 387.7,199.9 385.4,198.2 386.2,192.4 388.8,193.1 391.4,191.6 399.8,191.5 402.7,190.6 
	405.9,192.5 410.8,189 415.2,192 419.4,189.9 419.9,192.2 422.6,192.5 422.5,195.6 424.9,198.5 423.9,201.3 424.7,202 427.5,200.8 
	430,202.7 431.5,201.3 435.5,201.3 436.4,199.5 439,197 437,195.1 437.6,189.4 442.4,189 443.2,190.8 446.1,190.8 446.8,188.1 
	445.5,186.4 447,185.3 447.1,181.7 443.8,179.8 443.5,172.5 445.4,169.2 "/>
<polygon class="st3" points="396.8,93.8 393.9,94.8 391.1,99 388,97.9 383.5,102 383.4,102 382.8,104.1 383.8,106 380.7,108.9 
	381.9,109.9 382.6,112.6 386.8,113.3 387.9,115.1 391.6,114.3 391.6,119.1 394.4,122.6 396.4,122.4 398,120.9 399.6,123.1 
	398.8,124.6 401.1,126.7 399.7,128.8 401,131.5 396.4,131.4 397.6,133.5 396.6,136.9 393.3,140.3 389,139.3 388.1,138.4 387,139.8 
	386.3,143 387.8,145.4 392.7,145.3 400.7,152.5 406.1,152.6 410.5,154.9 414.6,151.6 418.1,153.6 418.7,158.3 423,160 423.4,163.8 
	427.4,166.7 427.9,170.5 429.6,170.2 433.1,164.3 435.7,167.1 437.8,167.3 438.3,165.2 438.1,157.6 441.1,158.8 443.2,156.9 
	446.6,156.9 448.3,158.2 449.3,156.1 455,150.4 455.7,146.7 459,142.2 462.2,146.3 464.1,144.5 465.7,145.9 465.8,148.4 
	469.4,149.3 470.4,151.1 474,150.5 477.3,148.1 477.4,145.1 477.3,140.9 474.6,137.4 471.3,132.9 469.5,127.6 471.7,123.6 
	470.7,119.9 472.3,116.6 470.9,112.1 472.1,108.4 472.4,105.6 467,99.8 463.7,99.3 458.3,93.4 458.7,88.4 454.8,88.5 453.5,83.7 
	449.2,84.2 448.9,87.5 445.4,89.6 438.3,89.1 433.3,93.6 433,96.9 430,97.5 424.9,91.1 423.1,94.1 420.3,93.8 416.1,87.2 409,87.5 
	403.2,94.1 402.2,92.6 400.1,94.6 "/>
<polygon class="st2" points="363,90.8 361.7,86.1 357.2,89.3 352.5,86.6 347.6,90.1 342.9,88.8 337,88.8 334.2,86.8 332.8,88.1 
	328.8,88.3 322.8,93.9 319.1,95.7 313.2,95.3 309.8,93.1 308,94.5 305.2,97.2 302.8,96.3 300.9,100.8 306.2,104.7 306.9,108.7 
	311.9,113.2 310.9,118.6 315.5,120.8 316.1,124.2 322.4,129.4 320,140.8 323.9,150.8 332.9,151.1 338.9,153 340,157.9 345.4,158.9 
	350.5,158.8 355.9,163 357.5,163.4 362.2,164.9 367,165 367.9,161.5 366.3,158.7 367.6,154.8 372.8,149.5 376.6,148.1 380.4,145.9 
	383.7,145.5 386.8,145.4 385.4,143.2 386.2,139.4 388.1,137 389.5,138.5 393,139.3 395.8,136.4 396.6,133.6 394.9,130.5 
	399.6,130.6 398.7,128.7 399.9,126.8 397.7,124.8 398.6,123.2 397.9,122.2 396.8,123.3 394,123.5 390.8,119.4 390.8,115.4 
	387.4,116.1 386.3,114.1 381.8,113.4 381.1,110.4 379.4,109 382.7,105.8 381.8,104.1 382.5,101.9 380.4,101.7 376,104.1 
	368.7,104.8 369.8,99.5 365.8,96.4 366.1,93.1 "/>
<polygon class="st2" points="241.4,180.1 242.7,181.2 246.7,178.6 248.6,180.5 253.8,175 256.9,176.8 257.6,172.2 262.1,166.9 
	270.5,167.6 274.8,169.2 278.8,167.4 282.5,168.5 286,163.8 285.9,160 291.4,159.1 295.4,159.5 297.1,162.6 300.9,158.9 
	303.9,160.6 304.4,156.5 307.4,153.3 312.9,153.5 317,158 323.4,155.8 323.5,152 319.1,140.8 321.4,129.8 315.3,124.6 314.7,121.4 
	309.9,119.1 311,113.5 306.1,109.1 305.4,105.2 300.3,101.4 298.1,101.8 297.1,105.7 294.5,107.8 294.8,111.4 291.7,116.7 
	287.9,119.4 282.1,116.4 277.5,117.4 275.5,120.9 275.9,128.6 274.1,129.4 275.7,131.6 272.1,136.1 268.9,139.6 268.2,142.7 
	263.8,142 261.8,143.3 260.3,140.5 258.5,142.6 254.2,142.3 252.8,146.9 248.9,145 246.9,145 245.3,142.6 241.8,145.7 239.8,145.8 
	237.8,149.8 233.6,149.8 233.7,151.3 229.6,154.3 229.9,156.4 231.9,155.8 231.4,159.5 233.2,160 233.9,164.3 234.8,167.6 
	237.5,167.7 238,171.8 241.2,172 241.1,176.1 "/>
<polygon class="st3" points="337.8,17.5 335.2,20.2 335.2,24.1 329.1,27.1 327.4,30.3 327.6,34.1 329.6,35.3 330.3,45.6 326.2,49.3 
	328.5,54.3 325,59.4 325.5,61.7 331.5,65.6 332.1,71.5 330,73.7 331.8,77.7 328.5,81 330.5,83.8 329.2,87.4 332.4,87.3 334,85.6 
	337.3,87.9 343,87.9 347.4,89.1 352.5,85.6 357.2,88.2 362.2,84.7 363.8,90.3 367.1,92.7 366.8,96 370.7,99.2 369.8,103.8 
	375.7,103.2 380.3,100.9 383.2,101.1 387.8,96.8 390.7,97.9 393.3,94 396.8,92.9 399.8,93.6 401.6,91.9 399.6,89.1 399.9,86.8 
	395.4,86.1 394,78.8 395.6,73.2 390.2,64 391.7,61.9 390.3,60.2 386.1,61.9 384.9,55 380.1,55.1 375.6,57 370.8,57.4 370.5,54.1 
	365.3,54 361.9,55.8 359.5,53.6 361.6,49.7 357.1,46.7 359.4,44.1 359.4,40.8 354.7,35.8 357.5,32.3 363.1,31.3 363.4,28.7 
	354.1,19.6 353.9,13 345.4,5.1 339,9.9 337.4,6.1 335.5,5.9 333.4,13 "/>
<polygon class="st1" points="259.1,68.6 261,71.8 264.4,74.8 263.7,78.3 271.5,77.9 277,83.1 276,86.2 280.3,89.4 285.9,88.9 
	293.9,83.8 299.9,88 298.3,91.6 302.8,95.3 305,96.2 307.5,93.8 309.7,92.1 313.5,94.4 319,94.8 322.3,93.2 328.2,87.6 329.5,83.9 
	327.3,80.9 330.7,77.5 328.9,73.5 331.2,71.2 330.7,66.1 324.7,62.2 324.1,59.2 327.5,54.2 325.1,49.1 329.4,45.2 328.8,35.8 
	326.8,34.6 326.5,30.1 328.4,26.5 334.4,23.5 334.3,19.8 336.6,17.5 332.4,13.3 334.6,5.8 329.6,5.4 323.3,11.1 320.2,9.8 
	316.9,12.1 312.2,8.2 307.1,8.3 306,18.1 300.3,21.1 296.1,20.3 293.9,18.8 279.3,18.1 275.9,22.4 273.9,19.3 269.2,19.3 
	268.4,22.9 262.4,28.7 260.3,36.3 258,36.9 256.9,40.4 257,43.6 258.8,45.1 258.8,49.5 260.7,50.8 259.9,55.7 255.4,56.3 
	260.1,62.5 "/>
<polygon class="st2" points="457.7,239.1 458.4,236.1 454.4,233.8 449.9,230.4 450.5,225.6 454.5,225.3 455.3,222.1 458.4,221.1 
	459,217 454.9,215.8 450.9,212.6 445.8,212.4 443.9,208.5 439.6,204.2 437.5,199.6 437.1,200 436,202.1 431.9,202.1 430,203.8 
	427.4,201.8 424.5,203.1 422.9,201.5 423.9,198.7 421.5,195.9 421.7,193.3 419.2,193 418.8,191.2 415.1,193 410.8,190.1 406,193.5 
	402.6,191.5 400,192.4 391.6,192.5 388.9,194 386.9,193.5 386.3,197.8 389,199.8 386.2,202.9 386.7,204.2 389,204.9 388.5,208.6 
	391,210.1 390,218.1 382.5,219 378.1,218.4 373.1,220.5 369.7,222.2 371.7,224.9 371.7,229.5 374.6,231.3 376.8,228.1 379.2,231.7 
	379.2,237.3 382.2,241.9 381.8,244.9 386.2,246.5 388.7,251.3 384.2,256.6 388,257.9 386.5,261.9 393,264.6 397.3,265.5 399,272.7 
	401.6,270.6 403.1,267.2 404.8,271 406.8,271.5 415,263 422.4,255.1 430.6,254.2 433.1,254.2 435,256.9 439.9,250.8 444.1,249.3 
	447.4,247.7 450.5,249.8 452.4,245.9 454.8,244.3 454.6,240.4 "/>
<polygon class="st4" points="392.7,265.5 385.4,262.4 386.9,258.4 382.7,257 387.6,251.1 385.6,247.2 380.9,245.5 381.3,242.1 
	378.4,237.5 378.4,232 376.8,229.7 374.9,232.5 370.8,229.9 370.8,225.2 368.7,222.4 364.1,220.8 358.6,221.9 351.5,223 
	347.6,219.3 342,223.9 340.5,220.9 336.1,219.5 334.3,219.8 336,221 336.3,226.4 333.6,226.6 334.4,228 335.7,229.1 336,235.6 
	334.8,237.1 330.9,238.4 329.3,241.4 333.4,243.7 334.3,246.8 332.2,247.1 332.2,250.2 328.4,250.9 328.4,254 323.2,254.9 
	321.7,251.9 318.8,251.9 317.5,253.9 313.4,254.5 312.8,256.9 309.9,254.9 308.7,256.1 307.7,258.2 302,258.7 302.8,260.8 
	307.4,264.5 311.6,263.8 312.1,265.1 318,265.9 313.9,271.5 309.1,268.1 303.3,267.7 295.5,267.5 293.1,266 288.9,267.6 
	292.3,271.7 296.5,269.4 300.7,271.3 305.2,270.6 306.1,274.3 300.5,276.5 297.8,275.5 295.7,277.6 296.3,279.1 300.6,279.7 
	305.4,279.1 308.3,282.6 311.2,282.3 313.5,287.1 318.1,286.7 323.4,284.4 328.6,284.8 334.5,284.5 336.4,281.8 337.9,284.2 
	341.4,279.7 342.7,285.1 346.2,285.6 348.4,286.8 351.4,284.1 351.4,284.1 354.9,280.4 357.2,276.8 360,279.7 362.5,277.5 
	366.9,282.1 370.3,275.2 374.9,281.8 376.5,279 379.9,281.7 381.5,283.7 379.7,285.4 381.5,288.8 384,288.1 385,284.4 384.2,280.7 
	387.5,279.5 389.1,281.7 388.3,284.3 388.3,286.5 390.6,287.8 392.2,285.8 392.6,282.2 391.5,278.7 392.8,274.4 394.8,276.2 
	398.3,273.4 396.6,266.3 "/>
<polygon class="st2" points="510.1,186.9 504.3,186.7 503.3,182.3 499.1,182 496.5,176.6 492.5,177.3 490.6,175.5 492.2,172.8 
	490.7,170.1 486.9,168.5 484.7,162.8 485.3,157.8 485,152.9 482.3,149.4 477.8,148.8 474.4,151.3 470,152.1 468.8,150 464.9,149 
	464.9,146.3 464.1,145.6 462,147.6 459,143.7 456.5,147 455.9,150.8 450.1,156.6 448.6,159.5 446.3,157.8 443.6,157.8 441.3,159.8 
	439,158.9 439.2,165.1 441.3,165.5 442.1,168.8 444.6,167.1 446.5,169 444.4,172.7 444.6,179.3 448,181.2 447.9,185.8 446.8,186.6 
	447.8,187.9 446.8,191.7 442.7,191.6 441.8,190 438.4,190.2 437.9,194.8 440.3,196.9 438.2,199 440.4,203.7 444.6,208 446.3,211.6 
	451.3,211.7 455.3,215 460,216.4 459.2,221.8 456,222.8 455.3,226.1 451.3,226.5 450.8,230 454.9,233 459.4,235.7 458.5,239.8 
	455.5,241 455.7,243.7 460.9,240.2 463.7,239.2 465.6,240.8 470.6,231.8 473.5,230.7 475,232.4 478.3,232.1 479.6,230.2 
	488.1,230.1 489.7,233.2 491.2,228.6 489.6,224.7 493,221.2 489.1,220.1 491.8,215.5 491.8,206.7 496.7,204 500.6,203.5 
	504.8,200.5 506.3,192.2 511.6,191.6 511.3,188.2 "/>
<polygon class="st2" points="537.6,170 533,171.3 534.8,166.3 531.9,162.9 532.1,158.6 526.4,157.7 526.1,150.9 529.9,146.6 
	534.6,147.3 536.9,145.6 536.5,144 533.5,145.5 530.6,143.1 527.1,143 524,141.1 524.8,137.5 530.8,135.7 531.8,132.1 536.2,126.6 
	535.6,121.9 530.8,116.7 534.2,111.4 530.3,112.3 526.3,116.5 523.5,114.4 519.3,114.6 517.7,109.1 514.1,107.9 510.3,109.9 
	505.4,103.2 501,107.8 496.1,104.8 493,104.8 490.2,101.4 485.1,102.3 480.3,101.2 479.8,98 477.5,97.5 476.9,104 473.2,105.8 
	473,108.5 471.8,112.1 473.3,116.7 471.6,120 472.7,123.7 470.4,127.7 472,132.5 475.3,136.9 478.1,140.5 478.3,145.1 478.2,148 
	482.8,148.5 485.8,152.6 486.2,157.8 485.6,162.7 487.6,167.8 491.3,169.4 493.2,172.8 491.8,175.4 492.7,176.3 497,175.7 
	499.6,181.2 504,181.4 505,185.8 510.5,186 512.1,187.9 512.5,191.7 515,193.5 518.9,190.9 520.8,190.3 523.3,193.1 527.5,191.1 
	532.3,192 535.1,190.3 533.5,181.9 534.6,178.5 535.2,173.6 538.9,171.5 "/>
<polygon class="st1" points="76.7,187.4 76.8,182.2 72.1,177.3 69.5,179 66.9,177.1 66.8,170.5 63.1,172.1 59.1,168.7 57.2,164 
	53.5,161.3 50,161.2 46.5,157.6 42.6,156.9 39.2,152.1 34.2,151.1 32.4,146.3 28.6,142.7 25.2,142.4 24.3,140.5 22.9,140.6 
	21.9,145.6 15.9,150.2 14.7,158.2 13.3,160.4 9.8,160.8 8,164 8.4,168.6 11.8,168.8 14,177.4 19.3,177.8 21.4,185.1 26.2,183.2 
	28.9,190.1 33,190.1 37.1,184.8 44.9,192.8 47.9,190.7 56.1,196.4 60.3,193.5 66.8,199.9 73.1,195.1 79,196.2 79.7,192.9 
	79.9,190.4 "/>
<polygon class="st1" points="164.4,172.2 162,172.3 159.8,175.6 157.4,173.7 156.2,175.1 152.8,175.3 152.4,173.5 151.6,173.3 
	149,176.6 147.4,172.5 145.3,172.4 143.9,176.7 142.2,173.9 141.3,173.8 141.1,178.4 138.8,179.3 137.6,175.1 135,175 133.4,176.4 
	127.8,175.2 125.6,171.2 123.9,169.9 120.2,172 115.9,168.3 112.9,167.1 110.3,169.2 111.6,172.2 111.4,176.1 108.2,179.5 
	106.9,178.2 103.7,179 98.9,183.7 94.1,188.4 89.7,193.5 89.2,198.9 90.8,201.2 88.2,207.2 92.1,207.2 99.8,200 114.2,200 
	116.5,197.3 125.6,198.2 130.9,189 143.1,187.9 145.8,180.5 151.5,183.9 153.9,181.5 158.7,183.4 161.8,180.1 164.7,181.5 
	167.7,178.8 166.5,174.8 "/>
<polygon class="st1" points="88.3,199.1 88.8,193.1 93.4,187.8 98.3,183.1 103.2,178.3 107.2,177.2 108.2,178.3 110.5,175.8 
	110.7,172.4 109.2,168.9 112.4,166.4 111.7,162.1 107,158.7 101.4,158.9 99.8,155.2 97.7,154 96.9,152.6 93.4,152.5 91.4,148.3 
	94.5,146.1 94.2,145.4 90.3,145.4 90.6,142.2 91.7,139.6 90.4,135 89.7,130.5 85.9,127.1 81.9,126.5 79.1,127.4 78.4,131.4 
	77.1,135.3 77.3,138 80.3,139.6 78.7,142.2 74.6,141.8 70,142.7 64.6,142.5 60.3,143.8 57.6,143 54.8,147.3 52.2,150 52.1,155.6 
	50.8,160.3 53.8,160.4 57.9,163.5 59.8,168.1 63.3,171.1 67.6,169.2 67.8,176.6 69.6,178 72.2,176.1 77.7,181.8 77.6,187 80.8,190 
	80.6,193 79.8,196.6 87.5,206.7 89.8,201.3 "/>
<polygon class="st4" points="308,255.6 309.8,253.7 312.2,255.4 312.6,253.7 317,253.1 318.4,251.1 322.3,251.1 323.7,253.9 
	327.5,253.2 327.5,250.1 331.3,249.4 331.3,246.4 333.2,246.1 332.6,244.3 328.2,241.7 330.3,237.6 334.3,236.4 335.1,235.3 
	334.8,229.5 333.7,228.6 332.1,225.9 335.4,225.6 335.1,221.5 332.9,219.9 330.4,216.9 329.9,214.6 332.8,211.9 333.4,206.2 
	331.6,204 332,199.9 329.5,199.1 325.5,202.9 323,201.9 322.2,205.5 322,209.9 317.3,211.9 312.6,210.5 308.4,209.6 304.7,213.7 
	301.9,210.4 295.2,210.8 296.5,205.3 291.4,201.2 293.3,199.5 293.8,196.8 290.1,196.5 285.5,200.6 285.8,196.9 283.7,196.3 
	278.5,197.4 276.1,192.1 272.6,191.5 269.9,194.3 265.3,196.3 263.7,193.3 262.5,193.4 259.9,196.5 257.1,195 251.9,194.7 
	249.8,196.6 250.6,197.5 247.6,199.2 249.1,202.6 251.4,204.4 250.9,209.5 254.2,212 253.4,217.9 257.5,218.9 261.7,218 
	262.8,219.6 264.4,217.6 268.3,222.7 267,227.1 266.7,231.4 269,234.8 272.3,235.4 274.1,234 277.2,236 275.1,238.4 278.6,239.9 
	281.1,242.9 279.3,248.3 274.2,248.2 272.7,249.3 273.1,251.2 277.7,254.9 277.7,259.1 275.8,262.4 278.8,262.4 281.1,264.2 
	286,259.6 286.7,256.3 289.4,258 289.1,260.7 288.9,263.6 290,263.3 291.8,261.1 296.9,263.8 299.6,261.3 298.5,257.2 301.1,256.3 
	301.6,257.9 307.1,257.4 "/>
<polygon class="st4" points="276.8,255.3 272.3,251.7 271.8,248.9 273.9,247.3 278.7,247.4 280.1,243.1 278,240.6 273.6,238.7 
	275.9,236.1 274.2,235 272.5,236.4 268.5,235.6 265.8,231.6 266.2,227 267.4,222.9 264.4,219 262.8,221.1 261.3,219 257.4,219.8 
	252.5,218.5 253.3,212.4 249.9,209.9 250.5,204.8 248.4,203.2 246.5,198.9 249.2,197.3 247.9,195.8 242.4,195.7 240.9,192.8 
	237.5,194 234.5,192.5 231.6,193.5 231.1,197.5 225.1,197.9 223.8,195.9 221.4,198 217.1,197.5 214.1,194.7 211.9,195 211.8,198.5 
	207.7,201 210.7,205.2 213.9,201.8 217.2,205.3 217.2,210 218.8,213.8 216.7,218.8 214.5,223.7 220,226.7 223.9,234.5 226.3,230.8 
	229.4,233 228.6,235.6 227.8,241.8 229.8,245 228,249.1 233,252.3 237.2,252 239.8,257.4 238.8,263.4 239.7,265.8 238.4,268 
	243.4,272.4 241.5,275.9 235,273.9 231.9,270.3 228.3,275.3 223.4,272 223.2,269.6 216,276.2 214.7,272.4 215,267.5 210.7,268.7 
	207.7,271.7 206.9,279.4 211.1,282.5 207.7,286.7 208.3,291.4 201.5,293.2 200.8,299.3 196,301.3 192.8,305.2 194.4,309.2 
	193.4,313.6 186.8,312.6 183.8,313.7 186,316.8 187.1,321.4 193.8,324.5 200.3,325.9 201.5,318.2 204.4,320.1 205.5,323.8 
	215.8,316.3 223.3,316.3 228.7,319.4 229.7,325.6 231.6,322.2 231,317 227.4,314.3 229,312.3 226.3,310 226.6,304.1 228.2,298.3 
	231.7,300.7 231.6,306.3 233.2,308.1 233.8,306 233.3,302.6 237.1,301.9 236.8,298.8 240.6,296.4 242.3,298.8 244.3,295.3 
	246.2,298.1 250.7,291.4 253.8,288.6 250.5,283.6 244.6,281.7 243,278.5 243.1,276.6 245.5,272.4 250.5,273.9 253.9,280.5 
	256.2,284.6 260,279.9 259.6,275.2 263.9,273.1 264.2,266.8 269.3,265.7 274,262.4 274.8,262.4 276.8,258.9 "/>
<polygon class="st1" points="211.1,194.2 214.5,193.8 217.5,196.7 221.1,197.1 223.9,194.6 225.6,197 230.3,196.7 230.7,192.8 
	234.6,191.6 237.5,193.1 240.6,192 239.6,189.9 234.1,185.8 237.3,182.4 239.9,184.3 242,181.8 240.5,180.5 240.3,176.2 
	240.3,172.9 237.2,172.6 236.7,168.5 234.1,168.5 233,164.5 232.4,160.7 230.4,160.1 230.9,157 229.1,157.6 228.7,153.9 
	232.8,150.9 232.6,146.7 225.9,141 228.2,138.5 228.3,136.8 227.3,135.8 228.3,133.7 226.2,131.4 228.7,129.4 227.6,128.5 
	224.4,128.4 219.9,131 213.1,131 210.5,127.1 211.4,122.9 210.7,117.9 207.8,118.3 205,121.1 201.1,121.5 197,120 194.3,122.6 
	191.1,121.1 187.1,122.2 182.1,122.1 179.2,123.2 177.1,125.2 178.2,126.9 177.7,129.2 176.8,132.6 175.8,134.3 178.5,139.4 
	179.4,145.7 179.1,149.5 175.6,151 172.2,148.3 169.9,150.1 167.6,150.8 165.1,154.6 165.4,166.3 162.6,171.4 164.9,171.3 
	167.3,174.4 168.6,178.6 171.9,181.1 175.9,180.6 180.5,186.2 184.5,186.4 184.5,189.7 191.1,190.4 195.1,196.3 198.5,194 
	205.5,195.4 207.1,200 207.2,200.2 210.9,198 "/>
<path class="st5" d="M263.8,102.5c0,2.5-2,4.5-4.5,4.5s-4.5-2-4.5-4.5s2-4.5,4.5-4.5S263.8,100.1,263.8,102.5z"/>
<path class="st5" d="M424.1,110.7c0,2.1-1.7,3.7-3.9,3.7c-2.1,0-3.9-1.7-3.9-3.7c0-2.1,1.7-3.7,3.9-3.7
	C422.3,107,424.1,108.7,424.1,110.7z"/>
<path class="st5" d="M388.5,182c0,2.1-1.7,3.7-3.9,3.7c-2.1,0-3.9-1.7-3.9-3.7c0-2.1,1.7-3.7,3.9-3.7
	C386.8,178.3,388.5,179.9,388.5,182z"/>
<path class="st5" d="M261.8,267.9c0,2.1-1.7,3.7-3.9,3.7c-2.1,0-3.9-1.7-3.9-3.7c0-2.1,1.7-3.7,3.9-3.7
	C260.1,264.2,261.8,265.9,261.8,267.9z"/>
</svg>
