<?xml version="1.0" encoding="utf-8"?>
<!-- Generator: Adobe Illustrator 22.0.1, SVG Export Plug-In . SVG Version: 6.00 Build 0)  -->
<svg version="1.1" id="Ebene_1" xmlns="http://www.w3.org/2000/svg" xmlns:xlink="http://www.w3.org/1999/xlink" x="0px" y="0px"
	 viewBox="0 0 1057 158" style="enable-background:new 0 0 1057 158;" xml:space="preserve">
<style type="text/css">
	.st0{fill:#FFFFFF;}
	.st1{fill:none;stroke:#FFFFFF;stroke-miterlimit:10;}
</style>
<g>
	<g>
		<path class="st0" d="M453.4,55.2c-4.3,0-7.9-3.5-7.9-7.9c0-3.9,2.9-6.1,7.9-6.1c5,0,7.9,2.2,7.9,6.1
			C461.2,51.7,457.7,55.2,453.4,55.2z M453.4,43.4c-5.7,0-5.7,3-5.7,4c0,3.2,2.6,5.7,5.7,5.7c3.2,0,5.7-2.6,5.7-5.7
			C459.1,46.3,459.1,43.4,453.4,43.4z"/>
		<path class="st0" d="M434.3,55.2c-4.3,0-7.9-3.5-7.9-7.9c0-3.9,2.9-6.1,7.9-6.1c5,0,7.9,2.2,7.9,6.1
			C442.1,51.7,438.5,55.2,434.3,55.2z M434.3,43.4c-5.7,0-5.7,3-5.7,4c0,3.2,2.6,5.7,5.7,5.7s5.7-2.6,5.7-5.7
			C440,46.3,440,43.4,434.3,43.4z"/>
		<path class="st0" d="M446.5,48.4c-0.6,0-1-0.5-1-1c0-0.7-1-1-1.7-1c-0.7,0-1.7,0.3-1.7,1c0,0.6-0.5,1-1,1c-0.6,0-1-0.5-1-1
			c0-1.8,1.6-3,3.8-3c2.2,0,3.8,1.3,3.8,3C447.6,47.9,447.1,48.4,446.5,48.4z"/>
		<path class="st0" d="M428.3,45.6h-2.1c-0.6,0-1-0.5-1-1s0.5-1,1-1h2.1c0.6,0,1,0.5,1,1S428.8,45.6,428.3,45.6z"/>
		<path class="st0" d="M461.5,45.6h-2.1c-0.6,0-1-0.5-1-1s0.5-1,1-1h2.1c0.6,0,1,0.5,1,1S462,45.6,461.5,45.6z"/>
		<path class="st1" d="M431.5,71.9"/>
		<path class="st0" d="M471.1,135.7h-84.6c-1,0-1.8-0.8-1.8-1.8c0-17.3,7.1-42.7,7.4-43.8c0.1-0.3,0.2-0.6,0.5-0.8
			c3.4-3.4,22.4-9.2,29.9-11.5c0.1-1.8,0.9-4.9,3.6-7.7v-3.7c-1.2-2.3-2-4.8-2.3-7.2l-0.5-3.3c-2-0.6-3.6-2.8-4.5-6.3
			c-0.9-3.5-1.4-9.6,1.3-11.1c0.1,0,0.1-0.1,0.2-0.1c-0.1-0.3-0.2-0.5-0.3-0.8c-1.1-2.8-2.2-5.4-1.8-7.4c0.4-2.1,2-3.6,3.4-4.9
			c0.8-0.8,1.6-1.4,2-2.2c0.4-0.8,0.7-1.7,1-2.8c0.5-1.9,1-3.9,2.6-5.3c1.7-1.4,3.8-1.6,5.7-1.7c1.1-0.1,2.1-0.2,3-0.5
			c0.8-0.3,1.5-0.9,2.4-1.5c1.6-1.2,3.3-2.5,5.6-2.5c2.2,0,4,1.3,5.6,2.5c0.8,0.6,1.7,1.2,2.4,1.5c0.8,0.3,1.9,0.4,3,0.5
			c1.9,0.1,4.1,0.3,5.7,1.7c1.6,1.4,2.1,3.4,2.6,5.3c0.3,1.1,0.6,2.1,1,2.8c0.4,0.7,1.2,1.4,2,2.2c1.4,1.3,3,2.8,3.4,4.9
			c0.4,2.1-0.6,4.6-1.8,7.4c-0.1,0.3-0.2,0.6-0.3,0.8c0.1,0,0.1,0.1,0.2,0.1c2.7,1.5,2.2,7.7,1.3,11.1c-0.9,3.4-2.5,5.7-4.5,6.3
			l-0.5,3.3c-0.3,2.3-1.1,4.8-2.3,7.2v3.7c2.7,2.8,3.4,5.9,3.6,7.7c4,1.2,15.6,4.8,23.1,7.9c0.9,0.3,1.3,1.4,1,2.3
			c-0.3,0.9-1.4,1.3-2.3,1c-8.4-3.4-22.4-7.6-23.9-8.1c-0.5-0.1-0.9-0.5-1.1-0.9c-0.1-0.3-0.2-0.6-0.2-1c0-0.1,0.2-3.9-3-6.9
			c-0.3-0.3-0.6-0.8-0.6-1.3V66c0-0.3,0.1-0.6,0.2-0.8c1.1-2.1,1.9-4.3,2.1-6.4l0.6-4.7c0.1-0.9,0.9-1.5,1.7-1.5h0.3
			c0.5,0,1-0.6,1.5-1.6c1.4-2.9,1.6-7.1,1.2-8.8c-0.3,0.2-0.6,0.3-1,0.3h-0.2c-0.6,0-1-0.3-1.4-0.7c-0.3-0.4-0.5-1-0.3-1.5
			c0.3-1.2,0.8-2.6,1.4-3.9c0.7-1.7,1.8-4.3,1.6-5.4s-1.2-2-2.3-3c-1-0.9-1.9-1.8-2.6-3c-0.7-1.2-1-2.5-1.4-3.7
			c-0.3-1.4-0.7-2.8-1.4-3.4s-2.2-0.8-3.7-0.9c-1.3-0.1-2.6-0.2-3.9-0.7c-1.2-0.4-2.2-1.2-3.2-1.9c-1.2-0.9-2.4-1.8-3.5-1.8
			c-1.1,0-2.3,0.8-3.5,1.8c-1,0.8-2.1,1.5-3.2,1.9c-1.2,0.5-2.6,0.6-3.9,0.7c-1.5,0.1-2.9,0.3-3.7,0.9s-1.1,2-1.4,3.4
			c-0.3,1.2-0.7,2.6-1.4,3.7c-0.7,1.2-1.7,2.1-2.6,3c-1.1,1-2.1,2-2.3,3c-0.2,1,0.9,3.7,1.6,5.4c0.6,1.4,1.1,2.8,1.4,3.9
			c0.1,0.6,0,1.1-0.3,1.5c-0.3,0.4-0.8,0.7-1.4,0.7h-0.2c-0.3,0-0.7-0.1-1-0.3c-0.3,1.8-0.2,6,1.2,8.8c0.5,1,1.1,1.6,1.5,1.6h0.3
			c0.9,0,1.7,0.6,1.7,1.5l0.6,4.7c0.3,2.1,1,4.3,2.1,6.4c0.1,0.3,0.2,0.6,0.2,0.8v4.8c0,0.5-0.2,1-0.6,1.3c-3.4,3.1-3,6.8-3,6.9
			c0,0.2,0,0.5-0.1,0.7c-0.2,0.6-0.7,1-1.2,1.2c-12.2,3.6-26.3,8.4-29.2,10.7c-1,3.5-6.7,25.1-7.1,40.5H471c1,0,1.8,0.8,1.8,1.8
			C472.9,135,472.1,135.7,471.1,135.7z M463.3,79.3L463.3,79.3L463.3,79.3z"/>
	</g>
	<g>
		<path class="st0" d="M543,135.7h-71.9c-1,0-1.8-0.8-1.8-1.8c0-19,4.8-46.6,12.2-47.1l10.4-2.1c0.2-1.7,0.7-3,1.1-4.3
			c0.6-1.6,1-3,1-5c0-1.9-0.4-2.7-1-3.7c-0.6-1.2-1.3-2.6-1.3-5.3c0-2.7,0.7-4.1,1.3-5.3c0.6-1,1-1.9,1-3.7s-0.4-2.7-1-3.7
			c-0.6-1.2-1.3-2.6-1.3-5.3c0-2.7,0.7-4.1,1.3-5.3c0.6-1,1-1.9,1-3.7c0-0.8-0.3-1.7-0.6-2.7c-0.5-1.6-1.1-3.3-0.6-5.1
			c0.5-1.9,1.9-3.1,3.2-4.2c0.8-0.7,1.4-1.3,1.9-1.9c0.3-0.6,0.6-1.6,0.8-2.6c0.3-1.7,0.7-3.4,2.1-4.8c1.3-1.3,3.2-1.7,4.8-2.1
			c1-0.2,1.9-0.4,2.6-0.8c0.6-0.3,1.2-1.1,1.9-1.9c1.1-1.2,2.3-2.7,4.2-3.2c1.8-0.5,3.5,0.1,5.1,0.6c1,0.3,1.9,0.6,2.7,0.6
			s1.7-0.3,2.7-0.6c1.6-0.5,3.3-1.1,5.1-0.6c1.9,0.5,3.1,1.9,4.2,3.2c0.7,0.8,1.3,1.4,1.9,1.9c0.6,0.3,1.6,0.6,2.6,0.8
			c1.7,0.3,3.4,0.7,4.8,2.1c1.3,1.3,1.7,3.2,2.1,4.8c0.2,1,0.4,1.9,0.8,2.6c0.3,0.6,1.1,1.2,1.9,1.9c1.2,1.1,2.7,2.3,3.2,4.2
			c0.5,1.8-0.1,3.5-0.6,5.1c-0.3,1-0.6,1.9-0.6,2.7c0,1.9,0.4,2.7,1,3.7c0.6,1.2,1.3,2.6,1.3,5.3c0,2.7-0.7,4.1-1.3,5.3
			c-0.6,1-1,1.9-1,3.7c0,1.9,0.4,2.7,1,3.7c0.6,1.2,1.3,2.6,1.3,5.3c0,2.7-0.7,4.1-1.3,5.3c-0.6,1-1,1.9-1,3.7c0,2,0.5,3.4,1,5
			c0.5,1.3,0.9,2.6,1.1,4.3l4.8,1c1,0.2,1.6,1.1,1.4,2.1c-0.2,1-1.1,1.6-2.1,1.4l-6.1-1.2c-0.8-0.1-1.4-0.8-1.4-1.7
			c-0.1-1.8-0.6-3.2-1-4.6c-0.6-1.7-1.2-3.6-1.2-6.2c0-2.7,0.7-4.1,1.3-5.3c0.6-1,1-1.9,1-3.7s-0.4-2.7-1-3.7
			c-0.6-1.2-1.3-2.6-1.3-5.3s0.7-4.1,1.3-5.3c0.6-1,1-1.9,1-3.7c0-1.8-0.4-2.7-1-3.7c-0.6-1.2-1.3-2.6-1.3-5.3
			c0-1.4,0.4-2.6,0.8-3.8c0.4-1.2,0.8-2.3,0.6-3.1c-0.2-0.8-1.1-1.7-2.1-2.5s-1.9-1.7-2.6-2.8c-0.7-1.2-0.9-2.4-1.2-3.7
			c-0.3-1.2-0.5-2.4-1.1-3c-0.6-0.6-1.8-0.8-3-1.1s-2.5-0.6-3.7-1.2c-1.1-0.6-2-1.6-2.8-2.6c-0.8-1-1.7-1.9-2.5-2.1
			c-0.8-0.2-1.9,0.1-3.1,0.6c-1.2,0.4-2.5,0.8-3.8,0.8c-1.4,0-2.6-0.4-3.8-0.8s-2.3-0.8-3.1-0.6c-0.8,0.2-1.7,1.1-2.5,2.1
			s-1.7,1.9-2.8,2.6c-1.2,0.7-2.4,0.9-3.7,1.2c-1.2,0.3-2.4,0.5-3,1.1c-0.6,0.6-0.8,1.8-1.1,3c-0.3,1.2-0.6,2.5-1.2,3.7
			c-0.6,1.1-1.6,2-2.6,2.8c-1,0.8-1.9,1.7-2.1,2.5c-0.2,0.8,0.1,1.9,0.6,3.1s0.8,2.5,0.8,3.8c0,2.7-0.7,4.1-1.3,5.3
			c-0.6,1-1,1.9-1,3.7c0,1.9,0.4,2.7,1,3.7c0.6,1.2,1.3,2.6,1.3,5.3s-0.7,4.1-1.3,5.3c-0.6,1-1,1.9-1,3.7s0.4,2.7,1,3.7
			c0.6,1.2,1.3,2.6,1.3,5.3c0,2.6-0.7,4.5-1.2,6.2c-0.5,1.4-1,2.8-1,4.6c0,0.8-0.6,1.5-1.4,1.7l-11.7,2.3c-0.1,0.1-0.3,0.1-0.5,0.1
			c-2.2,0.5-8.6,17.5-8.9,41.9h70.1c1,0,1.8,0.8,1.8,1.8C544.7,135,544,135.7,543,135.7z"/>
		<path class="st0" d="M531.6,55.2c-4.3,0-7.9-3.5-7.9-7.9c0-3.9,2.9-6.1,7.9-6.1c5,0,7.9,2.2,7.9,6.1
			C539.4,51.7,535.9,55.2,531.6,55.2z M531.6,43.4c-5.7,0-5.7,3-5.7,4c0,3.2,2.6,5.7,5.7,5.7c3.2,0,5.7-2.6,5.7-5.7
			C537.3,46.3,537.3,43.4,531.6,43.4z"/>
		<path class="st0" d="M512.4,55.2c-4.3,0-7.9-3.5-7.9-7.9c0-3.9,2.9-6.1,7.9-6.1c5,0,7.9,2.2,7.9,6.1
			C520.3,51.7,516.8,55.2,512.4,55.2z M512.4,43.4c-5.7,0-5.7,3-5.7,4c0,3.2,2.6,5.7,5.7,5.7c3.2,0,5.7-2.6,5.7-5.7
			C518.2,46.3,518.2,43.4,512.4,43.4z"/>
		<path class="st0" d="M524.8,48.4c-0.6,0-1-0.5-1-1c0-0.7-1-1-1.7-1s-1.7,0.3-1.7,1c0,0.6-0.5,1-1,1s-1-0.5-1-1c0-1.8,1.6-3,3.8-3
			s3.8,1.3,3.8,3C525.8,47.9,525.3,48.4,524.8,48.4z"/>
		<path class="st0" d="M506.4,45.6h-2.1c-0.6,0-1-0.5-1-1s0.5-1,1-1h2.1c0.6,0,1,0.5,1,1S507,45.6,506.4,45.6z"/>
		<path class="st0" d="M539.6,45.6h-2.1c-0.6,0-1-0.5-1-1s0.5-1,1-1h2.1c0.6,0,1,0.5,1,1S540.3,45.6,539.6,45.6z"/>
	</g>
	<g>
		<path class="st0" d="M609.8,55.2c-4.3,0-7.9-3.5-7.9-7.9c0-3.9,2.9-6.1,7.9-6.1c5,0,7.9,2.2,7.9,6.1
			C617.7,51.7,614.1,55.2,609.8,55.2z M609.8,43.4c-5.7,0-5.7,3-5.7,4c0,3.2,2.6,5.7,5.7,5.7c3.2,0,5.7-2.6,5.7-5.7
			C615.5,44.7,613.6,43.4,609.8,43.4z"/>
		<path class="st0" d="M590.6,55.2c-4.3,0-7.9-3.5-7.9-7.9c0-3.9,2.9-6.1,7.9-6.1c5,0,7.9,2.2,7.9,6.1
			C598.5,51.7,595,55.2,590.6,55.2z M590.6,43.4c-5.7,0-5.7,3-5.7,4c0,3.2,2.6,5.7,5.7,5.7c3.2,0,5.7-2.6,5.7-5.7
			C596.4,46.3,596.4,43.4,590.6,43.4z"/>
		<path class="st0" d="M603,48.4c-0.6,0-1-0.5-1-1c0-0.7-1-1-1.7-1c-0.7,0-1.7,0.3-1.7,1c0,0.6-0.5,1-1,1s-1-0.5-1-1
			c0-1.8,1.6-3,3.8-3c2.2,0,3.8,1.3,3.8,3C604,47.9,603.5,48.4,603,48.4z"/>
		<path class="st0" d="M584.7,45.6h-2.1c-0.6,0-1-0.5-1-1s0.5-1,1-1h2.1c0.6,0,1,0.5,1,1S585.3,45.6,584.7,45.6z"/>
		<path class="st0" d="M617.9,45.6h-2.1c-0.6,0-1-0.5-1-1s0.5-1,1-1h2.1c0.6,0,1,0.5,1,1S618.4,45.6,617.9,45.6z"/>
		<path class="st1" d="M587.9,71.9"/>
		<path class="st0" d="M657.4,135.7H543c-1,0-1.8-0.8-1.8-1.8c0-17.3,7.1-42.7,7.4-43.8c0.1-0.3,0.2-0.6,0.5-0.8
			c3.4-3.4,22.4-9.2,29.9-11.5c0.1-1.8,0.9-4.9,3.6-7.7v-3.7c-1.2-2.3-2-4.8-2.3-7.2l-0.5-3.3c-2-0.6-3.6-2.8-4.5-6.3
			c-0.9-3.5-1.4-9.6,1.3-11.1c0.1,0,0.1-0.1,0.2-0.1c-0.1-0.3-0.2-0.5-0.3-0.8c-1.1-2.8-2.2-5.4-1.8-7.4c0.4-2.1,2-3.6,3.4-4.9
			c0.8-0.8,1.6-1.4,2-2.2c0.4-0.8,0.7-1.7,1-2.8c0.5-1.9,1-3.9,2.6-5.3c1.7-1.4,3.8-1.6,5.7-1.7c1.1-0.1,2.1-0.2,3-0.5
			c0.8-0.3,1.5-0.9,2.4-1.5c1.6-1.2,3.3-2.5,5.6-2.5c2.2,0,4,1.3,5.6,2.5c0.8,0.6,1.7,1.2,2.4,1.5c0.8,0.3,1.9,0.4,3,0.5
			c1.9,0.1,4.1,0.3,5.7,1.7c1.6,1.4,2.1,3.4,2.6,5.3c0.3,1.1,0.6,2.1,1,2.8c0.4,0.7,1.2,1.4,2,2.2c1.4,1.3,3,2.8,3.4,4.9
			c0.4,2.1-0.6,4.6-1.8,7.4c-0.1,0.3-0.2,0.6-0.3,0.8c0.1,0,0.1,0.1,0.2,0.1c2.7,1.5,2.2,7.7,1.3,11.1c-0.9,3.4-2.5,5.7-4.5,6.3
			l-0.5,3.3c-0.3,2.3-1.1,4.8-2.3,7.2v3.7c2.7,2.8,3.4,5.9,3.6,7.7c7.5,2.3,26.5,8.1,29.9,11.5c0.2,0.2,0.3,0.5,0.5,0.8
			c0.3,1.1,7.4,26.5,7.4,43.8C659.2,135,658.4,135.7,657.4,135.7z M544.7,132.2h110.8c-0.4-15.4-6.1-36.9-7.1-40.5
			c-3-2.2-16.7-7-29.3-10.7c-0.4-0.1-0.8-0.4-1-0.8c-0.2-0.3-0.3-0.8-0.3-1.1c0-0.1,0.2-3.9-3-6.9c-0.3-0.3-0.6-0.8-0.6-1.3v-4.8
			c0-0.3,0.1-0.6,0.2-0.8c1.1-2.1,1.9-4.3,2.1-6.4l0.6-4.7c0.1-0.9,0.9-1.5,1.7-1.5h0.3c0.5,0,1-0.6,1.5-1.6
			c1.4-2.9,1.6-7.1,1.2-8.8c-0.3,0.2-0.6,0.3-1,0.3h-0.2c-0.6,0-1-0.3-1.4-0.7s-0.5-1-0.3-1.5c0.3-1.2,0.8-2.6,1.4-3.9
			c0.7-1.7,1.8-4.3,1.6-5.4c-0.2-1-1.2-2-2.3-3c-1-0.9-1.9-1.8-2.6-3c-0.7-1.2-1-2.5-1.4-3.7c-0.3-1.4-0.7-2.8-1.4-3.4
			c-0.8-0.6-2.2-0.8-3.7-0.9c-1.3-0.1-2.6-0.2-3.9-0.7c-1.2-0.4-2.2-1.2-3.2-1.9c-1.2-0.9-2.4-1.8-3.5-1.8s-2.3,0.8-3.5,1.8
			c-1,0.8-2.1,1.5-3.2,1.9c-1.2,0.5-2.6,0.6-3.9,0.7c-1.5,0.1-2.9,0.3-3.7,0.9c-0.8,0.6-1.1,2-1.4,3.4c-0.3,1.2-0.7,2.6-1.4,3.7
			c-0.7,1.2-1.7,2.1-2.6,3c-1.1,1-2.1,2-2.3,3c-0.2,1,0.9,3.7,1.6,5.4c0.6,1.4,1.1,2.8,1.4,3.9c0.1,0.6,0,1.1-0.3,1.5
			c-0.3,0.4-0.8,0.7-1.4,0.7h-0.1c-0.3,0-0.7-0.1-1-0.3c-0.3,1.8-0.2,6,1.2,8.8c0.5,1,1.1,1.6,1.5,1.6h0.3c0.9,0,1.7,0.6,1.7,1.5
			l0.6,4.7c0.3,2.1,1,4.3,2.1,6.4c0.1,0.3,0.2,0.6,0.2,0.8v4.8c0,0.5-0.2,1-0.6,1.3c-3.4,3.1-3,6.8-3,6.9c0,0.2,0,0.5-0.1,0.7
			c-0.2,0.6-0.7,1-1.2,1.2c-12.2,3.6-26.3,8.4-29.2,10.7C550.9,95.3,545.2,116.8,544.7,132.2z M619.7,79.3L619.7,79.3L619.7,79.3z"
			/>
	</g>
</g>
</svg>
