<?xml version="1.0" encoding="utf-8"?>
<!-- Generator: Adobe Illustrator 22.0.1, SVG Export Plug-In . SVG Version: 6.00 Build 0)  -->
<svg version="1.1" id="Ebene_1" xmlns="http://www.w3.org/2000/svg" xmlns:xlink="http://www.w3.org/1999/xlink" x="0px" y="0px"
	 viewBox="0 0 566 108" style="enable-background:new 0 0 566 108;" xml:space="preserve">
<style type="text/css">
	.st0{fill:none;stroke:#FFFFFF;stroke-width:2;stroke-linejoin:round;stroke-miterlimit:10;}
	.st1{fill:none;stroke:#FFFFFF;stroke-width:2;stroke-linejoin:round;stroke-miterlimit:10;stroke-dasharray:3,3;}
</style>
<g>
	<g id="PqbEY2.tif_2_">
		<g>
			<path class="st0" d="M274.7,100.4c0-1.2-0.2-2.2-0.2-3.4c0-1,0.2-2,0.4-3c0.8-1.8,1.8-2,3.4-1.8c4.2,0.4,8.2,1,12.2,1
				c4.4,0,5.6-1.2,5.6-5.9c0-0.8-0.2-1.8,0-2.4c0.2-1,0.8-2,1.2-3c0.4-1,1-2,0.2-2.4c-1.2-0.8-1.5-2.4,0.2-3.2
				c0.8-0.8,0.4-1.2,0.2-2.2c-0.4-1-0.8-2.2-1-3.2c-0.2-1.5,0.2-2.2,1.8-2.8c1-0.2,2.2-0.4,3.4-0.8c2-0.2,2.4-1.2,1.8-3
				c-1-2.2-2-4.4-3-6.6c-0.4-1.2-1-2.8-1.2-3.9c-0.4-1.8-0.4-3.4,0.2-5c1.5-4.2,1.5-8.4,0.2-12.6c-1.2-5-3.2-9.8-5.6-14.2
				c-5.2-8.4-12.8-12.6-22.2-14c-9.4-1-18.7,0-27.2,3.4c-10,3.9-16.8,11.1-18.7,21.8c-1.5,8.2-0.2,16,2.2,23.6
				c1.2,3.7,3,7.2,3.9,10.6c1.5,5,1.2,10.4,0.8,15.4c-0.4,5.4-1.2,10.6-1.8,16c0,0.4,0,0.8,0,1.2
				C246.1,100.4,260.5,100.4,274.7,100.4z"/>
		</g>
	</g>
	<line class="st1" x1="344" y1="47.2" x2="280.4" y2="47.2"/>
	<line class="st0" x1="344" y1="42.9" x2="344" y2="51.2"/>
</g>
</svg>
